%TF.GenerationSoftware,KiCad,Pcbnew,(5.1.8)-1*%
%TF.CreationDate,2020-12-25T12:52:01+03:00*%
%TF.ProjectId,mesp240_3Dpad,6d657370-3234-4305-9f33-447061642e6b,rev?*%
%TF.SameCoordinates,Original*%
%TF.FileFunction,Soldermask,Top*%
%TF.FilePolarity,Negative*%
%FSLAX46Y46*%
G04 Gerber Fmt 4.6, Leading zero omitted, Abs format (unit mm)*
G04 Created by KiCad (PCBNEW (5.1.8)-1) date 2020-12-25 12:52:01*
%MOMM*%
%LPD*%
G01*
G04 APERTURE LIST*
%ADD10O,3.048000X1.850000*%
%ADD11C,1.778000*%
%ADD12C,2.286000*%
%ADD13O,1.700000X1.700000*%
%ADD14R,1.700000X1.700000*%
%ADD15O,1.000000X1.000000*%
%ADD16R,1.000000X1.000000*%
G04 APERTURE END LIST*
D10*
%TO.C,SW1*%
X87177900Y-121843000D03*
X87177900Y-116843000D03*
X99677900Y-121843000D03*
X99677900Y-116843000D03*
%TD*%
D11*
%TO.C,U3*%
X159923000Y-138270000D03*
X159923000Y-135730000D03*
X159923000Y-133190000D03*
D12*
X177703000Y-129062500D03*
X177703000Y-142397500D03*
X162463000Y-142397500D03*
X162463000Y-129062500D03*
D11*
X172623000Y-145890000D03*
X170083000Y-145890000D03*
X167543000Y-145890000D03*
X173258000Y-128110000D03*
X166908000Y-128110000D03*
X173258000Y-123030000D03*
X166908000Y-123030000D03*
%TD*%
%TO.C,U1*%
X102512000Y-138504000D03*
X102512000Y-135964000D03*
X102512000Y-133424000D03*
D12*
X120292000Y-129296500D03*
X120292000Y-142631500D03*
X105052000Y-142631500D03*
X105052000Y-129296500D03*
D11*
X115212000Y-146124000D03*
X112672000Y-146124000D03*
X110132000Y-146124000D03*
X115847000Y-128344000D03*
X109497000Y-128344000D03*
X115847000Y-123264000D03*
X109497000Y-123264000D03*
%TD*%
D10*
%TO.C,SW8*%
X183548000Y-122196000D03*
X183548000Y-117196000D03*
X196048000Y-122196000D03*
X196048000Y-117196000D03*
%TD*%
%TO.C,SW7*%
X183548000Y-96795600D03*
X183548000Y-91795600D03*
X196048000Y-96795600D03*
X196048000Y-91795600D03*
%TD*%
%TO.C,SW6*%
X170848000Y-109496000D03*
X170848000Y-104496000D03*
X183348000Y-109496000D03*
X183348000Y-104496000D03*
%TD*%
%TO.C,SW5*%
X196248000Y-109496000D03*
X196248000Y-104496000D03*
X208748000Y-109496000D03*
X208748000Y-104496000D03*
%TD*%
%TO.C,SW4*%
X87177900Y-96442500D03*
X87177900Y-91442500D03*
X99677900Y-96442500D03*
X99677900Y-91442500D03*
%TD*%
%TO.C,SW3*%
X99877900Y-109143000D03*
X99877900Y-104143000D03*
X112377900Y-109143000D03*
X112377900Y-104143000D03*
%TD*%
%TO.C,SW2*%
X74477900Y-109143000D03*
X74477900Y-104143000D03*
X86977900Y-109143000D03*
X86977900Y-104143000D03*
%TD*%
D13*
%TO.C,J3*%
X137922000Y-98806000D03*
D14*
X137922000Y-101346000D03*
%TD*%
D15*
%TO.C,J2*%
X152400000Y-118110000D03*
X152400000Y-116840000D03*
X152400000Y-115570000D03*
X152400000Y-114300000D03*
X152400000Y-113030000D03*
X152400000Y-111760000D03*
X152400000Y-110490000D03*
X152400000Y-109220000D03*
X152400000Y-107950000D03*
X152400000Y-106680000D03*
X152400000Y-105410000D03*
X152400000Y-104140000D03*
X152400000Y-102870000D03*
X152400000Y-101600000D03*
X152400000Y-100330000D03*
X152400000Y-99060000D03*
X152400000Y-97790000D03*
X152400000Y-96520000D03*
X152400000Y-95250000D03*
X152400000Y-93980000D03*
X152400000Y-92710000D03*
X152400000Y-91440000D03*
X152400000Y-90170000D03*
D16*
X152400000Y-88900000D03*
%TD*%
D15*
%TO.C,J1*%
X129540000Y-107950000D03*
X129540000Y-106680000D03*
X129540000Y-105410000D03*
X129540000Y-104140000D03*
X129540000Y-102870000D03*
X129540000Y-101600000D03*
X129540000Y-100330000D03*
X129540000Y-99060000D03*
X129540000Y-97790000D03*
X129540000Y-96520000D03*
X129540000Y-95250000D03*
X129540000Y-93980000D03*
X129540000Y-92710000D03*
X129540000Y-91440000D03*
X129540000Y-90170000D03*
D16*
X129540000Y-88900000D03*
%TD*%
M02*
