%TF.GenerationSoftware,KiCad,Pcbnew,(5.1.8)-1*%
%TF.CreationDate,2020-12-25T12:52:01+03:00*%
%TF.ProjectId,mesp240_3Dpad,6d657370-3234-4305-9f33-447061642e6b,rev?*%
%TF.SameCoordinates,Original*%
%TF.FileFunction,Paste,Bot*%
%TF.FilePolarity,Positive*%
%FSLAX46Y46*%
G04 Gerber Fmt 4.6, Leading zero omitted, Abs format (unit mm)*
G04 Created by KiCad (PCBNEW (5.1.8)-1) date 2020-12-25 12:52:01*
%MOMM*%
%LPD*%
G01*
G04 APERTURE LIST*
%ADD10C,0.100000*%
%ADD11R,0.900000X0.800000*%
G04 APERTURE END LIST*
%TO.C,C12*%
G36*
G01*
X161962000Y-124747000D02*
X161962000Y-125697000D01*
G75*
G02*
X161712000Y-125947000I-250000J0D01*
G01*
X161037000Y-125947000D01*
G75*
G02*
X160787000Y-125697000I0J250000D01*
G01*
X160787000Y-124747000D01*
G75*
G02*
X161037000Y-124497000I250000J0D01*
G01*
X161712000Y-124497000D01*
G75*
G02*
X161962000Y-124747000I0J-250000D01*
G01*
G37*
G36*
G01*
X164037000Y-124747000D02*
X164037000Y-125697000D01*
G75*
G02*
X163787000Y-125947000I-250000J0D01*
G01*
X163112000Y-125947000D01*
G75*
G02*
X162862000Y-125697000I0J250000D01*
G01*
X162862000Y-124747000D01*
G75*
G02*
X163112000Y-124497000I250000J0D01*
G01*
X163787000Y-124497000D01*
G75*
G02*
X164037000Y-124747000I0J-250000D01*
G01*
G37*
%TD*%
%TO.C,C11*%
G36*
G01*
X104558000Y-124874000D02*
X104558000Y-125824000D01*
G75*
G02*
X104308000Y-126074000I-250000J0D01*
G01*
X103633000Y-126074000D01*
G75*
G02*
X103383000Y-125824000I0J250000D01*
G01*
X103383000Y-124874000D01*
G75*
G02*
X103633000Y-124624000I250000J0D01*
G01*
X104308000Y-124624000D01*
G75*
G02*
X104558000Y-124874000I0J-250000D01*
G01*
G37*
G36*
G01*
X106633000Y-124874000D02*
X106633000Y-125824000D01*
G75*
G02*
X106383000Y-126074000I-250000J0D01*
G01*
X105708000Y-126074000D01*
G75*
G02*
X105458000Y-125824000I0J250000D01*
G01*
X105458000Y-124874000D01*
G75*
G02*
X105708000Y-124624000I250000J0D01*
G01*
X106383000Y-124624000D01*
G75*
G02*
X106633000Y-124874000I0J-250000D01*
G01*
G37*
%TD*%
D10*
%TO.C,U2*%
G36*
X140596632Y-88990941D02*
G01*
X140610701Y-88995209D01*
X140623668Y-89002140D01*
X140635033Y-89011467D01*
X140644360Y-89022832D01*
X140651291Y-89035799D01*
X140655559Y-89049868D01*
X140657000Y-89064500D01*
X140657000Y-89539500D01*
X140655559Y-89554132D01*
X140651291Y-89568201D01*
X140644360Y-89581168D01*
X140635033Y-89592533D01*
X140623668Y-89601860D01*
X140610701Y-89608791D01*
X140596632Y-89613059D01*
X140582000Y-89614500D01*
X140332000Y-89614500D01*
X140317368Y-89613059D01*
X140303299Y-89608791D01*
X140290332Y-89601860D01*
X140278967Y-89592533D01*
X140269640Y-89581168D01*
X140262709Y-89568201D01*
X140258441Y-89554132D01*
X140257000Y-89539500D01*
X140257000Y-89270566D01*
X140258441Y-89255934D01*
X140262709Y-89241865D01*
X140269640Y-89228898D01*
X140278967Y-89217533D01*
X140485033Y-89011467D01*
X140496398Y-89002140D01*
X140509365Y-88995209D01*
X140523434Y-88990941D01*
X140538066Y-88989500D01*
X140582000Y-88989500D01*
X140596632Y-88990941D01*
G37*
G36*
G01*
X140757000Y-89514500D02*
X140757000Y-89089500D01*
G75*
G02*
X140857000Y-88989500I100000J0D01*
G01*
X141057000Y-88989500D01*
G75*
G02*
X141157000Y-89089500I0J-100000D01*
G01*
X141157000Y-89514500D01*
G75*
G02*
X141057000Y-89614500I-100000J0D01*
G01*
X140857000Y-89614500D01*
G75*
G02*
X140757000Y-89514500I0J100000D01*
G01*
G37*
G36*
X141390566Y-88990941D02*
G01*
X141404635Y-88995209D01*
X141417602Y-89002140D01*
X141428967Y-89011467D01*
X141635033Y-89217533D01*
X141644360Y-89228898D01*
X141651291Y-89241865D01*
X141655559Y-89255934D01*
X141657000Y-89270566D01*
X141657000Y-89539500D01*
X141655559Y-89554132D01*
X141651291Y-89568201D01*
X141644360Y-89581168D01*
X141635033Y-89592533D01*
X141623668Y-89601860D01*
X141610701Y-89608791D01*
X141596632Y-89613059D01*
X141582000Y-89614500D01*
X141332000Y-89614500D01*
X141317368Y-89613059D01*
X141303299Y-89608791D01*
X141290332Y-89601860D01*
X141278967Y-89592533D01*
X141269640Y-89581168D01*
X141262709Y-89568201D01*
X141258441Y-89554132D01*
X141257000Y-89539500D01*
X141257000Y-89064500D01*
X141258441Y-89049868D01*
X141262709Y-89035799D01*
X141269640Y-89022832D01*
X141278967Y-89011467D01*
X141290332Y-89002140D01*
X141303299Y-88995209D01*
X141317368Y-88990941D01*
X141332000Y-88989500D01*
X141375934Y-88989500D01*
X141390566Y-88990941D01*
G37*
G36*
X142371632Y-88940941D02*
G01*
X142385701Y-88945209D01*
X142398668Y-88952140D01*
X142410033Y-88961467D01*
X142419360Y-88972832D01*
X142426291Y-88985799D01*
X142430559Y-88999868D01*
X142432000Y-89014500D01*
X142432000Y-89264500D01*
X142430559Y-89279132D01*
X142426291Y-89293201D01*
X142419360Y-89306168D01*
X142410033Y-89317533D01*
X142398668Y-89326860D01*
X142385701Y-89333791D01*
X142371632Y-89338059D01*
X142357000Y-89339500D01*
X142088066Y-89339500D01*
X142073434Y-89338059D01*
X142059365Y-89333791D01*
X142046398Y-89326860D01*
X142035033Y-89317533D01*
X141828967Y-89111467D01*
X141819640Y-89100102D01*
X141812709Y-89087135D01*
X141808441Y-89073066D01*
X141807000Y-89058434D01*
X141807000Y-89014500D01*
X141808441Y-88999868D01*
X141812709Y-88985799D01*
X141819640Y-88972832D01*
X141828967Y-88961467D01*
X141840332Y-88952140D01*
X141853299Y-88945209D01*
X141867368Y-88940941D01*
X141882000Y-88939500D01*
X142357000Y-88939500D01*
X142371632Y-88940941D01*
G37*
G36*
G01*
X141807000Y-88739500D02*
X141807000Y-88539500D01*
G75*
G02*
X141907000Y-88439500I100000J0D01*
G01*
X142332000Y-88439500D01*
G75*
G02*
X142432000Y-88539500I0J-100000D01*
G01*
X142432000Y-88739500D01*
G75*
G02*
X142332000Y-88839500I-100000J0D01*
G01*
X141907000Y-88839500D01*
G75*
G02*
X141807000Y-88739500I0J100000D01*
G01*
G37*
G36*
G01*
X141807000Y-88239500D02*
X141807000Y-88039500D01*
G75*
G02*
X141907000Y-87939500I100000J0D01*
G01*
X142332000Y-87939500D01*
G75*
G02*
X142432000Y-88039500I0J-100000D01*
G01*
X142432000Y-88239500D01*
G75*
G02*
X142332000Y-88339500I-100000J0D01*
G01*
X141907000Y-88339500D01*
G75*
G02*
X141807000Y-88239500I0J100000D01*
G01*
G37*
G36*
X142371632Y-87440941D02*
G01*
X142385701Y-87445209D01*
X142398668Y-87452140D01*
X142410033Y-87461467D01*
X142419360Y-87472832D01*
X142426291Y-87485799D01*
X142430559Y-87499868D01*
X142432000Y-87514500D01*
X142432000Y-87764500D01*
X142430559Y-87779132D01*
X142426291Y-87793201D01*
X142419360Y-87806168D01*
X142410033Y-87817533D01*
X142398668Y-87826860D01*
X142385701Y-87833791D01*
X142371632Y-87838059D01*
X142357000Y-87839500D01*
X141882000Y-87839500D01*
X141867368Y-87838059D01*
X141853299Y-87833791D01*
X141840332Y-87826860D01*
X141828967Y-87817533D01*
X141819640Y-87806168D01*
X141812709Y-87793201D01*
X141808441Y-87779132D01*
X141807000Y-87764500D01*
X141807000Y-87720566D01*
X141808441Y-87705934D01*
X141812709Y-87691865D01*
X141819640Y-87678898D01*
X141828967Y-87667533D01*
X142035033Y-87461467D01*
X142046398Y-87452140D01*
X142059365Y-87445209D01*
X142073434Y-87440941D01*
X142088066Y-87439500D01*
X142357000Y-87439500D01*
X142371632Y-87440941D01*
G37*
G36*
X141596632Y-87165941D02*
G01*
X141610701Y-87170209D01*
X141623668Y-87177140D01*
X141635033Y-87186467D01*
X141644360Y-87197832D01*
X141651291Y-87210799D01*
X141655559Y-87224868D01*
X141657000Y-87239500D01*
X141657000Y-87508434D01*
X141655559Y-87523066D01*
X141651291Y-87537135D01*
X141644360Y-87550102D01*
X141635033Y-87561467D01*
X141428967Y-87767533D01*
X141417602Y-87776860D01*
X141404635Y-87783791D01*
X141390566Y-87788059D01*
X141375934Y-87789500D01*
X141332000Y-87789500D01*
X141317368Y-87788059D01*
X141303299Y-87783791D01*
X141290332Y-87776860D01*
X141278967Y-87767533D01*
X141269640Y-87756168D01*
X141262709Y-87743201D01*
X141258441Y-87729132D01*
X141257000Y-87714500D01*
X141257000Y-87239500D01*
X141258441Y-87224868D01*
X141262709Y-87210799D01*
X141269640Y-87197832D01*
X141278967Y-87186467D01*
X141290332Y-87177140D01*
X141303299Y-87170209D01*
X141317368Y-87165941D01*
X141332000Y-87164500D01*
X141582000Y-87164500D01*
X141596632Y-87165941D01*
G37*
G36*
G01*
X140757000Y-87689500D02*
X140757000Y-87264500D01*
G75*
G02*
X140857000Y-87164500I100000J0D01*
G01*
X141057000Y-87164500D01*
G75*
G02*
X141157000Y-87264500I0J-100000D01*
G01*
X141157000Y-87689500D01*
G75*
G02*
X141057000Y-87789500I-100000J0D01*
G01*
X140857000Y-87789500D01*
G75*
G02*
X140757000Y-87689500I0J100000D01*
G01*
G37*
G36*
X140596632Y-87165941D02*
G01*
X140610701Y-87170209D01*
X140623668Y-87177140D01*
X140635033Y-87186467D01*
X140644360Y-87197832D01*
X140651291Y-87210799D01*
X140655559Y-87224868D01*
X140657000Y-87239500D01*
X140657000Y-87714500D01*
X140655559Y-87729132D01*
X140651291Y-87743201D01*
X140644360Y-87756168D01*
X140635033Y-87767533D01*
X140623668Y-87776860D01*
X140610701Y-87783791D01*
X140596632Y-87788059D01*
X140582000Y-87789500D01*
X140538066Y-87789500D01*
X140523434Y-87788059D01*
X140509365Y-87783791D01*
X140496398Y-87776860D01*
X140485033Y-87767533D01*
X140278967Y-87561467D01*
X140269640Y-87550102D01*
X140262709Y-87537135D01*
X140258441Y-87523066D01*
X140257000Y-87508434D01*
X140257000Y-87239500D01*
X140258441Y-87224868D01*
X140262709Y-87210799D01*
X140269640Y-87197832D01*
X140278967Y-87186467D01*
X140290332Y-87177140D01*
X140303299Y-87170209D01*
X140317368Y-87165941D01*
X140332000Y-87164500D01*
X140582000Y-87164500D01*
X140596632Y-87165941D01*
G37*
G36*
X139840566Y-87440941D02*
G01*
X139854635Y-87445209D01*
X139867602Y-87452140D01*
X139878967Y-87461467D01*
X140085033Y-87667533D01*
X140094360Y-87678898D01*
X140101291Y-87691865D01*
X140105559Y-87705934D01*
X140107000Y-87720566D01*
X140107000Y-87764500D01*
X140105559Y-87779132D01*
X140101291Y-87793201D01*
X140094360Y-87806168D01*
X140085033Y-87817533D01*
X140073668Y-87826860D01*
X140060701Y-87833791D01*
X140046632Y-87838059D01*
X140032000Y-87839500D01*
X139557000Y-87839500D01*
X139542368Y-87838059D01*
X139528299Y-87833791D01*
X139515332Y-87826860D01*
X139503967Y-87817533D01*
X139494640Y-87806168D01*
X139487709Y-87793201D01*
X139483441Y-87779132D01*
X139482000Y-87764500D01*
X139482000Y-87514500D01*
X139483441Y-87499868D01*
X139487709Y-87485799D01*
X139494640Y-87472832D01*
X139503967Y-87461467D01*
X139515332Y-87452140D01*
X139528299Y-87445209D01*
X139542368Y-87440941D01*
X139557000Y-87439500D01*
X139825934Y-87439500D01*
X139840566Y-87440941D01*
G37*
G36*
G01*
X139482000Y-88239500D02*
X139482000Y-88039500D01*
G75*
G02*
X139582000Y-87939500I100000J0D01*
G01*
X140007000Y-87939500D01*
G75*
G02*
X140107000Y-88039500I0J-100000D01*
G01*
X140107000Y-88239500D01*
G75*
G02*
X140007000Y-88339500I-100000J0D01*
G01*
X139582000Y-88339500D01*
G75*
G02*
X139482000Y-88239500I0J100000D01*
G01*
G37*
G36*
G01*
X139482000Y-88739500D02*
X139482000Y-88539500D01*
G75*
G02*
X139582000Y-88439500I100000J0D01*
G01*
X140007000Y-88439500D01*
G75*
G02*
X140107000Y-88539500I0J-100000D01*
G01*
X140107000Y-88739500D01*
G75*
G02*
X140007000Y-88839500I-100000J0D01*
G01*
X139582000Y-88839500D01*
G75*
G02*
X139482000Y-88739500I0J100000D01*
G01*
G37*
G36*
X140046632Y-88940941D02*
G01*
X140060701Y-88945209D01*
X140073668Y-88952140D01*
X140085033Y-88961467D01*
X140094360Y-88972832D01*
X140101291Y-88985799D01*
X140105559Y-88999868D01*
X140107000Y-89014500D01*
X140107000Y-89058434D01*
X140105559Y-89073066D01*
X140101291Y-89087135D01*
X140094360Y-89100102D01*
X140085033Y-89111467D01*
X139878967Y-89317533D01*
X139867602Y-89326860D01*
X139854635Y-89333791D01*
X139840566Y-89338059D01*
X139825934Y-89339500D01*
X139557000Y-89339500D01*
X139542368Y-89338059D01*
X139528299Y-89333791D01*
X139515332Y-89326860D01*
X139503967Y-89317533D01*
X139494640Y-89306168D01*
X139487709Y-89293201D01*
X139483441Y-89279132D01*
X139482000Y-89264500D01*
X139482000Y-89014500D01*
X139483441Y-88999868D01*
X139487709Y-88985799D01*
X139494640Y-88972832D01*
X139503967Y-88961467D01*
X139515332Y-88952140D01*
X139528299Y-88945209D01*
X139542368Y-88940941D01*
X139557000Y-88939500D01*
X140032000Y-88939500D01*
X140046632Y-88940941D01*
G37*
%TD*%
%TO.C,R14*%
G36*
G01*
X141938000Y-91170299D02*
X141938000Y-92070301D01*
G75*
G02*
X141688001Y-92320300I-249999J0D01*
G01*
X140987999Y-92320300D01*
G75*
G02*
X140738000Y-92070301I0J249999D01*
G01*
X140738000Y-91170299D01*
G75*
G02*
X140987999Y-90920300I249999J0D01*
G01*
X141688001Y-90920300D01*
G75*
G02*
X141938000Y-91170299I0J-249999D01*
G01*
G37*
G36*
G01*
X143938000Y-91170299D02*
X143938000Y-92070301D01*
G75*
G02*
X143688001Y-92320300I-249999J0D01*
G01*
X142987999Y-92320300D01*
G75*
G02*
X142738000Y-92070301I0J249999D01*
G01*
X142738000Y-91170299D01*
G75*
G02*
X142987999Y-90920300I249999J0D01*
G01*
X143688001Y-90920300D01*
G75*
G02*
X143938000Y-91170299I0J-249999D01*
G01*
G37*
%TD*%
%TO.C,R13*%
G36*
G01*
X138930000Y-92024601D02*
X138930000Y-91124599D01*
G75*
G02*
X139179999Y-90874600I249999J0D01*
G01*
X139880001Y-90874600D01*
G75*
G02*
X140130000Y-91124599I0J-249999D01*
G01*
X140130000Y-92024601D01*
G75*
G02*
X139880001Y-92274600I-249999J0D01*
G01*
X139179999Y-92274600D01*
G75*
G02*
X138930000Y-92024601I0J249999D01*
G01*
G37*
G36*
G01*
X136930000Y-92024601D02*
X136930000Y-91124599D01*
G75*
G02*
X137179999Y-90874600I249999J0D01*
G01*
X137880001Y-90874600D01*
G75*
G02*
X138130000Y-91124599I0J-249999D01*
G01*
X138130000Y-92024601D01*
G75*
G02*
X137880001Y-92274600I-249999J0D01*
G01*
X137179999Y-92274600D01*
G75*
G02*
X136930000Y-92024601I0J249999D01*
G01*
G37*
%TD*%
%TO.C,R12*%
G36*
G01*
X162817000Y-123513001D02*
X162817000Y-122612999D01*
G75*
G02*
X163066999Y-122363000I249999J0D01*
G01*
X163767001Y-122363000D01*
G75*
G02*
X164017000Y-122612999I0J-249999D01*
G01*
X164017000Y-123513001D01*
G75*
G02*
X163767001Y-123763000I-249999J0D01*
G01*
X163066999Y-123763000D01*
G75*
G02*
X162817000Y-123513001I0J249999D01*
G01*
G37*
G36*
G01*
X160817000Y-123513001D02*
X160817000Y-122612999D01*
G75*
G02*
X161066999Y-122363000I249999J0D01*
G01*
X161767001Y-122363000D01*
G75*
G02*
X162017000Y-122612999I0J-249999D01*
G01*
X162017000Y-123513001D01*
G75*
G02*
X161767001Y-123763000I-249999J0D01*
G01*
X161066999Y-123763000D01*
G75*
G02*
X160817000Y-123513001I0J249999D01*
G01*
G37*
%TD*%
%TO.C,R11*%
G36*
G01*
X105445000Y-123640001D02*
X105445000Y-122739999D01*
G75*
G02*
X105694999Y-122490000I249999J0D01*
G01*
X106395001Y-122490000D01*
G75*
G02*
X106645000Y-122739999I0J-249999D01*
G01*
X106645000Y-123640001D01*
G75*
G02*
X106395001Y-123890000I-249999J0D01*
G01*
X105694999Y-123890000D01*
G75*
G02*
X105445000Y-123640001I0J249999D01*
G01*
G37*
G36*
G01*
X103445000Y-123640001D02*
X103445000Y-122739999D01*
G75*
G02*
X103694999Y-122490000I249999J0D01*
G01*
X104395001Y-122490000D01*
G75*
G02*
X104645000Y-122739999I0J-249999D01*
G01*
X104645000Y-123640001D01*
G75*
G02*
X104395001Y-123890000I-249999J0D01*
G01*
X103694999Y-123890000D01*
G75*
G02*
X103445000Y-123640001I0J249999D01*
G01*
G37*
%TD*%
%TO.C,C10*%
G36*
G01*
X138629000Y-85021400D02*
X138629000Y-85971400D01*
G75*
G02*
X138379000Y-86221400I-250000J0D01*
G01*
X137704000Y-86221400D01*
G75*
G02*
X137454000Y-85971400I0J250000D01*
G01*
X137454000Y-85021400D01*
G75*
G02*
X137704000Y-84771400I250000J0D01*
G01*
X138379000Y-84771400D01*
G75*
G02*
X138629000Y-85021400I0J-250000D01*
G01*
G37*
G36*
G01*
X140704000Y-85021400D02*
X140704000Y-85971400D01*
G75*
G02*
X140454000Y-86221400I-250000J0D01*
G01*
X139779000Y-86221400D01*
G75*
G02*
X139529000Y-85971400I0J250000D01*
G01*
X139529000Y-85021400D01*
G75*
G02*
X139779000Y-84771400I250000J0D01*
G01*
X140454000Y-84771400D01*
G75*
G02*
X140704000Y-85021400I0J-250000D01*
G01*
G37*
%TD*%
%TO.C,C9*%
G36*
G01*
X145282000Y-87256600D02*
X145282000Y-86306600D01*
G75*
G02*
X145532000Y-86056600I250000J0D01*
G01*
X146207000Y-86056600D01*
G75*
G02*
X146457000Y-86306600I0J-250000D01*
G01*
X146457000Y-87256600D01*
G75*
G02*
X146207000Y-87506600I-250000J0D01*
G01*
X145532000Y-87506600D01*
G75*
G02*
X145282000Y-87256600I0J250000D01*
G01*
G37*
G36*
G01*
X143207000Y-87256600D02*
X143207000Y-86306600D01*
G75*
G02*
X143457000Y-86056600I250000J0D01*
G01*
X144132000Y-86056600D01*
G75*
G02*
X144382000Y-86306600I0J-250000D01*
G01*
X144382000Y-87256600D01*
G75*
G02*
X144132000Y-87506600I-250000J0D01*
G01*
X143457000Y-87506600D01*
G75*
G02*
X143207000Y-87256600I0J250000D01*
G01*
G37*
%TD*%
%TO.C,R10*%
G36*
G01*
X142468040Y-102080481D02*
X142468040Y-101180479D01*
G75*
G02*
X142718039Y-100930480I249999J0D01*
G01*
X143418041Y-100930480D01*
G75*
G02*
X143668040Y-101180479I0J-249999D01*
G01*
X143668040Y-102080481D01*
G75*
G02*
X143418041Y-102330480I-249999J0D01*
G01*
X142718039Y-102330480D01*
G75*
G02*
X142468040Y-102080481I0J249999D01*
G01*
G37*
G36*
G01*
X140468040Y-102080481D02*
X140468040Y-101180479D01*
G75*
G02*
X140718039Y-100930480I249999J0D01*
G01*
X141418041Y-100930480D01*
G75*
G02*
X141668040Y-101180479I0J-249999D01*
G01*
X141668040Y-102080481D01*
G75*
G02*
X141418041Y-102330480I-249999J0D01*
G01*
X140718039Y-102330480D01*
G75*
G02*
X140468040Y-102080481I0J249999D01*
G01*
G37*
%TD*%
%TO.C,R9*%
G36*
G01*
X146652000Y-98240001D02*
X146652000Y-97339999D01*
G75*
G02*
X146901999Y-97090000I249999J0D01*
G01*
X147602001Y-97090000D01*
G75*
G02*
X147852000Y-97339999I0J-249999D01*
G01*
X147852000Y-98240001D01*
G75*
G02*
X147602001Y-98490000I-249999J0D01*
G01*
X146901999Y-98490000D01*
G75*
G02*
X146652000Y-98240001I0J249999D01*
G01*
G37*
G36*
G01*
X144652000Y-98240001D02*
X144652000Y-97339999D01*
G75*
G02*
X144901999Y-97090000I249999J0D01*
G01*
X145602001Y-97090000D01*
G75*
G02*
X145852000Y-97339999I0J-249999D01*
G01*
X145852000Y-98240001D01*
G75*
G02*
X145602001Y-98490000I-249999J0D01*
G01*
X144901999Y-98490000D01*
G75*
G02*
X144652000Y-98240001I0J249999D01*
G01*
G37*
%TD*%
%TO.C,R8*%
G36*
G01*
X187755000Y-117569001D02*
X187755000Y-116668999D01*
G75*
G02*
X188004999Y-116419000I249999J0D01*
G01*
X188705001Y-116419000D01*
G75*
G02*
X188955000Y-116668999I0J-249999D01*
G01*
X188955000Y-117569001D01*
G75*
G02*
X188705001Y-117819000I-249999J0D01*
G01*
X188004999Y-117819000D01*
G75*
G02*
X187755000Y-117569001I0J249999D01*
G01*
G37*
G36*
G01*
X185755000Y-117569001D02*
X185755000Y-116668999D01*
G75*
G02*
X186004999Y-116419000I249999J0D01*
G01*
X186705001Y-116419000D01*
G75*
G02*
X186955000Y-116668999I0J-249999D01*
G01*
X186955000Y-117569001D01*
G75*
G02*
X186705001Y-117819000I-249999J0D01*
G01*
X186004999Y-117819000D01*
G75*
G02*
X185755000Y-117569001I0J249999D01*
G01*
G37*
%TD*%
%TO.C,R7*%
G36*
G01*
X175041000Y-104971001D02*
X175041000Y-104070999D01*
G75*
G02*
X175290999Y-103821000I249999J0D01*
G01*
X175991001Y-103821000D01*
G75*
G02*
X176241000Y-104070999I0J-249999D01*
G01*
X176241000Y-104971001D01*
G75*
G02*
X175991001Y-105221000I-249999J0D01*
G01*
X175290999Y-105221000D01*
G75*
G02*
X175041000Y-104971001I0J249999D01*
G01*
G37*
G36*
G01*
X173041000Y-104971001D02*
X173041000Y-104070999D01*
G75*
G02*
X173290999Y-103821000I249999J0D01*
G01*
X173991001Y-103821000D01*
G75*
G02*
X174241000Y-104070999I0J-249999D01*
G01*
X174241000Y-104971001D01*
G75*
G02*
X173991001Y-105221000I-249999J0D01*
G01*
X173290999Y-105221000D01*
G75*
G02*
X173041000Y-104971001I0J249999D01*
G01*
G37*
%TD*%
%TO.C,R6*%
G36*
G01*
X200386000Y-104979001D02*
X200386000Y-104078999D01*
G75*
G02*
X200635999Y-103829000I249999J0D01*
G01*
X201336001Y-103829000D01*
G75*
G02*
X201586000Y-104078999I0J-249999D01*
G01*
X201586000Y-104979001D01*
G75*
G02*
X201336001Y-105229000I-249999J0D01*
G01*
X200635999Y-105229000D01*
G75*
G02*
X200386000Y-104979001I0J249999D01*
G01*
G37*
G36*
G01*
X198386000Y-104979001D02*
X198386000Y-104078999D01*
G75*
G02*
X198635999Y-103829000I249999J0D01*
G01*
X199336001Y-103829000D01*
G75*
G02*
X199586000Y-104078999I0J-249999D01*
G01*
X199586000Y-104979001D01*
G75*
G02*
X199336001Y-105229000I-249999J0D01*
G01*
X198635999Y-105229000D01*
G75*
G02*
X198386000Y-104979001I0J249999D01*
G01*
G37*
%TD*%
%TO.C,R5*%
G36*
G01*
X187709000Y-92271001D02*
X187709000Y-91370999D01*
G75*
G02*
X187958999Y-91121000I249999J0D01*
G01*
X188659001Y-91121000D01*
G75*
G02*
X188909000Y-91370999I0J-249999D01*
G01*
X188909000Y-92271001D01*
G75*
G02*
X188659001Y-92521000I-249999J0D01*
G01*
X187958999Y-92521000D01*
G75*
G02*
X187709000Y-92271001I0J249999D01*
G01*
G37*
G36*
G01*
X185709000Y-92271001D02*
X185709000Y-91370999D01*
G75*
G02*
X185958999Y-91121000I249999J0D01*
G01*
X186659001Y-91121000D01*
G75*
G02*
X186909000Y-91370999I0J-249999D01*
G01*
X186909000Y-92271001D01*
G75*
G02*
X186659001Y-92521000I-249999J0D01*
G01*
X185958999Y-92521000D01*
G75*
G02*
X185709000Y-92271001I0J249999D01*
G01*
G37*
%TD*%
%TO.C,R4*%
G36*
G01*
X91221000Y-91905201D02*
X91221000Y-91005199D01*
G75*
G02*
X91470999Y-90755200I249999J0D01*
G01*
X92171001Y-90755200D01*
G75*
G02*
X92421000Y-91005199I0J-249999D01*
G01*
X92421000Y-91905201D01*
G75*
G02*
X92171001Y-92155200I-249999J0D01*
G01*
X91470999Y-92155200D01*
G75*
G02*
X91221000Y-91905201I0J249999D01*
G01*
G37*
G36*
G01*
X89221000Y-91905201D02*
X89221000Y-91005199D01*
G75*
G02*
X89470999Y-90755200I249999J0D01*
G01*
X90171001Y-90755200D01*
G75*
G02*
X90421000Y-91005199I0J-249999D01*
G01*
X90421000Y-91905201D01*
G75*
G02*
X90171001Y-92155200I-249999J0D01*
G01*
X89470999Y-92155200D01*
G75*
G02*
X89221000Y-91905201I0J249999D01*
G01*
G37*
%TD*%
%TO.C,R3*%
G36*
G01*
X70355000Y-103689999D02*
X70355000Y-104590001D01*
G75*
G02*
X70105001Y-104840000I-249999J0D01*
G01*
X69404999Y-104840000D01*
G75*
G02*
X69155000Y-104590001I0J249999D01*
G01*
X69155000Y-103689999D01*
G75*
G02*
X69404999Y-103440000I249999J0D01*
G01*
X70105001Y-103440000D01*
G75*
G02*
X70355000Y-103689999I0J-249999D01*
G01*
G37*
G36*
G01*
X72355000Y-103689999D02*
X72355000Y-104590001D01*
G75*
G02*
X72105001Y-104840000I-249999J0D01*
G01*
X71404999Y-104840000D01*
G75*
G02*
X71155000Y-104590001I0J249999D01*
G01*
X71155000Y-103689999D01*
G75*
G02*
X71404999Y-103440000I249999J0D01*
G01*
X72105001Y-103440000D01*
G75*
G02*
X72355000Y-103689999I0J-249999D01*
G01*
G37*
%TD*%
%TO.C,R2*%
G36*
G01*
X103658000Y-117280001D02*
X103658000Y-116379999D01*
G75*
G02*
X103907999Y-116130000I249999J0D01*
G01*
X104608001Y-116130000D01*
G75*
G02*
X104858000Y-116379999I0J-249999D01*
G01*
X104858000Y-117280001D01*
G75*
G02*
X104608001Y-117530000I-249999J0D01*
G01*
X103907999Y-117530000D01*
G75*
G02*
X103658000Y-117280001I0J249999D01*
G01*
G37*
G36*
G01*
X101658000Y-117280001D02*
X101658000Y-116379999D01*
G75*
G02*
X101907999Y-116130000I249999J0D01*
G01*
X102608001Y-116130000D01*
G75*
G02*
X102858000Y-116379999I0J-249999D01*
G01*
X102858000Y-117280001D01*
G75*
G02*
X102608001Y-117530000I-249999J0D01*
G01*
X101907999Y-117530000D01*
G75*
G02*
X101658000Y-117280001I0J249999D01*
G01*
G37*
%TD*%
%TO.C,R1*%
G36*
G01*
X116875000Y-104590001D02*
X116875000Y-103689999D01*
G75*
G02*
X117124999Y-103440000I249999J0D01*
G01*
X117825001Y-103440000D01*
G75*
G02*
X118075000Y-103689999I0J-249999D01*
G01*
X118075000Y-104590001D01*
G75*
G02*
X117825001Y-104840000I-249999J0D01*
G01*
X117124999Y-104840000D01*
G75*
G02*
X116875000Y-104590001I0J249999D01*
G01*
G37*
G36*
G01*
X114875000Y-104590001D02*
X114875000Y-103689999D01*
G75*
G02*
X115124999Y-103440000I249999J0D01*
G01*
X115825001Y-103440000D01*
G75*
G02*
X116075000Y-103689999I0J-249999D01*
G01*
X116075000Y-104590001D01*
G75*
G02*
X115825001Y-104840000I-249999J0D01*
G01*
X115124999Y-104840000D01*
G75*
G02*
X114875000Y-104590001I0J249999D01*
G01*
G37*
%TD*%
D11*
%TO.C,Q1*%
X140986000Y-98806000D03*
X142986000Y-99756000D03*
X142986000Y-97856000D03*
%TD*%
%TO.C,C8*%
G36*
G01*
X179213000Y-116759000D02*
X179213000Y-117709000D01*
G75*
G02*
X178963000Y-117959000I-250000J0D01*
G01*
X178288000Y-117959000D01*
G75*
G02*
X178038000Y-117709000I0J250000D01*
G01*
X178038000Y-116759000D01*
G75*
G02*
X178288000Y-116509000I250000J0D01*
G01*
X178963000Y-116509000D01*
G75*
G02*
X179213000Y-116759000I0J-250000D01*
G01*
G37*
G36*
G01*
X181288000Y-116759000D02*
X181288000Y-117709000D01*
G75*
G02*
X181038000Y-117959000I-250000J0D01*
G01*
X180363000Y-117959000D01*
G75*
G02*
X180113000Y-117709000I0J250000D01*
G01*
X180113000Y-116759000D01*
G75*
G02*
X180363000Y-116509000I250000J0D01*
G01*
X181038000Y-116509000D01*
G75*
G02*
X181288000Y-116759000I0J-250000D01*
G01*
G37*
%TD*%
%TO.C,C7*%
G36*
G01*
X179276000Y-91346000D02*
X179276000Y-92296000D01*
G75*
G02*
X179026000Y-92546000I-250000J0D01*
G01*
X178351000Y-92546000D01*
G75*
G02*
X178101000Y-92296000I0J250000D01*
G01*
X178101000Y-91346000D01*
G75*
G02*
X178351000Y-91096000I250000J0D01*
G01*
X179026000Y-91096000D01*
G75*
G02*
X179276000Y-91346000I0J-250000D01*
G01*
G37*
G36*
G01*
X181351000Y-91346000D02*
X181351000Y-92296000D01*
G75*
G02*
X181101000Y-92546000I-250000J0D01*
G01*
X180426000Y-92546000D01*
G75*
G02*
X180176000Y-92296000I0J250000D01*
G01*
X180176000Y-91346000D01*
G75*
G02*
X180426000Y-91096000I250000J0D01*
G01*
X181101000Y-91096000D01*
G75*
G02*
X181351000Y-91346000I0J-250000D01*
G01*
G37*
%TD*%
%TO.C,C6*%
G36*
G01*
X166576000Y-104046000D02*
X166576000Y-104996000D01*
G75*
G02*
X166326000Y-105246000I-250000J0D01*
G01*
X165651000Y-105246000D01*
G75*
G02*
X165401000Y-104996000I0J250000D01*
G01*
X165401000Y-104046000D01*
G75*
G02*
X165651000Y-103796000I250000J0D01*
G01*
X166326000Y-103796000D01*
G75*
G02*
X166576000Y-104046000I0J-250000D01*
G01*
G37*
G36*
G01*
X168651000Y-104046000D02*
X168651000Y-104996000D01*
G75*
G02*
X168401000Y-105246000I-250000J0D01*
G01*
X167726000Y-105246000D01*
G75*
G02*
X167476000Y-104996000I0J250000D01*
G01*
X167476000Y-104046000D01*
G75*
G02*
X167726000Y-103796000I250000J0D01*
G01*
X168401000Y-103796000D01*
G75*
G02*
X168651000Y-104046000I0J-250000D01*
G01*
G37*
%TD*%
%TO.C,C5*%
G36*
G01*
X191949000Y-104010000D02*
X191949000Y-104960000D01*
G75*
G02*
X191699000Y-105210000I-250000J0D01*
G01*
X191024000Y-105210000D01*
G75*
G02*
X190774000Y-104960000I0J250000D01*
G01*
X190774000Y-104010000D01*
G75*
G02*
X191024000Y-103760000I250000J0D01*
G01*
X191699000Y-103760000D01*
G75*
G02*
X191949000Y-104010000I0J-250000D01*
G01*
G37*
G36*
G01*
X194024000Y-104010000D02*
X194024000Y-104960000D01*
G75*
G02*
X193774000Y-105210000I-250000J0D01*
G01*
X193099000Y-105210000D01*
G75*
G02*
X192849000Y-104960000I0J250000D01*
G01*
X192849000Y-104010000D01*
G75*
G02*
X193099000Y-103760000I250000J0D01*
G01*
X193774000Y-103760000D01*
G75*
G02*
X194024000Y-104010000I0J-250000D01*
G01*
G37*
%TD*%
%TO.C,C4*%
G36*
G01*
X82949700Y-90952300D02*
X82949700Y-91902300D01*
G75*
G02*
X82699700Y-92152300I-250000J0D01*
G01*
X82024700Y-92152300D01*
G75*
G02*
X81774700Y-91902300I0J250000D01*
G01*
X81774700Y-90952300D01*
G75*
G02*
X82024700Y-90702300I250000J0D01*
G01*
X82699700Y-90702300D01*
G75*
G02*
X82949700Y-90952300I0J-250000D01*
G01*
G37*
G36*
G01*
X85024700Y-90952300D02*
X85024700Y-91902300D01*
G75*
G02*
X84774700Y-92152300I-250000J0D01*
G01*
X84099700Y-92152300D01*
G75*
G02*
X83849700Y-91902300I0J250000D01*
G01*
X83849700Y-90952300D01*
G75*
G02*
X84099700Y-90702300I250000J0D01*
G01*
X84774700Y-90702300D01*
G75*
G02*
X85024700Y-90952300I0J-250000D01*
G01*
G37*
%TD*%
%TO.C,C3*%
G36*
G01*
X108016000Y-103640000D02*
X108016000Y-104590000D01*
G75*
G02*
X107766000Y-104840000I-250000J0D01*
G01*
X107091000Y-104840000D01*
G75*
G02*
X106841000Y-104590000I0J250000D01*
G01*
X106841000Y-103640000D01*
G75*
G02*
X107091000Y-103390000I250000J0D01*
G01*
X107766000Y-103390000D01*
G75*
G02*
X108016000Y-103640000I0J-250000D01*
G01*
G37*
G36*
G01*
X110091000Y-103640000D02*
X110091000Y-104590000D01*
G75*
G02*
X109841000Y-104840000I-250000J0D01*
G01*
X109166000Y-104840000D01*
G75*
G02*
X108916000Y-104590000I0J250000D01*
G01*
X108916000Y-103640000D01*
G75*
G02*
X109166000Y-103390000I250000J0D01*
G01*
X109841000Y-103390000D01*
G75*
G02*
X110091000Y-103640000I0J-250000D01*
G01*
G37*
%TD*%
%TO.C,C2*%
G36*
G01*
X78703500Y-104615000D02*
X78703500Y-103665000D01*
G75*
G02*
X78953500Y-103415000I250000J0D01*
G01*
X79628500Y-103415000D01*
G75*
G02*
X79878500Y-103665000I0J-250000D01*
G01*
X79878500Y-104615000D01*
G75*
G02*
X79628500Y-104865000I-250000J0D01*
G01*
X78953500Y-104865000D01*
G75*
G02*
X78703500Y-104615000I0J250000D01*
G01*
G37*
G36*
G01*
X76628500Y-104615000D02*
X76628500Y-103665000D01*
G75*
G02*
X76878500Y-103415000I250000J0D01*
G01*
X77553500Y-103415000D01*
G75*
G02*
X77803500Y-103665000I0J-250000D01*
G01*
X77803500Y-104615000D01*
G75*
G02*
X77553500Y-104865000I-250000J0D01*
G01*
X76878500Y-104865000D01*
G75*
G02*
X76628500Y-104615000I0J250000D01*
G01*
G37*
%TD*%
%TO.C,C1*%
G36*
G01*
X95504900Y-116388000D02*
X95504900Y-117338000D01*
G75*
G02*
X95254900Y-117588000I-250000J0D01*
G01*
X94579900Y-117588000D01*
G75*
G02*
X94329900Y-117338000I0J250000D01*
G01*
X94329900Y-116388000D01*
G75*
G02*
X94579900Y-116138000I250000J0D01*
G01*
X95254900Y-116138000D01*
G75*
G02*
X95504900Y-116388000I0J-250000D01*
G01*
G37*
G36*
G01*
X97579900Y-116388000D02*
X97579900Y-117338000D01*
G75*
G02*
X97329900Y-117588000I-250000J0D01*
G01*
X96654900Y-117588000D01*
G75*
G02*
X96404900Y-117338000I0J250000D01*
G01*
X96404900Y-116388000D01*
G75*
G02*
X96654900Y-116138000I250000J0D01*
G01*
X97329900Y-116138000D01*
G75*
G02*
X97579900Y-116388000I0J-250000D01*
G01*
G37*
%TD*%
M02*
