M48
; DRILL file {KiCad (5.1.8)-1} date 12/25/20 12:52:03
; FORMAT={-:-/ absolute / inch / decimal}
; #@! TF.CreationDate,2020-12-25T12:52:03+03:00
; #@! TF.GenerationSoftware,Kicad,Pcbnew,(5.1.8)-1
; #@! TF.FileFunction,Plated,1,2,PTH
FMAT,2
INCH
T1C0.0118
T2C0.0276
T3C0.0350
T4C0.0354
T5C0.0394
T6C0.0512
T7C0.0550
%
G90
G05
T1
X4.0763Y-3.9149
X4.2681Y-4.0545
X4.6081Y-4.0053
X4.7336Y-3.5506
X5.2266Y-3.7204
X5.3253Y-3.6268
X5.4552Y-3.4907
X5.4577Y-3.7131
X5.464Y-3.4573
X5.55Y-3.7437
X5.5642Y-3.4012
X5.6674Y-3.7748
X5.6787Y-3.6704
X5.769Y-3.7727
X5.804Y-3.4163
X5.8514Y-4.4761
X5.8777Y-3.6906
X5.902Y-3.861
X6.2541Y-4.3247
X6.4796Y-4.1757
X6.5086Y-4.4407
X7.0145Y-3.7615
X7.3787Y-4.1764
T2
X5.1Y-3.5
X5.1Y-3.55
X5.1Y-3.6
X5.1Y-3.65
X5.1Y-3.7
X5.1Y-3.75
X5.1Y-3.8
X5.1Y-3.85
X5.1Y-3.9
X5.1Y-3.95
X5.1Y-4.0
X5.1Y-4.05
X5.1Y-4.1
X5.1Y-4.15
X5.1Y-4.2
X5.1Y-4.25
X6.0Y-3.5
X6.0Y-3.55
X6.0Y-3.6
X6.0Y-3.65
X6.0Y-3.7
X6.0Y-3.75
X6.0Y-3.8
X6.0Y-3.85
X6.0Y-3.9
X6.0Y-3.95
X6.0Y-4.0
X6.0Y-4.05
X6.0Y-4.1
X6.0Y-4.15
X6.0Y-4.2
X6.0Y-4.25
X6.0Y-4.3
X6.0Y-4.35
X6.0Y-4.4
X6.0Y-4.45
X6.0Y-4.5
X6.0Y-4.55
X6.0Y-4.6
X6.0Y-4.65
T3
X4.0359Y-5.2529
X4.0359Y-5.3529
X4.0359Y-5.4529
X4.3359Y-5.7529
X4.4359Y-5.7529
X4.5359Y-5.7529
X6.2962Y-5.2437
X6.2962Y-5.3437
X6.2962Y-5.4437
X6.5962Y-5.7437
X6.6962Y-5.7437
X6.7962Y-5.7437
T4
X4.3109Y-4.8529
X4.3109Y-5.0529
X4.5609Y-4.8529
X4.5609Y-5.0529
X6.5712Y-4.8437
X6.5712Y-5.0437
X6.8212Y-4.8437
X6.8212Y-5.0437
T5
X5.43Y-3.89
X5.43Y-3.99
T6
X3.9322Y-4.1001
X3.9322Y-4.297
X4.4243Y-4.1001
X4.4243Y-4.297
X2.9322Y-4.1001
X2.9322Y-4.297
X3.4243Y-4.1001
X3.4243Y-4.297
X7.7263Y-4.114
X7.7263Y-4.3109
X8.2184Y-4.114
X8.2184Y-4.3109
X7.2263Y-3.614
X7.2263Y-3.8109
X7.7184Y-3.614
X7.7184Y-3.8109
X7.2263Y-4.614
X7.2263Y-4.8109
X7.7184Y-4.614
X7.7184Y-4.8109
X6.7263Y-4.114
X6.7263Y-4.3109
X7.2184Y-4.114
X7.2184Y-4.3109
X3.4322Y-4.6001
X3.4322Y-4.797
X3.9243Y-4.6001
X3.9243Y-4.797
X3.4322Y-3.6001
X3.4322Y-3.7969
X3.9243Y-3.6001
X3.9243Y-3.7969
T7
X4.1359Y-5.0904
X4.1359Y-5.6154
X4.7359Y-5.0904
X4.7359Y-5.6154
X6.3962Y-5.0812
X6.3962Y-5.6062
X6.9962Y-5.0812
X6.9962Y-5.6062
T0
M30
