%TF.GenerationSoftware,KiCad,Pcbnew,(5.1.8)-1*%
%TF.CreationDate,2020-12-25T12:52:01+03:00*%
%TF.ProjectId,mesp240_3Dpad,6d657370-3234-4305-9f33-447061642e6b,rev?*%
%TF.SameCoordinates,Original*%
%TF.FileFunction,Legend,Bot*%
%TF.FilePolarity,Positive*%
%FSLAX46Y46*%
G04 Gerber Fmt 4.6, Leading zero omitted, Abs format (unit mm)*
G04 Created by KiCad (PCBNEW (5.1.8)-1) date 2020-12-25 12:52:01*
%MOMM*%
%LPD*%
G01*
G04 APERTURE LIST*
%ADD10C,0.150000*%
%ADD11C,0.200000*%
%ADD12C,0.120000*%
%ADD13C,0.203200*%
%ADD14C,0.101600*%
G04 APERTURE END LIST*
D10*
X139139363Y-89334340D02*
G75*
G03*
X139139363Y-89334340I-115003J0D01*
G01*
X134686845Y-112230280D02*
X134782083Y-112182660D01*
X134924940Y-112182660D01*
X135067798Y-112230280D01*
X135163036Y-112325518D01*
X135210655Y-112420756D01*
X135258274Y-112611232D01*
X135258274Y-112754089D01*
X135210655Y-112944565D01*
X135163036Y-113039803D01*
X135067798Y-113135041D01*
X134924940Y-113182660D01*
X134829702Y-113182660D01*
X134686845Y-113135041D01*
X134639226Y-113087422D01*
X134639226Y-112754089D01*
X134829702Y-112754089D01*
X134305893Y-112515994D02*
X134067798Y-113182660D01*
X133829702Y-112515994D02*
X134067798Y-113182660D01*
X134163036Y-113420756D01*
X134210655Y-113468375D01*
X134305893Y-113515994D01*
X133448750Y-113182660D02*
X133448750Y-112515994D01*
X133448750Y-112706470D02*
X133401131Y-112611232D01*
X133353512Y-112563613D01*
X133258274Y-112515994D01*
X133163036Y-112515994D01*
X132686845Y-113182660D02*
X132782083Y-113135041D01*
X132829702Y-113087422D01*
X132877321Y-112992184D01*
X132877321Y-112706470D01*
X132829702Y-112611232D01*
X132782083Y-112563613D01*
X132686845Y-112515994D01*
X132543988Y-112515994D01*
X132448750Y-112563613D01*
X132401131Y-112611232D01*
X132353512Y-112706470D01*
X132353512Y-112992184D01*
X132401131Y-113087422D01*
X132448750Y-113135041D01*
X132543988Y-113182660D01*
X132686845Y-113182660D01*
X131924940Y-112801708D02*
X131163036Y-112801708D01*
X131543988Y-113182660D02*
X131543988Y-112420756D01*
X130734464Y-112896946D02*
X130258274Y-112896946D01*
X130829702Y-113182660D02*
X130496369Y-112182660D01*
X130163036Y-113182660D01*
X129401131Y-113135041D02*
X129496369Y-113182660D01*
X129686845Y-113182660D01*
X129782083Y-113135041D01*
X129829702Y-113087422D01*
X129877321Y-112992184D01*
X129877321Y-112706470D01*
X129829702Y-112611232D01*
X129782083Y-112563613D01*
X129686845Y-112515994D01*
X129496369Y-112515994D01*
X129401131Y-112563613D01*
X128543988Y-113135041D02*
X128639226Y-113182660D01*
X128829702Y-113182660D01*
X128924940Y-113135041D01*
X128972560Y-113087422D01*
X129020179Y-112992184D01*
X129020179Y-112706470D01*
X128972560Y-112611232D01*
X128924940Y-112563613D01*
X128829702Y-112515994D01*
X128639226Y-112515994D01*
X128543988Y-112563613D01*
X127734464Y-113135041D02*
X127829702Y-113182660D01*
X128020179Y-113182660D01*
X128115417Y-113135041D01*
X128163036Y-113039803D01*
X128163036Y-112658851D01*
X128115417Y-112563613D01*
X128020179Y-112515994D01*
X127829702Y-112515994D01*
X127734464Y-112563613D01*
X127686845Y-112658851D01*
X127686845Y-112754089D01*
X128163036Y-112849327D01*
X127115417Y-113182660D02*
X127210655Y-113135041D01*
X127258274Y-113039803D01*
X127258274Y-112182660D01*
X126734464Y-113087422D02*
X126686845Y-113135041D01*
X126734464Y-113182660D01*
X126782083Y-113135041D01*
X126734464Y-113087422D01*
X126734464Y-113182660D01*
X144197605Y-97790000D02*
G75*
G03*
X144197605Y-97790000I-179605J0D01*
G01*
X136016952Y-101417428D02*
X135255047Y-101417428D01*
X135636000Y-101798380D02*
X135636000Y-101036476D01*
X140560857Y-104075714D02*
X140432285Y-104118571D01*
X140389428Y-104161428D01*
X140346571Y-104247142D01*
X140346571Y-104375714D01*
X140389428Y-104461428D01*
X140432285Y-104504285D01*
X140518000Y-104547142D01*
X140860857Y-104547142D01*
X140860857Y-103647142D01*
X140560857Y-103647142D01*
X140475142Y-103690000D01*
X140432285Y-103732857D01*
X140389428Y-103818571D01*
X140389428Y-103904285D01*
X140432285Y-103990000D01*
X140475142Y-104032857D01*
X140560857Y-104075714D01*
X140860857Y-104075714D01*
X139575142Y-103947142D02*
X139575142Y-104547142D01*
X139960857Y-103947142D02*
X139960857Y-104418571D01*
X139918000Y-104504285D01*
X139832285Y-104547142D01*
X139703714Y-104547142D01*
X139618000Y-104504285D01*
X139575142Y-104461428D01*
X139232285Y-103947142D02*
X138760857Y-103947142D01*
X139232285Y-104547142D01*
X138760857Y-104547142D01*
X138503714Y-103947142D02*
X138032285Y-103947142D01*
X138503714Y-104547142D01*
X138032285Y-104547142D01*
X137346571Y-104504285D02*
X137432285Y-104547142D01*
X137603714Y-104547142D01*
X137689428Y-104504285D01*
X137732285Y-104418571D01*
X137732285Y-104075714D01*
X137689428Y-103990000D01*
X137603714Y-103947142D01*
X137432285Y-103947142D01*
X137346571Y-103990000D01*
X137303714Y-104075714D01*
X137303714Y-104161428D01*
X137732285Y-104247142D01*
X136918000Y-104547142D02*
X136918000Y-103947142D01*
X136918000Y-104118571D02*
X136875142Y-104032857D01*
X136832285Y-103990000D01*
X136746571Y-103947142D01*
X136660857Y-103947142D01*
X135246571Y-103647142D02*
X135675142Y-103647142D01*
X135718000Y-104075714D01*
X135675142Y-104032857D01*
X135589428Y-103990000D01*
X135375142Y-103990000D01*
X135289428Y-104032857D01*
X135246571Y-104075714D01*
X135203714Y-104161428D01*
X135203714Y-104375714D01*
X135246571Y-104461428D01*
X135289428Y-104504285D01*
X135375142Y-104547142D01*
X135589428Y-104547142D01*
X135675142Y-104504285D01*
X135718000Y-104461428D01*
X134946571Y-103647142D02*
X134646571Y-104547142D01*
X134346571Y-103647142D01*
D11*
X152855714Y-121700857D02*
X152855714Y-120500857D01*
X152455714Y-121358000D01*
X152055714Y-120500857D01*
X152055714Y-121700857D01*
X151312857Y-121700857D02*
X151427142Y-121643714D01*
X151484285Y-121586571D01*
X151541428Y-121472285D01*
X151541428Y-121129428D01*
X151484285Y-121015142D01*
X151427142Y-120958000D01*
X151312857Y-120900857D01*
X151141428Y-120900857D01*
X151027142Y-120958000D01*
X150970000Y-121015142D01*
X150912857Y-121129428D01*
X150912857Y-121472285D01*
X150970000Y-121586571D01*
X151027142Y-121643714D01*
X151141428Y-121700857D01*
X151312857Y-121700857D01*
X150398571Y-121700857D02*
X150398571Y-120900857D01*
X150398571Y-121129428D02*
X150341428Y-121015142D01*
X150284285Y-120958000D01*
X150170000Y-120900857D01*
X150055714Y-120900857D01*
X149655714Y-120900857D02*
X149655714Y-122100857D01*
X149655714Y-120958000D02*
X149541428Y-120900857D01*
X149312857Y-120900857D01*
X149198571Y-120958000D01*
X149141428Y-121015142D01*
X149084285Y-121129428D01*
X149084285Y-121472285D01*
X149141428Y-121586571D01*
X149198571Y-121643714D01*
X149312857Y-121700857D01*
X149541428Y-121700857D01*
X149655714Y-121643714D01*
X148570000Y-121700857D02*
X148570000Y-120500857D01*
X148055714Y-121700857D02*
X148055714Y-121072285D01*
X148112857Y-120958000D01*
X148227142Y-120900857D01*
X148398571Y-120900857D01*
X148512857Y-120958000D01*
X148570000Y-121015142D01*
X147484285Y-121072285D02*
X147084285Y-121072285D01*
X146912857Y-121700857D02*
X147484285Y-121700857D01*
X147484285Y-120500857D01*
X146912857Y-120500857D01*
X146455714Y-121643714D02*
X146284285Y-121700857D01*
X145998571Y-121700857D01*
X145884285Y-121643714D01*
X145827142Y-121586571D01*
X145770000Y-121472285D01*
X145770000Y-121358000D01*
X145827142Y-121243714D01*
X145884285Y-121186571D01*
X145998571Y-121129428D01*
X146227142Y-121072285D01*
X146341428Y-121015142D01*
X146398571Y-120958000D01*
X146455714Y-120843714D01*
X146455714Y-120729428D01*
X146398571Y-120615142D01*
X146341428Y-120558000D01*
X146227142Y-120500857D01*
X145941428Y-120500857D01*
X145770000Y-120558000D01*
X145255714Y-121700857D02*
X145255714Y-120500857D01*
X144798571Y-120500857D01*
X144684285Y-120558000D01*
X144627142Y-120615142D01*
X144570000Y-120729428D01*
X144570000Y-120900857D01*
X144627142Y-121015142D01*
X144684285Y-121072285D01*
X144798571Y-121129428D01*
X145255714Y-121129428D01*
X143198571Y-120615142D02*
X143141428Y-120558000D01*
X143027142Y-120500857D01*
X142741428Y-120500857D01*
X142627142Y-120558000D01*
X142570000Y-120615142D01*
X142512857Y-120729428D01*
X142512857Y-120843714D01*
X142570000Y-121015142D01*
X143255714Y-121700857D01*
X142512857Y-121700857D01*
X141484285Y-120900857D02*
X141484285Y-121700857D01*
X141770000Y-120443714D02*
X142055714Y-121300857D01*
X141312857Y-121300857D01*
X140627142Y-120500857D02*
X140512857Y-120500857D01*
X140398571Y-120558000D01*
X140341428Y-120615142D01*
X140284285Y-120729428D01*
X140227142Y-120958000D01*
X140227142Y-121243714D01*
X140284285Y-121472285D01*
X140341428Y-121586571D01*
X140398571Y-121643714D01*
X140512857Y-121700857D01*
X140627142Y-121700857D01*
X140741428Y-121643714D01*
X140798571Y-121586571D01*
X140855714Y-121472285D01*
X140912857Y-121243714D01*
X140912857Y-120958000D01*
X140855714Y-120729428D01*
X140798571Y-120615142D01*
X140741428Y-120558000D01*
X140627142Y-120500857D01*
X138798571Y-121700857D02*
X138798571Y-120500857D01*
X138798571Y-120958000D02*
X138684285Y-120900857D01*
X138455714Y-120900857D01*
X138341428Y-120958000D01*
X138284285Y-121015142D01*
X138227142Y-121129428D01*
X138227142Y-121472285D01*
X138284285Y-121586571D01*
X138341428Y-121643714D01*
X138455714Y-121700857D01*
X138684285Y-121700857D01*
X138798571Y-121643714D01*
X137827142Y-120900857D02*
X137541428Y-121700857D01*
X137255714Y-120900857D02*
X137541428Y-121700857D01*
X137655714Y-121986571D01*
X137712857Y-122043714D01*
X137827142Y-122100857D01*
X135141428Y-121129428D02*
X135198571Y-121072285D01*
X135312857Y-121015142D01*
X135427142Y-121015142D01*
X135541428Y-121072285D01*
X135598571Y-121129428D01*
X135655714Y-121243714D01*
X135655714Y-121358000D01*
X135598571Y-121472285D01*
X135541428Y-121529428D01*
X135427142Y-121586571D01*
X135312857Y-121586571D01*
X135198571Y-121529428D01*
X135141428Y-121472285D01*
X135141428Y-121015142D02*
X135141428Y-121472285D01*
X135084285Y-121529428D01*
X135027142Y-121529428D01*
X134912857Y-121472285D01*
X134855714Y-121358000D01*
X134855714Y-121072285D01*
X134970000Y-120900857D01*
X135141428Y-120786571D01*
X135370000Y-120729428D01*
X135598571Y-120786571D01*
X135770000Y-120900857D01*
X135884285Y-121072285D01*
X135941428Y-121300857D01*
X135884285Y-121529428D01*
X135770000Y-121700857D01*
X135598571Y-121815142D01*
X135370000Y-121872285D01*
X135141428Y-121815142D01*
X134970000Y-121700857D01*
X133827142Y-121643714D02*
X133941428Y-121700857D01*
X134170000Y-121700857D01*
X134284285Y-121643714D01*
X134341428Y-121586571D01*
X134398571Y-121472285D01*
X134398571Y-121129428D01*
X134341428Y-121015142D01*
X134284285Y-120958000D01*
X134170000Y-120900857D01*
X133941428Y-120900857D01*
X133827142Y-120958000D01*
X132798571Y-121643714D02*
X132912857Y-121700857D01*
X133141428Y-121700857D01*
X133255714Y-121643714D01*
X133312857Y-121586571D01*
X133370000Y-121472285D01*
X133370000Y-121129428D01*
X133312857Y-121015142D01*
X133255714Y-120958000D01*
X133141428Y-120900857D01*
X132912857Y-120900857D01*
X132798571Y-120958000D01*
X131770000Y-121700857D02*
X131770000Y-121072285D01*
X131827142Y-120958000D01*
X131941428Y-120900857D01*
X132170000Y-120900857D01*
X132284285Y-120958000D01*
X131770000Y-121643714D02*
X131884285Y-121700857D01*
X132170000Y-121700857D01*
X132284285Y-121643714D01*
X132341428Y-121529428D01*
X132341428Y-121415142D01*
X132284285Y-121300857D01*
X132170000Y-121243714D01*
X131884285Y-121243714D01*
X131770000Y-121186571D01*
X130684285Y-121700857D02*
X130684285Y-120500857D01*
X130684285Y-121643714D02*
X130798571Y-121700857D01*
X131027142Y-121700857D01*
X131141428Y-121643714D01*
X131198571Y-121586571D01*
X131255714Y-121472285D01*
X131255714Y-121129428D01*
X131198571Y-121015142D01*
X131141428Y-120958000D01*
X131027142Y-120900857D01*
X130798571Y-120900857D01*
X130684285Y-120958000D01*
X130112857Y-121700857D02*
X130112857Y-120900857D01*
X130112857Y-120500857D02*
X130170000Y-120558000D01*
X130112857Y-120615142D01*
X130055714Y-120558000D01*
X130112857Y-120500857D01*
X130112857Y-120615142D01*
X129027142Y-121643714D02*
X129141428Y-121700857D01*
X129370000Y-121700857D01*
X129484285Y-121643714D01*
X129541428Y-121586571D01*
X129598571Y-121472285D01*
X129598571Y-121129428D01*
X129541428Y-121015142D01*
X129484285Y-120958000D01*
X129370000Y-120900857D01*
X129141428Y-120900857D01*
X129027142Y-120958000D01*
D12*
%TO.C,C12*%
X162673252Y-125957000D02*
X162150748Y-125957000D01*
X162673252Y-124487000D02*
X162150748Y-124487000D01*
%TO.C,C11*%
X105269252Y-126084000D02*
X104746748Y-126084000D01*
X105269252Y-124614000D02*
X104746748Y-124614000D01*
D13*
%TO.C,U3*%
X175671000Y-121760000D02*
X164495000Y-121760000D01*
X174909000Y-147160000D02*
X165257000Y-147160000D01*
X174909000Y-147160000D02*
X174909000Y-144620000D01*
X165257000Y-147160000D02*
X165257000Y-144620000D01*
X174909000Y-144620000D02*
X177703000Y-144620000D01*
X165257000Y-144620000D02*
X162463000Y-144620000D01*
X179608000Y-131666000D02*
X179608000Y-139794000D01*
X177703000Y-131666000D02*
X177703000Y-128745000D01*
X177703000Y-139794000D02*
X177703000Y-144620000D01*
X177703000Y-131666000D02*
X179608000Y-131666000D01*
X177703000Y-139794000D02*
X179608000Y-139794000D01*
X177703000Y-128745000D02*
X175671000Y-128745000D01*
X164495000Y-128745000D02*
X162463000Y-128745000D01*
X175671000Y-121760000D02*
X175671000Y-128745000D01*
X164495000Y-121760000D02*
X164495000Y-128745000D01*
X162463000Y-130904000D02*
X158907000Y-130904000D01*
X162463000Y-140556000D02*
X158907000Y-140556000D01*
X158907000Y-130904000D02*
X158907000Y-140556000D01*
X162463000Y-130904000D02*
X162463000Y-128745000D01*
X162463000Y-140556000D02*
X162463000Y-144620000D01*
D14*
X170532013Y-135730000D02*
G75*
G03*
X170532013Y-135730000I-449013J0D01*
G01*
D12*
%TO.C,U2*%
X139997000Y-89749500D02*
X139347000Y-89749500D01*
X142567000Y-87029500D02*
X142567000Y-87179500D01*
X141917000Y-87029500D02*
X142567000Y-87029500D01*
X139347000Y-87029500D02*
X139347000Y-87179500D01*
X139997000Y-87029500D02*
X139347000Y-87029500D01*
X142567000Y-89749500D02*
X142567000Y-89599500D01*
X141917000Y-89749500D02*
X142567000Y-89749500D01*
D13*
%TO.C,U1*%
X118260000Y-121994000D02*
X107084000Y-121994000D01*
X117498000Y-147394000D02*
X107846000Y-147394000D01*
X117498000Y-147394000D02*
X117498000Y-144854000D01*
X107846000Y-147394000D02*
X107846000Y-144854000D01*
X117498000Y-144854000D02*
X120292000Y-144854000D01*
X107846000Y-144854000D02*
X105052000Y-144854000D01*
X122197000Y-131900000D02*
X122197000Y-140028000D01*
X120292000Y-131900000D02*
X120292000Y-128979000D01*
X120292000Y-140028000D02*
X120292000Y-144854000D01*
X120292000Y-131900000D02*
X122197000Y-131900000D01*
X120292000Y-140028000D02*
X122197000Y-140028000D01*
X120292000Y-128979000D02*
X118260000Y-128979000D01*
X107084000Y-128979000D02*
X105052000Y-128979000D01*
X118260000Y-121994000D02*
X118260000Y-128979000D01*
X107084000Y-121994000D02*
X107084000Y-128979000D01*
X105052000Y-131138000D02*
X101496000Y-131138000D01*
X105052000Y-140790000D02*
X101496000Y-140790000D01*
X101496000Y-131138000D02*
X101496000Y-140790000D01*
X105052000Y-131138000D02*
X105052000Y-128979000D01*
X105052000Y-140790000D02*
X105052000Y-144854000D01*
D14*
X113121013Y-135964000D02*
G75*
G03*
X113121013Y-135964000I-449013J0D01*
G01*
D12*
%TO.C,R14*%
X142565064Y-92355300D02*
X142110936Y-92355300D01*
X142565064Y-90885300D02*
X142110936Y-90885300D01*
%TO.C,R13*%
X138302936Y-90839600D02*
X138757064Y-90839600D01*
X138302936Y-92309600D02*
X138757064Y-92309600D01*
%TO.C,R12*%
X162189936Y-122328000D02*
X162644064Y-122328000D01*
X162189936Y-123798000D02*
X162644064Y-123798000D01*
%TO.C,R11*%
X104817936Y-122455000D02*
X105272064Y-122455000D01*
X104817936Y-123925000D02*
X105272064Y-123925000D01*
%TO.C,C10*%
X139340252Y-86231400D02*
X138817748Y-86231400D01*
X139340252Y-84761400D02*
X138817748Y-84761400D01*
%TO.C,C9*%
X144570748Y-86046600D02*
X145093252Y-86046600D01*
X144570748Y-87516600D02*
X145093252Y-87516600D01*
%TO.C,R10*%
X141840976Y-102365480D02*
X142295104Y-102365480D01*
X141840976Y-100895480D02*
X142295104Y-100895480D01*
%TO.C,R9*%
X146024936Y-98525000D02*
X146479064Y-98525000D01*
X146024936Y-97055000D02*
X146479064Y-97055000D01*
%TO.C,R8*%
X187127936Y-117854000D02*
X187582064Y-117854000D01*
X187127936Y-116384000D02*
X187582064Y-116384000D01*
%TO.C,R7*%
X174413936Y-105256000D02*
X174868064Y-105256000D01*
X174413936Y-103786000D02*
X174868064Y-103786000D01*
%TO.C,R6*%
X199758936Y-105264000D02*
X200213064Y-105264000D01*
X199758936Y-103794000D02*
X200213064Y-103794000D01*
%TO.C,R5*%
X187081936Y-92556000D02*
X187536064Y-92556000D01*
X187081936Y-91086000D02*
X187536064Y-91086000D01*
%TO.C,R4*%
X90593936Y-92190200D02*
X91048064Y-92190200D01*
X90593936Y-90720200D02*
X91048064Y-90720200D01*
%TO.C,R3*%
X70982064Y-103405000D02*
X70527936Y-103405000D01*
X70982064Y-104875000D02*
X70527936Y-104875000D01*
%TO.C,R2*%
X103030936Y-117565000D02*
X103485064Y-117565000D01*
X103030936Y-116095000D02*
X103485064Y-116095000D01*
%TO.C,R1*%
X116247936Y-104875000D02*
X116702064Y-104875000D01*
X116247936Y-103405000D02*
X116702064Y-103405000D01*
%TO.C,Q1*%
X141226000Y-100386000D02*
X141226000Y-99456000D01*
X141226000Y-97226000D02*
X141226000Y-98156000D01*
X141226000Y-97226000D02*
X143386000Y-97226000D01*
X141226000Y-100386000D02*
X142686000Y-100386000D01*
%TO.C,C8*%
X179924252Y-116499000D02*
X179401748Y-116499000D01*
X179924252Y-117969000D02*
X179401748Y-117969000D01*
%TO.C,C7*%
X179987252Y-91086000D02*
X179464748Y-91086000D01*
X179987252Y-92556000D02*
X179464748Y-92556000D01*
%TO.C,C6*%
X167287252Y-103786000D02*
X166764748Y-103786000D01*
X167287252Y-105256000D02*
X166764748Y-105256000D01*
%TO.C,C5*%
X192660252Y-103750000D02*
X192137748Y-103750000D01*
X192660252Y-105220000D02*
X192137748Y-105220000D01*
%TO.C,C4*%
X83660952Y-90692300D02*
X83138448Y-90692300D01*
X83660952Y-92162300D02*
X83138448Y-92162300D01*
%TO.C,C3*%
X108727252Y-103380000D02*
X108204748Y-103380000D01*
X108727252Y-104850000D02*
X108204748Y-104850000D01*
%TO.C,C2*%
X77992248Y-104875000D02*
X78514752Y-104875000D01*
X77992248Y-103405000D02*
X78514752Y-103405000D01*
%TO.C,C1*%
X96216152Y-116128000D02*
X95693648Y-116128000D01*
X96216152Y-117598000D02*
X95693648Y-117598000D01*
%TO.C,C12*%
D10*
X163033357Y-127230142D02*
X163080976Y-127277761D01*
X163223833Y-127325380D01*
X163319071Y-127325380D01*
X163461928Y-127277761D01*
X163557166Y-127182523D01*
X163604785Y-127087285D01*
X163652404Y-126896809D01*
X163652404Y-126753952D01*
X163604785Y-126563476D01*
X163557166Y-126468238D01*
X163461928Y-126373000D01*
X163319071Y-126325380D01*
X163223833Y-126325380D01*
X163080976Y-126373000D01*
X163033357Y-126420619D01*
X162080976Y-127325380D02*
X162652404Y-127325380D01*
X162366690Y-127325380D02*
X162366690Y-126325380D01*
X162461928Y-126468238D01*
X162557166Y-126563476D01*
X162652404Y-126611095D01*
X161700023Y-126420619D02*
X161652404Y-126373000D01*
X161557166Y-126325380D01*
X161319071Y-126325380D01*
X161223833Y-126373000D01*
X161176214Y-126420619D01*
X161128595Y-126515857D01*
X161128595Y-126611095D01*
X161176214Y-126753952D01*
X161747642Y-127325380D01*
X161128595Y-127325380D01*
%TO.C,C11*%
X105672357Y-127413022D02*
X105719976Y-127460641D01*
X105862833Y-127508260D01*
X105958071Y-127508260D01*
X106100928Y-127460641D01*
X106196166Y-127365403D01*
X106243785Y-127270165D01*
X106291404Y-127079689D01*
X106291404Y-126936832D01*
X106243785Y-126746356D01*
X106196166Y-126651118D01*
X106100928Y-126555880D01*
X105958071Y-126508260D01*
X105862833Y-126508260D01*
X105719976Y-126555880D01*
X105672357Y-126603499D01*
X104719976Y-127508260D02*
X105291404Y-127508260D01*
X105005690Y-127508260D02*
X105005690Y-126508260D01*
X105100928Y-126651118D01*
X105196166Y-126746356D01*
X105291404Y-126793975D01*
X103767595Y-127508260D02*
X104339023Y-127508260D01*
X104053309Y-127508260D02*
X104053309Y-126508260D01*
X104148547Y-126651118D01*
X104243785Y-126746356D01*
X104339023Y-126793975D01*
%TO.C,U3*%
D14*
X169145619Y-139479523D02*
X169145619Y-140507619D01*
X169085142Y-140628571D01*
X169024666Y-140689047D01*
X168903714Y-140749523D01*
X168661809Y-140749523D01*
X168540857Y-140689047D01*
X168480380Y-140628571D01*
X168419904Y-140507619D01*
X168419904Y-139479523D01*
X167936095Y-139479523D02*
X167149904Y-139479523D01*
X167573238Y-139963333D01*
X167391809Y-139963333D01*
X167270857Y-140023809D01*
X167210380Y-140084285D01*
X167149904Y-140205238D01*
X167149904Y-140507619D01*
X167210380Y-140628571D01*
X167270857Y-140689047D01*
X167391809Y-140749523D01*
X167754666Y-140749523D01*
X167875619Y-140689047D01*
X167936095Y-140628571D01*
X183429853Y-138006686D02*
X182825091Y-138006686D01*
X183550805Y-138369543D02*
X183127472Y-137099543D01*
X182704139Y-138369543D01*
X182280805Y-137522877D02*
X182280805Y-138369543D01*
X182280805Y-137643829D02*
X182220329Y-137583353D01*
X182099377Y-137522877D01*
X181917948Y-137522877D01*
X181796996Y-137583353D01*
X181736520Y-137704305D01*
X181736520Y-138369543D01*
X180587472Y-138369543D02*
X180587472Y-137704305D01*
X180647948Y-137583353D01*
X180768900Y-137522877D01*
X181010805Y-137522877D01*
X181131758Y-137583353D01*
X180587472Y-138309067D02*
X180708424Y-138369543D01*
X181010805Y-138369543D01*
X181131758Y-138309067D01*
X181192234Y-138188115D01*
X181192234Y-138067162D01*
X181131758Y-137946210D01*
X181010805Y-137885734D01*
X180708424Y-137885734D01*
X180587472Y-137825258D01*
X179801281Y-138369543D02*
X179922234Y-138309067D01*
X179982710Y-138188115D01*
X179982710Y-137099543D01*
X179136043Y-138369543D02*
X179256996Y-138309067D01*
X179317472Y-138248591D01*
X179377948Y-138127639D01*
X179377948Y-137764781D01*
X179317472Y-137643829D01*
X179256996Y-137583353D01*
X179136043Y-137522877D01*
X178954615Y-137522877D01*
X178833662Y-137583353D01*
X178773186Y-137643829D01*
X178712710Y-137764781D01*
X178712710Y-138127639D01*
X178773186Y-138248591D01*
X178833662Y-138309067D01*
X178954615Y-138369543D01*
X179136043Y-138369543D01*
X177624139Y-137522877D02*
X177624139Y-138550972D01*
X177684615Y-138671924D01*
X177745091Y-138732400D01*
X177866043Y-138792877D01*
X178047472Y-138792877D01*
X178168424Y-138732400D01*
X177624139Y-138309067D02*
X177745091Y-138369543D01*
X177986996Y-138369543D01*
X178107948Y-138309067D01*
X178168424Y-138248591D01*
X178228900Y-138127639D01*
X178228900Y-137764781D01*
X178168424Y-137643829D01*
X178107948Y-137583353D01*
X177986996Y-137522877D01*
X177745091Y-137522877D01*
X177624139Y-137583353D01*
X177140329Y-137099543D02*
X176354139Y-137099543D01*
X176777472Y-137583353D01*
X176596043Y-137583353D01*
X176475091Y-137643829D01*
X176414615Y-137704305D01*
X176354139Y-137825258D01*
X176354139Y-138127639D01*
X176414615Y-138248591D01*
X176475091Y-138309067D01*
X176596043Y-138369543D01*
X176958900Y-138369543D01*
X177079853Y-138309067D01*
X177140329Y-138248591D01*
X175265567Y-138369543D02*
X175265567Y-137099543D01*
X175265567Y-138309067D02*
X175386520Y-138369543D01*
X175628424Y-138369543D01*
X175749377Y-138309067D01*
X175809853Y-138248591D01*
X175870329Y-138127639D01*
X175870329Y-137764781D01*
X175809853Y-137643829D01*
X175749377Y-137583353D01*
X175628424Y-137522877D01*
X175386520Y-137522877D01*
X175265567Y-137583353D01*
X174297948Y-137099543D02*
X174297948Y-138006686D01*
X174358424Y-138188115D01*
X174479377Y-138309067D01*
X174660805Y-138369543D01*
X174781758Y-138369543D01*
X173511758Y-138369543D02*
X173632710Y-138309067D01*
X173693186Y-138248591D01*
X173753662Y-138127639D01*
X173753662Y-137764781D01*
X173693186Y-137643829D01*
X173632710Y-137583353D01*
X173511758Y-137522877D01*
X173330329Y-137522877D01*
X173209377Y-137583353D01*
X173148900Y-137643829D01*
X173088424Y-137764781D01*
X173088424Y-138127639D01*
X173148900Y-138248591D01*
X173209377Y-138309067D01*
X173330329Y-138369543D01*
X173511758Y-138369543D01*
X172665091Y-137522877D02*
X172362710Y-138369543D01*
X172060329Y-137522877D02*
X172362710Y-138369543D01*
X172483662Y-138671924D01*
X172544139Y-138732400D01*
X172665091Y-138792877D01*
X171636996Y-138309067D02*
X171516043Y-138369543D01*
X171274139Y-138369543D01*
X171153186Y-138309067D01*
X171092710Y-138188115D01*
X171092710Y-138127639D01*
X171153186Y-138006686D01*
X171274139Y-137946210D01*
X171455567Y-137946210D01*
X171576520Y-137885734D01*
X171636996Y-137764781D01*
X171636996Y-137704305D01*
X171576520Y-137583353D01*
X171455567Y-137522877D01*
X171274139Y-137522877D01*
X171153186Y-137583353D01*
X170729853Y-137522877D02*
X170246043Y-137522877D01*
X170548424Y-137099543D02*
X170548424Y-138188115D01*
X170487948Y-138309067D01*
X170366996Y-138369543D01*
X170246043Y-138369543D01*
X169822710Y-138369543D02*
X169822710Y-137522877D01*
X169822710Y-137099543D02*
X169883186Y-137160020D01*
X169822710Y-137220496D01*
X169762234Y-137160020D01*
X169822710Y-137099543D01*
X169822710Y-137220496D01*
X168673662Y-138309067D02*
X168794615Y-138369543D01*
X169036520Y-138369543D01*
X169157472Y-138309067D01*
X169217948Y-138248591D01*
X169278424Y-138127639D01*
X169278424Y-137764781D01*
X169217948Y-137643829D01*
X169157472Y-137583353D01*
X169036520Y-137522877D01*
X168794615Y-137522877D01*
X168673662Y-137583353D01*
X168129377Y-138369543D02*
X168129377Y-137099543D01*
X168008424Y-137885734D02*
X167645567Y-138369543D01*
X167645567Y-137522877D02*
X168129377Y-138006686D01*
X167403662Y-138490496D02*
X166436043Y-138490496D01*
X166133662Y-138369543D02*
X166133662Y-137522877D01*
X166133662Y-137764781D02*
X166073186Y-137643829D01*
X166012710Y-137583353D01*
X165891758Y-137522877D01*
X165770805Y-137522877D01*
X165347472Y-138369543D02*
X165347472Y-137522877D01*
X165347472Y-137099543D02*
X165407948Y-137160020D01*
X165347472Y-137220496D01*
X165286996Y-137160020D01*
X165347472Y-137099543D01*
X165347472Y-137220496D01*
X164198424Y-137522877D02*
X164198424Y-138550972D01*
X164258900Y-138671924D01*
X164319377Y-138732400D01*
X164440329Y-138792877D01*
X164621758Y-138792877D01*
X164742710Y-138732400D01*
X164198424Y-138309067D02*
X164319377Y-138369543D01*
X164561281Y-138369543D01*
X164682234Y-138309067D01*
X164742710Y-138248591D01*
X164803186Y-138127639D01*
X164803186Y-137764781D01*
X164742710Y-137643829D01*
X164682234Y-137583353D01*
X164561281Y-137522877D01*
X164319377Y-137522877D01*
X164198424Y-137583353D01*
X163593662Y-138369543D02*
X163593662Y-137099543D01*
X163049377Y-138369543D02*
X163049377Y-137704305D01*
X163109853Y-137583353D01*
X163230805Y-137522877D01*
X163412234Y-137522877D01*
X163533186Y-137583353D01*
X163593662Y-137643829D01*
X162626043Y-137522877D02*
X162142234Y-137522877D01*
X162444615Y-137099543D02*
X162444615Y-138188115D01*
X162384139Y-138309067D01*
X162263186Y-138369543D01*
X162142234Y-138369543D01*
%TO.C,U2*%
D10*
X138876644Y-87834260D02*
X138876644Y-88643784D01*
X138829025Y-88739022D01*
X138781406Y-88786641D01*
X138686168Y-88834260D01*
X138495692Y-88834260D01*
X138400454Y-88786641D01*
X138352835Y-88739022D01*
X138305216Y-88643784D01*
X138305216Y-87834260D01*
X137876644Y-87929499D02*
X137829025Y-87881880D01*
X137733787Y-87834260D01*
X137495692Y-87834260D01*
X137400454Y-87881880D01*
X137352835Y-87929499D01*
X137305216Y-88024737D01*
X137305216Y-88119975D01*
X137352835Y-88262832D01*
X137924263Y-88834260D01*
X137305216Y-88834260D01*
%TO.C,U1*%
D14*
X125294711Y-138134006D02*
X124689949Y-138134006D01*
X125415663Y-138496863D02*
X124992330Y-137226863D01*
X124568997Y-138496863D01*
X124145663Y-137650197D02*
X124145663Y-138496863D01*
X124145663Y-137771149D02*
X124085187Y-137710673D01*
X123964235Y-137650197D01*
X123782806Y-137650197D01*
X123661854Y-137710673D01*
X123601378Y-137831625D01*
X123601378Y-138496863D01*
X122452330Y-138496863D02*
X122452330Y-137831625D01*
X122512806Y-137710673D01*
X122633759Y-137650197D01*
X122875663Y-137650197D01*
X122996616Y-137710673D01*
X122452330Y-138436387D02*
X122573282Y-138496863D01*
X122875663Y-138496863D01*
X122996616Y-138436387D01*
X123057092Y-138315435D01*
X123057092Y-138194482D01*
X122996616Y-138073530D01*
X122875663Y-138013054D01*
X122573282Y-138013054D01*
X122452330Y-137952578D01*
X121666140Y-138496863D02*
X121787092Y-138436387D01*
X121847568Y-138315435D01*
X121847568Y-137226863D01*
X121000901Y-138496863D02*
X121121854Y-138436387D01*
X121182330Y-138375911D01*
X121242806Y-138254959D01*
X121242806Y-137892101D01*
X121182330Y-137771149D01*
X121121854Y-137710673D01*
X121000901Y-137650197D01*
X120819473Y-137650197D01*
X120698520Y-137710673D01*
X120638044Y-137771149D01*
X120577568Y-137892101D01*
X120577568Y-138254959D01*
X120638044Y-138375911D01*
X120698520Y-138436387D01*
X120819473Y-138496863D01*
X121000901Y-138496863D01*
X119488997Y-137650197D02*
X119488997Y-138678292D01*
X119549473Y-138799244D01*
X119609949Y-138859720D01*
X119730901Y-138920197D01*
X119912330Y-138920197D01*
X120033282Y-138859720D01*
X119488997Y-138436387D02*
X119609949Y-138496863D01*
X119851854Y-138496863D01*
X119972806Y-138436387D01*
X120033282Y-138375911D01*
X120093759Y-138254959D01*
X120093759Y-137892101D01*
X120033282Y-137771149D01*
X119972806Y-137710673D01*
X119851854Y-137650197D01*
X119609949Y-137650197D01*
X119488997Y-137710673D01*
X119005187Y-137226863D02*
X118218997Y-137226863D01*
X118642330Y-137710673D01*
X118460901Y-137710673D01*
X118339949Y-137771149D01*
X118279473Y-137831625D01*
X118218997Y-137952578D01*
X118218997Y-138254959D01*
X118279473Y-138375911D01*
X118339949Y-138436387D01*
X118460901Y-138496863D01*
X118823759Y-138496863D01*
X118944711Y-138436387D01*
X119005187Y-138375911D01*
X117130425Y-138496863D02*
X117130425Y-137226863D01*
X117130425Y-138436387D02*
X117251378Y-138496863D01*
X117493282Y-138496863D01*
X117614235Y-138436387D01*
X117674711Y-138375911D01*
X117735187Y-138254959D01*
X117735187Y-137892101D01*
X117674711Y-137771149D01*
X117614235Y-137710673D01*
X117493282Y-137650197D01*
X117251378Y-137650197D01*
X117130425Y-137710673D01*
X116162806Y-137226863D02*
X116162806Y-138134006D01*
X116223282Y-138315435D01*
X116344235Y-138436387D01*
X116525663Y-138496863D01*
X116646616Y-138496863D01*
X115376616Y-138496863D02*
X115497568Y-138436387D01*
X115558044Y-138375911D01*
X115618520Y-138254959D01*
X115618520Y-137892101D01*
X115558044Y-137771149D01*
X115497568Y-137710673D01*
X115376616Y-137650197D01*
X115195187Y-137650197D01*
X115074235Y-137710673D01*
X115013759Y-137771149D01*
X114953282Y-137892101D01*
X114953282Y-138254959D01*
X115013759Y-138375911D01*
X115074235Y-138436387D01*
X115195187Y-138496863D01*
X115376616Y-138496863D01*
X114529949Y-137650197D02*
X114227568Y-138496863D01*
X113925187Y-137650197D02*
X114227568Y-138496863D01*
X114348520Y-138799244D01*
X114408997Y-138859720D01*
X114529949Y-138920197D01*
X113501854Y-138436387D02*
X113380901Y-138496863D01*
X113138997Y-138496863D01*
X113018044Y-138436387D01*
X112957568Y-138315435D01*
X112957568Y-138254959D01*
X113018044Y-138134006D01*
X113138997Y-138073530D01*
X113320425Y-138073530D01*
X113441378Y-138013054D01*
X113501854Y-137892101D01*
X113501854Y-137831625D01*
X113441378Y-137710673D01*
X113320425Y-137650197D01*
X113138997Y-137650197D01*
X113018044Y-137710673D01*
X112594711Y-137650197D02*
X112110901Y-137650197D01*
X112413282Y-137226863D02*
X112413282Y-138315435D01*
X112352806Y-138436387D01*
X112231854Y-138496863D01*
X112110901Y-138496863D01*
X111687568Y-138496863D02*
X111687568Y-137650197D01*
X111687568Y-137226863D02*
X111748044Y-137287340D01*
X111687568Y-137347816D01*
X111627092Y-137287340D01*
X111687568Y-137226863D01*
X111687568Y-137347816D01*
X110538520Y-138436387D02*
X110659473Y-138496863D01*
X110901378Y-138496863D01*
X111022330Y-138436387D01*
X111082806Y-138375911D01*
X111143282Y-138254959D01*
X111143282Y-137892101D01*
X111082806Y-137771149D01*
X111022330Y-137710673D01*
X110901378Y-137650197D01*
X110659473Y-137650197D01*
X110538520Y-137710673D01*
X109994235Y-138496863D02*
X109994235Y-137226863D01*
X109873282Y-138013054D02*
X109510425Y-138496863D01*
X109510425Y-137650197D02*
X109994235Y-138134006D01*
X109268520Y-138617816D02*
X108300901Y-138617816D01*
X107817092Y-138496863D02*
X107938044Y-138436387D01*
X107998520Y-138315435D01*
X107998520Y-137226863D01*
X106849473Y-138436387D02*
X106970425Y-138496863D01*
X107212330Y-138496863D01*
X107333282Y-138436387D01*
X107393759Y-138315435D01*
X107393759Y-137831625D01*
X107333282Y-137710673D01*
X107212330Y-137650197D01*
X106970425Y-137650197D01*
X106849473Y-137710673D01*
X106788997Y-137831625D01*
X106788997Y-137952578D01*
X107393759Y-138073530D01*
X106426140Y-137650197D02*
X105942330Y-137650197D01*
X106244711Y-138496863D02*
X106244711Y-137408292D01*
X106184235Y-137287340D01*
X106063282Y-137226863D01*
X105942330Y-137226863D01*
X105700425Y-137650197D02*
X105216616Y-137650197D01*
X105518997Y-137226863D02*
X105518997Y-138315435D01*
X105458520Y-138436387D01*
X105337568Y-138496863D01*
X105216616Y-138496863D01*
%TO.C,R14*%
D10*
X143008797Y-93771940D02*
X143342130Y-93295750D01*
X143580225Y-93771940D02*
X143580225Y-92771940D01*
X143199273Y-92771940D01*
X143104035Y-92819560D01*
X143056416Y-92867179D01*
X143008797Y-92962417D01*
X143008797Y-93105274D01*
X143056416Y-93200512D01*
X143104035Y-93248131D01*
X143199273Y-93295750D01*
X143580225Y-93295750D01*
X142056416Y-93771940D02*
X142627844Y-93771940D01*
X142342130Y-93771940D02*
X142342130Y-92771940D01*
X142437368Y-92914798D01*
X142532606Y-93010036D01*
X142627844Y-93057655D01*
X141199273Y-93105274D02*
X141199273Y-93771940D01*
X141437368Y-92724321D02*
X141675463Y-93438607D01*
X141056416Y-93438607D01*
%TO.C,R13*%
X139221117Y-93705920D02*
X139554450Y-93229730D01*
X139792545Y-93705920D02*
X139792545Y-92705920D01*
X139411593Y-92705920D01*
X139316355Y-92753540D01*
X139268736Y-92801159D01*
X139221117Y-92896397D01*
X139221117Y-93039254D01*
X139268736Y-93134492D01*
X139316355Y-93182111D01*
X139411593Y-93229730D01*
X139792545Y-93229730D01*
X138268736Y-93705920D02*
X138840164Y-93705920D01*
X138554450Y-93705920D02*
X138554450Y-92705920D01*
X138649688Y-92848778D01*
X138744926Y-92944016D01*
X138840164Y-92991635D01*
X137935402Y-92705920D02*
X137316355Y-92705920D01*
X137649688Y-93086873D01*
X137506831Y-93086873D01*
X137411593Y-93134492D01*
X137363974Y-93182111D01*
X137316355Y-93277349D01*
X137316355Y-93515444D01*
X137363974Y-93610682D01*
X137411593Y-93658301D01*
X137506831Y-93705920D01*
X137792545Y-93705920D01*
X137887783Y-93658301D01*
X137935402Y-93610682D01*
%TO.C,R12*%
X163075857Y-121864380D02*
X163409190Y-121388190D01*
X163647285Y-121864380D02*
X163647285Y-120864380D01*
X163266333Y-120864380D01*
X163171095Y-120912000D01*
X163123476Y-120959619D01*
X163075857Y-121054857D01*
X163075857Y-121197714D01*
X163123476Y-121292952D01*
X163171095Y-121340571D01*
X163266333Y-121388190D01*
X163647285Y-121388190D01*
X162123476Y-121864380D02*
X162694904Y-121864380D01*
X162409190Y-121864380D02*
X162409190Y-120864380D01*
X162504428Y-121007238D01*
X162599666Y-121102476D01*
X162694904Y-121150095D01*
X161742523Y-120959619D02*
X161694904Y-120912000D01*
X161599666Y-120864380D01*
X161361571Y-120864380D01*
X161266333Y-120912000D01*
X161218714Y-120959619D01*
X161171095Y-121054857D01*
X161171095Y-121150095D01*
X161218714Y-121292952D01*
X161790142Y-121864380D01*
X161171095Y-121864380D01*
%TO.C,R11*%
X105671857Y-121991380D02*
X106005190Y-121515190D01*
X106243285Y-121991380D02*
X106243285Y-120991380D01*
X105862333Y-120991380D01*
X105767095Y-121039000D01*
X105719476Y-121086619D01*
X105671857Y-121181857D01*
X105671857Y-121324714D01*
X105719476Y-121419952D01*
X105767095Y-121467571D01*
X105862333Y-121515190D01*
X106243285Y-121515190D01*
X104719476Y-121991380D02*
X105290904Y-121991380D01*
X105005190Y-121991380D02*
X105005190Y-120991380D01*
X105100428Y-121134238D01*
X105195666Y-121229476D01*
X105290904Y-121277095D01*
X103767095Y-121991380D02*
X104338523Y-121991380D01*
X104052809Y-121991380D02*
X104052809Y-120991380D01*
X104148047Y-121134238D01*
X104243285Y-121229476D01*
X104338523Y-121277095D01*
%TO.C,C10*%
X139721857Y-84173542D02*
X139769476Y-84221161D01*
X139912333Y-84268780D01*
X140007571Y-84268780D01*
X140150428Y-84221161D01*
X140245666Y-84125923D01*
X140293285Y-84030685D01*
X140340904Y-83840209D01*
X140340904Y-83697352D01*
X140293285Y-83506876D01*
X140245666Y-83411638D01*
X140150428Y-83316400D01*
X140007571Y-83268780D01*
X139912333Y-83268780D01*
X139769476Y-83316400D01*
X139721857Y-83364019D01*
X138769476Y-84268780D02*
X139340904Y-84268780D01*
X139055190Y-84268780D02*
X139055190Y-83268780D01*
X139150428Y-83411638D01*
X139245666Y-83506876D01*
X139340904Y-83554495D01*
X138150428Y-83268780D02*
X138055190Y-83268780D01*
X137959952Y-83316400D01*
X137912333Y-83364019D01*
X137864714Y-83459257D01*
X137817095Y-83649733D01*
X137817095Y-83887828D01*
X137864714Y-84078304D01*
X137912333Y-84173542D01*
X137959952Y-84221161D01*
X138055190Y-84268780D01*
X138150428Y-84268780D01*
X138245666Y-84221161D01*
X138293285Y-84173542D01*
X138340904Y-84078304D01*
X138388523Y-83887828D01*
X138388523Y-83649733D01*
X138340904Y-83459257D01*
X138293285Y-83364019D01*
X138245666Y-83316400D01*
X138150428Y-83268780D01*
%TO.C,C9*%
X144998666Y-88818742D02*
X145046285Y-88866361D01*
X145189142Y-88913980D01*
X145284380Y-88913980D01*
X145427238Y-88866361D01*
X145522476Y-88771123D01*
X145570095Y-88675885D01*
X145617714Y-88485409D01*
X145617714Y-88342552D01*
X145570095Y-88152076D01*
X145522476Y-88056838D01*
X145427238Y-87961600D01*
X145284380Y-87913980D01*
X145189142Y-87913980D01*
X145046285Y-87961600D01*
X144998666Y-88009219D01*
X144522476Y-88913980D02*
X144332000Y-88913980D01*
X144236761Y-88866361D01*
X144189142Y-88818742D01*
X144093904Y-88675885D01*
X144046285Y-88485409D01*
X144046285Y-88104457D01*
X144093904Y-88009219D01*
X144141523Y-87961600D01*
X144236761Y-87913980D01*
X144427238Y-87913980D01*
X144522476Y-87961600D01*
X144570095Y-88009219D01*
X144617714Y-88104457D01*
X144617714Y-88342552D01*
X144570095Y-88437790D01*
X144522476Y-88485409D01*
X144427238Y-88533028D01*
X144236761Y-88533028D01*
X144141523Y-88485409D01*
X144093904Y-88437790D01*
X144046285Y-88342552D01*
%TO.C,R10*%
X142710897Y-103732860D02*
X143044230Y-103256670D01*
X143282325Y-103732860D02*
X143282325Y-102732860D01*
X142901373Y-102732860D01*
X142806135Y-102780480D01*
X142758516Y-102828099D01*
X142710897Y-102923337D01*
X142710897Y-103066194D01*
X142758516Y-103161432D01*
X142806135Y-103209051D01*
X142901373Y-103256670D01*
X143282325Y-103256670D01*
X141758516Y-103732860D02*
X142329944Y-103732860D01*
X142044230Y-103732860D02*
X142044230Y-102732860D01*
X142139468Y-102875718D01*
X142234706Y-102970956D01*
X142329944Y-103018575D01*
X141139468Y-102732860D02*
X141044230Y-102732860D01*
X140948992Y-102780480D01*
X140901373Y-102828099D01*
X140853754Y-102923337D01*
X140806135Y-103113813D01*
X140806135Y-103351908D01*
X140853754Y-103542384D01*
X140901373Y-103637622D01*
X140948992Y-103685241D01*
X141044230Y-103732860D01*
X141139468Y-103732860D01*
X141234706Y-103685241D01*
X141282325Y-103637622D01*
X141329944Y-103542384D01*
X141377563Y-103351908D01*
X141377563Y-103113813D01*
X141329944Y-102923337D01*
X141282325Y-102828099D01*
X141234706Y-102780480D01*
X141139468Y-102732860D01*
%TO.C,R9*%
X146418666Y-99892380D02*
X146752000Y-99416190D01*
X146990095Y-99892380D02*
X146990095Y-98892380D01*
X146609142Y-98892380D01*
X146513904Y-98940000D01*
X146466285Y-98987619D01*
X146418666Y-99082857D01*
X146418666Y-99225714D01*
X146466285Y-99320952D01*
X146513904Y-99368571D01*
X146609142Y-99416190D01*
X146990095Y-99416190D01*
X145942476Y-99892380D02*
X145752000Y-99892380D01*
X145656761Y-99844761D01*
X145609142Y-99797142D01*
X145513904Y-99654285D01*
X145466285Y-99463809D01*
X145466285Y-99082857D01*
X145513904Y-98987619D01*
X145561523Y-98940000D01*
X145656761Y-98892380D01*
X145847238Y-98892380D01*
X145942476Y-98940000D01*
X145990095Y-98987619D01*
X146037714Y-99082857D01*
X146037714Y-99320952D01*
X145990095Y-99416190D01*
X145942476Y-99463809D01*
X145847238Y-99511428D01*
X145656761Y-99511428D01*
X145561523Y-99463809D01*
X145513904Y-99416190D01*
X145466285Y-99320952D01*
%TO.C,R8*%
X187521666Y-119221380D02*
X187855000Y-118745190D01*
X188093095Y-119221380D02*
X188093095Y-118221380D01*
X187712142Y-118221380D01*
X187616904Y-118269000D01*
X187569285Y-118316619D01*
X187521666Y-118411857D01*
X187521666Y-118554714D01*
X187569285Y-118649952D01*
X187616904Y-118697571D01*
X187712142Y-118745190D01*
X188093095Y-118745190D01*
X186950238Y-118649952D02*
X187045476Y-118602333D01*
X187093095Y-118554714D01*
X187140714Y-118459476D01*
X187140714Y-118411857D01*
X187093095Y-118316619D01*
X187045476Y-118269000D01*
X186950238Y-118221380D01*
X186759761Y-118221380D01*
X186664523Y-118269000D01*
X186616904Y-118316619D01*
X186569285Y-118411857D01*
X186569285Y-118459476D01*
X186616904Y-118554714D01*
X186664523Y-118602333D01*
X186759761Y-118649952D01*
X186950238Y-118649952D01*
X187045476Y-118697571D01*
X187093095Y-118745190D01*
X187140714Y-118840428D01*
X187140714Y-119030904D01*
X187093095Y-119126142D01*
X187045476Y-119173761D01*
X186950238Y-119221380D01*
X186759761Y-119221380D01*
X186664523Y-119173761D01*
X186616904Y-119126142D01*
X186569285Y-119030904D01*
X186569285Y-118840428D01*
X186616904Y-118745190D01*
X186664523Y-118697571D01*
X186759761Y-118649952D01*
%TO.C,R7*%
X174807666Y-106623380D02*
X175141000Y-106147190D01*
X175379095Y-106623380D02*
X175379095Y-105623380D01*
X174998142Y-105623380D01*
X174902904Y-105671000D01*
X174855285Y-105718619D01*
X174807666Y-105813857D01*
X174807666Y-105956714D01*
X174855285Y-106051952D01*
X174902904Y-106099571D01*
X174998142Y-106147190D01*
X175379095Y-106147190D01*
X174474333Y-105623380D02*
X173807666Y-105623380D01*
X174236238Y-106623380D01*
%TO.C,R6*%
X200152666Y-106631380D02*
X200486000Y-106155190D01*
X200724095Y-106631380D02*
X200724095Y-105631380D01*
X200343142Y-105631380D01*
X200247904Y-105679000D01*
X200200285Y-105726619D01*
X200152666Y-105821857D01*
X200152666Y-105964714D01*
X200200285Y-106059952D01*
X200247904Y-106107571D01*
X200343142Y-106155190D01*
X200724095Y-106155190D01*
X199295523Y-105631380D02*
X199486000Y-105631380D01*
X199581238Y-105679000D01*
X199628857Y-105726619D01*
X199724095Y-105869476D01*
X199771714Y-106059952D01*
X199771714Y-106440904D01*
X199724095Y-106536142D01*
X199676476Y-106583761D01*
X199581238Y-106631380D01*
X199390761Y-106631380D01*
X199295523Y-106583761D01*
X199247904Y-106536142D01*
X199200285Y-106440904D01*
X199200285Y-106202809D01*
X199247904Y-106107571D01*
X199295523Y-106059952D01*
X199390761Y-106012333D01*
X199581238Y-106012333D01*
X199676476Y-106059952D01*
X199724095Y-106107571D01*
X199771714Y-106202809D01*
%TO.C,R5*%
X187475666Y-93923380D02*
X187809000Y-93447190D01*
X188047095Y-93923380D02*
X188047095Y-92923380D01*
X187666142Y-92923380D01*
X187570904Y-92971000D01*
X187523285Y-93018619D01*
X187475666Y-93113857D01*
X187475666Y-93256714D01*
X187523285Y-93351952D01*
X187570904Y-93399571D01*
X187666142Y-93447190D01*
X188047095Y-93447190D01*
X186570904Y-92923380D02*
X187047095Y-92923380D01*
X187094714Y-93399571D01*
X187047095Y-93351952D01*
X186951857Y-93304333D01*
X186713761Y-93304333D01*
X186618523Y-93351952D01*
X186570904Y-93399571D01*
X186523285Y-93494809D01*
X186523285Y-93732904D01*
X186570904Y-93828142D01*
X186618523Y-93875761D01*
X186713761Y-93923380D01*
X186951857Y-93923380D01*
X187047095Y-93875761D01*
X187094714Y-93828142D01*
%TO.C,R4*%
X90987666Y-93557580D02*
X91321000Y-93081390D01*
X91559095Y-93557580D02*
X91559095Y-92557580D01*
X91178142Y-92557580D01*
X91082904Y-92605200D01*
X91035285Y-92652819D01*
X90987666Y-92748057D01*
X90987666Y-92890914D01*
X91035285Y-92986152D01*
X91082904Y-93033771D01*
X91178142Y-93081390D01*
X91559095Y-93081390D01*
X90130523Y-92890914D02*
X90130523Y-93557580D01*
X90368619Y-92509961D02*
X90606714Y-93224247D01*
X89987666Y-93224247D01*
%TO.C,R3*%
X70921666Y-102942380D02*
X71255000Y-102466190D01*
X71493095Y-102942380D02*
X71493095Y-101942380D01*
X71112142Y-101942380D01*
X71016904Y-101990000D01*
X70969285Y-102037619D01*
X70921666Y-102132857D01*
X70921666Y-102275714D01*
X70969285Y-102370952D01*
X71016904Y-102418571D01*
X71112142Y-102466190D01*
X71493095Y-102466190D01*
X70588333Y-101942380D02*
X69969285Y-101942380D01*
X70302619Y-102323333D01*
X70159761Y-102323333D01*
X70064523Y-102370952D01*
X70016904Y-102418571D01*
X69969285Y-102513809D01*
X69969285Y-102751904D01*
X70016904Y-102847142D01*
X70064523Y-102894761D01*
X70159761Y-102942380D01*
X70445476Y-102942380D01*
X70540714Y-102894761D01*
X70588333Y-102847142D01*
%TO.C,R2*%
X103424666Y-118932380D02*
X103758000Y-118456190D01*
X103996095Y-118932380D02*
X103996095Y-117932380D01*
X103615142Y-117932380D01*
X103519904Y-117980000D01*
X103472285Y-118027619D01*
X103424666Y-118122857D01*
X103424666Y-118265714D01*
X103472285Y-118360952D01*
X103519904Y-118408571D01*
X103615142Y-118456190D01*
X103996095Y-118456190D01*
X103043714Y-118027619D02*
X102996095Y-117980000D01*
X102900857Y-117932380D01*
X102662761Y-117932380D01*
X102567523Y-117980000D01*
X102519904Y-118027619D01*
X102472285Y-118122857D01*
X102472285Y-118218095D01*
X102519904Y-118360952D01*
X103091333Y-118932380D01*
X102472285Y-118932380D01*
%TO.C,R1*%
X116641666Y-106242380D02*
X116975000Y-105766190D01*
X117213095Y-106242380D02*
X117213095Y-105242380D01*
X116832142Y-105242380D01*
X116736904Y-105290000D01*
X116689285Y-105337619D01*
X116641666Y-105432857D01*
X116641666Y-105575714D01*
X116689285Y-105670952D01*
X116736904Y-105718571D01*
X116832142Y-105766190D01*
X117213095Y-105766190D01*
X115689285Y-106242380D02*
X116260714Y-106242380D01*
X115975000Y-106242380D02*
X115975000Y-105242380D01*
X116070238Y-105385238D01*
X116165476Y-105480476D01*
X116260714Y-105528095D01*
%TO.C,Q1*%
X142081238Y-96853619D02*
X142176476Y-96806000D01*
X142271714Y-96710761D01*
X142414571Y-96567904D01*
X142509809Y-96520285D01*
X142605047Y-96520285D01*
X142557428Y-96758380D02*
X142652666Y-96710761D01*
X142747904Y-96615523D01*
X142795523Y-96425047D01*
X142795523Y-96091714D01*
X142747904Y-95901238D01*
X142652666Y-95806000D01*
X142557428Y-95758380D01*
X142366952Y-95758380D01*
X142271714Y-95806000D01*
X142176476Y-95901238D01*
X142128857Y-96091714D01*
X142128857Y-96425047D01*
X142176476Y-96615523D01*
X142271714Y-96710761D01*
X142366952Y-96758380D01*
X142557428Y-96758380D01*
X141176476Y-96758380D02*
X141747904Y-96758380D01*
X141462190Y-96758380D02*
X141462190Y-95758380D01*
X141557428Y-95901238D01*
X141652666Y-95996476D01*
X141747904Y-96044095D01*
%TO.C,C8*%
X179829666Y-115911142D02*
X179877285Y-115958761D01*
X180020142Y-116006380D01*
X180115380Y-116006380D01*
X180258238Y-115958761D01*
X180353476Y-115863523D01*
X180401095Y-115768285D01*
X180448714Y-115577809D01*
X180448714Y-115434952D01*
X180401095Y-115244476D01*
X180353476Y-115149238D01*
X180258238Y-115054000D01*
X180115380Y-115006380D01*
X180020142Y-115006380D01*
X179877285Y-115054000D01*
X179829666Y-115101619D01*
X179258238Y-115434952D02*
X179353476Y-115387333D01*
X179401095Y-115339714D01*
X179448714Y-115244476D01*
X179448714Y-115196857D01*
X179401095Y-115101619D01*
X179353476Y-115054000D01*
X179258238Y-115006380D01*
X179067761Y-115006380D01*
X178972523Y-115054000D01*
X178924904Y-115101619D01*
X178877285Y-115196857D01*
X178877285Y-115244476D01*
X178924904Y-115339714D01*
X178972523Y-115387333D01*
X179067761Y-115434952D01*
X179258238Y-115434952D01*
X179353476Y-115482571D01*
X179401095Y-115530190D01*
X179448714Y-115625428D01*
X179448714Y-115815904D01*
X179401095Y-115911142D01*
X179353476Y-115958761D01*
X179258238Y-116006380D01*
X179067761Y-116006380D01*
X178972523Y-115958761D01*
X178924904Y-115911142D01*
X178877285Y-115815904D01*
X178877285Y-115625428D01*
X178924904Y-115530190D01*
X178972523Y-115482571D01*
X179067761Y-115434952D01*
%TO.C,C7*%
X179892666Y-90498142D02*
X179940285Y-90545761D01*
X180083142Y-90593380D01*
X180178380Y-90593380D01*
X180321238Y-90545761D01*
X180416476Y-90450523D01*
X180464095Y-90355285D01*
X180511714Y-90164809D01*
X180511714Y-90021952D01*
X180464095Y-89831476D01*
X180416476Y-89736238D01*
X180321238Y-89641000D01*
X180178380Y-89593380D01*
X180083142Y-89593380D01*
X179940285Y-89641000D01*
X179892666Y-89688619D01*
X179559333Y-89593380D02*
X178892666Y-89593380D01*
X179321238Y-90593380D01*
%TO.C,C6*%
X167192666Y-103198142D02*
X167240285Y-103245761D01*
X167383142Y-103293380D01*
X167478380Y-103293380D01*
X167621238Y-103245761D01*
X167716476Y-103150523D01*
X167764095Y-103055285D01*
X167811714Y-102864809D01*
X167811714Y-102721952D01*
X167764095Y-102531476D01*
X167716476Y-102436238D01*
X167621238Y-102341000D01*
X167478380Y-102293380D01*
X167383142Y-102293380D01*
X167240285Y-102341000D01*
X167192666Y-102388619D01*
X166335523Y-102293380D02*
X166526000Y-102293380D01*
X166621238Y-102341000D01*
X166668857Y-102388619D01*
X166764095Y-102531476D01*
X166811714Y-102721952D01*
X166811714Y-103102904D01*
X166764095Y-103198142D01*
X166716476Y-103245761D01*
X166621238Y-103293380D01*
X166430761Y-103293380D01*
X166335523Y-103245761D01*
X166287904Y-103198142D01*
X166240285Y-103102904D01*
X166240285Y-102864809D01*
X166287904Y-102769571D01*
X166335523Y-102721952D01*
X166430761Y-102674333D01*
X166621238Y-102674333D01*
X166716476Y-102721952D01*
X166764095Y-102769571D01*
X166811714Y-102864809D01*
%TO.C,C5*%
X192565666Y-103162142D02*
X192613285Y-103209761D01*
X192756142Y-103257380D01*
X192851380Y-103257380D01*
X192994238Y-103209761D01*
X193089476Y-103114523D01*
X193137095Y-103019285D01*
X193184714Y-102828809D01*
X193184714Y-102685952D01*
X193137095Y-102495476D01*
X193089476Y-102400238D01*
X192994238Y-102305000D01*
X192851380Y-102257380D01*
X192756142Y-102257380D01*
X192613285Y-102305000D01*
X192565666Y-102352619D01*
X191660904Y-102257380D02*
X192137095Y-102257380D01*
X192184714Y-102733571D01*
X192137095Y-102685952D01*
X192041857Y-102638333D01*
X191803761Y-102638333D01*
X191708523Y-102685952D01*
X191660904Y-102733571D01*
X191613285Y-102828809D01*
X191613285Y-103066904D01*
X191660904Y-103162142D01*
X191708523Y-103209761D01*
X191803761Y-103257380D01*
X192041857Y-103257380D01*
X192137095Y-103209761D01*
X192184714Y-103162142D01*
%TO.C,C4*%
X83566366Y-90104442D02*
X83613985Y-90152061D01*
X83756842Y-90199680D01*
X83852080Y-90199680D01*
X83994938Y-90152061D01*
X84090176Y-90056823D01*
X84137795Y-89961585D01*
X84185414Y-89771109D01*
X84185414Y-89628252D01*
X84137795Y-89437776D01*
X84090176Y-89342538D01*
X83994938Y-89247300D01*
X83852080Y-89199680D01*
X83756842Y-89199680D01*
X83613985Y-89247300D01*
X83566366Y-89294919D01*
X82709223Y-89533014D02*
X82709223Y-90199680D01*
X82947319Y-89152061D02*
X83185414Y-89866347D01*
X82566366Y-89866347D01*
%TO.C,C3*%
X108632666Y-102792142D02*
X108680285Y-102839761D01*
X108823142Y-102887380D01*
X108918380Y-102887380D01*
X109061238Y-102839761D01*
X109156476Y-102744523D01*
X109204095Y-102649285D01*
X109251714Y-102458809D01*
X109251714Y-102315952D01*
X109204095Y-102125476D01*
X109156476Y-102030238D01*
X109061238Y-101935000D01*
X108918380Y-101887380D01*
X108823142Y-101887380D01*
X108680285Y-101935000D01*
X108632666Y-101982619D01*
X108299333Y-101887380D02*
X107680285Y-101887380D01*
X108013619Y-102268333D01*
X107870761Y-102268333D01*
X107775523Y-102315952D01*
X107727904Y-102363571D01*
X107680285Y-102458809D01*
X107680285Y-102696904D01*
X107727904Y-102792142D01*
X107775523Y-102839761D01*
X107870761Y-102887380D01*
X108156476Y-102887380D01*
X108251714Y-102839761D01*
X108299333Y-102792142D01*
%TO.C,C2*%
X78420166Y-102719142D02*
X78467785Y-102766761D01*
X78610642Y-102814380D01*
X78705880Y-102814380D01*
X78848738Y-102766761D01*
X78943976Y-102671523D01*
X78991595Y-102576285D01*
X79039214Y-102385809D01*
X79039214Y-102242952D01*
X78991595Y-102052476D01*
X78943976Y-101957238D01*
X78848738Y-101862000D01*
X78705880Y-101814380D01*
X78610642Y-101814380D01*
X78467785Y-101862000D01*
X78420166Y-101909619D01*
X78039214Y-101909619D02*
X77991595Y-101862000D01*
X77896357Y-101814380D01*
X77658261Y-101814380D01*
X77563023Y-101862000D01*
X77515404Y-101909619D01*
X77467785Y-102004857D01*
X77467785Y-102100095D01*
X77515404Y-102242952D01*
X78086833Y-102814380D01*
X77467785Y-102814380D01*
%TO.C,C1*%
X96121566Y-115540142D02*
X96169185Y-115587761D01*
X96312042Y-115635380D01*
X96407280Y-115635380D01*
X96550138Y-115587761D01*
X96645376Y-115492523D01*
X96692995Y-115397285D01*
X96740614Y-115206809D01*
X96740614Y-115063952D01*
X96692995Y-114873476D01*
X96645376Y-114778238D01*
X96550138Y-114683000D01*
X96407280Y-114635380D01*
X96312042Y-114635380D01*
X96169185Y-114683000D01*
X96121566Y-114730619D01*
X95169185Y-115635380D02*
X95740614Y-115635380D01*
X95454900Y-115635380D02*
X95454900Y-114635380D01*
X95550138Y-114778238D01*
X95645376Y-114873476D01*
X95740614Y-114921095D01*
%TD*%
M02*
