%TF.GenerationSoftware,KiCad,Pcbnew,(5.1.8)-1*%
%TF.CreationDate,2020-11-24T01:58:45+03:00*%
%TF.ProjectId,mesp240_gamepadshield,6d657370-3234-4305-9f67-616d65706164,rev?*%
%TF.SameCoordinates,Original*%
%TF.FileFunction,Legend,Bot*%
%TF.FilePolarity,Positive*%
%FSLAX46Y46*%
G04 Gerber Fmt 4.6, Leading zero omitted, Abs format (unit mm)*
G04 Created by KiCad (PCBNEW (5.1.8)-1) date 2020-11-24 01:58:45*
%MOMM*%
%LPD*%
G01*
G04 APERTURE LIST*
%ADD10C,0.150000*%
%ADD11C,0.120000*%
G04 APERTURE END LIST*
D10*
X144197605Y-97790000D02*
G75*
G03*
X144197605Y-97790000I-179605J0D01*
G01*
X136016952Y-101417428D02*
X135255047Y-101417428D01*
X135636000Y-101798380D02*
X135636000Y-101036476D01*
X140560857Y-104075714D02*
X140432285Y-104118571D01*
X140389428Y-104161428D01*
X140346571Y-104247142D01*
X140346571Y-104375714D01*
X140389428Y-104461428D01*
X140432285Y-104504285D01*
X140518000Y-104547142D01*
X140860857Y-104547142D01*
X140860857Y-103647142D01*
X140560857Y-103647142D01*
X140475142Y-103690000D01*
X140432285Y-103732857D01*
X140389428Y-103818571D01*
X140389428Y-103904285D01*
X140432285Y-103990000D01*
X140475142Y-104032857D01*
X140560857Y-104075714D01*
X140860857Y-104075714D01*
X139575142Y-103947142D02*
X139575142Y-104547142D01*
X139960857Y-103947142D02*
X139960857Y-104418571D01*
X139918000Y-104504285D01*
X139832285Y-104547142D01*
X139703714Y-104547142D01*
X139618000Y-104504285D01*
X139575142Y-104461428D01*
X139232285Y-103947142D02*
X138760857Y-103947142D01*
X139232285Y-104547142D01*
X138760857Y-104547142D01*
X138503714Y-103947142D02*
X138032285Y-103947142D01*
X138503714Y-104547142D01*
X138032285Y-104547142D01*
X137346571Y-104504285D02*
X137432285Y-104547142D01*
X137603714Y-104547142D01*
X137689428Y-104504285D01*
X137732285Y-104418571D01*
X137732285Y-104075714D01*
X137689428Y-103990000D01*
X137603714Y-103947142D01*
X137432285Y-103947142D01*
X137346571Y-103990000D01*
X137303714Y-104075714D01*
X137303714Y-104161428D01*
X137732285Y-104247142D01*
X136918000Y-104547142D02*
X136918000Y-103947142D01*
X136918000Y-104118571D02*
X136875142Y-104032857D01*
X136832285Y-103990000D01*
X136746571Y-103947142D01*
X136660857Y-103947142D01*
X135246571Y-103647142D02*
X135675142Y-103647142D01*
X135718000Y-104075714D01*
X135675142Y-104032857D01*
X135589428Y-103990000D01*
X135375142Y-103990000D01*
X135289428Y-104032857D01*
X135246571Y-104075714D01*
X135203714Y-104161428D01*
X135203714Y-104375714D01*
X135246571Y-104461428D01*
X135289428Y-104504285D01*
X135375142Y-104547142D01*
X135589428Y-104547142D01*
X135675142Y-104504285D01*
X135718000Y-104461428D01*
X134946571Y-103647142D02*
X134646571Y-104547142D01*
X134346571Y-103647142D01*
D11*
%TO.C,R10*%
X146457936Y-117575000D02*
X146912064Y-117575000D01*
X146457936Y-116105000D02*
X146912064Y-116105000D01*
%TO.C,R9*%
X146584936Y-98525000D02*
X147039064Y-98525000D01*
X146584936Y-97055000D02*
X147039064Y-97055000D01*
%TO.C,R8*%
X197908936Y-117575000D02*
X198363064Y-117575000D01*
X197908936Y-116105000D02*
X198363064Y-116105000D01*
%TO.C,R7*%
X184668936Y-104875000D02*
X185123064Y-104875000D01*
X184668936Y-103405000D02*
X185123064Y-103405000D01*
%TO.C,R6*%
X209814936Y-104875000D02*
X210269064Y-104875000D01*
X209814936Y-103405000D02*
X210269064Y-103405000D01*
%TO.C,R5*%
X197876936Y-92175000D02*
X198331064Y-92175000D01*
X197876936Y-90705000D02*
X198331064Y-90705000D01*
%TO.C,R4*%
X105198936Y-92175000D02*
X105653064Y-92175000D01*
X105198936Y-90705000D02*
X105653064Y-90705000D01*
%TO.C,R3*%
X72363064Y-103405000D02*
X71908936Y-103405000D01*
X72363064Y-104875000D02*
X71908936Y-104875000D01*
%TO.C,R2*%
X105452936Y-117575000D02*
X105907064Y-117575000D01*
X105452936Y-116105000D02*
X105907064Y-116105000D01*
%TO.C,R1*%
X117866936Y-104875000D02*
X118321064Y-104875000D01*
X117866936Y-103405000D02*
X118321064Y-103405000D01*
%TO.C,Q1*%
X141226000Y-100386000D02*
X141226000Y-99456000D01*
X141226000Y-97226000D02*
X141226000Y-98156000D01*
X141226000Y-97226000D02*
X143386000Y-97226000D01*
X141226000Y-100386000D02*
X142686000Y-100386000D01*
%TO.C,C8*%
X187945752Y-116105000D02*
X187423248Y-116105000D01*
X187945752Y-117575000D02*
X187423248Y-117575000D01*
%TO.C,C7*%
X187988752Y-90705000D02*
X187466248Y-90705000D01*
X187988752Y-92175000D02*
X187466248Y-92175000D01*
%TO.C,C6*%
X175245752Y-103405000D02*
X174723248Y-103405000D01*
X175245752Y-104875000D02*
X174723248Y-104875000D01*
%TO.C,C5*%
X201196752Y-103405000D02*
X200674248Y-103405000D01*
X201196752Y-104875000D02*
X200674248Y-104875000D01*
%TO.C,C4*%
X97521752Y-90705000D02*
X96999248Y-90705000D01*
X97521752Y-92175000D02*
X96999248Y-92175000D01*
%TO.C,C3*%
X109989252Y-103405000D02*
X109466748Y-103405000D01*
X109989252Y-104875000D02*
X109466748Y-104875000D01*
%TO.C,C2*%
X80256748Y-104875000D02*
X80779252Y-104875000D01*
X80256748Y-103405000D02*
X80779252Y-103405000D01*
%TO.C,C1*%
X97289252Y-116105000D02*
X96766748Y-116105000D01*
X97289252Y-117575000D02*
X96766748Y-117575000D01*
%TO.C,R10*%
D10*
X147327857Y-118942380D02*
X147661190Y-118466190D01*
X147899285Y-118942380D02*
X147899285Y-117942380D01*
X147518333Y-117942380D01*
X147423095Y-117990000D01*
X147375476Y-118037619D01*
X147327857Y-118132857D01*
X147327857Y-118275714D01*
X147375476Y-118370952D01*
X147423095Y-118418571D01*
X147518333Y-118466190D01*
X147899285Y-118466190D01*
X146375476Y-118942380D02*
X146946904Y-118942380D01*
X146661190Y-118942380D02*
X146661190Y-117942380D01*
X146756428Y-118085238D01*
X146851666Y-118180476D01*
X146946904Y-118228095D01*
X145756428Y-117942380D02*
X145661190Y-117942380D01*
X145565952Y-117990000D01*
X145518333Y-118037619D01*
X145470714Y-118132857D01*
X145423095Y-118323333D01*
X145423095Y-118561428D01*
X145470714Y-118751904D01*
X145518333Y-118847142D01*
X145565952Y-118894761D01*
X145661190Y-118942380D01*
X145756428Y-118942380D01*
X145851666Y-118894761D01*
X145899285Y-118847142D01*
X145946904Y-118751904D01*
X145994523Y-118561428D01*
X145994523Y-118323333D01*
X145946904Y-118132857D01*
X145899285Y-118037619D01*
X145851666Y-117990000D01*
X145756428Y-117942380D01*
%TO.C,R9*%
X146978666Y-99892380D02*
X147312000Y-99416190D01*
X147550095Y-99892380D02*
X147550095Y-98892380D01*
X147169142Y-98892380D01*
X147073904Y-98940000D01*
X147026285Y-98987619D01*
X146978666Y-99082857D01*
X146978666Y-99225714D01*
X147026285Y-99320952D01*
X147073904Y-99368571D01*
X147169142Y-99416190D01*
X147550095Y-99416190D01*
X146502476Y-99892380D02*
X146312000Y-99892380D01*
X146216761Y-99844761D01*
X146169142Y-99797142D01*
X146073904Y-99654285D01*
X146026285Y-99463809D01*
X146026285Y-99082857D01*
X146073904Y-98987619D01*
X146121523Y-98940000D01*
X146216761Y-98892380D01*
X146407238Y-98892380D01*
X146502476Y-98940000D01*
X146550095Y-98987619D01*
X146597714Y-99082857D01*
X146597714Y-99320952D01*
X146550095Y-99416190D01*
X146502476Y-99463809D01*
X146407238Y-99511428D01*
X146216761Y-99511428D01*
X146121523Y-99463809D01*
X146073904Y-99416190D01*
X146026285Y-99320952D01*
%TO.C,R8*%
X198302666Y-118942380D02*
X198636000Y-118466190D01*
X198874095Y-118942380D02*
X198874095Y-117942380D01*
X198493142Y-117942380D01*
X198397904Y-117990000D01*
X198350285Y-118037619D01*
X198302666Y-118132857D01*
X198302666Y-118275714D01*
X198350285Y-118370952D01*
X198397904Y-118418571D01*
X198493142Y-118466190D01*
X198874095Y-118466190D01*
X197731238Y-118370952D02*
X197826476Y-118323333D01*
X197874095Y-118275714D01*
X197921714Y-118180476D01*
X197921714Y-118132857D01*
X197874095Y-118037619D01*
X197826476Y-117990000D01*
X197731238Y-117942380D01*
X197540761Y-117942380D01*
X197445523Y-117990000D01*
X197397904Y-118037619D01*
X197350285Y-118132857D01*
X197350285Y-118180476D01*
X197397904Y-118275714D01*
X197445523Y-118323333D01*
X197540761Y-118370952D01*
X197731238Y-118370952D01*
X197826476Y-118418571D01*
X197874095Y-118466190D01*
X197921714Y-118561428D01*
X197921714Y-118751904D01*
X197874095Y-118847142D01*
X197826476Y-118894761D01*
X197731238Y-118942380D01*
X197540761Y-118942380D01*
X197445523Y-118894761D01*
X197397904Y-118847142D01*
X197350285Y-118751904D01*
X197350285Y-118561428D01*
X197397904Y-118466190D01*
X197445523Y-118418571D01*
X197540761Y-118370952D01*
%TO.C,R7*%
X185062666Y-106242380D02*
X185396000Y-105766190D01*
X185634095Y-106242380D02*
X185634095Y-105242380D01*
X185253142Y-105242380D01*
X185157904Y-105290000D01*
X185110285Y-105337619D01*
X185062666Y-105432857D01*
X185062666Y-105575714D01*
X185110285Y-105670952D01*
X185157904Y-105718571D01*
X185253142Y-105766190D01*
X185634095Y-105766190D01*
X184729333Y-105242380D02*
X184062666Y-105242380D01*
X184491238Y-106242380D01*
%TO.C,R6*%
X210208666Y-106242380D02*
X210542000Y-105766190D01*
X210780095Y-106242380D02*
X210780095Y-105242380D01*
X210399142Y-105242380D01*
X210303904Y-105290000D01*
X210256285Y-105337619D01*
X210208666Y-105432857D01*
X210208666Y-105575714D01*
X210256285Y-105670952D01*
X210303904Y-105718571D01*
X210399142Y-105766190D01*
X210780095Y-105766190D01*
X209351523Y-105242380D02*
X209542000Y-105242380D01*
X209637238Y-105290000D01*
X209684857Y-105337619D01*
X209780095Y-105480476D01*
X209827714Y-105670952D01*
X209827714Y-106051904D01*
X209780095Y-106147142D01*
X209732476Y-106194761D01*
X209637238Y-106242380D01*
X209446761Y-106242380D01*
X209351523Y-106194761D01*
X209303904Y-106147142D01*
X209256285Y-106051904D01*
X209256285Y-105813809D01*
X209303904Y-105718571D01*
X209351523Y-105670952D01*
X209446761Y-105623333D01*
X209637238Y-105623333D01*
X209732476Y-105670952D01*
X209780095Y-105718571D01*
X209827714Y-105813809D01*
%TO.C,R5*%
X198270666Y-93542380D02*
X198604000Y-93066190D01*
X198842095Y-93542380D02*
X198842095Y-92542380D01*
X198461142Y-92542380D01*
X198365904Y-92590000D01*
X198318285Y-92637619D01*
X198270666Y-92732857D01*
X198270666Y-92875714D01*
X198318285Y-92970952D01*
X198365904Y-93018571D01*
X198461142Y-93066190D01*
X198842095Y-93066190D01*
X197365904Y-92542380D02*
X197842095Y-92542380D01*
X197889714Y-93018571D01*
X197842095Y-92970952D01*
X197746857Y-92923333D01*
X197508761Y-92923333D01*
X197413523Y-92970952D01*
X197365904Y-93018571D01*
X197318285Y-93113809D01*
X197318285Y-93351904D01*
X197365904Y-93447142D01*
X197413523Y-93494761D01*
X197508761Y-93542380D01*
X197746857Y-93542380D01*
X197842095Y-93494761D01*
X197889714Y-93447142D01*
%TO.C,R4*%
X105592666Y-93542380D02*
X105926000Y-93066190D01*
X106164095Y-93542380D02*
X106164095Y-92542380D01*
X105783142Y-92542380D01*
X105687904Y-92590000D01*
X105640285Y-92637619D01*
X105592666Y-92732857D01*
X105592666Y-92875714D01*
X105640285Y-92970952D01*
X105687904Y-93018571D01*
X105783142Y-93066190D01*
X106164095Y-93066190D01*
X104735523Y-92875714D02*
X104735523Y-93542380D01*
X104973619Y-92494761D02*
X105211714Y-93209047D01*
X104592666Y-93209047D01*
%TO.C,R3*%
X72302666Y-102942380D02*
X72636000Y-102466190D01*
X72874095Y-102942380D02*
X72874095Y-101942380D01*
X72493142Y-101942380D01*
X72397904Y-101990000D01*
X72350285Y-102037619D01*
X72302666Y-102132857D01*
X72302666Y-102275714D01*
X72350285Y-102370952D01*
X72397904Y-102418571D01*
X72493142Y-102466190D01*
X72874095Y-102466190D01*
X71969333Y-101942380D02*
X71350285Y-101942380D01*
X71683619Y-102323333D01*
X71540761Y-102323333D01*
X71445523Y-102370952D01*
X71397904Y-102418571D01*
X71350285Y-102513809D01*
X71350285Y-102751904D01*
X71397904Y-102847142D01*
X71445523Y-102894761D01*
X71540761Y-102942380D01*
X71826476Y-102942380D01*
X71921714Y-102894761D01*
X71969333Y-102847142D01*
%TO.C,R2*%
X105846666Y-118942380D02*
X106180000Y-118466190D01*
X106418095Y-118942380D02*
X106418095Y-117942380D01*
X106037142Y-117942380D01*
X105941904Y-117990000D01*
X105894285Y-118037619D01*
X105846666Y-118132857D01*
X105846666Y-118275714D01*
X105894285Y-118370952D01*
X105941904Y-118418571D01*
X106037142Y-118466190D01*
X106418095Y-118466190D01*
X105465714Y-118037619D02*
X105418095Y-117990000D01*
X105322857Y-117942380D01*
X105084761Y-117942380D01*
X104989523Y-117990000D01*
X104941904Y-118037619D01*
X104894285Y-118132857D01*
X104894285Y-118228095D01*
X104941904Y-118370952D01*
X105513333Y-118942380D01*
X104894285Y-118942380D01*
%TO.C,R1*%
X118260666Y-106242380D02*
X118594000Y-105766190D01*
X118832095Y-106242380D02*
X118832095Y-105242380D01*
X118451142Y-105242380D01*
X118355904Y-105290000D01*
X118308285Y-105337619D01*
X118260666Y-105432857D01*
X118260666Y-105575714D01*
X118308285Y-105670952D01*
X118355904Y-105718571D01*
X118451142Y-105766190D01*
X118832095Y-105766190D01*
X117308285Y-106242380D02*
X117879714Y-106242380D01*
X117594000Y-106242380D02*
X117594000Y-105242380D01*
X117689238Y-105385238D01*
X117784476Y-105480476D01*
X117879714Y-105528095D01*
%TO.C,Q1*%
X142081238Y-96853619D02*
X142176476Y-96806000D01*
X142271714Y-96710761D01*
X142414571Y-96567904D01*
X142509809Y-96520285D01*
X142605047Y-96520285D01*
X142557428Y-96758380D02*
X142652666Y-96710761D01*
X142747904Y-96615523D01*
X142795523Y-96425047D01*
X142795523Y-96091714D01*
X142747904Y-95901238D01*
X142652666Y-95806000D01*
X142557428Y-95758380D01*
X142366952Y-95758380D01*
X142271714Y-95806000D01*
X142176476Y-95901238D01*
X142128857Y-96091714D01*
X142128857Y-96425047D01*
X142176476Y-96615523D01*
X142271714Y-96710761D01*
X142366952Y-96758380D01*
X142557428Y-96758380D01*
X141176476Y-96758380D02*
X141747904Y-96758380D01*
X141462190Y-96758380D02*
X141462190Y-95758380D01*
X141557428Y-95901238D01*
X141652666Y-95996476D01*
X141747904Y-96044095D01*
%TO.C,C8*%
X187851166Y-115517142D02*
X187898785Y-115564761D01*
X188041642Y-115612380D01*
X188136880Y-115612380D01*
X188279738Y-115564761D01*
X188374976Y-115469523D01*
X188422595Y-115374285D01*
X188470214Y-115183809D01*
X188470214Y-115040952D01*
X188422595Y-114850476D01*
X188374976Y-114755238D01*
X188279738Y-114660000D01*
X188136880Y-114612380D01*
X188041642Y-114612380D01*
X187898785Y-114660000D01*
X187851166Y-114707619D01*
X187279738Y-115040952D02*
X187374976Y-114993333D01*
X187422595Y-114945714D01*
X187470214Y-114850476D01*
X187470214Y-114802857D01*
X187422595Y-114707619D01*
X187374976Y-114660000D01*
X187279738Y-114612380D01*
X187089261Y-114612380D01*
X186994023Y-114660000D01*
X186946404Y-114707619D01*
X186898785Y-114802857D01*
X186898785Y-114850476D01*
X186946404Y-114945714D01*
X186994023Y-114993333D01*
X187089261Y-115040952D01*
X187279738Y-115040952D01*
X187374976Y-115088571D01*
X187422595Y-115136190D01*
X187470214Y-115231428D01*
X187470214Y-115421904D01*
X187422595Y-115517142D01*
X187374976Y-115564761D01*
X187279738Y-115612380D01*
X187089261Y-115612380D01*
X186994023Y-115564761D01*
X186946404Y-115517142D01*
X186898785Y-115421904D01*
X186898785Y-115231428D01*
X186946404Y-115136190D01*
X186994023Y-115088571D01*
X187089261Y-115040952D01*
%TO.C,C7*%
X187894166Y-90117142D02*
X187941785Y-90164761D01*
X188084642Y-90212380D01*
X188179880Y-90212380D01*
X188322738Y-90164761D01*
X188417976Y-90069523D01*
X188465595Y-89974285D01*
X188513214Y-89783809D01*
X188513214Y-89640952D01*
X188465595Y-89450476D01*
X188417976Y-89355238D01*
X188322738Y-89260000D01*
X188179880Y-89212380D01*
X188084642Y-89212380D01*
X187941785Y-89260000D01*
X187894166Y-89307619D01*
X187560833Y-89212380D02*
X186894166Y-89212380D01*
X187322738Y-90212380D01*
%TO.C,C6*%
X175151166Y-102817142D02*
X175198785Y-102864761D01*
X175341642Y-102912380D01*
X175436880Y-102912380D01*
X175579738Y-102864761D01*
X175674976Y-102769523D01*
X175722595Y-102674285D01*
X175770214Y-102483809D01*
X175770214Y-102340952D01*
X175722595Y-102150476D01*
X175674976Y-102055238D01*
X175579738Y-101960000D01*
X175436880Y-101912380D01*
X175341642Y-101912380D01*
X175198785Y-101960000D01*
X175151166Y-102007619D01*
X174294023Y-101912380D02*
X174484500Y-101912380D01*
X174579738Y-101960000D01*
X174627357Y-102007619D01*
X174722595Y-102150476D01*
X174770214Y-102340952D01*
X174770214Y-102721904D01*
X174722595Y-102817142D01*
X174674976Y-102864761D01*
X174579738Y-102912380D01*
X174389261Y-102912380D01*
X174294023Y-102864761D01*
X174246404Y-102817142D01*
X174198785Y-102721904D01*
X174198785Y-102483809D01*
X174246404Y-102388571D01*
X174294023Y-102340952D01*
X174389261Y-102293333D01*
X174579738Y-102293333D01*
X174674976Y-102340952D01*
X174722595Y-102388571D01*
X174770214Y-102483809D01*
%TO.C,C5*%
X201102166Y-102817142D02*
X201149785Y-102864761D01*
X201292642Y-102912380D01*
X201387880Y-102912380D01*
X201530738Y-102864761D01*
X201625976Y-102769523D01*
X201673595Y-102674285D01*
X201721214Y-102483809D01*
X201721214Y-102340952D01*
X201673595Y-102150476D01*
X201625976Y-102055238D01*
X201530738Y-101960000D01*
X201387880Y-101912380D01*
X201292642Y-101912380D01*
X201149785Y-101960000D01*
X201102166Y-102007619D01*
X200197404Y-101912380D02*
X200673595Y-101912380D01*
X200721214Y-102388571D01*
X200673595Y-102340952D01*
X200578357Y-102293333D01*
X200340261Y-102293333D01*
X200245023Y-102340952D01*
X200197404Y-102388571D01*
X200149785Y-102483809D01*
X200149785Y-102721904D01*
X200197404Y-102817142D01*
X200245023Y-102864761D01*
X200340261Y-102912380D01*
X200578357Y-102912380D01*
X200673595Y-102864761D01*
X200721214Y-102817142D01*
%TO.C,C4*%
X97427166Y-90117142D02*
X97474785Y-90164761D01*
X97617642Y-90212380D01*
X97712880Y-90212380D01*
X97855738Y-90164761D01*
X97950976Y-90069523D01*
X97998595Y-89974285D01*
X98046214Y-89783809D01*
X98046214Y-89640952D01*
X97998595Y-89450476D01*
X97950976Y-89355238D01*
X97855738Y-89260000D01*
X97712880Y-89212380D01*
X97617642Y-89212380D01*
X97474785Y-89260000D01*
X97427166Y-89307619D01*
X96570023Y-89545714D02*
X96570023Y-90212380D01*
X96808119Y-89164761D02*
X97046214Y-89879047D01*
X96427166Y-89879047D01*
%TO.C,C3*%
X109894666Y-102817142D02*
X109942285Y-102864761D01*
X110085142Y-102912380D01*
X110180380Y-102912380D01*
X110323238Y-102864761D01*
X110418476Y-102769523D01*
X110466095Y-102674285D01*
X110513714Y-102483809D01*
X110513714Y-102340952D01*
X110466095Y-102150476D01*
X110418476Y-102055238D01*
X110323238Y-101960000D01*
X110180380Y-101912380D01*
X110085142Y-101912380D01*
X109942285Y-101960000D01*
X109894666Y-102007619D01*
X109561333Y-101912380D02*
X108942285Y-101912380D01*
X109275619Y-102293333D01*
X109132761Y-102293333D01*
X109037523Y-102340952D01*
X108989904Y-102388571D01*
X108942285Y-102483809D01*
X108942285Y-102721904D01*
X108989904Y-102817142D01*
X109037523Y-102864761D01*
X109132761Y-102912380D01*
X109418476Y-102912380D01*
X109513714Y-102864761D01*
X109561333Y-102817142D01*
%TO.C,C2*%
X80684666Y-102719142D02*
X80732285Y-102766761D01*
X80875142Y-102814380D01*
X80970380Y-102814380D01*
X81113238Y-102766761D01*
X81208476Y-102671523D01*
X81256095Y-102576285D01*
X81303714Y-102385809D01*
X81303714Y-102242952D01*
X81256095Y-102052476D01*
X81208476Y-101957238D01*
X81113238Y-101862000D01*
X80970380Y-101814380D01*
X80875142Y-101814380D01*
X80732285Y-101862000D01*
X80684666Y-101909619D01*
X80303714Y-101909619D02*
X80256095Y-101862000D01*
X80160857Y-101814380D01*
X79922761Y-101814380D01*
X79827523Y-101862000D01*
X79779904Y-101909619D01*
X79732285Y-102004857D01*
X79732285Y-102100095D01*
X79779904Y-102242952D01*
X80351333Y-102814380D01*
X79732285Y-102814380D01*
%TO.C,C1*%
X97194666Y-115517142D02*
X97242285Y-115564761D01*
X97385142Y-115612380D01*
X97480380Y-115612380D01*
X97623238Y-115564761D01*
X97718476Y-115469523D01*
X97766095Y-115374285D01*
X97813714Y-115183809D01*
X97813714Y-115040952D01*
X97766095Y-114850476D01*
X97718476Y-114755238D01*
X97623238Y-114660000D01*
X97480380Y-114612380D01*
X97385142Y-114612380D01*
X97242285Y-114660000D01*
X97194666Y-114707619D01*
X96242285Y-115612380D02*
X96813714Y-115612380D01*
X96528000Y-115612380D02*
X96528000Y-114612380D01*
X96623238Y-114755238D01*
X96718476Y-114850476D01*
X96813714Y-114898095D01*
%TD*%
M02*
