M48
; DRILL file {KiCad (5.1.8)-1} date 11/24/20 01:58:47
; FORMAT={-:-/ absolute / inch / decimal}
; #@! TF.CreationDate,2020-11-24T01:58:47+03:00
; #@! TF.GenerationSoftware,Kicad,Pcbnew,(5.1.8)-1
; #@! TF.FileFunction,Plated,1,2,PTH
FMAT,2
INCH
T1C0.0118
T2C0.0276
T3C0.0394
T4C0.0512
%
G90
G05
T1
X2.97Y-4.415
X2.975Y-4.2
X2.985Y-4.005
X3.05Y-4.2
X3.09Y-4.345
X3.15Y-4.205
X3.215Y-4.34
X3.255Y-4.205
X3.305Y-4.03
X3.32Y-4.345
X3.37Y-4.2
X3.39Y-4.04
X3.425Y-4.35
X3.505Y-3.715
X3.51Y-3.515
X3.53Y-4.69
X3.57Y-4.035
X3.59Y-4.53
X3.59Y-4.64
X3.6Y-3.88
X3.61Y-4.85
X3.62Y-4.75
X3.64Y-3.51
X3.65Y-3.705
X3.67Y-4.685
X3.675Y-4.745
X3.675Y-4.855
X3.68Y-4.535
X3.685Y-4.04
X3.75Y-4.75
X3.75Y-4.855
X3.755Y-3.72
X3.765Y-4.52
X3.815Y-4.75
X3.815Y-4.85
X3.835Y-4.045
X3.845Y-3.72
X3.86Y-3.875
X3.89Y-4.75
X3.89Y-4.85
X3.9Y-4.53
X3.945Y-3.875
X3.97Y-4.01
X3.98Y-3.5
X3.99Y-3.71
X3.995Y-3.9
X4.03Y-4.73
X4.055Y-4.2
X4.07Y-4.025
X4.08Y-4.355
X4.135Y-3.47
X4.135Y-4.205
X4.135Y-4.76
X4.185Y-4.025
X4.19Y-4.355
X4.2Y-4.2
X4.24Y-4.66
X4.25Y-4.77
X4.26Y-4.025
X4.285Y-4.2
X4.29Y-4.355
X4.29Y-4.645
X4.305Y-3.525
X4.335Y-4.75
X4.34Y-4.605
X4.375Y-4.2
X4.39Y-4.545
X4.395Y-4.36
X4.415Y-4.03
X4.425Y-3.57
X4.43Y-4.695
X4.44Y-3.755
X4.475Y-4.48
X4.48Y-4.645
X4.485Y-4.2
X4.49Y-3.655
X4.525Y-4.43
X4.54Y-4.575
X4.56Y-3.715
X4.595Y-4.37
X4.6Y-4.515
X4.63Y-3.905
X4.635Y-3.805
X4.675Y-4.43
X4.7Y-3.8
X4.705Y-3.905
X4.705Y-3.985
X4.75Y-4.365
X4.765Y-4.15
X4.79Y-3.8
X4.79Y-3.905
X4.795Y-3.99
X4.84Y-4.285
X4.87Y-3.8
X4.87Y-3.99
X4.875Y-3.91
X4.875Y-4.15
X4.925Y-4.1
X4.955Y-3.905
X4.965Y-3.8
X4.97Y-4.055
X5.215Y-3.63
X5.27Y-3.695
X5.3Y-3.55
X5.32Y-3.74
X5.365Y-3.61
X5.365Y-4.345
X5.37Y-4.26
X5.375Y-4.175
X5.405Y-4.465
X5.435Y-3.675
X5.49Y-4.18
X5.49Y-4.535
X5.495Y-4.27
X5.5Y-4.355
X5.51Y-3.735
X5.525Y-4.4
X5.58Y-4.605
X5.61Y-4.48
X5.64Y-4.035
X5.64Y-4.315
X5.645Y-4.09
X5.645Y-4.15
X5.65Y-3.74
X5.655Y-4.235
X5.67Y-4.55
X5.685Y-4.425
X5.7Y-3.92
X5.71Y-3.775
X5.74Y-4.47
X5.755Y-4.135
X5.76Y-4.2
X5.765Y-4.055
X5.775Y-4.285
X5.785Y-4.365
X5.855Y-3.77
X5.865Y-3.935
X5.89Y-4.65
X5.9Y-4.455
X6.095Y-4.51
X6.095Y-4.6
X6.1Y-4.055
X6.1Y-4.305
X6.175Y-4.055
X6.18Y-4.605
X6.185Y-4.31
X6.19Y-4.51
X6.235Y-4.055
X6.275Y-4.315
X6.285Y-4.605
X6.29Y-4.37
X6.295Y-4.505
X6.3Y-3.995
X6.31Y-4.105
X6.36Y-4.05
X6.36Y-4.465
X6.365Y-4.315
X6.37Y-3.925
X6.38Y-4.595
X6.385Y-4.155
X6.415Y-4.355
X6.415Y-4.425
X6.425Y-3.985
X6.43Y-4.55
X6.44Y-3.865
X6.44Y-4.255
X6.48Y-4.51
X6.49Y-3.805
X6.5Y-4.15
X6.5Y-4.29
X6.505Y-3.915
X6.51Y-4.465
X6.555Y-3.855
X6.56Y-3.74
X6.57Y-4.515
X6.575Y-4.385
X6.615Y-4.565
X6.616Y-4.955
X6.62Y-3.795
X6.63Y-3.665
X6.66Y-4.615
X6.68Y-3.6
X6.685Y-4.35
X6.69Y-3.715
X6.73Y-4.25
X6.73Y-4.66
X6.74Y-4.16
X6.745Y-3.56
X6.755Y-3.66
X6.805Y-4.66
X6.815Y-3.645
X6.82Y-3.56
X6.84Y-4.25
X6.86Y-4.34
X6.885Y-3.645
X6.885Y-4.665
X6.895Y-3.56
X6.92Y-4.01
X6.93Y-4.25
X6.955Y-4.66
X6.98Y-3.56
X6.98Y-3.645
X6.99Y-4.255
X7.0Y-4.165
X7.0Y-4.655
X7.13Y-4.7
X7.175Y-4.545
X7.195Y-4.16
X7.195Y-4.245
X7.2Y-4.64
X7.22Y-4.75
X7.26Y-4.245
X7.265Y-4.69
X7.295Y-4.55
X7.305Y-4.25
X7.37Y-4.245
X7.375Y-4.16
X7.455Y-4.135
X7.465Y-4.245
X7.495Y-4.54
X7.495Y-4.67
X7.5Y-4.1
X7.515Y-4.2
X7.555Y-4.675
X7.605Y-4.02
X7.605Y-4.18
X7.68Y-4.385
X7.69Y-4.025
X7.69Y-4.545
X7.695Y-4.675
X7.705Y-4.17
X7.735Y-4.25
X7.775Y-4.165
X7.78Y-4.03
X7.84Y-4.34
X7.845Y-4.25
X7.965Y-4.25
X8.0Y-4.4
X8.115Y-4.175
X8.12Y-4.015
X8.13Y-4.395
T2
X6.0Y-3.5
X6.0Y-3.55
X6.0Y-3.6
X6.0Y-3.65
X6.0Y-3.7
X6.0Y-3.75
X6.0Y-3.8
X6.0Y-3.85
X6.0Y-3.9
X6.0Y-3.95
X6.0Y-4.0
X6.0Y-4.05
X6.0Y-4.1
X6.0Y-4.15
X6.0Y-4.2
X6.0Y-4.25
X6.0Y-4.3
X6.0Y-4.35
X6.0Y-4.4
X6.0Y-4.45
X6.0Y-4.5
X6.0Y-4.55
X6.0Y-4.6
X6.0Y-4.65
X5.1Y-3.5
X5.1Y-3.55
X5.1Y-3.6
X5.1Y-3.65
X5.1Y-3.7
X5.1Y-3.75
X5.1Y-3.8
X5.1Y-3.85
X5.1Y-3.9
X5.1Y-3.95
X5.1Y-4.0
X5.1Y-4.05
X5.1Y-4.1
X5.1Y-4.15
X5.1Y-4.2
X5.1Y-4.25
T3
X5.43Y-3.89
X5.43Y-3.99
T4
X7.6Y-4.1
X7.6Y-4.2969
X8.0921Y-4.1
X8.0921Y-4.2969
X7.1Y-3.6
X7.1Y-3.7969
X7.5921Y-3.6
X7.5921Y-3.7969
X3.5Y-3.6
X3.5Y-3.7969
X3.9921Y-3.6
X3.9921Y-3.7969
X7.1Y-4.6
X7.1Y-4.7969
X7.5921Y-4.6
X7.5921Y-4.7969
X4.0Y-4.1
X4.0Y-4.2969
X4.4921Y-4.1
X4.4921Y-4.2969
X6.6Y-4.1
X6.6Y-4.2969
X7.0921Y-4.1
X7.0921Y-4.2969
X3.0Y-4.1
X3.0Y-4.2969
X3.4921Y-4.1
X3.4921Y-4.2969
X3.5Y-4.6
X3.5Y-4.7969
X3.9921Y-4.6
X3.9921Y-4.7969
T0
M30
