%TF.GenerationSoftware,KiCad,Pcbnew,(5.1.8)-1*%
%TF.CreationDate,2020-11-24T01:58:45+03:00*%
%TF.ProjectId,mesp240_gamepadshield,6d657370-3234-4305-9f67-616d65706164,rev?*%
%TF.SameCoordinates,Original*%
%TF.FileFunction,Soldermask,Bot*%
%TF.FilePolarity,Negative*%
%FSLAX46Y46*%
G04 Gerber Fmt 4.6, Leading zero omitted, Abs format (unit mm)*
G04 Created by KiCad (PCBNEW (5.1.8)-1) date 2020-11-24 01:58:45*
%MOMM*%
%LPD*%
G01*
G04 APERTURE LIST*
%ADD10O,3.048000X1.850000*%
%ADD11R,0.900000X0.800000*%
%ADD12O,1.700000X1.700000*%
%ADD13R,1.700000X1.700000*%
%ADD14O,1.000000X1.000000*%
%ADD15R,1.000000X1.000000*%
G04 APERTURE END LIST*
D10*
%TO.C,SW8*%
X180340000Y-121840000D03*
X180340000Y-116840000D03*
X192840000Y-121840000D03*
X192840000Y-116840000D03*
%TD*%
%TO.C,SW7*%
X180340000Y-96440000D03*
X180340000Y-91440000D03*
X192840000Y-96440000D03*
X192840000Y-91440000D03*
%TD*%
%TO.C,SW6*%
X167640000Y-109140000D03*
X167640000Y-104140000D03*
X180140000Y-109140000D03*
X180140000Y-104140000D03*
%TD*%
%TO.C,SW5*%
X193040000Y-109140000D03*
X193040000Y-104140000D03*
X205540000Y-109140000D03*
X205540000Y-104140000D03*
%TD*%
%TO.C,SW4*%
X88900000Y-96440000D03*
X88900000Y-91440000D03*
X101400000Y-96440000D03*
X101400000Y-91440000D03*
%TD*%
%TO.C,SW3*%
X101600000Y-109140000D03*
X101600000Y-104140000D03*
X114100000Y-109140000D03*
X114100000Y-104140000D03*
%TD*%
%TO.C,SW2*%
X76200000Y-109140000D03*
X76200000Y-104140000D03*
X88700000Y-109140000D03*
X88700000Y-104140000D03*
%TD*%
%TO.C,SW1*%
X88900000Y-121840000D03*
X88900000Y-116840000D03*
X101400000Y-121840000D03*
X101400000Y-116840000D03*
%TD*%
%TO.C,R10*%
G36*
G01*
X147085000Y-117290001D02*
X147085000Y-116389999D01*
G75*
G02*
X147334999Y-116140000I249999J0D01*
G01*
X148035001Y-116140000D01*
G75*
G02*
X148285000Y-116389999I0J-249999D01*
G01*
X148285000Y-117290001D01*
G75*
G02*
X148035001Y-117540000I-249999J0D01*
G01*
X147334999Y-117540000D01*
G75*
G02*
X147085000Y-117290001I0J249999D01*
G01*
G37*
G36*
G01*
X145085000Y-117290001D02*
X145085000Y-116389999D01*
G75*
G02*
X145334999Y-116140000I249999J0D01*
G01*
X146035001Y-116140000D01*
G75*
G02*
X146285000Y-116389999I0J-249999D01*
G01*
X146285000Y-117290001D01*
G75*
G02*
X146035001Y-117540000I-249999J0D01*
G01*
X145334999Y-117540000D01*
G75*
G02*
X145085000Y-117290001I0J249999D01*
G01*
G37*
%TD*%
%TO.C,R9*%
G36*
G01*
X147212000Y-98240001D02*
X147212000Y-97339999D01*
G75*
G02*
X147461999Y-97090000I249999J0D01*
G01*
X148162001Y-97090000D01*
G75*
G02*
X148412000Y-97339999I0J-249999D01*
G01*
X148412000Y-98240001D01*
G75*
G02*
X148162001Y-98490000I-249999J0D01*
G01*
X147461999Y-98490000D01*
G75*
G02*
X147212000Y-98240001I0J249999D01*
G01*
G37*
G36*
G01*
X145212000Y-98240001D02*
X145212000Y-97339999D01*
G75*
G02*
X145461999Y-97090000I249999J0D01*
G01*
X146162001Y-97090000D01*
G75*
G02*
X146412000Y-97339999I0J-249999D01*
G01*
X146412000Y-98240001D01*
G75*
G02*
X146162001Y-98490000I-249999J0D01*
G01*
X145461999Y-98490000D01*
G75*
G02*
X145212000Y-98240001I0J249999D01*
G01*
G37*
%TD*%
%TO.C,R8*%
G36*
G01*
X198536000Y-117290001D02*
X198536000Y-116389999D01*
G75*
G02*
X198785999Y-116140000I249999J0D01*
G01*
X199486001Y-116140000D01*
G75*
G02*
X199736000Y-116389999I0J-249999D01*
G01*
X199736000Y-117290001D01*
G75*
G02*
X199486001Y-117540000I-249999J0D01*
G01*
X198785999Y-117540000D01*
G75*
G02*
X198536000Y-117290001I0J249999D01*
G01*
G37*
G36*
G01*
X196536000Y-117290001D02*
X196536000Y-116389999D01*
G75*
G02*
X196785999Y-116140000I249999J0D01*
G01*
X197486001Y-116140000D01*
G75*
G02*
X197736000Y-116389999I0J-249999D01*
G01*
X197736000Y-117290001D01*
G75*
G02*
X197486001Y-117540000I-249999J0D01*
G01*
X196785999Y-117540000D01*
G75*
G02*
X196536000Y-117290001I0J249999D01*
G01*
G37*
%TD*%
%TO.C,R7*%
G36*
G01*
X185296000Y-104590001D02*
X185296000Y-103689999D01*
G75*
G02*
X185545999Y-103440000I249999J0D01*
G01*
X186246001Y-103440000D01*
G75*
G02*
X186496000Y-103689999I0J-249999D01*
G01*
X186496000Y-104590001D01*
G75*
G02*
X186246001Y-104840000I-249999J0D01*
G01*
X185545999Y-104840000D01*
G75*
G02*
X185296000Y-104590001I0J249999D01*
G01*
G37*
G36*
G01*
X183296000Y-104590001D02*
X183296000Y-103689999D01*
G75*
G02*
X183545999Y-103440000I249999J0D01*
G01*
X184246001Y-103440000D01*
G75*
G02*
X184496000Y-103689999I0J-249999D01*
G01*
X184496000Y-104590001D01*
G75*
G02*
X184246001Y-104840000I-249999J0D01*
G01*
X183545999Y-104840000D01*
G75*
G02*
X183296000Y-104590001I0J249999D01*
G01*
G37*
%TD*%
%TO.C,R6*%
G36*
G01*
X210442000Y-104590001D02*
X210442000Y-103689999D01*
G75*
G02*
X210691999Y-103440000I249999J0D01*
G01*
X211392001Y-103440000D01*
G75*
G02*
X211642000Y-103689999I0J-249999D01*
G01*
X211642000Y-104590001D01*
G75*
G02*
X211392001Y-104840000I-249999J0D01*
G01*
X210691999Y-104840000D01*
G75*
G02*
X210442000Y-104590001I0J249999D01*
G01*
G37*
G36*
G01*
X208442000Y-104590001D02*
X208442000Y-103689999D01*
G75*
G02*
X208691999Y-103440000I249999J0D01*
G01*
X209392001Y-103440000D01*
G75*
G02*
X209642000Y-103689999I0J-249999D01*
G01*
X209642000Y-104590001D01*
G75*
G02*
X209392001Y-104840000I-249999J0D01*
G01*
X208691999Y-104840000D01*
G75*
G02*
X208442000Y-104590001I0J249999D01*
G01*
G37*
%TD*%
%TO.C,R5*%
G36*
G01*
X198504000Y-91890001D02*
X198504000Y-90989999D01*
G75*
G02*
X198753999Y-90740000I249999J0D01*
G01*
X199454001Y-90740000D01*
G75*
G02*
X199704000Y-90989999I0J-249999D01*
G01*
X199704000Y-91890001D01*
G75*
G02*
X199454001Y-92140000I-249999J0D01*
G01*
X198753999Y-92140000D01*
G75*
G02*
X198504000Y-91890001I0J249999D01*
G01*
G37*
G36*
G01*
X196504000Y-91890001D02*
X196504000Y-90989999D01*
G75*
G02*
X196753999Y-90740000I249999J0D01*
G01*
X197454001Y-90740000D01*
G75*
G02*
X197704000Y-90989999I0J-249999D01*
G01*
X197704000Y-91890001D01*
G75*
G02*
X197454001Y-92140000I-249999J0D01*
G01*
X196753999Y-92140000D01*
G75*
G02*
X196504000Y-91890001I0J249999D01*
G01*
G37*
%TD*%
%TO.C,R4*%
G36*
G01*
X105826000Y-91890001D02*
X105826000Y-90989999D01*
G75*
G02*
X106075999Y-90740000I249999J0D01*
G01*
X106776001Y-90740000D01*
G75*
G02*
X107026000Y-90989999I0J-249999D01*
G01*
X107026000Y-91890001D01*
G75*
G02*
X106776001Y-92140000I-249999J0D01*
G01*
X106075999Y-92140000D01*
G75*
G02*
X105826000Y-91890001I0J249999D01*
G01*
G37*
G36*
G01*
X103826000Y-91890001D02*
X103826000Y-90989999D01*
G75*
G02*
X104075999Y-90740000I249999J0D01*
G01*
X104776001Y-90740000D01*
G75*
G02*
X105026000Y-90989999I0J-249999D01*
G01*
X105026000Y-91890001D01*
G75*
G02*
X104776001Y-92140000I-249999J0D01*
G01*
X104075999Y-92140000D01*
G75*
G02*
X103826000Y-91890001I0J249999D01*
G01*
G37*
%TD*%
%TO.C,R3*%
G36*
G01*
X71736000Y-103689999D02*
X71736000Y-104590001D01*
G75*
G02*
X71486001Y-104840000I-249999J0D01*
G01*
X70785999Y-104840000D01*
G75*
G02*
X70536000Y-104590001I0J249999D01*
G01*
X70536000Y-103689999D01*
G75*
G02*
X70785999Y-103440000I249999J0D01*
G01*
X71486001Y-103440000D01*
G75*
G02*
X71736000Y-103689999I0J-249999D01*
G01*
G37*
G36*
G01*
X73736000Y-103689999D02*
X73736000Y-104590001D01*
G75*
G02*
X73486001Y-104840000I-249999J0D01*
G01*
X72785999Y-104840000D01*
G75*
G02*
X72536000Y-104590001I0J249999D01*
G01*
X72536000Y-103689999D01*
G75*
G02*
X72785999Y-103440000I249999J0D01*
G01*
X73486001Y-103440000D01*
G75*
G02*
X73736000Y-103689999I0J-249999D01*
G01*
G37*
%TD*%
%TO.C,R2*%
G36*
G01*
X106080000Y-117290001D02*
X106080000Y-116389999D01*
G75*
G02*
X106329999Y-116140000I249999J0D01*
G01*
X107030001Y-116140000D01*
G75*
G02*
X107280000Y-116389999I0J-249999D01*
G01*
X107280000Y-117290001D01*
G75*
G02*
X107030001Y-117540000I-249999J0D01*
G01*
X106329999Y-117540000D01*
G75*
G02*
X106080000Y-117290001I0J249999D01*
G01*
G37*
G36*
G01*
X104080000Y-117290001D02*
X104080000Y-116389999D01*
G75*
G02*
X104329999Y-116140000I249999J0D01*
G01*
X105030001Y-116140000D01*
G75*
G02*
X105280000Y-116389999I0J-249999D01*
G01*
X105280000Y-117290001D01*
G75*
G02*
X105030001Y-117540000I-249999J0D01*
G01*
X104329999Y-117540000D01*
G75*
G02*
X104080000Y-117290001I0J249999D01*
G01*
G37*
%TD*%
%TO.C,R1*%
G36*
G01*
X118494000Y-104590001D02*
X118494000Y-103689999D01*
G75*
G02*
X118743999Y-103440000I249999J0D01*
G01*
X119444001Y-103440000D01*
G75*
G02*
X119694000Y-103689999I0J-249999D01*
G01*
X119694000Y-104590001D01*
G75*
G02*
X119444001Y-104840000I-249999J0D01*
G01*
X118743999Y-104840000D01*
G75*
G02*
X118494000Y-104590001I0J249999D01*
G01*
G37*
G36*
G01*
X116494000Y-104590001D02*
X116494000Y-103689999D01*
G75*
G02*
X116743999Y-103440000I249999J0D01*
G01*
X117444001Y-103440000D01*
G75*
G02*
X117694000Y-103689999I0J-249999D01*
G01*
X117694000Y-104590001D01*
G75*
G02*
X117444001Y-104840000I-249999J0D01*
G01*
X116743999Y-104840000D01*
G75*
G02*
X116494000Y-104590001I0J249999D01*
G01*
G37*
%TD*%
D11*
%TO.C,Q1*%
X140986000Y-98806000D03*
X142986000Y-99756000D03*
X142986000Y-97856000D03*
%TD*%
D12*
%TO.C,J3*%
X137922000Y-98806000D03*
D13*
X137922000Y-101346000D03*
%TD*%
D14*
%TO.C,J2*%
X152400000Y-118110000D03*
X152400000Y-116840000D03*
X152400000Y-115570000D03*
X152400000Y-114300000D03*
X152400000Y-113030000D03*
X152400000Y-111760000D03*
X152400000Y-110490000D03*
X152400000Y-109220000D03*
X152400000Y-107950000D03*
X152400000Y-106680000D03*
X152400000Y-105410000D03*
X152400000Y-104140000D03*
X152400000Y-102870000D03*
X152400000Y-101600000D03*
X152400000Y-100330000D03*
X152400000Y-99060000D03*
X152400000Y-97790000D03*
X152400000Y-96520000D03*
X152400000Y-95250000D03*
X152400000Y-93980000D03*
X152400000Y-92710000D03*
X152400000Y-91440000D03*
X152400000Y-90170000D03*
D15*
X152400000Y-88900000D03*
%TD*%
D14*
%TO.C,J1*%
X129540000Y-107950000D03*
X129540000Y-106680000D03*
X129540000Y-105410000D03*
X129540000Y-104140000D03*
X129540000Y-102870000D03*
X129540000Y-101600000D03*
X129540000Y-100330000D03*
X129540000Y-99060000D03*
X129540000Y-97790000D03*
X129540000Y-96520000D03*
X129540000Y-95250000D03*
X129540000Y-93980000D03*
X129540000Y-92710000D03*
X129540000Y-91440000D03*
X129540000Y-90170000D03*
D15*
X129540000Y-88900000D03*
%TD*%
%TO.C,C8*%
G36*
G01*
X187234500Y-116365000D02*
X187234500Y-117315000D01*
G75*
G02*
X186984500Y-117565000I-250000J0D01*
G01*
X186309500Y-117565000D01*
G75*
G02*
X186059500Y-117315000I0J250000D01*
G01*
X186059500Y-116365000D01*
G75*
G02*
X186309500Y-116115000I250000J0D01*
G01*
X186984500Y-116115000D01*
G75*
G02*
X187234500Y-116365000I0J-250000D01*
G01*
G37*
G36*
G01*
X189309500Y-116365000D02*
X189309500Y-117315000D01*
G75*
G02*
X189059500Y-117565000I-250000J0D01*
G01*
X188384500Y-117565000D01*
G75*
G02*
X188134500Y-117315000I0J250000D01*
G01*
X188134500Y-116365000D01*
G75*
G02*
X188384500Y-116115000I250000J0D01*
G01*
X189059500Y-116115000D01*
G75*
G02*
X189309500Y-116365000I0J-250000D01*
G01*
G37*
%TD*%
%TO.C,C7*%
G36*
G01*
X187277500Y-90965000D02*
X187277500Y-91915000D01*
G75*
G02*
X187027500Y-92165000I-250000J0D01*
G01*
X186352500Y-92165000D01*
G75*
G02*
X186102500Y-91915000I0J250000D01*
G01*
X186102500Y-90965000D01*
G75*
G02*
X186352500Y-90715000I250000J0D01*
G01*
X187027500Y-90715000D01*
G75*
G02*
X187277500Y-90965000I0J-250000D01*
G01*
G37*
G36*
G01*
X189352500Y-90965000D02*
X189352500Y-91915000D01*
G75*
G02*
X189102500Y-92165000I-250000J0D01*
G01*
X188427500Y-92165000D01*
G75*
G02*
X188177500Y-91915000I0J250000D01*
G01*
X188177500Y-90965000D01*
G75*
G02*
X188427500Y-90715000I250000J0D01*
G01*
X189102500Y-90715000D01*
G75*
G02*
X189352500Y-90965000I0J-250000D01*
G01*
G37*
%TD*%
%TO.C,C6*%
G36*
G01*
X174534500Y-103665000D02*
X174534500Y-104615000D01*
G75*
G02*
X174284500Y-104865000I-250000J0D01*
G01*
X173609500Y-104865000D01*
G75*
G02*
X173359500Y-104615000I0J250000D01*
G01*
X173359500Y-103665000D01*
G75*
G02*
X173609500Y-103415000I250000J0D01*
G01*
X174284500Y-103415000D01*
G75*
G02*
X174534500Y-103665000I0J-250000D01*
G01*
G37*
G36*
G01*
X176609500Y-103665000D02*
X176609500Y-104615000D01*
G75*
G02*
X176359500Y-104865000I-250000J0D01*
G01*
X175684500Y-104865000D01*
G75*
G02*
X175434500Y-104615000I0J250000D01*
G01*
X175434500Y-103665000D01*
G75*
G02*
X175684500Y-103415000I250000J0D01*
G01*
X176359500Y-103415000D01*
G75*
G02*
X176609500Y-103665000I0J-250000D01*
G01*
G37*
%TD*%
%TO.C,C5*%
G36*
G01*
X200485500Y-103665000D02*
X200485500Y-104615000D01*
G75*
G02*
X200235500Y-104865000I-250000J0D01*
G01*
X199560500Y-104865000D01*
G75*
G02*
X199310500Y-104615000I0J250000D01*
G01*
X199310500Y-103665000D01*
G75*
G02*
X199560500Y-103415000I250000J0D01*
G01*
X200235500Y-103415000D01*
G75*
G02*
X200485500Y-103665000I0J-250000D01*
G01*
G37*
G36*
G01*
X202560500Y-103665000D02*
X202560500Y-104615000D01*
G75*
G02*
X202310500Y-104865000I-250000J0D01*
G01*
X201635500Y-104865000D01*
G75*
G02*
X201385500Y-104615000I0J250000D01*
G01*
X201385500Y-103665000D01*
G75*
G02*
X201635500Y-103415000I250000J0D01*
G01*
X202310500Y-103415000D01*
G75*
G02*
X202560500Y-103665000I0J-250000D01*
G01*
G37*
%TD*%
%TO.C,C4*%
G36*
G01*
X96810500Y-90965000D02*
X96810500Y-91915000D01*
G75*
G02*
X96560500Y-92165000I-250000J0D01*
G01*
X95885500Y-92165000D01*
G75*
G02*
X95635500Y-91915000I0J250000D01*
G01*
X95635500Y-90965000D01*
G75*
G02*
X95885500Y-90715000I250000J0D01*
G01*
X96560500Y-90715000D01*
G75*
G02*
X96810500Y-90965000I0J-250000D01*
G01*
G37*
G36*
G01*
X98885500Y-90965000D02*
X98885500Y-91915000D01*
G75*
G02*
X98635500Y-92165000I-250000J0D01*
G01*
X97960500Y-92165000D01*
G75*
G02*
X97710500Y-91915000I0J250000D01*
G01*
X97710500Y-90965000D01*
G75*
G02*
X97960500Y-90715000I250000J0D01*
G01*
X98635500Y-90715000D01*
G75*
G02*
X98885500Y-90965000I0J-250000D01*
G01*
G37*
%TD*%
%TO.C,C3*%
G36*
G01*
X109278000Y-103665000D02*
X109278000Y-104615000D01*
G75*
G02*
X109028000Y-104865000I-250000J0D01*
G01*
X108353000Y-104865000D01*
G75*
G02*
X108103000Y-104615000I0J250000D01*
G01*
X108103000Y-103665000D01*
G75*
G02*
X108353000Y-103415000I250000J0D01*
G01*
X109028000Y-103415000D01*
G75*
G02*
X109278000Y-103665000I0J-250000D01*
G01*
G37*
G36*
G01*
X111353000Y-103665000D02*
X111353000Y-104615000D01*
G75*
G02*
X111103000Y-104865000I-250000J0D01*
G01*
X110428000Y-104865000D01*
G75*
G02*
X110178000Y-104615000I0J250000D01*
G01*
X110178000Y-103665000D01*
G75*
G02*
X110428000Y-103415000I250000J0D01*
G01*
X111103000Y-103415000D01*
G75*
G02*
X111353000Y-103665000I0J-250000D01*
G01*
G37*
%TD*%
%TO.C,C2*%
G36*
G01*
X80968000Y-104615000D02*
X80968000Y-103665000D01*
G75*
G02*
X81218000Y-103415000I250000J0D01*
G01*
X81893000Y-103415000D01*
G75*
G02*
X82143000Y-103665000I0J-250000D01*
G01*
X82143000Y-104615000D01*
G75*
G02*
X81893000Y-104865000I-250000J0D01*
G01*
X81218000Y-104865000D01*
G75*
G02*
X80968000Y-104615000I0J250000D01*
G01*
G37*
G36*
G01*
X78893000Y-104615000D02*
X78893000Y-103665000D01*
G75*
G02*
X79143000Y-103415000I250000J0D01*
G01*
X79818000Y-103415000D01*
G75*
G02*
X80068000Y-103665000I0J-250000D01*
G01*
X80068000Y-104615000D01*
G75*
G02*
X79818000Y-104865000I-250000J0D01*
G01*
X79143000Y-104865000D01*
G75*
G02*
X78893000Y-104615000I0J250000D01*
G01*
G37*
%TD*%
%TO.C,C1*%
G36*
G01*
X96578000Y-116365000D02*
X96578000Y-117315000D01*
G75*
G02*
X96328000Y-117565000I-250000J0D01*
G01*
X95653000Y-117565000D01*
G75*
G02*
X95403000Y-117315000I0J250000D01*
G01*
X95403000Y-116365000D01*
G75*
G02*
X95653000Y-116115000I250000J0D01*
G01*
X96328000Y-116115000D01*
G75*
G02*
X96578000Y-116365000I0J-250000D01*
G01*
G37*
G36*
G01*
X98653000Y-116365000D02*
X98653000Y-117315000D01*
G75*
G02*
X98403000Y-117565000I-250000J0D01*
G01*
X97728000Y-117565000D01*
G75*
G02*
X97478000Y-117315000I0J250000D01*
G01*
X97478000Y-116365000D01*
G75*
G02*
X97728000Y-116115000I250000J0D01*
G01*
X98403000Y-116115000D01*
G75*
G02*
X98653000Y-116365000I0J-250000D01*
G01*
G37*
%TD*%
M02*
