%TF.GenerationSoftware,KiCad,Pcbnew,(5.1.8)-1*%
%TF.CreationDate,2020-11-24T01:58:45+03:00*%
%TF.ProjectId,mesp240_gamepadshield,6d657370-3234-4305-9f67-616d65706164,rev?*%
%TF.SameCoordinates,Original*%
%TF.FileFunction,Copper,L1,Top*%
%TF.FilePolarity,Positive*%
%FSLAX46Y46*%
G04 Gerber Fmt 4.6, Leading zero omitted, Abs format (unit mm)*
G04 Created by KiCad (PCBNEW (5.1.8)-1) date 2020-11-24 01:58:45*
%MOMM*%
%LPD*%
G01*
G04 APERTURE LIST*
%TA.AperFunction,ComponentPad*%
%ADD10O,3.048000X1.850000*%
%TD*%
%TA.AperFunction,ComponentPad*%
%ADD11O,1.700000X1.700000*%
%TD*%
%TA.AperFunction,ComponentPad*%
%ADD12R,1.700000X1.700000*%
%TD*%
%TA.AperFunction,ComponentPad*%
%ADD13O,1.000000X1.000000*%
%TD*%
%TA.AperFunction,ComponentPad*%
%ADD14R,1.000000X1.000000*%
%TD*%
%TA.AperFunction,ViaPad*%
%ADD15C,0.600000*%
%TD*%
%TA.AperFunction,Conductor*%
%ADD16C,0.600000*%
%TD*%
%TA.AperFunction,Conductor*%
%ADD17C,0.200000*%
%TD*%
%TA.AperFunction,Conductor*%
%ADD18C,0.100000*%
%TD*%
G04 APERTURE END LIST*
D10*
%TO.P,SW8,2*%
%TO.N,LV*%
X180340000Y-121840000D03*
%TO.P,SW8,1*%
%TO.N,BUTTONA*%
X180340000Y-116840000D03*
%TO.P,SW8,2*%
%TO.N,LV*%
X192840000Y-121840000D03*
%TO.P,SW8,1*%
%TO.N,BUTTONA*%
X192840000Y-116840000D03*
%TD*%
%TO.P,SW7,2*%
%TO.N,LV*%
X180340000Y-96440000D03*
%TO.P,SW7,1*%
%TO.N,BUTTONY*%
X180340000Y-91440000D03*
%TO.P,SW7,2*%
%TO.N,LV*%
X192840000Y-96440000D03*
%TO.P,SW7,1*%
%TO.N,BUTTONY*%
X192840000Y-91440000D03*
%TD*%
%TO.P,SW6,2*%
%TO.N,LV*%
X167640000Y-109140000D03*
%TO.P,SW6,1*%
%TO.N,BUTTONX*%
X167640000Y-104140000D03*
%TO.P,SW6,2*%
%TO.N,LV*%
X180140000Y-109140000D03*
%TO.P,SW6,1*%
%TO.N,BUTTONX*%
X180140000Y-104140000D03*
%TD*%
%TO.P,SW5,2*%
%TO.N,LV*%
X193040000Y-109140000D03*
%TO.P,SW5,1*%
%TO.N,BUTTONB*%
X193040000Y-104140000D03*
%TO.P,SW5,2*%
%TO.N,LV*%
X205540000Y-109140000D03*
%TO.P,SW5,1*%
%TO.N,BUTTONB*%
X205540000Y-104140000D03*
%TD*%
%TO.P,SW4,2*%
%TO.N,LV*%
X88900000Y-96440000D03*
%TO.P,SW4,1*%
%TO.N,UP*%
X88900000Y-91440000D03*
%TO.P,SW4,2*%
%TO.N,LV*%
X101400000Y-96440000D03*
%TO.P,SW4,1*%
%TO.N,UP*%
X101400000Y-91440000D03*
%TD*%
%TO.P,SW3,2*%
%TO.N,LV*%
X101600000Y-109140000D03*
%TO.P,SW3,1*%
%TO.N,RIGHT*%
X101600000Y-104140000D03*
%TO.P,SW3,2*%
%TO.N,LV*%
X114100000Y-109140000D03*
%TO.P,SW3,1*%
%TO.N,RIGHT*%
X114100000Y-104140000D03*
%TD*%
%TO.P,SW2,2*%
%TO.N,LV*%
X76200000Y-109140000D03*
%TO.P,SW2,1*%
%TO.N,LEFT*%
X76200000Y-104140000D03*
%TO.P,SW2,2*%
%TO.N,LV*%
X88700000Y-109140000D03*
%TO.P,SW2,1*%
%TO.N,LEFT*%
X88700000Y-104140000D03*
%TD*%
%TO.P,SW1,2*%
%TO.N,LV*%
X88900000Y-121840000D03*
%TO.P,SW1,1*%
%TO.N,DOWN*%
X88900000Y-116840000D03*
%TO.P,SW1,2*%
%TO.N,LV*%
X101400000Y-121840000D03*
%TO.P,SW1,1*%
%TO.N,DOWN*%
X101400000Y-116840000D03*
%TD*%
D11*
%TO.P,J3,2*%
%TO.N,Net-(J3-Pad2)*%
X137922000Y-98806000D03*
D12*
%TO.P,J3,1*%
%TO.N,Net-(J3-Pad1)*%
X137922000Y-101346000D03*
%TD*%
D13*
%TO.P,J2,24*%
%TO.N,GND*%
X152400000Y-118110000D03*
%TO.P,J2,23*%
%TO.N,HV*%
X152400000Y-116840000D03*
%TO.P,J2,22*%
%TO.N,LV*%
X152400000Y-115570000D03*
%TO.P,J2,21*%
%TO.N,Net-(J2-Pad21)*%
X152400000Y-114300000D03*
%TO.P,J2,20*%
%TO.N,Net-(J2-Pad20)*%
X152400000Y-113030000D03*
%TO.P,J2,19*%
%TO.N,Net-(J2-Pad19)*%
X152400000Y-111760000D03*
%TO.P,J2,18*%
%TO.N,/TXD1*%
X152400000Y-110490000D03*
%TO.P,J2,17*%
%TO.N,/RXD1*%
X152400000Y-109220000D03*
%TO.P,J2,16*%
%TO.N,BUTTONA*%
X152400000Y-107950000D03*
%TO.P,J2,15*%
%TO.N,BUTTONB*%
X152400000Y-106680000D03*
%TO.P,J2,14*%
%TO.N,BUTTONX*%
X152400000Y-105410000D03*
%TO.P,J2,13*%
%TO.N,BUTTONY*%
X152400000Y-104140000D03*
%TO.P,J2,12*%
%TO.N,/IO35*%
X152400000Y-102870000D03*
%TO.P,J2,11*%
%TO.N,/IO36*%
X152400000Y-101600000D03*
%TO.P,J2,10*%
%TO.N,/IO37*%
X152400000Y-100330000D03*
%TO.P,J2,9*%
%TO.N,/IO38*%
X152400000Y-99060000D03*
%TO.P,J2,8*%
%TO.N,/IO39*%
X152400000Y-97790000D03*
%TO.P,J2,7*%
%TO.N,Net-(J2-Pad7)*%
X152400000Y-96520000D03*
%TO.P,J2,6*%
%TO.N,Net-(J2-Pad6)*%
X152400000Y-95250000D03*
%TO.P,J2,5*%
%TO.N,/IO41*%
X152400000Y-93980000D03*
%TO.P,J2,4*%
%TO.N,/TXD0*%
X152400000Y-92710000D03*
%TO.P,J2,3*%
%TO.N,/RXD0*%
X152400000Y-91440000D03*
%TO.P,J2,2*%
%TO.N,Net-(J2-Pad2)*%
X152400000Y-90170000D03*
D14*
%TO.P,J2,1*%
%TO.N,Net-(J2-Pad1)*%
X152400000Y-88900000D03*
%TD*%
D13*
%TO.P,J1,16*%
%TO.N,Net-(J1-Pad16)*%
X129540000Y-107950000D03*
%TO.P,J1,15*%
%TO.N,Net-(J1-Pad15)*%
X129540000Y-106680000D03*
%TO.P,J1,14*%
%TO.N,Net-(J1-Pad14)*%
X129540000Y-105410000D03*
%TO.P,J1,13*%
%TO.N,Net-(J1-Pad13)*%
X129540000Y-104140000D03*
%TO.P,J1,12*%
%TO.N,Net-(J1-Pad12)*%
X129540000Y-102870000D03*
%TO.P,J1,11*%
%TO.N,RIGHT*%
X129540000Y-101600000D03*
%TO.P,J1,10*%
%TO.N,LEFT*%
X129540000Y-100330000D03*
%TO.P,J1,9*%
%TO.N,DOWN*%
X129540000Y-99060000D03*
%TO.P,J1,8*%
%TO.N,UP*%
X129540000Y-97790000D03*
%TO.P,J1,7*%
%TO.N,Net-(J1-Pad7)*%
X129540000Y-96520000D03*
%TO.P,J1,6*%
%TO.N,Net-(J1-Pad6)*%
X129540000Y-95250000D03*
%TO.P,J1,5*%
%TO.N,Net-(J1-Pad5)*%
X129540000Y-93980000D03*
%TO.P,J1,4*%
%TO.N,Net-(J1-Pad4)*%
X129540000Y-92710000D03*
%TO.P,J1,3*%
%TO.N,Net-(J1-Pad3)*%
X129540000Y-91440000D03*
%TO.P,J1,2*%
%TO.N,LV*%
X129540000Y-90170000D03*
D14*
%TO.P,J1,1*%
%TO.N,GND*%
X129540000Y-88900000D03*
%TD*%
D15*
%TO.N,GND*%
X168046400Y-125857000D03*
X159766000Y-110998000D03*
X165100000Y-105410000D03*
X175768000Y-101854000D03*
X154940000Y-102997000D03*
X156845000Y-102997000D03*
X158369000Y-102997000D03*
X160020000Y-101473000D03*
X161798000Y-99695000D03*
X163576000Y-98171000D03*
X164846000Y-96647000D03*
X166624000Y-94996000D03*
X168402000Y-93091000D03*
X169672000Y-91440000D03*
X171323000Y-90424000D03*
X173228000Y-90424000D03*
X175133000Y-90424000D03*
X177292000Y-90424000D03*
X177292000Y-92583000D03*
X174879000Y-92583000D03*
X173101000Y-92583000D03*
X171577000Y-92964000D03*
X169926000Y-94361000D03*
X168148000Y-96393000D03*
X166497000Y-97917000D03*
X165227000Y-99441000D03*
X163195000Y-101219000D03*
X161544000Y-102870000D03*
X160274000Y-104267000D03*
X162179000Y-105537000D03*
X163576000Y-108077000D03*
X154940000Y-109347000D03*
X157099000Y-109474000D03*
X159385000Y-109601000D03*
X161671000Y-109601000D03*
X162941000Y-110617000D03*
X165354000Y-113411000D03*
X166878000Y-114681000D03*
X168021000Y-115951000D03*
X169164000Y-117221000D03*
X170942000Y-118364000D03*
X172847000Y-118364000D03*
X174879000Y-118491000D03*
X176657000Y-118364000D03*
X177800000Y-118237000D03*
X154813000Y-116840000D03*
X156972000Y-116967000D03*
X159639000Y-116967000D03*
X162052000Y-116713000D03*
X163322000Y-115570000D03*
X164592000Y-114554000D03*
X154813000Y-114554000D03*
X157226000Y-114554000D03*
X159893000Y-114427000D03*
X161544000Y-113411000D03*
X162941000Y-112395000D03*
X165100000Y-108966000D03*
X167005000Y-111379000D03*
X169799000Y-110490000D03*
X174244000Y-110236000D03*
X170942000Y-107950000D03*
X173736000Y-107950000D03*
X176022000Y-107950000D03*
X171196000Y-105664000D03*
X177800000Y-105791000D03*
X177546000Y-108077000D03*
X182753000Y-107823000D03*
X182753000Y-105664000D03*
X184404000Y-107823000D03*
X185547000Y-107950000D03*
X187325000Y-105664000D03*
X187198000Y-107823000D03*
X189357000Y-105029000D03*
X189611000Y-107823000D03*
X190881000Y-106680000D03*
X190500000Y-104140000D03*
X193167000Y-106172000D03*
X193167000Y-102108000D03*
X195326000Y-102235000D03*
X195707000Y-105918000D03*
X197485000Y-105791000D03*
X197612000Y-102362000D03*
X206121000Y-106045000D03*
X206248000Y-101981000D03*
X206502000Y-111633000D03*
X203200000Y-111760000D03*
X199136000Y-110236000D03*
X199263000Y-107950000D03*
X196469000Y-107950000D03*
X202311000Y-107950000D03*
X195072000Y-111379000D03*
X182245000Y-115443000D03*
X182880000Y-117856000D03*
X181102000Y-119380000D03*
X183388000Y-120650000D03*
X184531000Y-119126000D03*
X185293000Y-115570000D03*
X190373000Y-115316000D03*
X190373000Y-118618000D03*
X191897000Y-118745000D03*
X195453000Y-118745000D03*
X195326000Y-115443000D03*
X136525000Y-106045000D03*
X139446000Y-106172000D03*
X136398000Y-108204000D03*
X139573000Y-108458000D03*
X136271000Y-110363000D03*
X139700000Y-110617000D03*
X137287000Y-113411000D03*
X140335000Y-111760000D03*
X139446000Y-115189000D03*
X142494000Y-113792000D03*
X141732000Y-116967000D03*
X144018000Y-115570000D03*
X149606000Y-118110000D03*
X149860000Y-113157000D03*
X145796000Y-113538000D03*
X144399000Y-112395000D03*
X146939000Y-110871000D03*
X143256000Y-109601000D03*
X146685000Y-108839000D03*
X143637000Y-107569000D03*
X146304000Y-106680000D03*
X143383000Y-105410000D03*
X146177000Y-105029000D03*
X143383000Y-103886000D03*
X146431000Y-102997000D03*
X143256000Y-102489000D03*
X144780000Y-99568000D03*
X139954000Y-94869000D03*
X143510000Y-94996000D03*
X145034000Y-95885000D03*
X148717000Y-95758000D03*
X148971000Y-99949000D03*
X135128000Y-94996000D03*
X133858000Y-93853000D03*
X136271000Y-91694000D03*
X138049000Y-93345000D03*
X134620000Y-90170000D03*
X132461000Y-92202000D03*
X117729000Y-96647000D03*
X119380000Y-96520000D03*
X121666000Y-96520000D03*
X123698000Y-96520000D03*
X126111000Y-96520000D03*
X117602000Y-99187000D03*
X119507000Y-99187000D03*
X121666000Y-99187000D03*
X123825000Y-99314000D03*
X125857000Y-99187000D03*
X119507000Y-101219000D03*
X121793000Y-101346000D03*
X123698000Y-101346000D03*
X126238000Y-102997000D03*
X125095000Y-104140000D03*
X123825000Y-105410000D03*
X121031000Y-105410000D03*
X113919000Y-106680000D03*
X111125000Y-106680000D03*
X108839000Y-106680000D03*
X106680000Y-106680000D03*
X105029000Y-106807000D03*
X102997000Y-106680000D03*
X116713000Y-110998000D03*
X118745000Y-112522000D03*
X120650000Y-110871000D03*
X122936000Y-108839000D03*
X114935000Y-112522000D03*
X116840000Y-114681000D03*
X113665000Y-113792000D03*
X115316000Y-116205000D03*
X111506000Y-115443000D03*
X113792000Y-117983000D03*
X110236000Y-116967000D03*
X112522000Y-119253000D03*
X108966000Y-117983000D03*
X110109000Y-120650000D03*
X107696000Y-118364000D03*
X107950000Y-121158000D03*
X105029000Y-120904000D03*
X102362000Y-120142000D03*
X98806000Y-120650000D03*
X98806000Y-123190000D03*
X96901000Y-120650000D03*
X96901000Y-123190000D03*
X95250000Y-120650000D03*
X95250000Y-123317000D03*
X93345000Y-120523000D03*
X93345000Y-123317000D03*
X91948000Y-120650000D03*
X91694000Y-123190000D03*
X89662000Y-119126000D03*
X91186000Y-117856000D03*
X93218000Y-118999000D03*
X91186000Y-115062000D03*
X93472000Y-115189000D03*
X95631000Y-114808000D03*
X99060000Y-115062000D03*
X78486000Y-110363000D03*
X81661000Y-110236000D03*
X84328000Y-110363000D03*
X86995000Y-110490000D03*
X103632000Y-110617000D03*
X106426000Y-110617000D03*
X108966000Y-110617000D03*
X111633000Y-110744000D03*
X103378000Y-102235000D03*
X106299000Y-102235000D03*
X108204000Y-102235000D03*
X112141000Y-102362000D03*
X83947000Y-102362000D03*
X86106000Y-102616000D03*
X77470000Y-106680000D03*
X80010000Y-106807000D03*
X82677000Y-106807000D03*
X85598000Y-106680000D03*
X75819000Y-101727000D03*
X75565000Y-106680000D03*
X75438000Y-112141000D03*
X90678000Y-102489000D03*
X93599000Y-102616000D03*
X97409000Y-102743000D03*
X100838000Y-101854000D03*
X91440000Y-98552000D03*
X98044000Y-98425000D03*
X100203000Y-98425000D03*
X112776000Y-95377000D03*
X114046000Y-92837000D03*
X115824000Y-94361000D03*
X112395000Y-90678000D03*
X109347000Y-89535000D03*
X105029000Y-88138000D03*
X101346000Y-94234000D03*
X101092000Y-88900000D03*
X101473000Y-99060000D03*
X89027000Y-94361000D03*
X89154000Y-89281000D03*
X92456000Y-89154000D03*
X92710000Y-94107000D03*
X95377000Y-94488000D03*
X97663000Y-94488000D03*
%TD*%
D16*
%TO.N,DOWN*%
X101400000Y-116840000D02*
X88900000Y-116840000D01*
%TO.N,LEFT*%
X76200000Y-104140000D02*
X88700000Y-104140000D01*
X90985000Y-100330000D02*
X129540000Y-100330000D01*
X88700000Y-102615000D02*
X90985000Y-100330000D01*
X88700000Y-104140000D02*
X88700000Y-102615000D01*
%TO.N,RIGHT*%
X101600000Y-104140000D02*
X114100000Y-104140000D01*
X114100000Y-104140000D02*
X122555000Y-104140000D01*
X125095000Y-101600000D02*
X129540000Y-101600000D01*
X122555000Y-104140000D02*
X125095000Y-101600000D01*
%TO.N,UP*%
X88900000Y-91440000D02*
X101400000Y-91440000D01*
X101400000Y-91440000D02*
X110490000Y-91440000D01*
X116840000Y-97790000D02*
X129540000Y-97790000D01*
X110490000Y-91440000D02*
X116840000Y-97790000D01*
%TO.N,BUTTONB*%
X193040000Y-104140000D02*
X191922400Y-104140000D01*
X189382400Y-106680000D02*
X152400000Y-106680000D01*
X191922400Y-104140000D02*
X189382400Y-106680000D01*
X193040000Y-104140000D02*
X205540000Y-104140000D01*
%TO.N,BUTTONX*%
X167640000Y-104140000D02*
X180140000Y-104140000D01*
%TO.N,BUTTONY*%
X180340000Y-91440000D02*
X192840000Y-91440000D01*
%TO.N,BUTTONA*%
X180340000Y-116840000D02*
X170891200Y-116840000D01*
X162001200Y-107950000D02*
X152400000Y-107950000D01*
X170891200Y-116840000D02*
X162001200Y-107950000D01*
X180340000Y-116840000D02*
X192840000Y-116840000D01*
%TO.N,LV*%
X149860000Y-115570000D02*
X152400000Y-115570000D01*
X144780000Y-110490000D02*
X149860000Y-115570000D01*
X144780000Y-102235000D02*
X144780000Y-110490000D01*
X132715000Y-90170000D02*
X144780000Y-102235000D01*
X129540000Y-90170000D02*
X132715000Y-90170000D01*
%TD*%
D17*
%TO.N,GND*%
X188760516Y-79142960D02*
X190819391Y-79375720D01*
X192855000Y-79762192D01*
X194855910Y-80300207D01*
X196810858Y-80986736D01*
X198708802Y-81817901D01*
X200539099Y-82789039D01*
X202291434Y-83894679D01*
X203955936Y-85128595D01*
X205523225Y-86483833D01*
X206984498Y-87952776D01*
X208331518Y-89527150D01*
X209556697Y-91198082D01*
X210653141Y-92956173D01*
X211614687Y-94791538D01*
X212435910Y-96693825D01*
X213112187Y-98652319D01*
X213639719Y-100656028D01*
X214015527Y-102693627D01*
X214237549Y-104754121D01*
X214304787Y-106679577D01*
X214227040Y-108750515D01*
X213994280Y-110809389D01*
X213607808Y-112845000D01*
X213069793Y-114845910D01*
X212383269Y-116800847D01*
X211552099Y-118698802D01*
X210580956Y-120529109D01*
X209475316Y-122281439D01*
X208241411Y-123945929D01*
X206886167Y-125513225D01*
X205417224Y-126974498D01*
X203842850Y-128321518D01*
X202171921Y-129546695D01*
X200413827Y-130643141D01*
X198578458Y-131604689D01*
X196676175Y-132425910D01*
X194717676Y-133102188D01*
X192713967Y-133629720D01*
X190676373Y-134005527D01*
X188615879Y-134227549D01*
X186684328Y-134295000D01*
X95256093Y-134295000D01*
X93179485Y-134217040D01*
X91120611Y-133984280D01*
X89085000Y-133597808D01*
X87084090Y-133059793D01*
X85129153Y-132373269D01*
X84098012Y-131921702D01*
X127932777Y-131921702D01*
X127932777Y-132238298D01*
X127994541Y-132548810D01*
X128115697Y-132841306D01*
X128291588Y-133104545D01*
X128515455Y-133328412D01*
X128778694Y-133504303D01*
X129071190Y-133625459D01*
X129381702Y-133687223D01*
X129698298Y-133687223D01*
X130008810Y-133625459D01*
X130301306Y-133504303D01*
X130564545Y-133328412D01*
X130788412Y-133104545D01*
X130964303Y-132841306D01*
X131085459Y-132548810D01*
X131147223Y-132238298D01*
X131147223Y-131921702D01*
X150792777Y-131921702D01*
X150792777Y-132238298D01*
X150854541Y-132548810D01*
X150975697Y-132841306D01*
X151151588Y-133104545D01*
X151375455Y-133328412D01*
X151638694Y-133504303D01*
X151931190Y-133625459D01*
X152241702Y-133687223D01*
X152558298Y-133687223D01*
X152868810Y-133625459D01*
X153161306Y-133504303D01*
X153424545Y-133328412D01*
X153648412Y-133104545D01*
X153824303Y-132841306D01*
X153945459Y-132548810D01*
X154007223Y-132238298D01*
X154007223Y-131921702D01*
X153945459Y-131611190D01*
X153824303Y-131318694D01*
X153648412Y-131055455D01*
X153424545Y-130831588D01*
X153161306Y-130655697D01*
X152868810Y-130534541D01*
X152558298Y-130472777D01*
X152241702Y-130472777D01*
X151931190Y-130534541D01*
X151638694Y-130655697D01*
X151375455Y-130831588D01*
X151151588Y-131055455D01*
X150975697Y-131318694D01*
X150854541Y-131611190D01*
X150792777Y-131921702D01*
X131147223Y-131921702D01*
X131085459Y-131611190D01*
X130964303Y-131318694D01*
X130788412Y-131055455D01*
X130564545Y-130831588D01*
X130301306Y-130655697D01*
X130008810Y-130534541D01*
X129698298Y-130472777D01*
X129381702Y-130472777D01*
X129071190Y-130534541D01*
X128778694Y-130655697D01*
X128515455Y-130831588D01*
X128291588Y-131055455D01*
X128115697Y-131318694D01*
X127994541Y-131611190D01*
X127932777Y-131921702D01*
X84098012Y-131921702D01*
X83231198Y-131542099D01*
X81400891Y-130570956D01*
X79648561Y-129465316D01*
X77984071Y-128231411D01*
X76416775Y-126876167D01*
X74955502Y-125407224D01*
X73608482Y-123832850D01*
X72383305Y-122161921D01*
X72182538Y-121840000D01*
X87070073Y-121840000D01*
X87093725Y-122080142D01*
X87163772Y-122311055D01*
X87277522Y-122523866D01*
X87430603Y-122710397D01*
X87617134Y-122863478D01*
X87829945Y-122977228D01*
X88060858Y-123047275D01*
X88240822Y-123065000D01*
X89559178Y-123065000D01*
X89739142Y-123047275D01*
X89970055Y-122977228D01*
X90182866Y-122863478D01*
X90369397Y-122710397D01*
X90522478Y-122523866D01*
X90636228Y-122311055D01*
X90706275Y-122080142D01*
X90729927Y-121840000D01*
X99570073Y-121840000D01*
X99593725Y-122080142D01*
X99663772Y-122311055D01*
X99777522Y-122523866D01*
X99930603Y-122710397D01*
X100117134Y-122863478D01*
X100329945Y-122977228D01*
X100560858Y-123047275D01*
X100740822Y-123065000D01*
X102059178Y-123065000D01*
X102239142Y-123047275D01*
X102470055Y-122977228D01*
X102682866Y-122863478D01*
X102869397Y-122710397D01*
X103022478Y-122523866D01*
X103136228Y-122311055D01*
X103206275Y-122080142D01*
X103229927Y-121840000D01*
X178510073Y-121840000D01*
X178533725Y-122080142D01*
X178603772Y-122311055D01*
X178717522Y-122523866D01*
X178870603Y-122710397D01*
X179057134Y-122863478D01*
X179269945Y-122977228D01*
X179500858Y-123047275D01*
X179680822Y-123065000D01*
X180999178Y-123065000D01*
X181179142Y-123047275D01*
X181410055Y-122977228D01*
X181622866Y-122863478D01*
X181809397Y-122710397D01*
X181962478Y-122523866D01*
X182076228Y-122311055D01*
X182146275Y-122080142D01*
X182169927Y-121840000D01*
X191010073Y-121840000D01*
X191033725Y-122080142D01*
X191103772Y-122311055D01*
X191217522Y-122523866D01*
X191370603Y-122710397D01*
X191557134Y-122863478D01*
X191769945Y-122977228D01*
X192000858Y-123047275D01*
X192180822Y-123065000D01*
X193499178Y-123065000D01*
X193679142Y-123047275D01*
X193910055Y-122977228D01*
X194122866Y-122863478D01*
X194309397Y-122710397D01*
X194462478Y-122523866D01*
X194576228Y-122311055D01*
X194646275Y-122080142D01*
X194669927Y-121840000D01*
X194646275Y-121599858D01*
X194576228Y-121368945D01*
X194462478Y-121156134D01*
X194309397Y-120969603D01*
X194122866Y-120816522D01*
X193910055Y-120702772D01*
X193679142Y-120632725D01*
X193499178Y-120615000D01*
X192180822Y-120615000D01*
X192000858Y-120632725D01*
X191769945Y-120702772D01*
X191557134Y-120816522D01*
X191370603Y-120969603D01*
X191217522Y-121156134D01*
X191103772Y-121368945D01*
X191033725Y-121599858D01*
X191010073Y-121840000D01*
X182169927Y-121840000D01*
X182146275Y-121599858D01*
X182076228Y-121368945D01*
X181962478Y-121156134D01*
X181809397Y-120969603D01*
X181622866Y-120816522D01*
X181410055Y-120702772D01*
X181179142Y-120632725D01*
X180999178Y-120615000D01*
X179680822Y-120615000D01*
X179500858Y-120632725D01*
X179269945Y-120702772D01*
X179057134Y-120816522D01*
X178870603Y-120969603D01*
X178717522Y-121156134D01*
X178603772Y-121368945D01*
X178533725Y-121599858D01*
X178510073Y-121840000D01*
X103229927Y-121840000D01*
X103206275Y-121599858D01*
X103136228Y-121368945D01*
X103022478Y-121156134D01*
X102869397Y-120969603D01*
X102682866Y-120816522D01*
X102470055Y-120702772D01*
X102239142Y-120632725D01*
X102059178Y-120615000D01*
X100740822Y-120615000D01*
X100560858Y-120632725D01*
X100329945Y-120702772D01*
X100117134Y-120816522D01*
X99930603Y-120969603D01*
X99777522Y-121156134D01*
X99663772Y-121368945D01*
X99593725Y-121599858D01*
X99570073Y-121840000D01*
X90729927Y-121840000D01*
X90706275Y-121599858D01*
X90636228Y-121368945D01*
X90522478Y-121156134D01*
X90369397Y-120969603D01*
X90182866Y-120816522D01*
X89970055Y-120702772D01*
X89739142Y-120632725D01*
X89559178Y-120615000D01*
X88240822Y-120615000D01*
X88060858Y-120632725D01*
X87829945Y-120702772D01*
X87617134Y-120816522D01*
X87430603Y-120969603D01*
X87277522Y-121156134D01*
X87163772Y-121368945D01*
X87093725Y-121599858D01*
X87070073Y-121840000D01*
X72182538Y-121840000D01*
X71286859Y-120403827D01*
X70325311Y-118568458D01*
X70187031Y-118248144D01*
X151591720Y-118248144D01*
X151600381Y-118291688D01*
X151651191Y-118444195D01*
X151730777Y-118583859D01*
X151836081Y-118705313D01*
X151963056Y-118803889D01*
X152106823Y-118875800D01*
X152261856Y-118918281D01*
X152390000Y-118849940D01*
X152390000Y-118120000D01*
X152410000Y-118120000D01*
X152410000Y-118849940D01*
X152538144Y-118918281D01*
X152693177Y-118875800D01*
X152836944Y-118803889D01*
X152963919Y-118705313D01*
X153069223Y-118583859D01*
X153148809Y-118444195D01*
X153199619Y-118291688D01*
X153208280Y-118248144D01*
X153139932Y-118120000D01*
X152410000Y-118120000D01*
X152390000Y-118120000D01*
X151660068Y-118120000D01*
X151591720Y-118248144D01*
X70187031Y-118248144D01*
X69579131Y-116840000D01*
X87070073Y-116840000D01*
X87093725Y-117080142D01*
X87163772Y-117311055D01*
X87277522Y-117523866D01*
X87430603Y-117710397D01*
X87617134Y-117863478D01*
X87829945Y-117977228D01*
X88060858Y-118047275D01*
X88240822Y-118065000D01*
X89559178Y-118065000D01*
X89739142Y-118047275D01*
X89970055Y-117977228D01*
X90182866Y-117863478D01*
X90369397Y-117710397D01*
X90522478Y-117523866D01*
X90567305Y-117440000D01*
X99732695Y-117440000D01*
X99777522Y-117523866D01*
X99930603Y-117710397D01*
X100117134Y-117863478D01*
X100329945Y-117977228D01*
X100560858Y-118047275D01*
X100740822Y-118065000D01*
X102059178Y-118065000D01*
X102239142Y-118047275D01*
X102470055Y-117977228D01*
X102682866Y-117863478D01*
X102869397Y-117710397D01*
X103022478Y-117523866D01*
X103136228Y-117311055D01*
X103206275Y-117080142D01*
X103229927Y-116840000D01*
X103206275Y-116599858D01*
X103136228Y-116368945D01*
X103022478Y-116156134D01*
X102869397Y-115969603D01*
X102682866Y-115816522D01*
X102470055Y-115702772D01*
X102239142Y-115632725D01*
X102059178Y-115615000D01*
X100740822Y-115615000D01*
X100560858Y-115632725D01*
X100329945Y-115702772D01*
X100117134Y-115816522D01*
X99930603Y-115969603D01*
X99777522Y-116156134D01*
X99732695Y-116240000D01*
X90567305Y-116240000D01*
X90522478Y-116156134D01*
X90369397Y-115969603D01*
X90182866Y-115816522D01*
X89970055Y-115702772D01*
X89739142Y-115632725D01*
X89559178Y-115615000D01*
X88240822Y-115615000D01*
X88060858Y-115632725D01*
X87829945Y-115702772D01*
X87617134Y-115816522D01*
X87430603Y-115969603D01*
X87277522Y-116156134D01*
X87163772Y-116368945D01*
X87093725Y-116599858D01*
X87070073Y-116840000D01*
X69579131Y-116840000D01*
X69504090Y-116666175D01*
X68827812Y-114707676D01*
X68300280Y-112703967D01*
X67924473Y-110666373D01*
X67760004Y-109140000D01*
X74370073Y-109140000D01*
X74393725Y-109380142D01*
X74463772Y-109611055D01*
X74577522Y-109823866D01*
X74730603Y-110010397D01*
X74917134Y-110163478D01*
X75129945Y-110277228D01*
X75360858Y-110347275D01*
X75540822Y-110365000D01*
X76859178Y-110365000D01*
X77039142Y-110347275D01*
X77270055Y-110277228D01*
X77482866Y-110163478D01*
X77669397Y-110010397D01*
X77822478Y-109823866D01*
X77936228Y-109611055D01*
X78006275Y-109380142D01*
X78029927Y-109140000D01*
X86870073Y-109140000D01*
X86893725Y-109380142D01*
X86963772Y-109611055D01*
X87077522Y-109823866D01*
X87230603Y-110010397D01*
X87417134Y-110163478D01*
X87629945Y-110277228D01*
X87860858Y-110347275D01*
X88040822Y-110365000D01*
X89359178Y-110365000D01*
X89539142Y-110347275D01*
X89770055Y-110277228D01*
X89982866Y-110163478D01*
X90169397Y-110010397D01*
X90322478Y-109823866D01*
X90436228Y-109611055D01*
X90506275Y-109380142D01*
X90529927Y-109140000D01*
X99770073Y-109140000D01*
X99793725Y-109380142D01*
X99863772Y-109611055D01*
X99977522Y-109823866D01*
X100130603Y-110010397D01*
X100317134Y-110163478D01*
X100529945Y-110277228D01*
X100760858Y-110347275D01*
X100940822Y-110365000D01*
X102259178Y-110365000D01*
X102439142Y-110347275D01*
X102670055Y-110277228D01*
X102882866Y-110163478D01*
X103069397Y-110010397D01*
X103222478Y-109823866D01*
X103336228Y-109611055D01*
X103406275Y-109380142D01*
X103429927Y-109140000D01*
X112270073Y-109140000D01*
X112293725Y-109380142D01*
X112363772Y-109611055D01*
X112477522Y-109823866D01*
X112630603Y-110010397D01*
X112817134Y-110163478D01*
X113029945Y-110277228D01*
X113260858Y-110347275D01*
X113440822Y-110365000D01*
X114759178Y-110365000D01*
X114939142Y-110347275D01*
X115170055Y-110277228D01*
X115382866Y-110163478D01*
X115569397Y-110010397D01*
X115722478Y-109823866D01*
X115836228Y-109611055D01*
X115906275Y-109380142D01*
X115929927Y-109140000D01*
X115906275Y-108899858D01*
X115836228Y-108668945D01*
X115722478Y-108456134D01*
X115569397Y-108269603D01*
X115382866Y-108116522D01*
X115170055Y-108002772D01*
X114939142Y-107932725D01*
X114759178Y-107915000D01*
X113440822Y-107915000D01*
X113260858Y-107932725D01*
X113029945Y-108002772D01*
X112817134Y-108116522D01*
X112630603Y-108269603D01*
X112477522Y-108456134D01*
X112363772Y-108668945D01*
X112293725Y-108899858D01*
X112270073Y-109140000D01*
X103429927Y-109140000D01*
X103406275Y-108899858D01*
X103336228Y-108668945D01*
X103222478Y-108456134D01*
X103069397Y-108269603D01*
X102882866Y-108116522D01*
X102670055Y-108002772D01*
X102439142Y-107932725D01*
X102259178Y-107915000D01*
X100940822Y-107915000D01*
X100760858Y-107932725D01*
X100529945Y-108002772D01*
X100317134Y-108116522D01*
X100130603Y-108269603D01*
X99977522Y-108456134D01*
X99863772Y-108668945D01*
X99793725Y-108899858D01*
X99770073Y-109140000D01*
X90529927Y-109140000D01*
X90506275Y-108899858D01*
X90436228Y-108668945D01*
X90322478Y-108456134D01*
X90169397Y-108269603D01*
X89982866Y-108116522D01*
X89770055Y-108002772D01*
X89539142Y-107932725D01*
X89359178Y-107915000D01*
X88040822Y-107915000D01*
X87860858Y-107932725D01*
X87629945Y-108002772D01*
X87417134Y-108116522D01*
X87230603Y-108269603D01*
X87077522Y-108456134D01*
X86963772Y-108668945D01*
X86893725Y-108899858D01*
X86870073Y-109140000D01*
X78029927Y-109140000D01*
X78006275Y-108899858D01*
X77936228Y-108668945D01*
X77822478Y-108456134D01*
X77669397Y-108269603D01*
X77482866Y-108116522D01*
X77270055Y-108002772D01*
X77039142Y-107932725D01*
X76859178Y-107915000D01*
X75540822Y-107915000D01*
X75360858Y-107932725D01*
X75129945Y-108002772D01*
X74917134Y-108116522D01*
X74730603Y-108269603D01*
X74577522Y-108456134D01*
X74463772Y-108668945D01*
X74393725Y-108899858D01*
X74370073Y-109140000D01*
X67760004Y-109140000D01*
X67702451Y-108605879D01*
X67635213Y-106680423D01*
X67712960Y-104609484D01*
X67766036Y-104140000D01*
X74370073Y-104140000D01*
X74393725Y-104380142D01*
X74463772Y-104611055D01*
X74577522Y-104823866D01*
X74730603Y-105010397D01*
X74917134Y-105163478D01*
X75129945Y-105277228D01*
X75360858Y-105347275D01*
X75540822Y-105365000D01*
X76859178Y-105365000D01*
X77039142Y-105347275D01*
X77270055Y-105277228D01*
X77482866Y-105163478D01*
X77669397Y-105010397D01*
X77822478Y-104823866D01*
X77867305Y-104740000D01*
X87032695Y-104740000D01*
X87077522Y-104823866D01*
X87230603Y-105010397D01*
X87417134Y-105163478D01*
X87629945Y-105277228D01*
X87860858Y-105347275D01*
X88040822Y-105365000D01*
X89359178Y-105365000D01*
X89539142Y-105347275D01*
X89770055Y-105277228D01*
X89982866Y-105163478D01*
X90169397Y-105010397D01*
X90322478Y-104823866D01*
X90436228Y-104611055D01*
X90506275Y-104380142D01*
X90529927Y-104140000D01*
X90506275Y-103899858D01*
X90436228Y-103668945D01*
X90322478Y-103456134D01*
X90169397Y-103269603D01*
X89982866Y-103116522D01*
X89770055Y-103002772D01*
X89539142Y-102932725D01*
X89359178Y-102915000D01*
X89300000Y-102915000D01*
X89300000Y-102863527D01*
X91233528Y-100930000D01*
X129008629Y-100930000D01*
X129030030Y-100951401D01*
X129050382Y-100965000D01*
X129030030Y-100978599D01*
X129008629Y-101000000D01*
X125124465Y-101000000D01*
X125094999Y-100997098D01*
X125065533Y-101000000D01*
X125065526Y-101000000D01*
X124988640Y-101007573D01*
X124977378Y-101008682D01*
X124943070Y-101019089D01*
X124864279Y-101042990D01*
X124760045Y-101098704D01*
X124668683Y-101173683D01*
X124649896Y-101196575D01*
X122306473Y-103540000D01*
X115767305Y-103540000D01*
X115722478Y-103456134D01*
X115569397Y-103269603D01*
X115382866Y-103116522D01*
X115170055Y-103002772D01*
X114939142Y-102932725D01*
X114759178Y-102915000D01*
X113440822Y-102915000D01*
X113260858Y-102932725D01*
X113029945Y-103002772D01*
X112817134Y-103116522D01*
X112630603Y-103269603D01*
X112477522Y-103456134D01*
X112432695Y-103540000D01*
X103267305Y-103540000D01*
X103222478Y-103456134D01*
X103069397Y-103269603D01*
X102882866Y-103116522D01*
X102670055Y-103002772D01*
X102439142Y-102932725D01*
X102259178Y-102915000D01*
X100940822Y-102915000D01*
X100760858Y-102932725D01*
X100529945Y-103002772D01*
X100317134Y-103116522D01*
X100130603Y-103269603D01*
X99977522Y-103456134D01*
X99863772Y-103668945D01*
X99793725Y-103899858D01*
X99770073Y-104140000D01*
X99793725Y-104380142D01*
X99863772Y-104611055D01*
X99977522Y-104823866D01*
X100130603Y-105010397D01*
X100317134Y-105163478D01*
X100529945Y-105277228D01*
X100760858Y-105347275D01*
X100940822Y-105365000D01*
X102259178Y-105365000D01*
X102439142Y-105347275D01*
X102670055Y-105277228D01*
X102882866Y-105163478D01*
X103069397Y-105010397D01*
X103222478Y-104823866D01*
X103267305Y-104740000D01*
X112432695Y-104740000D01*
X112477522Y-104823866D01*
X112630603Y-105010397D01*
X112817134Y-105163478D01*
X113029945Y-105277228D01*
X113260858Y-105347275D01*
X113440822Y-105365000D01*
X114759178Y-105365000D01*
X114939142Y-105347275D01*
X115170055Y-105277228D01*
X115382866Y-105163478D01*
X115569397Y-105010397D01*
X115722478Y-104823866D01*
X115767305Y-104740000D01*
X122525526Y-104740000D01*
X122555000Y-104742903D01*
X122584474Y-104740000D01*
X122672621Y-104731318D01*
X122785721Y-104697010D01*
X122889955Y-104641296D01*
X122981317Y-104566317D01*
X123000113Y-104543414D01*
X125343529Y-102200000D01*
X129008629Y-102200000D01*
X129030030Y-102221401D01*
X129050382Y-102235000D01*
X129030030Y-102248599D01*
X128918599Y-102360030D01*
X128831049Y-102491058D01*
X128770743Y-102636649D01*
X128740000Y-102791207D01*
X128740000Y-102948793D01*
X128770743Y-103103351D01*
X128831049Y-103248942D01*
X128918599Y-103379970D01*
X129030030Y-103491401D01*
X129050382Y-103505000D01*
X129030030Y-103518599D01*
X128918599Y-103630030D01*
X128831049Y-103761058D01*
X128770743Y-103906649D01*
X128740000Y-104061207D01*
X128740000Y-104218793D01*
X128770743Y-104373351D01*
X128831049Y-104518942D01*
X128918599Y-104649970D01*
X129030030Y-104761401D01*
X129050382Y-104775000D01*
X129030030Y-104788599D01*
X128918599Y-104900030D01*
X128831049Y-105031058D01*
X128770743Y-105176649D01*
X128740000Y-105331207D01*
X128740000Y-105488793D01*
X128770743Y-105643351D01*
X128831049Y-105788942D01*
X128918599Y-105919970D01*
X129030030Y-106031401D01*
X129050382Y-106045000D01*
X129030030Y-106058599D01*
X128918599Y-106170030D01*
X128831049Y-106301058D01*
X128770743Y-106446649D01*
X128740000Y-106601207D01*
X128740000Y-106758793D01*
X128770743Y-106913351D01*
X128831049Y-107058942D01*
X128918599Y-107189970D01*
X129030030Y-107301401D01*
X129050382Y-107315000D01*
X129030030Y-107328599D01*
X128918599Y-107440030D01*
X128831049Y-107571058D01*
X128770743Y-107716649D01*
X128740000Y-107871207D01*
X128740000Y-108028793D01*
X128770743Y-108183351D01*
X128831049Y-108328942D01*
X128918599Y-108459970D01*
X129030030Y-108571401D01*
X129161058Y-108658951D01*
X129306649Y-108719257D01*
X129461207Y-108750000D01*
X129618793Y-108750000D01*
X129773351Y-108719257D01*
X129918942Y-108658951D01*
X130049970Y-108571401D01*
X130161401Y-108459970D01*
X130248951Y-108328942D01*
X130309257Y-108183351D01*
X130340000Y-108028793D01*
X130340000Y-107871207D01*
X130309257Y-107716649D01*
X130248951Y-107571058D01*
X130161401Y-107440030D01*
X130049970Y-107328599D01*
X130029618Y-107315000D01*
X130049970Y-107301401D01*
X130161401Y-107189970D01*
X130248951Y-107058942D01*
X130309257Y-106913351D01*
X130340000Y-106758793D01*
X130340000Y-106601207D01*
X130309257Y-106446649D01*
X130248951Y-106301058D01*
X130161401Y-106170030D01*
X130049970Y-106058599D01*
X130029618Y-106045000D01*
X130049970Y-106031401D01*
X130161401Y-105919970D01*
X130248951Y-105788942D01*
X130309257Y-105643351D01*
X130340000Y-105488793D01*
X130340000Y-105331207D01*
X130309257Y-105176649D01*
X130248951Y-105031058D01*
X130161401Y-104900030D01*
X130049970Y-104788599D01*
X130029618Y-104775000D01*
X130049970Y-104761401D01*
X130161401Y-104649970D01*
X130248951Y-104518942D01*
X130309257Y-104373351D01*
X130340000Y-104218793D01*
X130340000Y-104061207D01*
X130309257Y-103906649D01*
X130248951Y-103761058D01*
X130161401Y-103630030D01*
X130049970Y-103518599D01*
X130029618Y-103505000D01*
X130049970Y-103491401D01*
X130161401Y-103379970D01*
X130248951Y-103248942D01*
X130309257Y-103103351D01*
X130340000Y-102948793D01*
X130340000Y-102791207D01*
X130309257Y-102636649D01*
X130248951Y-102491058D01*
X130161401Y-102360030D01*
X130049970Y-102248599D01*
X130029618Y-102235000D01*
X130049970Y-102221401D01*
X130161401Y-102109970D01*
X130248951Y-101978942D01*
X130309257Y-101833351D01*
X130340000Y-101678793D01*
X130340000Y-101521207D01*
X130309257Y-101366649D01*
X130248951Y-101221058D01*
X130161401Y-101090030D01*
X130049970Y-100978599D01*
X130029618Y-100965000D01*
X130049970Y-100951401D01*
X130161401Y-100839970D01*
X130248951Y-100708942D01*
X130309257Y-100563351D01*
X130322653Y-100496000D01*
X136770549Y-100496000D01*
X136770549Y-102196000D01*
X136776341Y-102254810D01*
X136793496Y-102311360D01*
X136821353Y-102363477D01*
X136858842Y-102409158D01*
X136904523Y-102446647D01*
X136956640Y-102474504D01*
X137013190Y-102491659D01*
X137072000Y-102497451D01*
X138772000Y-102497451D01*
X138830810Y-102491659D01*
X138887360Y-102474504D01*
X138939477Y-102446647D01*
X138985158Y-102409158D01*
X139022647Y-102363477D01*
X139050504Y-102311360D01*
X139067659Y-102254810D01*
X139073451Y-102196000D01*
X139073451Y-100496000D01*
X139067659Y-100437190D01*
X139050504Y-100380640D01*
X139022647Y-100328523D01*
X138985158Y-100282842D01*
X138939477Y-100245353D01*
X138887360Y-100217496D01*
X138830810Y-100200341D01*
X138772000Y-100194549D01*
X137072000Y-100194549D01*
X137013190Y-100200341D01*
X136956640Y-100217496D01*
X136904523Y-100245353D01*
X136858842Y-100282842D01*
X136821353Y-100328523D01*
X136793496Y-100380640D01*
X136776341Y-100437190D01*
X136770549Y-100496000D01*
X130322653Y-100496000D01*
X130340000Y-100408793D01*
X130340000Y-100251207D01*
X130309257Y-100096649D01*
X130248951Y-99951058D01*
X130161401Y-99820030D01*
X130049970Y-99708599D01*
X130029618Y-99695000D01*
X130049970Y-99681401D01*
X130161401Y-99569970D01*
X130248951Y-99438942D01*
X130309257Y-99293351D01*
X130340000Y-99138793D01*
X130340000Y-98981207D01*
X130309257Y-98826649D01*
X130253788Y-98692735D01*
X136772000Y-98692735D01*
X136772000Y-98919265D01*
X136816194Y-99141443D01*
X136902884Y-99350729D01*
X137028737Y-99539082D01*
X137188918Y-99699263D01*
X137377271Y-99825116D01*
X137586557Y-99911806D01*
X137808735Y-99956000D01*
X138035265Y-99956000D01*
X138257443Y-99911806D01*
X138466729Y-99825116D01*
X138655082Y-99699263D01*
X138815263Y-99539082D01*
X138941116Y-99350729D01*
X139027806Y-99141443D01*
X139072000Y-98919265D01*
X139072000Y-98692735D01*
X139027806Y-98470557D01*
X138941116Y-98261271D01*
X138815263Y-98072918D01*
X138655082Y-97912737D01*
X138466729Y-97786884D01*
X138257443Y-97700194D01*
X138035265Y-97656000D01*
X137808735Y-97656000D01*
X137586557Y-97700194D01*
X137377271Y-97786884D01*
X137188918Y-97912737D01*
X137028737Y-98072918D01*
X136902884Y-98261271D01*
X136816194Y-98470557D01*
X136772000Y-98692735D01*
X130253788Y-98692735D01*
X130248951Y-98681058D01*
X130161401Y-98550030D01*
X130049970Y-98438599D01*
X130029618Y-98425000D01*
X130049970Y-98411401D01*
X130161401Y-98299970D01*
X130248951Y-98168942D01*
X130309257Y-98023351D01*
X130340000Y-97868793D01*
X130340000Y-97711207D01*
X130309257Y-97556649D01*
X130248951Y-97411058D01*
X130161401Y-97280030D01*
X130049970Y-97168599D01*
X130029618Y-97155000D01*
X130049970Y-97141401D01*
X130161401Y-97029970D01*
X130248951Y-96898942D01*
X130309257Y-96753351D01*
X130340000Y-96598793D01*
X130340000Y-96441207D01*
X130309257Y-96286649D01*
X130248951Y-96141058D01*
X130161401Y-96010030D01*
X130049970Y-95898599D01*
X130029618Y-95885000D01*
X130049970Y-95871401D01*
X130161401Y-95759970D01*
X130248951Y-95628942D01*
X130309257Y-95483351D01*
X130340000Y-95328793D01*
X130340000Y-95171207D01*
X130309257Y-95016649D01*
X130248951Y-94871058D01*
X130161401Y-94740030D01*
X130049970Y-94628599D01*
X130029618Y-94615000D01*
X130049970Y-94601401D01*
X130161401Y-94489970D01*
X130248951Y-94358942D01*
X130309257Y-94213351D01*
X130340000Y-94058793D01*
X130340000Y-93901207D01*
X130309257Y-93746649D01*
X130248951Y-93601058D01*
X130161401Y-93470030D01*
X130049970Y-93358599D01*
X130029618Y-93345000D01*
X130049970Y-93331401D01*
X130161401Y-93219970D01*
X130248951Y-93088942D01*
X130309257Y-92943351D01*
X130340000Y-92788793D01*
X130340000Y-92631207D01*
X130309257Y-92476649D01*
X130248951Y-92331058D01*
X130161401Y-92200030D01*
X130049970Y-92088599D01*
X130029618Y-92075000D01*
X130049970Y-92061401D01*
X130161401Y-91949970D01*
X130248951Y-91818942D01*
X130309257Y-91673351D01*
X130340000Y-91518793D01*
X130340000Y-91361207D01*
X130309257Y-91206649D01*
X130248951Y-91061058D01*
X130161401Y-90930030D01*
X130049970Y-90818599D01*
X130029618Y-90805000D01*
X130049970Y-90791401D01*
X130071371Y-90770000D01*
X132466473Y-90770000D01*
X144180000Y-102483528D01*
X144180001Y-110460516D01*
X144177097Y-110490000D01*
X144188682Y-110607620D01*
X144216529Y-110699419D01*
X144222991Y-110720721D01*
X144278705Y-110824955D01*
X144353684Y-110916317D01*
X144376582Y-110935109D01*
X149414891Y-115973419D01*
X149433683Y-115996317D01*
X149525045Y-116071296D01*
X149592971Y-116107603D01*
X149629278Y-116127010D01*
X149742379Y-116161318D01*
X149860000Y-116172903D01*
X149889474Y-116170000D01*
X151868629Y-116170000D01*
X151890030Y-116191401D01*
X151910382Y-116205000D01*
X151890030Y-116218599D01*
X151778599Y-116330030D01*
X151691049Y-116461058D01*
X151630743Y-116606649D01*
X151600000Y-116761207D01*
X151600000Y-116918793D01*
X151630743Y-117073351D01*
X151691049Y-117218942D01*
X151778599Y-117349970D01*
X151890030Y-117461401D01*
X151897924Y-117466676D01*
X151836081Y-117514687D01*
X151730777Y-117636141D01*
X151651191Y-117775805D01*
X151600381Y-117928312D01*
X151591720Y-117971856D01*
X151660068Y-118100000D01*
X152390000Y-118100000D01*
X152390000Y-118080000D01*
X152410000Y-118080000D01*
X152410000Y-118100000D01*
X153139932Y-118100000D01*
X153208280Y-117971856D01*
X153199619Y-117928312D01*
X153148809Y-117775805D01*
X153069223Y-117636141D01*
X152963919Y-117514687D01*
X152902076Y-117466676D01*
X152909970Y-117461401D01*
X153021401Y-117349970D01*
X153108951Y-117218942D01*
X153169257Y-117073351D01*
X153200000Y-116918793D01*
X153200000Y-116761207D01*
X153169257Y-116606649D01*
X153108951Y-116461058D01*
X153021401Y-116330030D01*
X152909970Y-116218599D01*
X152889618Y-116205000D01*
X152909970Y-116191401D01*
X153021401Y-116079970D01*
X153108951Y-115948942D01*
X153169257Y-115803351D01*
X153200000Y-115648793D01*
X153200000Y-115491207D01*
X153169257Y-115336649D01*
X153108951Y-115191058D01*
X153021401Y-115060030D01*
X152909970Y-114948599D01*
X152889618Y-114935000D01*
X152909970Y-114921401D01*
X153021401Y-114809970D01*
X153108951Y-114678942D01*
X153169257Y-114533351D01*
X153200000Y-114378793D01*
X153200000Y-114221207D01*
X153169257Y-114066649D01*
X153108951Y-113921058D01*
X153021401Y-113790030D01*
X152909970Y-113678599D01*
X152889618Y-113665000D01*
X152909970Y-113651401D01*
X153021401Y-113539970D01*
X153108951Y-113408942D01*
X153169257Y-113263351D01*
X153200000Y-113108793D01*
X153200000Y-112951207D01*
X153169257Y-112796649D01*
X153108951Y-112651058D01*
X153021401Y-112520030D01*
X152909970Y-112408599D01*
X152889618Y-112395000D01*
X152909970Y-112381401D01*
X153021401Y-112269970D01*
X153108951Y-112138942D01*
X153169257Y-111993351D01*
X153200000Y-111838793D01*
X153200000Y-111681207D01*
X153169257Y-111526649D01*
X153108951Y-111381058D01*
X153021401Y-111250030D01*
X152909970Y-111138599D01*
X152889618Y-111125000D01*
X152909970Y-111111401D01*
X153021401Y-110999970D01*
X153108951Y-110868942D01*
X153169257Y-110723351D01*
X153200000Y-110568793D01*
X153200000Y-110411207D01*
X153169257Y-110256649D01*
X153108951Y-110111058D01*
X153021401Y-109980030D01*
X152909970Y-109868599D01*
X152889618Y-109855000D01*
X152909970Y-109841401D01*
X153021401Y-109729970D01*
X153108951Y-109598942D01*
X153169257Y-109453351D01*
X153200000Y-109298793D01*
X153200000Y-109141207D01*
X153169257Y-108986649D01*
X153108951Y-108841058D01*
X153021401Y-108710030D01*
X152909970Y-108598599D01*
X152889618Y-108585000D01*
X152909970Y-108571401D01*
X152931371Y-108550000D01*
X161752673Y-108550000D01*
X170446091Y-117243419D01*
X170464883Y-117266317D01*
X170556245Y-117341296D01*
X170660479Y-117397010D01*
X170773579Y-117431319D01*
X170891200Y-117442903D01*
X170920676Y-117440000D01*
X178672695Y-117440000D01*
X178717522Y-117523866D01*
X178870603Y-117710397D01*
X179057134Y-117863478D01*
X179269945Y-117977228D01*
X179500858Y-118047275D01*
X179680822Y-118065000D01*
X180999178Y-118065000D01*
X181179142Y-118047275D01*
X181410055Y-117977228D01*
X181622866Y-117863478D01*
X181809397Y-117710397D01*
X181962478Y-117523866D01*
X182007305Y-117440000D01*
X191172695Y-117440000D01*
X191217522Y-117523866D01*
X191370603Y-117710397D01*
X191557134Y-117863478D01*
X191769945Y-117977228D01*
X192000858Y-118047275D01*
X192180822Y-118065000D01*
X193499178Y-118065000D01*
X193679142Y-118047275D01*
X193910055Y-117977228D01*
X194122866Y-117863478D01*
X194309397Y-117710397D01*
X194462478Y-117523866D01*
X194576228Y-117311055D01*
X194646275Y-117080142D01*
X194669927Y-116840000D01*
X194646275Y-116599858D01*
X194576228Y-116368945D01*
X194462478Y-116156134D01*
X194309397Y-115969603D01*
X194122866Y-115816522D01*
X193910055Y-115702772D01*
X193679142Y-115632725D01*
X193499178Y-115615000D01*
X192180822Y-115615000D01*
X192000858Y-115632725D01*
X191769945Y-115702772D01*
X191557134Y-115816522D01*
X191370603Y-115969603D01*
X191217522Y-116156134D01*
X191172695Y-116240000D01*
X182007305Y-116240000D01*
X181962478Y-116156134D01*
X181809397Y-115969603D01*
X181622866Y-115816522D01*
X181410055Y-115702772D01*
X181179142Y-115632725D01*
X180999178Y-115615000D01*
X179680822Y-115615000D01*
X179500858Y-115632725D01*
X179269945Y-115702772D01*
X179057134Y-115816522D01*
X178870603Y-115969603D01*
X178717522Y-116156134D01*
X178672695Y-116240000D01*
X171139728Y-116240000D01*
X164039728Y-109140000D01*
X165810073Y-109140000D01*
X165833725Y-109380142D01*
X165903772Y-109611055D01*
X166017522Y-109823866D01*
X166170603Y-110010397D01*
X166357134Y-110163478D01*
X166569945Y-110277228D01*
X166800858Y-110347275D01*
X166980822Y-110365000D01*
X168299178Y-110365000D01*
X168479142Y-110347275D01*
X168710055Y-110277228D01*
X168922866Y-110163478D01*
X169109397Y-110010397D01*
X169262478Y-109823866D01*
X169376228Y-109611055D01*
X169446275Y-109380142D01*
X169469927Y-109140000D01*
X178310073Y-109140000D01*
X178333725Y-109380142D01*
X178403772Y-109611055D01*
X178517522Y-109823866D01*
X178670603Y-110010397D01*
X178857134Y-110163478D01*
X179069945Y-110277228D01*
X179300858Y-110347275D01*
X179480822Y-110365000D01*
X180799178Y-110365000D01*
X180979142Y-110347275D01*
X181210055Y-110277228D01*
X181422866Y-110163478D01*
X181609397Y-110010397D01*
X181762478Y-109823866D01*
X181876228Y-109611055D01*
X181946275Y-109380142D01*
X181969927Y-109140000D01*
X191210073Y-109140000D01*
X191233725Y-109380142D01*
X191303772Y-109611055D01*
X191417522Y-109823866D01*
X191570603Y-110010397D01*
X191757134Y-110163478D01*
X191969945Y-110277228D01*
X192200858Y-110347275D01*
X192380822Y-110365000D01*
X193699178Y-110365000D01*
X193879142Y-110347275D01*
X194110055Y-110277228D01*
X194322866Y-110163478D01*
X194509397Y-110010397D01*
X194662478Y-109823866D01*
X194776228Y-109611055D01*
X194846275Y-109380142D01*
X194869927Y-109140000D01*
X203710073Y-109140000D01*
X203733725Y-109380142D01*
X203803772Y-109611055D01*
X203917522Y-109823866D01*
X204070603Y-110010397D01*
X204257134Y-110163478D01*
X204469945Y-110277228D01*
X204700858Y-110347275D01*
X204880822Y-110365000D01*
X206199178Y-110365000D01*
X206379142Y-110347275D01*
X206610055Y-110277228D01*
X206822866Y-110163478D01*
X207009397Y-110010397D01*
X207162478Y-109823866D01*
X207276228Y-109611055D01*
X207346275Y-109380142D01*
X207369927Y-109140000D01*
X207346275Y-108899858D01*
X207276228Y-108668945D01*
X207162478Y-108456134D01*
X207009397Y-108269603D01*
X206822866Y-108116522D01*
X206610055Y-108002772D01*
X206379142Y-107932725D01*
X206199178Y-107915000D01*
X204880822Y-107915000D01*
X204700858Y-107932725D01*
X204469945Y-108002772D01*
X204257134Y-108116522D01*
X204070603Y-108269603D01*
X203917522Y-108456134D01*
X203803772Y-108668945D01*
X203733725Y-108899858D01*
X203710073Y-109140000D01*
X194869927Y-109140000D01*
X194846275Y-108899858D01*
X194776228Y-108668945D01*
X194662478Y-108456134D01*
X194509397Y-108269603D01*
X194322866Y-108116522D01*
X194110055Y-108002772D01*
X193879142Y-107932725D01*
X193699178Y-107915000D01*
X192380822Y-107915000D01*
X192200858Y-107932725D01*
X191969945Y-108002772D01*
X191757134Y-108116522D01*
X191570603Y-108269603D01*
X191417522Y-108456134D01*
X191303772Y-108668945D01*
X191233725Y-108899858D01*
X191210073Y-109140000D01*
X181969927Y-109140000D01*
X181946275Y-108899858D01*
X181876228Y-108668945D01*
X181762478Y-108456134D01*
X181609397Y-108269603D01*
X181422866Y-108116522D01*
X181210055Y-108002772D01*
X180979142Y-107932725D01*
X180799178Y-107915000D01*
X179480822Y-107915000D01*
X179300858Y-107932725D01*
X179069945Y-108002772D01*
X178857134Y-108116522D01*
X178670603Y-108269603D01*
X178517522Y-108456134D01*
X178403772Y-108668945D01*
X178333725Y-108899858D01*
X178310073Y-109140000D01*
X169469927Y-109140000D01*
X169446275Y-108899858D01*
X169376228Y-108668945D01*
X169262478Y-108456134D01*
X169109397Y-108269603D01*
X168922866Y-108116522D01*
X168710055Y-108002772D01*
X168479142Y-107932725D01*
X168299178Y-107915000D01*
X166980822Y-107915000D01*
X166800858Y-107932725D01*
X166569945Y-108002772D01*
X166357134Y-108116522D01*
X166170603Y-108269603D01*
X166017522Y-108456134D01*
X165903772Y-108668945D01*
X165833725Y-108899858D01*
X165810073Y-109140000D01*
X164039728Y-109140000D01*
X162446313Y-107546586D01*
X162427517Y-107523683D01*
X162336155Y-107448704D01*
X162231921Y-107392990D01*
X162118821Y-107358682D01*
X162030674Y-107350000D01*
X162001200Y-107347097D01*
X161971726Y-107350000D01*
X152931371Y-107350000D01*
X152909970Y-107328599D01*
X152889618Y-107315000D01*
X152909970Y-107301401D01*
X152931371Y-107280000D01*
X189352926Y-107280000D01*
X189382400Y-107282903D01*
X189411874Y-107280000D01*
X189500021Y-107271318D01*
X189613121Y-107237010D01*
X189717355Y-107181296D01*
X189808717Y-107106317D01*
X189827513Y-107083414D01*
X191751815Y-105159113D01*
X191757134Y-105163478D01*
X191969945Y-105277228D01*
X192200858Y-105347275D01*
X192380822Y-105365000D01*
X193699178Y-105365000D01*
X193879142Y-105347275D01*
X194110055Y-105277228D01*
X194322866Y-105163478D01*
X194509397Y-105010397D01*
X194662478Y-104823866D01*
X194707305Y-104740000D01*
X203872695Y-104740000D01*
X203917522Y-104823866D01*
X204070603Y-105010397D01*
X204257134Y-105163478D01*
X204469945Y-105277228D01*
X204700858Y-105347275D01*
X204880822Y-105365000D01*
X206199178Y-105365000D01*
X206379142Y-105347275D01*
X206610055Y-105277228D01*
X206822866Y-105163478D01*
X207009397Y-105010397D01*
X207162478Y-104823866D01*
X207276228Y-104611055D01*
X207346275Y-104380142D01*
X207369927Y-104140000D01*
X207346275Y-103899858D01*
X207276228Y-103668945D01*
X207162478Y-103456134D01*
X207009397Y-103269603D01*
X206822866Y-103116522D01*
X206610055Y-103002772D01*
X206379142Y-102932725D01*
X206199178Y-102915000D01*
X204880822Y-102915000D01*
X204700858Y-102932725D01*
X204469945Y-103002772D01*
X204257134Y-103116522D01*
X204070603Y-103269603D01*
X203917522Y-103456134D01*
X203872695Y-103540000D01*
X194707305Y-103540000D01*
X194662478Y-103456134D01*
X194509397Y-103269603D01*
X194322866Y-103116522D01*
X194110055Y-103002772D01*
X193879142Y-102932725D01*
X193699178Y-102915000D01*
X192380822Y-102915000D01*
X192200858Y-102932725D01*
X191969945Y-103002772D01*
X191757134Y-103116522D01*
X191570603Y-103269603D01*
X191417522Y-103456134D01*
X191303772Y-103668945D01*
X191233725Y-103899858D01*
X191224953Y-103988918D01*
X189133873Y-106080000D01*
X152931371Y-106080000D01*
X152909970Y-106058599D01*
X152889618Y-106045000D01*
X152909970Y-106031401D01*
X153021401Y-105919970D01*
X153108951Y-105788942D01*
X153169257Y-105643351D01*
X153200000Y-105488793D01*
X153200000Y-105331207D01*
X153169257Y-105176649D01*
X153108951Y-105031058D01*
X153021401Y-104900030D01*
X152909970Y-104788599D01*
X152889618Y-104775000D01*
X152909970Y-104761401D01*
X153021401Y-104649970D01*
X153108951Y-104518942D01*
X153169257Y-104373351D01*
X153200000Y-104218793D01*
X153200000Y-104140000D01*
X165810073Y-104140000D01*
X165833725Y-104380142D01*
X165903772Y-104611055D01*
X166017522Y-104823866D01*
X166170603Y-105010397D01*
X166357134Y-105163478D01*
X166569945Y-105277228D01*
X166800858Y-105347275D01*
X166980822Y-105365000D01*
X168299178Y-105365000D01*
X168479142Y-105347275D01*
X168710055Y-105277228D01*
X168922866Y-105163478D01*
X169109397Y-105010397D01*
X169262478Y-104823866D01*
X169307305Y-104740000D01*
X178472695Y-104740000D01*
X178517522Y-104823866D01*
X178670603Y-105010397D01*
X178857134Y-105163478D01*
X179069945Y-105277228D01*
X179300858Y-105347275D01*
X179480822Y-105365000D01*
X180799178Y-105365000D01*
X180979142Y-105347275D01*
X181210055Y-105277228D01*
X181422866Y-105163478D01*
X181609397Y-105010397D01*
X181762478Y-104823866D01*
X181876228Y-104611055D01*
X181946275Y-104380142D01*
X181969927Y-104140000D01*
X181946275Y-103899858D01*
X181876228Y-103668945D01*
X181762478Y-103456134D01*
X181609397Y-103269603D01*
X181422866Y-103116522D01*
X181210055Y-103002772D01*
X180979142Y-102932725D01*
X180799178Y-102915000D01*
X179480822Y-102915000D01*
X179300858Y-102932725D01*
X179069945Y-103002772D01*
X178857134Y-103116522D01*
X178670603Y-103269603D01*
X178517522Y-103456134D01*
X178472695Y-103540000D01*
X169307305Y-103540000D01*
X169262478Y-103456134D01*
X169109397Y-103269603D01*
X168922866Y-103116522D01*
X168710055Y-103002772D01*
X168479142Y-102932725D01*
X168299178Y-102915000D01*
X166980822Y-102915000D01*
X166800858Y-102932725D01*
X166569945Y-103002772D01*
X166357134Y-103116522D01*
X166170603Y-103269603D01*
X166017522Y-103456134D01*
X165903772Y-103668945D01*
X165833725Y-103899858D01*
X165810073Y-104140000D01*
X153200000Y-104140000D01*
X153200000Y-104061207D01*
X153169257Y-103906649D01*
X153108951Y-103761058D01*
X153021401Y-103630030D01*
X152909970Y-103518599D01*
X152889618Y-103505000D01*
X152909970Y-103491401D01*
X153021401Y-103379970D01*
X153108951Y-103248942D01*
X153169257Y-103103351D01*
X153200000Y-102948793D01*
X153200000Y-102791207D01*
X153169257Y-102636649D01*
X153108951Y-102491058D01*
X153021401Y-102360030D01*
X152909970Y-102248599D01*
X152889618Y-102235000D01*
X152909970Y-102221401D01*
X153021401Y-102109970D01*
X153108951Y-101978942D01*
X153169257Y-101833351D01*
X153200000Y-101678793D01*
X153200000Y-101521207D01*
X153169257Y-101366649D01*
X153108951Y-101221058D01*
X153021401Y-101090030D01*
X152909970Y-100978599D01*
X152889618Y-100965000D01*
X152909970Y-100951401D01*
X153021401Y-100839970D01*
X153108951Y-100708942D01*
X153169257Y-100563351D01*
X153200000Y-100408793D01*
X153200000Y-100251207D01*
X153169257Y-100096649D01*
X153108951Y-99951058D01*
X153021401Y-99820030D01*
X152909970Y-99708599D01*
X152889618Y-99695000D01*
X152909970Y-99681401D01*
X153021401Y-99569970D01*
X153108951Y-99438942D01*
X153169257Y-99293351D01*
X153200000Y-99138793D01*
X153200000Y-98981207D01*
X153169257Y-98826649D01*
X153108951Y-98681058D01*
X153021401Y-98550030D01*
X152909970Y-98438599D01*
X152889618Y-98425000D01*
X152909970Y-98411401D01*
X153021401Y-98299970D01*
X153108951Y-98168942D01*
X153169257Y-98023351D01*
X153200000Y-97868793D01*
X153200000Y-97711207D01*
X153169257Y-97556649D01*
X153108951Y-97411058D01*
X153021401Y-97280030D01*
X152909970Y-97168599D01*
X152889618Y-97155000D01*
X152909970Y-97141401D01*
X153021401Y-97029970D01*
X153108951Y-96898942D01*
X153169257Y-96753351D01*
X153200000Y-96598793D01*
X153200000Y-96441207D01*
X153199760Y-96440000D01*
X178510073Y-96440000D01*
X178533725Y-96680142D01*
X178603772Y-96911055D01*
X178717522Y-97123866D01*
X178870603Y-97310397D01*
X179057134Y-97463478D01*
X179269945Y-97577228D01*
X179500858Y-97647275D01*
X179680822Y-97665000D01*
X180999178Y-97665000D01*
X181179142Y-97647275D01*
X181410055Y-97577228D01*
X181622866Y-97463478D01*
X181809397Y-97310397D01*
X181962478Y-97123866D01*
X182076228Y-96911055D01*
X182146275Y-96680142D01*
X182169927Y-96440000D01*
X191010073Y-96440000D01*
X191033725Y-96680142D01*
X191103772Y-96911055D01*
X191217522Y-97123866D01*
X191370603Y-97310397D01*
X191557134Y-97463478D01*
X191769945Y-97577228D01*
X192000858Y-97647275D01*
X192180822Y-97665000D01*
X193499178Y-97665000D01*
X193679142Y-97647275D01*
X193910055Y-97577228D01*
X194122866Y-97463478D01*
X194309397Y-97310397D01*
X194462478Y-97123866D01*
X194576228Y-96911055D01*
X194646275Y-96680142D01*
X194669927Y-96440000D01*
X194646275Y-96199858D01*
X194576228Y-95968945D01*
X194462478Y-95756134D01*
X194309397Y-95569603D01*
X194122866Y-95416522D01*
X193910055Y-95302772D01*
X193679142Y-95232725D01*
X193499178Y-95215000D01*
X192180822Y-95215000D01*
X192000858Y-95232725D01*
X191769945Y-95302772D01*
X191557134Y-95416522D01*
X191370603Y-95569603D01*
X191217522Y-95756134D01*
X191103772Y-95968945D01*
X191033725Y-96199858D01*
X191010073Y-96440000D01*
X182169927Y-96440000D01*
X182146275Y-96199858D01*
X182076228Y-95968945D01*
X181962478Y-95756134D01*
X181809397Y-95569603D01*
X181622866Y-95416522D01*
X181410055Y-95302772D01*
X181179142Y-95232725D01*
X180999178Y-95215000D01*
X179680822Y-95215000D01*
X179500858Y-95232725D01*
X179269945Y-95302772D01*
X179057134Y-95416522D01*
X178870603Y-95569603D01*
X178717522Y-95756134D01*
X178603772Y-95968945D01*
X178533725Y-96199858D01*
X178510073Y-96440000D01*
X153199760Y-96440000D01*
X153169257Y-96286649D01*
X153108951Y-96141058D01*
X153021401Y-96010030D01*
X152909970Y-95898599D01*
X152889618Y-95885000D01*
X152909970Y-95871401D01*
X153021401Y-95759970D01*
X153108951Y-95628942D01*
X153169257Y-95483351D01*
X153200000Y-95328793D01*
X153200000Y-95171207D01*
X153169257Y-95016649D01*
X153108951Y-94871058D01*
X153021401Y-94740030D01*
X152909970Y-94628599D01*
X152889618Y-94615000D01*
X152909970Y-94601401D01*
X153021401Y-94489970D01*
X153108951Y-94358942D01*
X153169257Y-94213351D01*
X153200000Y-94058793D01*
X153200000Y-93901207D01*
X153169257Y-93746649D01*
X153108951Y-93601058D01*
X153021401Y-93470030D01*
X152909970Y-93358599D01*
X152889618Y-93345000D01*
X152909970Y-93331401D01*
X153021401Y-93219970D01*
X153108951Y-93088942D01*
X153169257Y-92943351D01*
X153200000Y-92788793D01*
X153200000Y-92631207D01*
X153169257Y-92476649D01*
X153108951Y-92331058D01*
X153021401Y-92200030D01*
X152909970Y-92088599D01*
X152889618Y-92075000D01*
X152909970Y-92061401D01*
X153021401Y-91949970D01*
X153108951Y-91818942D01*
X153169257Y-91673351D01*
X153200000Y-91518793D01*
X153200000Y-91440000D01*
X178510073Y-91440000D01*
X178533725Y-91680142D01*
X178603772Y-91911055D01*
X178717522Y-92123866D01*
X178870603Y-92310397D01*
X179057134Y-92463478D01*
X179269945Y-92577228D01*
X179500858Y-92647275D01*
X179680822Y-92665000D01*
X180999178Y-92665000D01*
X181179142Y-92647275D01*
X181410055Y-92577228D01*
X181622866Y-92463478D01*
X181809397Y-92310397D01*
X181962478Y-92123866D01*
X182007305Y-92040000D01*
X191172695Y-92040000D01*
X191217522Y-92123866D01*
X191370603Y-92310397D01*
X191557134Y-92463478D01*
X191769945Y-92577228D01*
X192000858Y-92647275D01*
X192180822Y-92665000D01*
X193499178Y-92665000D01*
X193679142Y-92647275D01*
X193910055Y-92577228D01*
X194122866Y-92463478D01*
X194309397Y-92310397D01*
X194462478Y-92123866D01*
X194576228Y-91911055D01*
X194646275Y-91680142D01*
X194669927Y-91440000D01*
X194646275Y-91199858D01*
X194576228Y-90968945D01*
X194462478Y-90756134D01*
X194309397Y-90569603D01*
X194122866Y-90416522D01*
X193910055Y-90302772D01*
X193679142Y-90232725D01*
X193499178Y-90215000D01*
X192180822Y-90215000D01*
X192000858Y-90232725D01*
X191769945Y-90302772D01*
X191557134Y-90416522D01*
X191370603Y-90569603D01*
X191217522Y-90756134D01*
X191172695Y-90840000D01*
X182007305Y-90840000D01*
X181962478Y-90756134D01*
X181809397Y-90569603D01*
X181622866Y-90416522D01*
X181410055Y-90302772D01*
X181179142Y-90232725D01*
X180999178Y-90215000D01*
X179680822Y-90215000D01*
X179500858Y-90232725D01*
X179269945Y-90302772D01*
X179057134Y-90416522D01*
X178870603Y-90569603D01*
X178717522Y-90756134D01*
X178603772Y-90968945D01*
X178533725Y-91199858D01*
X178510073Y-91440000D01*
X153200000Y-91440000D01*
X153200000Y-91361207D01*
X153169257Y-91206649D01*
X153108951Y-91061058D01*
X153021401Y-90930030D01*
X152909970Y-90818599D01*
X152889618Y-90805000D01*
X152909970Y-90791401D01*
X153021401Y-90679970D01*
X153108951Y-90548942D01*
X153169257Y-90403351D01*
X153200000Y-90248793D01*
X153200000Y-90091207D01*
X153169257Y-89936649D01*
X153108951Y-89791058D01*
X153028907Y-89671263D01*
X153067477Y-89650647D01*
X153113158Y-89613158D01*
X153150647Y-89567477D01*
X153178504Y-89515360D01*
X153195659Y-89458810D01*
X153201451Y-89400000D01*
X153201451Y-88400000D01*
X153195659Y-88341190D01*
X153178504Y-88284640D01*
X153150647Y-88232523D01*
X153113158Y-88186842D01*
X153067477Y-88149353D01*
X153015360Y-88121496D01*
X152958810Y-88104341D01*
X152900000Y-88098549D01*
X151900000Y-88098549D01*
X151841190Y-88104341D01*
X151784640Y-88121496D01*
X151732523Y-88149353D01*
X151686842Y-88186842D01*
X151649353Y-88232523D01*
X151621496Y-88284640D01*
X151604341Y-88341190D01*
X151598549Y-88400000D01*
X151598549Y-89400000D01*
X151604341Y-89458810D01*
X151621496Y-89515360D01*
X151649353Y-89567477D01*
X151686842Y-89613158D01*
X151732523Y-89650647D01*
X151771093Y-89671263D01*
X151691049Y-89791058D01*
X151630743Y-89936649D01*
X151600000Y-90091207D01*
X151600000Y-90248793D01*
X151630743Y-90403351D01*
X151691049Y-90548942D01*
X151778599Y-90679970D01*
X151890030Y-90791401D01*
X151910382Y-90805000D01*
X151890030Y-90818599D01*
X151778599Y-90930030D01*
X151691049Y-91061058D01*
X151630743Y-91206649D01*
X151600000Y-91361207D01*
X151600000Y-91518793D01*
X151630743Y-91673351D01*
X151691049Y-91818942D01*
X151778599Y-91949970D01*
X151890030Y-92061401D01*
X151910382Y-92075000D01*
X151890030Y-92088599D01*
X151778599Y-92200030D01*
X151691049Y-92331058D01*
X151630743Y-92476649D01*
X151600000Y-92631207D01*
X151600000Y-92788793D01*
X151630743Y-92943351D01*
X151691049Y-93088942D01*
X151778599Y-93219970D01*
X151890030Y-93331401D01*
X151910382Y-93345000D01*
X151890030Y-93358599D01*
X151778599Y-93470030D01*
X151691049Y-93601058D01*
X151630743Y-93746649D01*
X151600000Y-93901207D01*
X151600000Y-94058793D01*
X151630743Y-94213351D01*
X151691049Y-94358942D01*
X151778599Y-94489970D01*
X151890030Y-94601401D01*
X151910382Y-94615000D01*
X151890030Y-94628599D01*
X151778599Y-94740030D01*
X151691049Y-94871058D01*
X151630743Y-95016649D01*
X151600000Y-95171207D01*
X151600000Y-95328793D01*
X151630743Y-95483351D01*
X151691049Y-95628942D01*
X151778599Y-95759970D01*
X151890030Y-95871401D01*
X151910382Y-95885000D01*
X151890030Y-95898599D01*
X151778599Y-96010030D01*
X151691049Y-96141058D01*
X151630743Y-96286649D01*
X151600000Y-96441207D01*
X151600000Y-96598793D01*
X151630743Y-96753351D01*
X151691049Y-96898942D01*
X151778599Y-97029970D01*
X151890030Y-97141401D01*
X151910382Y-97155000D01*
X151890030Y-97168599D01*
X151778599Y-97280030D01*
X151691049Y-97411058D01*
X151630743Y-97556649D01*
X151600000Y-97711207D01*
X151600000Y-97868793D01*
X151630743Y-98023351D01*
X151691049Y-98168942D01*
X151778599Y-98299970D01*
X151890030Y-98411401D01*
X151910382Y-98425000D01*
X151890030Y-98438599D01*
X151778599Y-98550030D01*
X151691049Y-98681058D01*
X151630743Y-98826649D01*
X151600000Y-98981207D01*
X151600000Y-99138793D01*
X151630743Y-99293351D01*
X151691049Y-99438942D01*
X151778599Y-99569970D01*
X151890030Y-99681401D01*
X151910382Y-99695000D01*
X151890030Y-99708599D01*
X151778599Y-99820030D01*
X151691049Y-99951058D01*
X151630743Y-100096649D01*
X151600000Y-100251207D01*
X151600000Y-100408793D01*
X151630743Y-100563351D01*
X151691049Y-100708942D01*
X151778599Y-100839970D01*
X151890030Y-100951401D01*
X151910382Y-100965000D01*
X151890030Y-100978599D01*
X151778599Y-101090030D01*
X151691049Y-101221058D01*
X151630743Y-101366649D01*
X151600000Y-101521207D01*
X151600000Y-101678793D01*
X151630743Y-101833351D01*
X151691049Y-101978942D01*
X151778599Y-102109970D01*
X151890030Y-102221401D01*
X151910382Y-102235000D01*
X151890030Y-102248599D01*
X151778599Y-102360030D01*
X151691049Y-102491058D01*
X151630743Y-102636649D01*
X151600000Y-102791207D01*
X151600000Y-102948793D01*
X151630743Y-103103351D01*
X151691049Y-103248942D01*
X151778599Y-103379970D01*
X151890030Y-103491401D01*
X151910382Y-103505000D01*
X151890030Y-103518599D01*
X151778599Y-103630030D01*
X151691049Y-103761058D01*
X151630743Y-103906649D01*
X151600000Y-104061207D01*
X151600000Y-104218793D01*
X151630743Y-104373351D01*
X151691049Y-104518942D01*
X151778599Y-104649970D01*
X151890030Y-104761401D01*
X151910382Y-104775000D01*
X151890030Y-104788599D01*
X151778599Y-104900030D01*
X151691049Y-105031058D01*
X151630743Y-105176649D01*
X151600000Y-105331207D01*
X151600000Y-105488793D01*
X151630743Y-105643351D01*
X151691049Y-105788942D01*
X151778599Y-105919970D01*
X151890030Y-106031401D01*
X151910382Y-106045000D01*
X151890030Y-106058599D01*
X151778599Y-106170030D01*
X151691049Y-106301058D01*
X151630743Y-106446649D01*
X151600000Y-106601207D01*
X151600000Y-106758793D01*
X151630743Y-106913351D01*
X151691049Y-107058942D01*
X151778599Y-107189970D01*
X151890030Y-107301401D01*
X151910382Y-107315000D01*
X151890030Y-107328599D01*
X151778599Y-107440030D01*
X151691049Y-107571058D01*
X151630743Y-107716649D01*
X151600000Y-107871207D01*
X151600000Y-108028793D01*
X151630743Y-108183351D01*
X151691049Y-108328942D01*
X151778599Y-108459970D01*
X151890030Y-108571401D01*
X151910382Y-108585000D01*
X151890030Y-108598599D01*
X151778599Y-108710030D01*
X151691049Y-108841058D01*
X151630743Y-108986649D01*
X151600000Y-109141207D01*
X151600000Y-109298793D01*
X151630743Y-109453351D01*
X151691049Y-109598942D01*
X151778599Y-109729970D01*
X151890030Y-109841401D01*
X151910382Y-109855000D01*
X151890030Y-109868599D01*
X151778599Y-109980030D01*
X151691049Y-110111058D01*
X151630743Y-110256649D01*
X151600000Y-110411207D01*
X151600000Y-110568793D01*
X151630743Y-110723351D01*
X151691049Y-110868942D01*
X151778599Y-110999970D01*
X151890030Y-111111401D01*
X151910382Y-111125000D01*
X151890030Y-111138599D01*
X151778599Y-111250030D01*
X151691049Y-111381058D01*
X151630743Y-111526649D01*
X151600000Y-111681207D01*
X151600000Y-111838793D01*
X151630743Y-111993351D01*
X151691049Y-112138942D01*
X151778599Y-112269970D01*
X151890030Y-112381401D01*
X151910382Y-112395000D01*
X151890030Y-112408599D01*
X151778599Y-112520030D01*
X151691049Y-112651058D01*
X151630743Y-112796649D01*
X151600000Y-112951207D01*
X151600000Y-113108793D01*
X151630743Y-113263351D01*
X151691049Y-113408942D01*
X151778599Y-113539970D01*
X151890030Y-113651401D01*
X151910382Y-113665000D01*
X151890030Y-113678599D01*
X151778599Y-113790030D01*
X151691049Y-113921058D01*
X151630743Y-114066649D01*
X151600000Y-114221207D01*
X151600000Y-114378793D01*
X151630743Y-114533351D01*
X151691049Y-114678942D01*
X151778599Y-114809970D01*
X151890030Y-114921401D01*
X151910382Y-114935000D01*
X151890030Y-114948599D01*
X151868629Y-114970000D01*
X150108528Y-114970000D01*
X145380000Y-110241473D01*
X145380000Y-102264476D01*
X145382903Y-102235000D01*
X145371319Y-102117379D01*
X145337010Y-102004279D01*
X145323467Y-101978942D01*
X145281296Y-101900045D01*
X145206317Y-101808683D01*
X145183420Y-101789892D01*
X133160113Y-89766586D01*
X133141317Y-89743683D01*
X133049955Y-89668704D01*
X132945721Y-89612990D01*
X132832621Y-89578682D01*
X132744474Y-89570000D01*
X132715000Y-89567097D01*
X132685526Y-89570000D01*
X130311976Y-89570000D01*
X130337072Y-89523051D01*
X130355370Y-89462731D01*
X130361548Y-89400000D01*
X130360000Y-88990000D01*
X130280000Y-88910000D01*
X129550000Y-88910000D01*
X129550000Y-88930000D01*
X129530000Y-88930000D01*
X129530000Y-88910000D01*
X128800000Y-88910000D01*
X128720000Y-88990000D01*
X128718452Y-89400000D01*
X128724630Y-89462731D01*
X128742928Y-89523051D01*
X128772643Y-89578642D01*
X128812631Y-89627369D01*
X128861358Y-89667357D01*
X128899928Y-89687974D01*
X128831049Y-89791058D01*
X128770743Y-89936649D01*
X128740000Y-90091207D01*
X128740000Y-90248793D01*
X128770743Y-90403351D01*
X128831049Y-90548942D01*
X128918599Y-90679970D01*
X129030030Y-90791401D01*
X129050382Y-90805000D01*
X129030030Y-90818599D01*
X128918599Y-90930030D01*
X128831049Y-91061058D01*
X128770743Y-91206649D01*
X128740000Y-91361207D01*
X128740000Y-91518793D01*
X128770743Y-91673351D01*
X128831049Y-91818942D01*
X128918599Y-91949970D01*
X129030030Y-92061401D01*
X129050382Y-92075000D01*
X129030030Y-92088599D01*
X128918599Y-92200030D01*
X128831049Y-92331058D01*
X128770743Y-92476649D01*
X128740000Y-92631207D01*
X128740000Y-92788793D01*
X128770743Y-92943351D01*
X128831049Y-93088942D01*
X128918599Y-93219970D01*
X129030030Y-93331401D01*
X129050382Y-93345000D01*
X129030030Y-93358599D01*
X128918599Y-93470030D01*
X128831049Y-93601058D01*
X128770743Y-93746649D01*
X128740000Y-93901207D01*
X128740000Y-94058793D01*
X128770743Y-94213351D01*
X128831049Y-94358942D01*
X128918599Y-94489970D01*
X129030030Y-94601401D01*
X129050382Y-94615000D01*
X129030030Y-94628599D01*
X128918599Y-94740030D01*
X128831049Y-94871058D01*
X128770743Y-95016649D01*
X128740000Y-95171207D01*
X128740000Y-95328793D01*
X128770743Y-95483351D01*
X128831049Y-95628942D01*
X128918599Y-95759970D01*
X129030030Y-95871401D01*
X129050382Y-95885000D01*
X129030030Y-95898599D01*
X128918599Y-96010030D01*
X128831049Y-96141058D01*
X128770743Y-96286649D01*
X128740000Y-96441207D01*
X128740000Y-96598793D01*
X128770743Y-96753351D01*
X128831049Y-96898942D01*
X128918599Y-97029970D01*
X129030030Y-97141401D01*
X129050382Y-97155000D01*
X129030030Y-97168599D01*
X129008629Y-97190000D01*
X117088528Y-97190000D01*
X110935113Y-91036586D01*
X110916317Y-91013683D01*
X110824955Y-90938704D01*
X110720721Y-90882990D01*
X110607621Y-90848682D01*
X110519474Y-90840000D01*
X110490000Y-90837097D01*
X110460526Y-90840000D01*
X103067305Y-90840000D01*
X103022478Y-90756134D01*
X102869397Y-90569603D01*
X102682866Y-90416522D01*
X102470055Y-90302772D01*
X102239142Y-90232725D01*
X102059178Y-90215000D01*
X100740822Y-90215000D01*
X100560858Y-90232725D01*
X100329945Y-90302772D01*
X100117134Y-90416522D01*
X99930603Y-90569603D01*
X99777522Y-90756134D01*
X99732695Y-90840000D01*
X90567305Y-90840000D01*
X90522478Y-90756134D01*
X90369397Y-90569603D01*
X90182866Y-90416522D01*
X89970055Y-90302772D01*
X89739142Y-90232725D01*
X89559178Y-90215000D01*
X88240822Y-90215000D01*
X88060858Y-90232725D01*
X87829945Y-90302772D01*
X87617134Y-90416522D01*
X87430603Y-90569603D01*
X87277522Y-90756134D01*
X87163772Y-90968945D01*
X87093725Y-91199858D01*
X87070073Y-91440000D01*
X87093725Y-91680142D01*
X87163772Y-91911055D01*
X87277522Y-92123866D01*
X87430603Y-92310397D01*
X87617134Y-92463478D01*
X87829945Y-92577228D01*
X88060858Y-92647275D01*
X88240822Y-92665000D01*
X89559178Y-92665000D01*
X89739142Y-92647275D01*
X89970055Y-92577228D01*
X90182866Y-92463478D01*
X90369397Y-92310397D01*
X90522478Y-92123866D01*
X90567305Y-92040000D01*
X99732695Y-92040000D01*
X99777522Y-92123866D01*
X99930603Y-92310397D01*
X100117134Y-92463478D01*
X100329945Y-92577228D01*
X100560858Y-92647275D01*
X100740822Y-92665000D01*
X102059178Y-92665000D01*
X102239142Y-92647275D01*
X102470055Y-92577228D01*
X102682866Y-92463478D01*
X102869397Y-92310397D01*
X103022478Y-92123866D01*
X103067305Y-92040000D01*
X110241473Y-92040000D01*
X116394891Y-98193419D01*
X116413683Y-98216317D01*
X116505045Y-98291296D01*
X116609279Y-98347010D01*
X116722379Y-98381318D01*
X116839999Y-98392903D01*
X116869473Y-98390000D01*
X129008629Y-98390000D01*
X129030030Y-98411401D01*
X129050382Y-98425000D01*
X129030030Y-98438599D01*
X128918599Y-98550030D01*
X128831049Y-98681058D01*
X128770743Y-98826649D01*
X128740000Y-98981207D01*
X128740000Y-99138793D01*
X128770743Y-99293351D01*
X128831049Y-99438942D01*
X128918599Y-99569970D01*
X129030030Y-99681401D01*
X129050382Y-99695000D01*
X129030030Y-99708599D01*
X129008629Y-99730000D01*
X91014474Y-99730000D01*
X90985000Y-99727097D01*
X90955526Y-99730000D01*
X90867379Y-99738682D01*
X90754279Y-99772990D01*
X90650045Y-99828704D01*
X90558683Y-99903683D01*
X90539891Y-99926581D01*
X88296582Y-102169891D01*
X88273684Y-102188683D01*
X88198705Y-102280045D01*
X88159887Y-102352669D01*
X88142991Y-102384279D01*
X88108682Y-102497380D01*
X88097097Y-102615000D01*
X88100001Y-102644483D01*
X88100001Y-102915000D01*
X88040822Y-102915000D01*
X87860858Y-102932725D01*
X87629945Y-103002772D01*
X87417134Y-103116522D01*
X87230603Y-103269603D01*
X87077522Y-103456134D01*
X87032695Y-103540000D01*
X77867305Y-103540000D01*
X77822478Y-103456134D01*
X77669397Y-103269603D01*
X77482866Y-103116522D01*
X77270055Y-103002772D01*
X77039142Y-102932725D01*
X76859178Y-102915000D01*
X75540822Y-102915000D01*
X75360858Y-102932725D01*
X75129945Y-103002772D01*
X74917134Y-103116522D01*
X74730603Y-103269603D01*
X74577522Y-103456134D01*
X74463772Y-103668945D01*
X74393725Y-103899858D01*
X74370073Y-104140000D01*
X67766036Y-104140000D01*
X67945720Y-102550609D01*
X68332192Y-100515000D01*
X68870207Y-98514090D01*
X69556736Y-96559142D01*
X69608911Y-96440000D01*
X87070073Y-96440000D01*
X87093725Y-96680142D01*
X87163772Y-96911055D01*
X87277522Y-97123866D01*
X87430603Y-97310397D01*
X87617134Y-97463478D01*
X87829945Y-97577228D01*
X88060858Y-97647275D01*
X88240822Y-97665000D01*
X89559178Y-97665000D01*
X89739142Y-97647275D01*
X89970055Y-97577228D01*
X90182866Y-97463478D01*
X90369397Y-97310397D01*
X90522478Y-97123866D01*
X90636228Y-96911055D01*
X90706275Y-96680142D01*
X90729927Y-96440000D01*
X99570073Y-96440000D01*
X99593725Y-96680142D01*
X99663772Y-96911055D01*
X99777522Y-97123866D01*
X99930603Y-97310397D01*
X100117134Y-97463478D01*
X100329945Y-97577228D01*
X100560858Y-97647275D01*
X100740822Y-97665000D01*
X102059178Y-97665000D01*
X102239142Y-97647275D01*
X102470055Y-97577228D01*
X102682866Y-97463478D01*
X102869397Y-97310397D01*
X103022478Y-97123866D01*
X103136228Y-96911055D01*
X103206275Y-96680142D01*
X103229927Y-96440000D01*
X103206275Y-96199858D01*
X103136228Y-95968945D01*
X103022478Y-95756134D01*
X102869397Y-95569603D01*
X102682866Y-95416522D01*
X102470055Y-95302772D01*
X102239142Y-95232725D01*
X102059178Y-95215000D01*
X100740822Y-95215000D01*
X100560858Y-95232725D01*
X100329945Y-95302772D01*
X100117134Y-95416522D01*
X99930603Y-95569603D01*
X99777522Y-95756134D01*
X99663772Y-95968945D01*
X99593725Y-96199858D01*
X99570073Y-96440000D01*
X90729927Y-96440000D01*
X90706275Y-96199858D01*
X90636228Y-95968945D01*
X90522478Y-95756134D01*
X90369397Y-95569603D01*
X90182866Y-95416522D01*
X89970055Y-95302772D01*
X89739142Y-95232725D01*
X89559178Y-95215000D01*
X88240822Y-95215000D01*
X88060858Y-95232725D01*
X87829945Y-95302772D01*
X87617134Y-95416522D01*
X87430603Y-95569603D01*
X87277522Y-95756134D01*
X87163772Y-95968945D01*
X87093725Y-96199858D01*
X87070073Y-96440000D01*
X69608911Y-96440000D01*
X70387901Y-94661198D01*
X71359039Y-92830901D01*
X72464679Y-91078566D01*
X73698595Y-89414064D01*
X74575458Y-88400000D01*
X128718452Y-88400000D01*
X128720000Y-88810000D01*
X128800000Y-88890000D01*
X129530000Y-88890000D01*
X129530000Y-88160000D01*
X129550000Y-88160000D01*
X129550000Y-88890000D01*
X130280000Y-88890000D01*
X130360000Y-88810000D01*
X130361548Y-88400000D01*
X130355370Y-88337269D01*
X130337072Y-88276949D01*
X130307357Y-88221358D01*
X130267369Y-88172631D01*
X130218642Y-88132643D01*
X130163051Y-88102928D01*
X130102731Y-88084630D01*
X130040000Y-88078452D01*
X129630000Y-88080000D01*
X129550000Y-88160000D01*
X129530000Y-88160000D01*
X129450000Y-88080000D01*
X129040000Y-88078452D01*
X128977269Y-88084630D01*
X128916949Y-88102928D01*
X128861358Y-88132643D01*
X128812631Y-88172631D01*
X128772643Y-88221358D01*
X128742928Y-88276949D01*
X128724630Y-88337269D01*
X128718452Y-88400000D01*
X74575458Y-88400000D01*
X75053833Y-87846775D01*
X76522776Y-86385502D01*
X78097150Y-85038482D01*
X79768082Y-83813303D01*
X81526173Y-82716859D01*
X83361538Y-81755313D01*
X85263825Y-80934090D01*
X87222319Y-80257813D01*
X89226028Y-79730281D01*
X91263627Y-79354473D01*
X93324121Y-79132451D01*
X95255672Y-79065000D01*
X186683907Y-79065000D01*
X188760516Y-79142960D01*
%TA.AperFunction,Conductor*%
D18*
G36*
X188760516Y-79142960D02*
G01*
X190819391Y-79375720D01*
X192855000Y-79762192D01*
X194855910Y-80300207D01*
X196810858Y-80986736D01*
X198708802Y-81817901D01*
X200539099Y-82789039D01*
X202291434Y-83894679D01*
X203955936Y-85128595D01*
X205523225Y-86483833D01*
X206984498Y-87952776D01*
X208331518Y-89527150D01*
X209556697Y-91198082D01*
X210653141Y-92956173D01*
X211614687Y-94791538D01*
X212435910Y-96693825D01*
X213112187Y-98652319D01*
X213639719Y-100656028D01*
X214015527Y-102693627D01*
X214237549Y-104754121D01*
X214304787Y-106679577D01*
X214227040Y-108750515D01*
X213994280Y-110809389D01*
X213607808Y-112845000D01*
X213069793Y-114845910D01*
X212383269Y-116800847D01*
X211552099Y-118698802D01*
X210580956Y-120529109D01*
X209475316Y-122281439D01*
X208241411Y-123945929D01*
X206886167Y-125513225D01*
X205417224Y-126974498D01*
X203842850Y-128321518D01*
X202171921Y-129546695D01*
X200413827Y-130643141D01*
X198578458Y-131604689D01*
X196676175Y-132425910D01*
X194717676Y-133102188D01*
X192713967Y-133629720D01*
X190676373Y-134005527D01*
X188615879Y-134227549D01*
X186684328Y-134295000D01*
X95256093Y-134295000D01*
X93179485Y-134217040D01*
X91120611Y-133984280D01*
X89085000Y-133597808D01*
X87084090Y-133059793D01*
X85129153Y-132373269D01*
X84098012Y-131921702D01*
X127932777Y-131921702D01*
X127932777Y-132238298D01*
X127994541Y-132548810D01*
X128115697Y-132841306D01*
X128291588Y-133104545D01*
X128515455Y-133328412D01*
X128778694Y-133504303D01*
X129071190Y-133625459D01*
X129381702Y-133687223D01*
X129698298Y-133687223D01*
X130008810Y-133625459D01*
X130301306Y-133504303D01*
X130564545Y-133328412D01*
X130788412Y-133104545D01*
X130964303Y-132841306D01*
X131085459Y-132548810D01*
X131147223Y-132238298D01*
X131147223Y-131921702D01*
X150792777Y-131921702D01*
X150792777Y-132238298D01*
X150854541Y-132548810D01*
X150975697Y-132841306D01*
X151151588Y-133104545D01*
X151375455Y-133328412D01*
X151638694Y-133504303D01*
X151931190Y-133625459D01*
X152241702Y-133687223D01*
X152558298Y-133687223D01*
X152868810Y-133625459D01*
X153161306Y-133504303D01*
X153424545Y-133328412D01*
X153648412Y-133104545D01*
X153824303Y-132841306D01*
X153945459Y-132548810D01*
X154007223Y-132238298D01*
X154007223Y-131921702D01*
X153945459Y-131611190D01*
X153824303Y-131318694D01*
X153648412Y-131055455D01*
X153424545Y-130831588D01*
X153161306Y-130655697D01*
X152868810Y-130534541D01*
X152558298Y-130472777D01*
X152241702Y-130472777D01*
X151931190Y-130534541D01*
X151638694Y-130655697D01*
X151375455Y-130831588D01*
X151151588Y-131055455D01*
X150975697Y-131318694D01*
X150854541Y-131611190D01*
X150792777Y-131921702D01*
X131147223Y-131921702D01*
X131085459Y-131611190D01*
X130964303Y-131318694D01*
X130788412Y-131055455D01*
X130564545Y-130831588D01*
X130301306Y-130655697D01*
X130008810Y-130534541D01*
X129698298Y-130472777D01*
X129381702Y-130472777D01*
X129071190Y-130534541D01*
X128778694Y-130655697D01*
X128515455Y-130831588D01*
X128291588Y-131055455D01*
X128115697Y-131318694D01*
X127994541Y-131611190D01*
X127932777Y-131921702D01*
X84098012Y-131921702D01*
X83231198Y-131542099D01*
X81400891Y-130570956D01*
X79648561Y-129465316D01*
X77984071Y-128231411D01*
X76416775Y-126876167D01*
X74955502Y-125407224D01*
X73608482Y-123832850D01*
X72383305Y-122161921D01*
X72182538Y-121840000D01*
X87070073Y-121840000D01*
X87093725Y-122080142D01*
X87163772Y-122311055D01*
X87277522Y-122523866D01*
X87430603Y-122710397D01*
X87617134Y-122863478D01*
X87829945Y-122977228D01*
X88060858Y-123047275D01*
X88240822Y-123065000D01*
X89559178Y-123065000D01*
X89739142Y-123047275D01*
X89970055Y-122977228D01*
X90182866Y-122863478D01*
X90369397Y-122710397D01*
X90522478Y-122523866D01*
X90636228Y-122311055D01*
X90706275Y-122080142D01*
X90729927Y-121840000D01*
X99570073Y-121840000D01*
X99593725Y-122080142D01*
X99663772Y-122311055D01*
X99777522Y-122523866D01*
X99930603Y-122710397D01*
X100117134Y-122863478D01*
X100329945Y-122977228D01*
X100560858Y-123047275D01*
X100740822Y-123065000D01*
X102059178Y-123065000D01*
X102239142Y-123047275D01*
X102470055Y-122977228D01*
X102682866Y-122863478D01*
X102869397Y-122710397D01*
X103022478Y-122523866D01*
X103136228Y-122311055D01*
X103206275Y-122080142D01*
X103229927Y-121840000D01*
X178510073Y-121840000D01*
X178533725Y-122080142D01*
X178603772Y-122311055D01*
X178717522Y-122523866D01*
X178870603Y-122710397D01*
X179057134Y-122863478D01*
X179269945Y-122977228D01*
X179500858Y-123047275D01*
X179680822Y-123065000D01*
X180999178Y-123065000D01*
X181179142Y-123047275D01*
X181410055Y-122977228D01*
X181622866Y-122863478D01*
X181809397Y-122710397D01*
X181962478Y-122523866D01*
X182076228Y-122311055D01*
X182146275Y-122080142D01*
X182169927Y-121840000D01*
X191010073Y-121840000D01*
X191033725Y-122080142D01*
X191103772Y-122311055D01*
X191217522Y-122523866D01*
X191370603Y-122710397D01*
X191557134Y-122863478D01*
X191769945Y-122977228D01*
X192000858Y-123047275D01*
X192180822Y-123065000D01*
X193499178Y-123065000D01*
X193679142Y-123047275D01*
X193910055Y-122977228D01*
X194122866Y-122863478D01*
X194309397Y-122710397D01*
X194462478Y-122523866D01*
X194576228Y-122311055D01*
X194646275Y-122080142D01*
X194669927Y-121840000D01*
X194646275Y-121599858D01*
X194576228Y-121368945D01*
X194462478Y-121156134D01*
X194309397Y-120969603D01*
X194122866Y-120816522D01*
X193910055Y-120702772D01*
X193679142Y-120632725D01*
X193499178Y-120615000D01*
X192180822Y-120615000D01*
X192000858Y-120632725D01*
X191769945Y-120702772D01*
X191557134Y-120816522D01*
X191370603Y-120969603D01*
X191217522Y-121156134D01*
X191103772Y-121368945D01*
X191033725Y-121599858D01*
X191010073Y-121840000D01*
X182169927Y-121840000D01*
X182146275Y-121599858D01*
X182076228Y-121368945D01*
X181962478Y-121156134D01*
X181809397Y-120969603D01*
X181622866Y-120816522D01*
X181410055Y-120702772D01*
X181179142Y-120632725D01*
X180999178Y-120615000D01*
X179680822Y-120615000D01*
X179500858Y-120632725D01*
X179269945Y-120702772D01*
X179057134Y-120816522D01*
X178870603Y-120969603D01*
X178717522Y-121156134D01*
X178603772Y-121368945D01*
X178533725Y-121599858D01*
X178510073Y-121840000D01*
X103229927Y-121840000D01*
X103206275Y-121599858D01*
X103136228Y-121368945D01*
X103022478Y-121156134D01*
X102869397Y-120969603D01*
X102682866Y-120816522D01*
X102470055Y-120702772D01*
X102239142Y-120632725D01*
X102059178Y-120615000D01*
X100740822Y-120615000D01*
X100560858Y-120632725D01*
X100329945Y-120702772D01*
X100117134Y-120816522D01*
X99930603Y-120969603D01*
X99777522Y-121156134D01*
X99663772Y-121368945D01*
X99593725Y-121599858D01*
X99570073Y-121840000D01*
X90729927Y-121840000D01*
X90706275Y-121599858D01*
X90636228Y-121368945D01*
X90522478Y-121156134D01*
X90369397Y-120969603D01*
X90182866Y-120816522D01*
X89970055Y-120702772D01*
X89739142Y-120632725D01*
X89559178Y-120615000D01*
X88240822Y-120615000D01*
X88060858Y-120632725D01*
X87829945Y-120702772D01*
X87617134Y-120816522D01*
X87430603Y-120969603D01*
X87277522Y-121156134D01*
X87163772Y-121368945D01*
X87093725Y-121599858D01*
X87070073Y-121840000D01*
X72182538Y-121840000D01*
X71286859Y-120403827D01*
X70325311Y-118568458D01*
X70187031Y-118248144D01*
X151591720Y-118248144D01*
X151600381Y-118291688D01*
X151651191Y-118444195D01*
X151730777Y-118583859D01*
X151836081Y-118705313D01*
X151963056Y-118803889D01*
X152106823Y-118875800D01*
X152261856Y-118918281D01*
X152390000Y-118849940D01*
X152390000Y-118120000D01*
X152410000Y-118120000D01*
X152410000Y-118849940D01*
X152538144Y-118918281D01*
X152693177Y-118875800D01*
X152836944Y-118803889D01*
X152963919Y-118705313D01*
X153069223Y-118583859D01*
X153148809Y-118444195D01*
X153199619Y-118291688D01*
X153208280Y-118248144D01*
X153139932Y-118120000D01*
X152410000Y-118120000D01*
X152390000Y-118120000D01*
X151660068Y-118120000D01*
X151591720Y-118248144D01*
X70187031Y-118248144D01*
X69579131Y-116840000D01*
X87070073Y-116840000D01*
X87093725Y-117080142D01*
X87163772Y-117311055D01*
X87277522Y-117523866D01*
X87430603Y-117710397D01*
X87617134Y-117863478D01*
X87829945Y-117977228D01*
X88060858Y-118047275D01*
X88240822Y-118065000D01*
X89559178Y-118065000D01*
X89739142Y-118047275D01*
X89970055Y-117977228D01*
X90182866Y-117863478D01*
X90369397Y-117710397D01*
X90522478Y-117523866D01*
X90567305Y-117440000D01*
X99732695Y-117440000D01*
X99777522Y-117523866D01*
X99930603Y-117710397D01*
X100117134Y-117863478D01*
X100329945Y-117977228D01*
X100560858Y-118047275D01*
X100740822Y-118065000D01*
X102059178Y-118065000D01*
X102239142Y-118047275D01*
X102470055Y-117977228D01*
X102682866Y-117863478D01*
X102869397Y-117710397D01*
X103022478Y-117523866D01*
X103136228Y-117311055D01*
X103206275Y-117080142D01*
X103229927Y-116840000D01*
X103206275Y-116599858D01*
X103136228Y-116368945D01*
X103022478Y-116156134D01*
X102869397Y-115969603D01*
X102682866Y-115816522D01*
X102470055Y-115702772D01*
X102239142Y-115632725D01*
X102059178Y-115615000D01*
X100740822Y-115615000D01*
X100560858Y-115632725D01*
X100329945Y-115702772D01*
X100117134Y-115816522D01*
X99930603Y-115969603D01*
X99777522Y-116156134D01*
X99732695Y-116240000D01*
X90567305Y-116240000D01*
X90522478Y-116156134D01*
X90369397Y-115969603D01*
X90182866Y-115816522D01*
X89970055Y-115702772D01*
X89739142Y-115632725D01*
X89559178Y-115615000D01*
X88240822Y-115615000D01*
X88060858Y-115632725D01*
X87829945Y-115702772D01*
X87617134Y-115816522D01*
X87430603Y-115969603D01*
X87277522Y-116156134D01*
X87163772Y-116368945D01*
X87093725Y-116599858D01*
X87070073Y-116840000D01*
X69579131Y-116840000D01*
X69504090Y-116666175D01*
X68827812Y-114707676D01*
X68300280Y-112703967D01*
X67924473Y-110666373D01*
X67760004Y-109140000D01*
X74370073Y-109140000D01*
X74393725Y-109380142D01*
X74463772Y-109611055D01*
X74577522Y-109823866D01*
X74730603Y-110010397D01*
X74917134Y-110163478D01*
X75129945Y-110277228D01*
X75360858Y-110347275D01*
X75540822Y-110365000D01*
X76859178Y-110365000D01*
X77039142Y-110347275D01*
X77270055Y-110277228D01*
X77482866Y-110163478D01*
X77669397Y-110010397D01*
X77822478Y-109823866D01*
X77936228Y-109611055D01*
X78006275Y-109380142D01*
X78029927Y-109140000D01*
X86870073Y-109140000D01*
X86893725Y-109380142D01*
X86963772Y-109611055D01*
X87077522Y-109823866D01*
X87230603Y-110010397D01*
X87417134Y-110163478D01*
X87629945Y-110277228D01*
X87860858Y-110347275D01*
X88040822Y-110365000D01*
X89359178Y-110365000D01*
X89539142Y-110347275D01*
X89770055Y-110277228D01*
X89982866Y-110163478D01*
X90169397Y-110010397D01*
X90322478Y-109823866D01*
X90436228Y-109611055D01*
X90506275Y-109380142D01*
X90529927Y-109140000D01*
X99770073Y-109140000D01*
X99793725Y-109380142D01*
X99863772Y-109611055D01*
X99977522Y-109823866D01*
X100130603Y-110010397D01*
X100317134Y-110163478D01*
X100529945Y-110277228D01*
X100760858Y-110347275D01*
X100940822Y-110365000D01*
X102259178Y-110365000D01*
X102439142Y-110347275D01*
X102670055Y-110277228D01*
X102882866Y-110163478D01*
X103069397Y-110010397D01*
X103222478Y-109823866D01*
X103336228Y-109611055D01*
X103406275Y-109380142D01*
X103429927Y-109140000D01*
X112270073Y-109140000D01*
X112293725Y-109380142D01*
X112363772Y-109611055D01*
X112477522Y-109823866D01*
X112630603Y-110010397D01*
X112817134Y-110163478D01*
X113029945Y-110277228D01*
X113260858Y-110347275D01*
X113440822Y-110365000D01*
X114759178Y-110365000D01*
X114939142Y-110347275D01*
X115170055Y-110277228D01*
X115382866Y-110163478D01*
X115569397Y-110010397D01*
X115722478Y-109823866D01*
X115836228Y-109611055D01*
X115906275Y-109380142D01*
X115929927Y-109140000D01*
X115906275Y-108899858D01*
X115836228Y-108668945D01*
X115722478Y-108456134D01*
X115569397Y-108269603D01*
X115382866Y-108116522D01*
X115170055Y-108002772D01*
X114939142Y-107932725D01*
X114759178Y-107915000D01*
X113440822Y-107915000D01*
X113260858Y-107932725D01*
X113029945Y-108002772D01*
X112817134Y-108116522D01*
X112630603Y-108269603D01*
X112477522Y-108456134D01*
X112363772Y-108668945D01*
X112293725Y-108899858D01*
X112270073Y-109140000D01*
X103429927Y-109140000D01*
X103406275Y-108899858D01*
X103336228Y-108668945D01*
X103222478Y-108456134D01*
X103069397Y-108269603D01*
X102882866Y-108116522D01*
X102670055Y-108002772D01*
X102439142Y-107932725D01*
X102259178Y-107915000D01*
X100940822Y-107915000D01*
X100760858Y-107932725D01*
X100529945Y-108002772D01*
X100317134Y-108116522D01*
X100130603Y-108269603D01*
X99977522Y-108456134D01*
X99863772Y-108668945D01*
X99793725Y-108899858D01*
X99770073Y-109140000D01*
X90529927Y-109140000D01*
X90506275Y-108899858D01*
X90436228Y-108668945D01*
X90322478Y-108456134D01*
X90169397Y-108269603D01*
X89982866Y-108116522D01*
X89770055Y-108002772D01*
X89539142Y-107932725D01*
X89359178Y-107915000D01*
X88040822Y-107915000D01*
X87860858Y-107932725D01*
X87629945Y-108002772D01*
X87417134Y-108116522D01*
X87230603Y-108269603D01*
X87077522Y-108456134D01*
X86963772Y-108668945D01*
X86893725Y-108899858D01*
X86870073Y-109140000D01*
X78029927Y-109140000D01*
X78006275Y-108899858D01*
X77936228Y-108668945D01*
X77822478Y-108456134D01*
X77669397Y-108269603D01*
X77482866Y-108116522D01*
X77270055Y-108002772D01*
X77039142Y-107932725D01*
X76859178Y-107915000D01*
X75540822Y-107915000D01*
X75360858Y-107932725D01*
X75129945Y-108002772D01*
X74917134Y-108116522D01*
X74730603Y-108269603D01*
X74577522Y-108456134D01*
X74463772Y-108668945D01*
X74393725Y-108899858D01*
X74370073Y-109140000D01*
X67760004Y-109140000D01*
X67702451Y-108605879D01*
X67635213Y-106680423D01*
X67712960Y-104609484D01*
X67766036Y-104140000D01*
X74370073Y-104140000D01*
X74393725Y-104380142D01*
X74463772Y-104611055D01*
X74577522Y-104823866D01*
X74730603Y-105010397D01*
X74917134Y-105163478D01*
X75129945Y-105277228D01*
X75360858Y-105347275D01*
X75540822Y-105365000D01*
X76859178Y-105365000D01*
X77039142Y-105347275D01*
X77270055Y-105277228D01*
X77482866Y-105163478D01*
X77669397Y-105010397D01*
X77822478Y-104823866D01*
X77867305Y-104740000D01*
X87032695Y-104740000D01*
X87077522Y-104823866D01*
X87230603Y-105010397D01*
X87417134Y-105163478D01*
X87629945Y-105277228D01*
X87860858Y-105347275D01*
X88040822Y-105365000D01*
X89359178Y-105365000D01*
X89539142Y-105347275D01*
X89770055Y-105277228D01*
X89982866Y-105163478D01*
X90169397Y-105010397D01*
X90322478Y-104823866D01*
X90436228Y-104611055D01*
X90506275Y-104380142D01*
X90529927Y-104140000D01*
X90506275Y-103899858D01*
X90436228Y-103668945D01*
X90322478Y-103456134D01*
X90169397Y-103269603D01*
X89982866Y-103116522D01*
X89770055Y-103002772D01*
X89539142Y-102932725D01*
X89359178Y-102915000D01*
X89300000Y-102915000D01*
X89300000Y-102863527D01*
X91233528Y-100930000D01*
X129008629Y-100930000D01*
X129030030Y-100951401D01*
X129050382Y-100965000D01*
X129030030Y-100978599D01*
X129008629Y-101000000D01*
X125124465Y-101000000D01*
X125094999Y-100997098D01*
X125065533Y-101000000D01*
X125065526Y-101000000D01*
X124988640Y-101007573D01*
X124977378Y-101008682D01*
X124943070Y-101019089D01*
X124864279Y-101042990D01*
X124760045Y-101098704D01*
X124668683Y-101173683D01*
X124649896Y-101196575D01*
X122306473Y-103540000D01*
X115767305Y-103540000D01*
X115722478Y-103456134D01*
X115569397Y-103269603D01*
X115382866Y-103116522D01*
X115170055Y-103002772D01*
X114939142Y-102932725D01*
X114759178Y-102915000D01*
X113440822Y-102915000D01*
X113260858Y-102932725D01*
X113029945Y-103002772D01*
X112817134Y-103116522D01*
X112630603Y-103269603D01*
X112477522Y-103456134D01*
X112432695Y-103540000D01*
X103267305Y-103540000D01*
X103222478Y-103456134D01*
X103069397Y-103269603D01*
X102882866Y-103116522D01*
X102670055Y-103002772D01*
X102439142Y-102932725D01*
X102259178Y-102915000D01*
X100940822Y-102915000D01*
X100760858Y-102932725D01*
X100529945Y-103002772D01*
X100317134Y-103116522D01*
X100130603Y-103269603D01*
X99977522Y-103456134D01*
X99863772Y-103668945D01*
X99793725Y-103899858D01*
X99770073Y-104140000D01*
X99793725Y-104380142D01*
X99863772Y-104611055D01*
X99977522Y-104823866D01*
X100130603Y-105010397D01*
X100317134Y-105163478D01*
X100529945Y-105277228D01*
X100760858Y-105347275D01*
X100940822Y-105365000D01*
X102259178Y-105365000D01*
X102439142Y-105347275D01*
X102670055Y-105277228D01*
X102882866Y-105163478D01*
X103069397Y-105010397D01*
X103222478Y-104823866D01*
X103267305Y-104740000D01*
X112432695Y-104740000D01*
X112477522Y-104823866D01*
X112630603Y-105010397D01*
X112817134Y-105163478D01*
X113029945Y-105277228D01*
X113260858Y-105347275D01*
X113440822Y-105365000D01*
X114759178Y-105365000D01*
X114939142Y-105347275D01*
X115170055Y-105277228D01*
X115382866Y-105163478D01*
X115569397Y-105010397D01*
X115722478Y-104823866D01*
X115767305Y-104740000D01*
X122525526Y-104740000D01*
X122555000Y-104742903D01*
X122584474Y-104740000D01*
X122672621Y-104731318D01*
X122785721Y-104697010D01*
X122889955Y-104641296D01*
X122981317Y-104566317D01*
X123000113Y-104543414D01*
X125343529Y-102200000D01*
X129008629Y-102200000D01*
X129030030Y-102221401D01*
X129050382Y-102235000D01*
X129030030Y-102248599D01*
X128918599Y-102360030D01*
X128831049Y-102491058D01*
X128770743Y-102636649D01*
X128740000Y-102791207D01*
X128740000Y-102948793D01*
X128770743Y-103103351D01*
X128831049Y-103248942D01*
X128918599Y-103379970D01*
X129030030Y-103491401D01*
X129050382Y-103505000D01*
X129030030Y-103518599D01*
X128918599Y-103630030D01*
X128831049Y-103761058D01*
X128770743Y-103906649D01*
X128740000Y-104061207D01*
X128740000Y-104218793D01*
X128770743Y-104373351D01*
X128831049Y-104518942D01*
X128918599Y-104649970D01*
X129030030Y-104761401D01*
X129050382Y-104775000D01*
X129030030Y-104788599D01*
X128918599Y-104900030D01*
X128831049Y-105031058D01*
X128770743Y-105176649D01*
X128740000Y-105331207D01*
X128740000Y-105488793D01*
X128770743Y-105643351D01*
X128831049Y-105788942D01*
X128918599Y-105919970D01*
X129030030Y-106031401D01*
X129050382Y-106045000D01*
X129030030Y-106058599D01*
X128918599Y-106170030D01*
X128831049Y-106301058D01*
X128770743Y-106446649D01*
X128740000Y-106601207D01*
X128740000Y-106758793D01*
X128770743Y-106913351D01*
X128831049Y-107058942D01*
X128918599Y-107189970D01*
X129030030Y-107301401D01*
X129050382Y-107315000D01*
X129030030Y-107328599D01*
X128918599Y-107440030D01*
X128831049Y-107571058D01*
X128770743Y-107716649D01*
X128740000Y-107871207D01*
X128740000Y-108028793D01*
X128770743Y-108183351D01*
X128831049Y-108328942D01*
X128918599Y-108459970D01*
X129030030Y-108571401D01*
X129161058Y-108658951D01*
X129306649Y-108719257D01*
X129461207Y-108750000D01*
X129618793Y-108750000D01*
X129773351Y-108719257D01*
X129918942Y-108658951D01*
X130049970Y-108571401D01*
X130161401Y-108459970D01*
X130248951Y-108328942D01*
X130309257Y-108183351D01*
X130340000Y-108028793D01*
X130340000Y-107871207D01*
X130309257Y-107716649D01*
X130248951Y-107571058D01*
X130161401Y-107440030D01*
X130049970Y-107328599D01*
X130029618Y-107315000D01*
X130049970Y-107301401D01*
X130161401Y-107189970D01*
X130248951Y-107058942D01*
X130309257Y-106913351D01*
X130340000Y-106758793D01*
X130340000Y-106601207D01*
X130309257Y-106446649D01*
X130248951Y-106301058D01*
X130161401Y-106170030D01*
X130049970Y-106058599D01*
X130029618Y-106045000D01*
X130049970Y-106031401D01*
X130161401Y-105919970D01*
X130248951Y-105788942D01*
X130309257Y-105643351D01*
X130340000Y-105488793D01*
X130340000Y-105331207D01*
X130309257Y-105176649D01*
X130248951Y-105031058D01*
X130161401Y-104900030D01*
X130049970Y-104788599D01*
X130029618Y-104775000D01*
X130049970Y-104761401D01*
X130161401Y-104649970D01*
X130248951Y-104518942D01*
X130309257Y-104373351D01*
X130340000Y-104218793D01*
X130340000Y-104061207D01*
X130309257Y-103906649D01*
X130248951Y-103761058D01*
X130161401Y-103630030D01*
X130049970Y-103518599D01*
X130029618Y-103505000D01*
X130049970Y-103491401D01*
X130161401Y-103379970D01*
X130248951Y-103248942D01*
X130309257Y-103103351D01*
X130340000Y-102948793D01*
X130340000Y-102791207D01*
X130309257Y-102636649D01*
X130248951Y-102491058D01*
X130161401Y-102360030D01*
X130049970Y-102248599D01*
X130029618Y-102235000D01*
X130049970Y-102221401D01*
X130161401Y-102109970D01*
X130248951Y-101978942D01*
X130309257Y-101833351D01*
X130340000Y-101678793D01*
X130340000Y-101521207D01*
X130309257Y-101366649D01*
X130248951Y-101221058D01*
X130161401Y-101090030D01*
X130049970Y-100978599D01*
X130029618Y-100965000D01*
X130049970Y-100951401D01*
X130161401Y-100839970D01*
X130248951Y-100708942D01*
X130309257Y-100563351D01*
X130322653Y-100496000D01*
X136770549Y-100496000D01*
X136770549Y-102196000D01*
X136776341Y-102254810D01*
X136793496Y-102311360D01*
X136821353Y-102363477D01*
X136858842Y-102409158D01*
X136904523Y-102446647D01*
X136956640Y-102474504D01*
X137013190Y-102491659D01*
X137072000Y-102497451D01*
X138772000Y-102497451D01*
X138830810Y-102491659D01*
X138887360Y-102474504D01*
X138939477Y-102446647D01*
X138985158Y-102409158D01*
X139022647Y-102363477D01*
X139050504Y-102311360D01*
X139067659Y-102254810D01*
X139073451Y-102196000D01*
X139073451Y-100496000D01*
X139067659Y-100437190D01*
X139050504Y-100380640D01*
X139022647Y-100328523D01*
X138985158Y-100282842D01*
X138939477Y-100245353D01*
X138887360Y-100217496D01*
X138830810Y-100200341D01*
X138772000Y-100194549D01*
X137072000Y-100194549D01*
X137013190Y-100200341D01*
X136956640Y-100217496D01*
X136904523Y-100245353D01*
X136858842Y-100282842D01*
X136821353Y-100328523D01*
X136793496Y-100380640D01*
X136776341Y-100437190D01*
X136770549Y-100496000D01*
X130322653Y-100496000D01*
X130340000Y-100408793D01*
X130340000Y-100251207D01*
X130309257Y-100096649D01*
X130248951Y-99951058D01*
X130161401Y-99820030D01*
X130049970Y-99708599D01*
X130029618Y-99695000D01*
X130049970Y-99681401D01*
X130161401Y-99569970D01*
X130248951Y-99438942D01*
X130309257Y-99293351D01*
X130340000Y-99138793D01*
X130340000Y-98981207D01*
X130309257Y-98826649D01*
X130253788Y-98692735D01*
X136772000Y-98692735D01*
X136772000Y-98919265D01*
X136816194Y-99141443D01*
X136902884Y-99350729D01*
X137028737Y-99539082D01*
X137188918Y-99699263D01*
X137377271Y-99825116D01*
X137586557Y-99911806D01*
X137808735Y-99956000D01*
X138035265Y-99956000D01*
X138257443Y-99911806D01*
X138466729Y-99825116D01*
X138655082Y-99699263D01*
X138815263Y-99539082D01*
X138941116Y-99350729D01*
X139027806Y-99141443D01*
X139072000Y-98919265D01*
X139072000Y-98692735D01*
X139027806Y-98470557D01*
X138941116Y-98261271D01*
X138815263Y-98072918D01*
X138655082Y-97912737D01*
X138466729Y-97786884D01*
X138257443Y-97700194D01*
X138035265Y-97656000D01*
X137808735Y-97656000D01*
X137586557Y-97700194D01*
X137377271Y-97786884D01*
X137188918Y-97912737D01*
X137028737Y-98072918D01*
X136902884Y-98261271D01*
X136816194Y-98470557D01*
X136772000Y-98692735D01*
X130253788Y-98692735D01*
X130248951Y-98681058D01*
X130161401Y-98550030D01*
X130049970Y-98438599D01*
X130029618Y-98425000D01*
X130049970Y-98411401D01*
X130161401Y-98299970D01*
X130248951Y-98168942D01*
X130309257Y-98023351D01*
X130340000Y-97868793D01*
X130340000Y-97711207D01*
X130309257Y-97556649D01*
X130248951Y-97411058D01*
X130161401Y-97280030D01*
X130049970Y-97168599D01*
X130029618Y-97155000D01*
X130049970Y-97141401D01*
X130161401Y-97029970D01*
X130248951Y-96898942D01*
X130309257Y-96753351D01*
X130340000Y-96598793D01*
X130340000Y-96441207D01*
X130309257Y-96286649D01*
X130248951Y-96141058D01*
X130161401Y-96010030D01*
X130049970Y-95898599D01*
X130029618Y-95885000D01*
X130049970Y-95871401D01*
X130161401Y-95759970D01*
X130248951Y-95628942D01*
X130309257Y-95483351D01*
X130340000Y-95328793D01*
X130340000Y-95171207D01*
X130309257Y-95016649D01*
X130248951Y-94871058D01*
X130161401Y-94740030D01*
X130049970Y-94628599D01*
X130029618Y-94615000D01*
X130049970Y-94601401D01*
X130161401Y-94489970D01*
X130248951Y-94358942D01*
X130309257Y-94213351D01*
X130340000Y-94058793D01*
X130340000Y-93901207D01*
X130309257Y-93746649D01*
X130248951Y-93601058D01*
X130161401Y-93470030D01*
X130049970Y-93358599D01*
X130029618Y-93345000D01*
X130049970Y-93331401D01*
X130161401Y-93219970D01*
X130248951Y-93088942D01*
X130309257Y-92943351D01*
X130340000Y-92788793D01*
X130340000Y-92631207D01*
X130309257Y-92476649D01*
X130248951Y-92331058D01*
X130161401Y-92200030D01*
X130049970Y-92088599D01*
X130029618Y-92075000D01*
X130049970Y-92061401D01*
X130161401Y-91949970D01*
X130248951Y-91818942D01*
X130309257Y-91673351D01*
X130340000Y-91518793D01*
X130340000Y-91361207D01*
X130309257Y-91206649D01*
X130248951Y-91061058D01*
X130161401Y-90930030D01*
X130049970Y-90818599D01*
X130029618Y-90805000D01*
X130049970Y-90791401D01*
X130071371Y-90770000D01*
X132466473Y-90770000D01*
X144180000Y-102483528D01*
X144180001Y-110460516D01*
X144177097Y-110490000D01*
X144188682Y-110607620D01*
X144216529Y-110699419D01*
X144222991Y-110720721D01*
X144278705Y-110824955D01*
X144353684Y-110916317D01*
X144376582Y-110935109D01*
X149414891Y-115973419D01*
X149433683Y-115996317D01*
X149525045Y-116071296D01*
X149592971Y-116107603D01*
X149629278Y-116127010D01*
X149742379Y-116161318D01*
X149860000Y-116172903D01*
X149889474Y-116170000D01*
X151868629Y-116170000D01*
X151890030Y-116191401D01*
X151910382Y-116205000D01*
X151890030Y-116218599D01*
X151778599Y-116330030D01*
X151691049Y-116461058D01*
X151630743Y-116606649D01*
X151600000Y-116761207D01*
X151600000Y-116918793D01*
X151630743Y-117073351D01*
X151691049Y-117218942D01*
X151778599Y-117349970D01*
X151890030Y-117461401D01*
X151897924Y-117466676D01*
X151836081Y-117514687D01*
X151730777Y-117636141D01*
X151651191Y-117775805D01*
X151600381Y-117928312D01*
X151591720Y-117971856D01*
X151660068Y-118100000D01*
X152390000Y-118100000D01*
X152390000Y-118080000D01*
X152410000Y-118080000D01*
X152410000Y-118100000D01*
X153139932Y-118100000D01*
X153208280Y-117971856D01*
X153199619Y-117928312D01*
X153148809Y-117775805D01*
X153069223Y-117636141D01*
X152963919Y-117514687D01*
X152902076Y-117466676D01*
X152909970Y-117461401D01*
X153021401Y-117349970D01*
X153108951Y-117218942D01*
X153169257Y-117073351D01*
X153200000Y-116918793D01*
X153200000Y-116761207D01*
X153169257Y-116606649D01*
X153108951Y-116461058D01*
X153021401Y-116330030D01*
X152909970Y-116218599D01*
X152889618Y-116205000D01*
X152909970Y-116191401D01*
X153021401Y-116079970D01*
X153108951Y-115948942D01*
X153169257Y-115803351D01*
X153200000Y-115648793D01*
X153200000Y-115491207D01*
X153169257Y-115336649D01*
X153108951Y-115191058D01*
X153021401Y-115060030D01*
X152909970Y-114948599D01*
X152889618Y-114935000D01*
X152909970Y-114921401D01*
X153021401Y-114809970D01*
X153108951Y-114678942D01*
X153169257Y-114533351D01*
X153200000Y-114378793D01*
X153200000Y-114221207D01*
X153169257Y-114066649D01*
X153108951Y-113921058D01*
X153021401Y-113790030D01*
X152909970Y-113678599D01*
X152889618Y-113665000D01*
X152909970Y-113651401D01*
X153021401Y-113539970D01*
X153108951Y-113408942D01*
X153169257Y-113263351D01*
X153200000Y-113108793D01*
X153200000Y-112951207D01*
X153169257Y-112796649D01*
X153108951Y-112651058D01*
X153021401Y-112520030D01*
X152909970Y-112408599D01*
X152889618Y-112395000D01*
X152909970Y-112381401D01*
X153021401Y-112269970D01*
X153108951Y-112138942D01*
X153169257Y-111993351D01*
X153200000Y-111838793D01*
X153200000Y-111681207D01*
X153169257Y-111526649D01*
X153108951Y-111381058D01*
X153021401Y-111250030D01*
X152909970Y-111138599D01*
X152889618Y-111125000D01*
X152909970Y-111111401D01*
X153021401Y-110999970D01*
X153108951Y-110868942D01*
X153169257Y-110723351D01*
X153200000Y-110568793D01*
X153200000Y-110411207D01*
X153169257Y-110256649D01*
X153108951Y-110111058D01*
X153021401Y-109980030D01*
X152909970Y-109868599D01*
X152889618Y-109855000D01*
X152909970Y-109841401D01*
X153021401Y-109729970D01*
X153108951Y-109598942D01*
X153169257Y-109453351D01*
X153200000Y-109298793D01*
X153200000Y-109141207D01*
X153169257Y-108986649D01*
X153108951Y-108841058D01*
X153021401Y-108710030D01*
X152909970Y-108598599D01*
X152889618Y-108585000D01*
X152909970Y-108571401D01*
X152931371Y-108550000D01*
X161752673Y-108550000D01*
X170446091Y-117243419D01*
X170464883Y-117266317D01*
X170556245Y-117341296D01*
X170660479Y-117397010D01*
X170773579Y-117431319D01*
X170891200Y-117442903D01*
X170920676Y-117440000D01*
X178672695Y-117440000D01*
X178717522Y-117523866D01*
X178870603Y-117710397D01*
X179057134Y-117863478D01*
X179269945Y-117977228D01*
X179500858Y-118047275D01*
X179680822Y-118065000D01*
X180999178Y-118065000D01*
X181179142Y-118047275D01*
X181410055Y-117977228D01*
X181622866Y-117863478D01*
X181809397Y-117710397D01*
X181962478Y-117523866D01*
X182007305Y-117440000D01*
X191172695Y-117440000D01*
X191217522Y-117523866D01*
X191370603Y-117710397D01*
X191557134Y-117863478D01*
X191769945Y-117977228D01*
X192000858Y-118047275D01*
X192180822Y-118065000D01*
X193499178Y-118065000D01*
X193679142Y-118047275D01*
X193910055Y-117977228D01*
X194122866Y-117863478D01*
X194309397Y-117710397D01*
X194462478Y-117523866D01*
X194576228Y-117311055D01*
X194646275Y-117080142D01*
X194669927Y-116840000D01*
X194646275Y-116599858D01*
X194576228Y-116368945D01*
X194462478Y-116156134D01*
X194309397Y-115969603D01*
X194122866Y-115816522D01*
X193910055Y-115702772D01*
X193679142Y-115632725D01*
X193499178Y-115615000D01*
X192180822Y-115615000D01*
X192000858Y-115632725D01*
X191769945Y-115702772D01*
X191557134Y-115816522D01*
X191370603Y-115969603D01*
X191217522Y-116156134D01*
X191172695Y-116240000D01*
X182007305Y-116240000D01*
X181962478Y-116156134D01*
X181809397Y-115969603D01*
X181622866Y-115816522D01*
X181410055Y-115702772D01*
X181179142Y-115632725D01*
X180999178Y-115615000D01*
X179680822Y-115615000D01*
X179500858Y-115632725D01*
X179269945Y-115702772D01*
X179057134Y-115816522D01*
X178870603Y-115969603D01*
X178717522Y-116156134D01*
X178672695Y-116240000D01*
X171139728Y-116240000D01*
X164039728Y-109140000D01*
X165810073Y-109140000D01*
X165833725Y-109380142D01*
X165903772Y-109611055D01*
X166017522Y-109823866D01*
X166170603Y-110010397D01*
X166357134Y-110163478D01*
X166569945Y-110277228D01*
X166800858Y-110347275D01*
X166980822Y-110365000D01*
X168299178Y-110365000D01*
X168479142Y-110347275D01*
X168710055Y-110277228D01*
X168922866Y-110163478D01*
X169109397Y-110010397D01*
X169262478Y-109823866D01*
X169376228Y-109611055D01*
X169446275Y-109380142D01*
X169469927Y-109140000D01*
X178310073Y-109140000D01*
X178333725Y-109380142D01*
X178403772Y-109611055D01*
X178517522Y-109823866D01*
X178670603Y-110010397D01*
X178857134Y-110163478D01*
X179069945Y-110277228D01*
X179300858Y-110347275D01*
X179480822Y-110365000D01*
X180799178Y-110365000D01*
X180979142Y-110347275D01*
X181210055Y-110277228D01*
X181422866Y-110163478D01*
X181609397Y-110010397D01*
X181762478Y-109823866D01*
X181876228Y-109611055D01*
X181946275Y-109380142D01*
X181969927Y-109140000D01*
X191210073Y-109140000D01*
X191233725Y-109380142D01*
X191303772Y-109611055D01*
X191417522Y-109823866D01*
X191570603Y-110010397D01*
X191757134Y-110163478D01*
X191969945Y-110277228D01*
X192200858Y-110347275D01*
X192380822Y-110365000D01*
X193699178Y-110365000D01*
X193879142Y-110347275D01*
X194110055Y-110277228D01*
X194322866Y-110163478D01*
X194509397Y-110010397D01*
X194662478Y-109823866D01*
X194776228Y-109611055D01*
X194846275Y-109380142D01*
X194869927Y-109140000D01*
X203710073Y-109140000D01*
X203733725Y-109380142D01*
X203803772Y-109611055D01*
X203917522Y-109823866D01*
X204070603Y-110010397D01*
X204257134Y-110163478D01*
X204469945Y-110277228D01*
X204700858Y-110347275D01*
X204880822Y-110365000D01*
X206199178Y-110365000D01*
X206379142Y-110347275D01*
X206610055Y-110277228D01*
X206822866Y-110163478D01*
X207009397Y-110010397D01*
X207162478Y-109823866D01*
X207276228Y-109611055D01*
X207346275Y-109380142D01*
X207369927Y-109140000D01*
X207346275Y-108899858D01*
X207276228Y-108668945D01*
X207162478Y-108456134D01*
X207009397Y-108269603D01*
X206822866Y-108116522D01*
X206610055Y-108002772D01*
X206379142Y-107932725D01*
X206199178Y-107915000D01*
X204880822Y-107915000D01*
X204700858Y-107932725D01*
X204469945Y-108002772D01*
X204257134Y-108116522D01*
X204070603Y-108269603D01*
X203917522Y-108456134D01*
X203803772Y-108668945D01*
X203733725Y-108899858D01*
X203710073Y-109140000D01*
X194869927Y-109140000D01*
X194846275Y-108899858D01*
X194776228Y-108668945D01*
X194662478Y-108456134D01*
X194509397Y-108269603D01*
X194322866Y-108116522D01*
X194110055Y-108002772D01*
X193879142Y-107932725D01*
X193699178Y-107915000D01*
X192380822Y-107915000D01*
X192200858Y-107932725D01*
X191969945Y-108002772D01*
X191757134Y-108116522D01*
X191570603Y-108269603D01*
X191417522Y-108456134D01*
X191303772Y-108668945D01*
X191233725Y-108899858D01*
X191210073Y-109140000D01*
X181969927Y-109140000D01*
X181946275Y-108899858D01*
X181876228Y-108668945D01*
X181762478Y-108456134D01*
X181609397Y-108269603D01*
X181422866Y-108116522D01*
X181210055Y-108002772D01*
X180979142Y-107932725D01*
X180799178Y-107915000D01*
X179480822Y-107915000D01*
X179300858Y-107932725D01*
X179069945Y-108002772D01*
X178857134Y-108116522D01*
X178670603Y-108269603D01*
X178517522Y-108456134D01*
X178403772Y-108668945D01*
X178333725Y-108899858D01*
X178310073Y-109140000D01*
X169469927Y-109140000D01*
X169446275Y-108899858D01*
X169376228Y-108668945D01*
X169262478Y-108456134D01*
X169109397Y-108269603D01*
X168922866Y-108116522D01*
X168710055Y-108002772D01*
X168479142Y-107932725D01*
X168299178Y-107915000D01*
X166980822Y-107915000D01*
X166800858Y-107932725D01*
X166569945Y-108002772D01*
X166357134Y-108116522D01*
X166170603Y-108269603D01*
X166017522Y-108456134D01*
X165903772Y-108668945D01*
X165833725Y-108899858D01*
X165810073Y-109140000D01*
X164039728Y-109140000D01*
X162446313Y-107546586D01*
X162427517Y-107523683D01*
X162336155Y-107448704D01*
X162231921Y-107392990D01*
X162118821Y-107358682D01*
X162030674Y-107350000D01*
X162001200Y-107347097D01*
X161971726Y-107350000D01*
X152931371Y-107350000D01*
X152909970Y-107328599D01*
X152889618Y-107315000D01*
X152909970Y-107301401D01*
X152931371Y-107280000D01*
X189352926Y-107280000D01*
X189382400Y-107282903D01*
X189411874Y-107280000D01*
X189500021Y-107271318D01*
X189613121Y-107237010D01*
X189717355Y-107181296D01*
X189808717Y-107106317D01*
X189827513Y-107083414D01*
X191751815Y-105159113D01*
X191757134Y-105163478D01*
X191969945Y-105277228D01*
X192200858Y-105347275D01*
X192380822Y-105365000D01*
X193699178Y-105365000D01*
X193879142Y-105347275D01*
X194110055Y-105277228D01*
X194322866Y-105163478D01*
X194509397Y-105010397D01*
X194662478Y-104823866D01*
X194707305Y-104740000D01*
X203872695Y-104740000D01*
X203917522Y-104823866D01*
X204070603Y-105010397D01*
X204257134Y-105163478D01*
X204469945Y-105277228D01*
X204700858Y-105347275D01*
X204880822Y-105365000D01*
X206199178Y-105365000D01*
X206379142Y-105347275D01*
X206610055Y-105277228D01*
X206822866Y-105163478D01*
X207009397Y-105010397D01*
X207162478Y-104823866D01*
X207276228Y-104611055D01*
X207346275Y-104380142D01*
X207369927Y-104140000D01*
X207346275Y-103899858D01*
X207276228Y-103668945D01*
X207162478Y-103456134D01*
X207009397Y-103269603D01*
X206822866Y-103116522D01*
X206610055Y-103002772D01*
X206379142Y-102932725D01*
X206199178Y-102915000D01*
X204880822Y-102915000D01*
X204700858Y-102932725D01*
X204469945Y-103002772D01*
X204257134Y-103116522D01*
X204070603Y-103269603D01*
X203917522Y-103456134D01*
X203872695Y-103540000D01*
X194707305Y-103540000D01*
X194662478Y-103456134D01*
X194509397Y-103269603D01*
X194322866Y-103116522D01*
X194110055Y-103002772D01*
X193879142Y-102932725D01*
X193699178Y-102915000D01*
X192380822Y-102915000D01*
X192200858Y-102932725D01*
X191969945Y-103002772D01*
X191757134Y-103116522D01*
X191570603Y-103269603D01*
X191417522Y-103456134D01*
X191303772Y-103668945D01*
X191233725Y-103899858D01*
X191224953Y-103988918D01*
X189133873Y-106080000D01*
X152931371Y-106080000D01*
X152909970Y-106058599D01*
X152889618Y-106045000D01*
X152909970Y-106031401D01*
X153021401Y-105919970D01*
X153108951Y-105788942D01*
X153169257Y-105643351D01*
X153200000Y-105488793D01*
X153200000Y-105331207D01*
X153169257Y-105176649D01*
X153108951Y-105031058D01*
X153021401Y-104900030D01*
X152909970Y-104788599D01*
X152889618Y-104775000D01*
X152909970Y-104761401D01*
X153021401Y-104649970D01*
X153108951Y-104518942D01*
X153169257Y-104373351D01*
X153200000Y-104218793D01*
X153200000Y-104140000D01*
X165810073Y-104140000D01*
X165833725Y-104380142D01*
X165903772Y-104611055D01*
X166017522Y-104823866D01*
X166170603Y-105010397D01*
X166357134Y-105163478D01*
X166569945Y-105277228D01*
X166800858Y-105347275D01*
X166980822Y-105365000D01*
X168299178Y-105365000D01*
X168479142Y-105347275D01*
X168710055Y-105277228D01*
X168922866Y-105163478D01*
X169109397Y-105010397D01*
X169262478Y-104823866D01*
X169307305Y-104740000D01*
X178472695Y-104740000D01*
X178517522Y-104823866D01*
X178670603Y-105010397D01*
X178857134Y-105163478D01*
X179069945Y-105277228D01*
X179300858Y-105347275D01*
X179480822Y-105365000D01*
X180799178Y-105365000D01*
X180979142Y-105347275D01*
X181210055Y-105277228D01*
X181422866Y-105163478D01*
X181609397Y-105010397D01*
X181762478Y-104823866D01*
X181876228Y-104611055D01*
X181946275Y-104380142D01*
X181969927Y-104140000D01*
X181946275Y-103899858D01*
X181876228Y-103668945D01*
X181762478Y-103456134D01*
X181609397Y-103269603D01*
X181422866Y-103116522D01*
X181210055Y-103002772D01*
X180979142Y-102932725D01*
X180799178Y-102915000D01*
X179480822Y-102915000D01*
X179300858Y-102932725D01*
X179069945Y-103002772D01*
X178857134Y-103116522D01*
X178670603Y-103269603D01*
X178517522Y-103456134D01*
X178472695Y-103540000D01*
X169307305Y-103540000D01*
X169262478Y-103456134D01*
X169109397Y-103269603D01*
X168922866Y-103116522D01*
X168710055Y-103002772D01*
X168479142Y-102932725D01*
X168299178Y-102915000D01*
X166980822Y-102915000D01*
X166800858Y-102932725D01*
X166569945Y-103002772D01*
X166357134Y-103116522D01*
X166170603Y-103269603D01*
X166017522Y-103456134D01*
X165903772Y-103668945D01*
X165833725Y-103899858D01*
X165810073Y-104140000D01*
X153200000Y-104140000D01*
X153200000Y-104061207D01*
X153169257Y-103906649D01*
X153108951Y-103761058D01*
X153021401Y-103630030D01*
X152909970Y-103518599D01*
X152889618Y-103505000D01*
X152909970Y-103491401D01*
X153021401Y-103379970D01*
X153108951Y-103248942D01*
X153169257Y-103103351D01*
X153200000Y-102948793D01*
X153200000Y-102791207D01*
X153169257Y-102636649D01*
X153108951Y-102491058D01*
X153021401Y-102360030D01*
X152909970Y-102248599D01*
X152889618Y-102235000D01*
X152909970Y-102221401D01*
X153021401Y-102109970D01*
X153108951Y-101978942D01*
X153169257Y-101833351D01*
X153200000Y-101678793D01*
X153200000Y-101521207D01*
X153169257Y-101366649D01*
X153108951Y-101221058D01*
X153021401Y-101090030D01*
X152909970Y-100978599D01*
X152889618Y-100965000D01*
X152909970Y-100951401D01*
X153021401Y-100839970D01*
X153108951Y-100708942D01*
X153169257Y-100563351D01*
X153200000Y-100408793D01*
X153200000Y-100251207D01*
X153169257Y-100096649D01*
X153108951Y-99951058D01*
X153021401Y-99820030D01*
X152909970Y-99708599D01*
X152889618Y-99695000D01*
X152909970Y-99681401D01*
X153021401Y-99569970D01*
X153108951Y-99438942D01*
X153169257Y-99293351D01*
X153200000Y-99138793D01*
X153200000Y-98981207D01*
X153169257Y-98826649D01*
X153108951Y-98681058D01*
X153021401Y-98550030D01*
X152909970Y-98438599D01*
X152889618Y-98425000D01*
X152909970Y-98411401D01*
X153021401Y-98299970D01*
X153108951Y-98168942D01*
X153169257Y-98023351D01*
X153200000Y-97868793D01*
X153200000Y-97711207D01*
X153169257Y-97556649D01*
X153108951Y-97411058D01*
X153021401Y-97280030D01*
X152909970Y-97168599D01*
X152889618Y-97155000D01*
X152909970Y-97141401D01*
X153021401Y-97029970D01*
X153108951Y-96898942D01*
X153169257Y-96753351D01*
X153200000Y-96598793D01*
X153200000Y-96441207D01*
X153199760Y-96440000D01*
X178510073Y-96440000D01*
X178533725Y-96680142D01*
X178603772Y-96911055D01*
X178717522Y-97123866D01*
X178870603Y-97310397D01*
X179057134Y-97463478D01*
X179269945Y-97577228D01*
X179500858Y-97647275D01*
X179680822Y-97665000D01*
X180999178Y-97665000D01*
X181179142Y-97647275D01*
X181410055Y-97577228D01*
X181622866Y-97463478D01*
X181809397Y-97310397D01*
X181962478Y-97123866D01*
X182076228Y-96911055D01*
X182146275Y-96680142D01*
X182169927Y-96440000D01*
X191010073Y-96440000D01*
X191033725Y-96680142D01*
X191103772Y-96911055D01*
X191217522Y-97123866D01*
X191370603Y-97310397D01*
X191557134Y-97463478D01*
X191769945Y-97577228D01*
X192000858Y-97647275D01*
X192180822Y-97665000D01*
X193499178Y-97665000D01*
X193679142Y-97647275D01*
X193910055Y-97577228D01*
X194122866Y-97463478D01*
X194309397Y-97310397D01*
X194462478Y-97123866D01*
X194576228Y-96911055D01*
X194646275Y-96680142D01*
X194669927Y-96440000D01*
X194646275Y-96199858D01*
X194576228Y-95968945D01*
X194462478Y-95756134D01*
X194309397Y-95569603D01*
X194122866Y-95416522D01*
X193910055Y-95302772D01*
X193679142Y-95232725D01*
X193499178Y-95215000D01*
X192180822Y-95215000D01*
X192000858Y-95232725D01*
X191769945Y-95302772D01*
X191557134Y-95416522D01*
X191370603Y-95569603D01*
X191217522Y-95756134D01*
X191103772Y-95968945D01*
X191033725Y-96199858D01*
X191010073Y-96440000D01*
X182169927Y-96440000D01*
X182146275Y-96199858D01*
X182076228Y-95968945D01*
X181962478Y-95756134D01*
X181809397Y-95569603D01*
X181622866Y-95416522D01*
X181410055Y-95302772D01*
X181179142Y-95232725D01*
X180999178Y-95215000D01*
X179680822Y-95215000D01*
X179500858Y-95232725D01*
X179269945Y-95302772D01*
X179057134Y-95416522D01*
X178870603Y-95569603D01*
X178717522Y-95756134D01*
X178603772Y-95968945D01*
X178533725Y-96199858D01*
X178510073Y-96440000D01*
X153199760Y-96440000D01*
X153169257Y-96286649D01*
X153108951Y-96141058D01*
X153021401Y-96010030D01*
X152909970Y-95898599D01*
X152889618Y-95885000D01*
X152909970Y-95871401D01*
X153021401Y-95759970D01*
X153108951Y-95628942D01*
X153169257Y-95483351D01*
X153200000Y-95328793D01*
X153200000Y-95171207D01*
X153169257Y-95016649D01*
X153108951Y-94871058D01*
X153021401Y-94740030D01*
X152909970Y-94628599D01*
X152889618Y-94615000D01*
X152909970Y-94601401D01*
X153021401Y-94489970D01*
X153108951Y-94358942D01*
X153169257Y-94213351D01*
X153200000Y-94058793D01*
X153200000Y-93901207D01*
X153169257Y-93746649D01*
X153108951Y-93601058D01*
X153021401Y-93470030D01*
X152909970Y-93358599D01*
X152889618Y-93345000D01*
X152909970Y-93331401D01*
X153021401Y-93219970D01*
X153108951Y-93088942D01*
X153169257Y-92943351D01*
X153200000Y-92788793D01*
X153200000Y-92631207D01*
X153169257Y-92476649D01*
X153108951Y-92331058D01*
X153021401Y-92200030D01*
X152909970Y-92088599D01*
X152889618Y-92075000D01*
X152909970Y-92061401D01*
X153021401Y-91949970D01*
X153108951Y-91818942D01*
X153169257Y-91673351D01*
X153200000Y-91518793D01*
X153200000Y-91440000D01*
X178510073Y-91440000D01*
X178533725Y-91680142D01*
X178603772Y-91911055D01*
X178717522Y-92123866D01*
X178870603Y-92310397D01*
X179057134Y-92463478D01*
X179269945Y-92577228D01*
X179500858Y-92647275D01*
X179680822Y-92665000D01*
X180999178Y-92665000D01*
X181179142Y-92647275D01*
X181410055Y-92577228D01*
X181622866Y-92463478D01*
X181809397Y-92310397D01*
X181962478Y-92123866D01*
X182007305Y-92040000D01*
X191172695Y-92040000D01*
X191217522Y-92123866D01*
X191370603Y-92310397D01*
X191557134Y-92463478D01*
X191769945Y-92577228D01*
X192000858Y-92647275D01*
X192180822Y-92665000D01*
X193499178Y-92665000D01*
X193679142Y-92647275D01*
X193910055Y-92577228D01*
X194122866Y-92463478D01*
X194309397Y-92310397D01*
X194462478Y-92123866D01*
X194576228Y-91911055D01*
X194646275Y-91680142D01*
X194669927Y-91440000D01*
X194646275Y-91199858D01*
X194576228Y-90968945D01*
X194462478Y-90756134D01*
X194309397Y-90569603D01*
X194122866Y-90416522D01*
X193910055Y-90302772D01*
X193679142Y-90232725D01*
X193499178Y-90215000D01*
X192180822Y-90215000D01*
X192000858Y-90232725D01*
X191769945Y-90302772D01*
X191557134Y-90416522D01*
X191370603Y-90569603D01*
X191217522Y-90756134D01*
X191172695Y-90840000D01*
X182007305Y-90840000D01*
X181962478Y-90756134D01*
X181809397Y-90569603D01*
X181622866Y-90416522D01*
X181410055Y-90302772D01*
X181179142Y-90232725D01*
X180999178Y-90215000D01*
X179680822Y-90215000D01*
X179500858Y-90232725D01*
X179269945Y-90302772D01*
X179057134Y-90416522D01*
X178870603Y-90569603D01*
X178717522Y-90756134D01*
X178603772Y-90968945D01*
X178533725Y-91199858D01*
X178510073Y-91440000D01*
X153200000Y-91440000D01*
X153200000Y-91361207D01*
X153169257Y-91206649D01*
X153108951Y-91061058D01*
X153021401Y-90930030D01*
X152909970Y-90818599D01*
X152889618Y-90805000D01*
X152909970Y-90791401D01*
X153021401Y-90679970D01*
X153108951Y-90548942D01*
X153169257Y-90403351D01*
X153200000Y-90248793D01*
X153200000Y-90091207D01*
X153169257Y-89936649D01*
X153108951Y-89791058D01*
X153028907Y-89671263D01*
X153067477Y-89650647D01*
X153113158Y-89613158D01*
X153150647Y-89567477D01*
X153178504Y-89515360D01*
X153195659Y-89458810D01*
X153201451Y-89400000D01*
X153201451Y-88400000D01*
X153195659Y-88341190D01*
X153178504Y-88284640D01*
X153150647Y-88232523D01*
X153113158Y-88186842D01*
X153067477Y-88149353D01*
X153015360Y-88121496D01*
X152958810Y-88104341D01*
X152900000Y-88098549D01*
X151900000Y-88098549D01*
X151841190Y-88104341D01*
X151784640Y-88121496D01*
X151732523Y-88149353D01*
X151686842Y-88186842D01*
X151649353Y-88232523D01*
X151621496Y-88284640D01*
X151604341Y-88341190D01*
X151598549Y-88400000D01*
X151598549Y-89400000D01*
X151604341Y-89458810D01*
X151621496Y-89515360D01*
X151649353Y-89567477D01*
X151686842Y-89613158D01*
X151732523Y-89650647D01*
X151771093Y-89671263D01*
X151691049Y-89791058D01*
X151630743Y-89936649D01*
X151600000Y-90091207D01*
X151600000Y-90248793D01*
X151630743Y-90403351D01*
X151691049Y-90548942D01*
X151778599Y-90679970D01*
X151890030Y-90791401D01*
X151910382Y-90805000D01*
X151890030Y-90818599D01*
X151778599Y-90930030D01*
X151691049Y-91061058D01*
X151630743Y-91206649D01*
X151600000Y-91361207D01*
X151600000Y-91518793D01*
X151630743Y-91673351D01*
X151691049Y-91818942D01*
X151778599Y-91949970D01*
X151890030Y-92061401D01*
X151910382Y-92075000D01*
X151890030Y-92088599D01*
X151778599Y-92200030D01*
X151691049Y-92331058D01*
X151630743Y-92476649D01*
X151600000Y-92631207D01*
X151600000Y-92788793D01*
X151630743Y-92943351D01*
X151691049Y-93088942D01*
X151778599Y-93219970D01*
X151890030Y-93331401D01*
X151910382Y-93345000D01*
X151890030Y-93358599D01*
X151778599Y-93470030D01*
X151691049Y-93601058D01*
X151630743Y-93746649D01*
X151600000Y-93901207D01*
X151600000Y-94058793D01*
X151630743Y-94213351D01*
X151691049Y-94358942D01*
X151778599Y-94489970D01*
X151890030Y-94601401D01*
X151910382Y-94615000D01*
X151890030Y-94628599D01*
X151778599Y-94740030D01*
X151691049Y-94871058D01*
X151630743Y-95016649D01*
X151600000Y-95171207D01*
X151600000Y-95328793D01*
X151630743Y-95483351D01*
X151691049Y-95628942D01*
X151778599Y-95759970D01*
X151890030Y-95871401D01*
X151910382Y-95885000D01*
X151890030Y-95898599D01*
X151778599Y-96010030D01*
X151691049Y-96141058D01*
X151630743Y-96286649D01*
X151600000Y-96441207D01*
X151600000Y-96598793D01*
X151630743Y-96753351D01*
X151691049Y-96898942D01*
X151778599Y-97029970D01*
X151890030Y-97141401D01*
X151910382Y-97155000D01*
X151890030Y-97168599D01*
X151778599Y-97280030D01*
X151691049Y-97411058D01*
X151630743Y-97556649D01*
X151600000Y-97711207D01*
X151600000Y-97868793D01*
X151630743Y-98023351D01*
X151691049Y-98168942D01*
X151778599Y-98299970D01*
X151890030Y-98411401D01*
X151910382Y-98425000D01*
X151890030Y-98438599D01*
X151778599Y-98550030D01*
X151691049Y-98681058D01*
X151630743Y-98826649D01*
X151600000Y-98981207D01*
X151600000Y-99138793D01*
X151630743Y-99293351D01*
X151691049Y-99438942D01*
X151778599Y-99569970D01*
X151890030Y-99681401D01*
X151910382Y-99695000D01*
X151890030Y-99708599D01*
X151778599Y-99820030D01*
X151691049Y-99951058D01*
X151630743Y-100096649D01*
X151600000Y-100251207D01*
X151600000Y-100408793D01*
X151630743Y-100563351D01*
X151691049Y-100708942D01*
X151778599Y-100839970D01*
X151890030Y-100951401D01*
X151910382Y-100965000D01*
X151890030Y-100978599D01*
X151778599Y-101090030D01*
X151691049Y-101221058D01*
X151630743Y-101366649D01*
X151600000Y-101521207D01*
X151600000Y-101678793D01*
X151630743Y-101833351D01*
X151691049Y-101978942D01*
X151778599Y-102109970D01*
X151890030Y-102221401D01*
X151910382Y-102235000D01*
X151890030Y-102248599D01*
X151778599Y-102360030D01*
X151691049Y-102491058D01*
X151630743Y-102636649D01*
X151600000Y-102791207D01*
X151600000Y-102948793D01*
X151630743Y-103103351D01*
X151691049Y-103248942D01*
X151778599Y-103379970D01*
X151890030Y-103491401D01*
X151910382Y-103505000D01*
X151890030Y-103518599D01*
X151778599Y-103630030D01*
X151691049Y-103761058D01*
X151630743Y-103906649D01*
X151600000Y-104061207D01*
X151600000Y-104218793D01*
X151630743Y-104373351D01*
X151691049Y-104518942D01*
X151778599Y-104649970D01*
X151890030Y-104761401D01*
X151910382Y-104775000D01*
X151890030Y-104788599D01*
X151778599Y-104900030D01*
X151691049Y-105031058D01*
X151630743Y-105176649D01*
X151600000Y-105331207D01*
X151600000Y-105488793D01*
X151630743Y-105643351D01*
X151691049Y-105788942D01*
X151778599Y-105919970D01*
X151890030Y-106031401D01*
X151910382Y-106045000D01*
X151890030Y-106058599D01*
X151778599Y-106170030D01*
X151691049Y-106301058D01*
X151630743Y-106446649D01*
X151600000Y-106601207D01*
X151600000Y-106758793D01*
X151630743Y-106913351D01*
X151691049Y-107058942D01*
X151778599Y-107189970D01*
X151890030Y-107301401D01*
X151910382Y-107315000D01*
X151890030Y-107328599D01*
X151778599Y-107440030D01*
X151691049Y-107571058D01*
X151630743Y-107716649D01*
X151600000Y-107871207D01*
X151600000Y-108028793D01*
X151630743Y-108183351D01*
X151691049Y-108328942D01*
X151778599Y-108459970D01*
X151890030Y-108571401D01*
X151910382Y-108585000D01*
X151890030Y-108598599D01*
X151778599Y-108710030D01*
X151691049Y-108841058D01*
X151630743Y-108986649D01*
X151600000Y-109141207D01*
X151600000Y-109298793D01*
X151630743Y-109453351D01*
X151691049Y-109598942D01*
X151778599Y-109729970D01*
X151890030Y-109841401D01*
X151910382Y-109855000D01*
X151890030Y-109868599D01*
X151778599Y-109980030D01*
X151691049Y-110111058D01*
X151630743Y-110256649D01*
X151600000Y-110411207D01*
X151600000Y-110568793D01*
X151630743Y-110723351D01*
X151691049Y-110868942D01*
X151778599Y-110999970D01*
X151890030Y-111111401D01*
X151910382Y-111125000D01*
X151890030Y-111138599D01*
X151778599Y-111250030D01*
X151691049Y-111381058D01*
X151630743Y-111526649D01*
X151600000Y-111681207D01*
X151600000Y-111838793D01*
X151630743Y-111993351D01*
X151691049Y-112138942D01*
X151778599Y-112269970D01*
X151890030Y-112381401D01*
X151910382Y-112395000D01*
X151890030Y-112408599D01*
X151778599Y-112520030D01*
X151691049Y-112651058D01*
X151630743Y-112796649D01*
X151600000Y-112951207D01*
X151600000Y-113108793D01*
X151630743Y-113263351D01*
X151691049Y-113408942D01*
X151778599Y-113539970D01*
X151890030Y-113651401D01*
X151910382Y-113665000D01*
X151890030Y-113678599D01*
X151778599Y-113790030D01*
X151691049Y-113921058D01*
X151630743Y-114066649D01*
X151600000Y-114221207D01*
X151600000Y-114378793D01*
X151630743Y-114533351D01*
X151691049Y-114678942D01*
X151778599Y-114809970D01*
X151890030Y-114921401D01*
X151910382Y-114935000D01*
X151890030Y-114948599D01*
X151868629Y-114970000D01*
X150108528Y-114970000D01*
X145380000Y-110241473D01*
X145380000Y-102264476D01*
X145382903Y-102235000D01*
X145371319Y-102117379D01*
X145337010Y-102004279D01*
X145323467Y-101978942D01*
X145281296Y-101900045D01*
X145206317Y-101808683D01*
X145183420Y-101789892D01*
X133160113Y-89766586D01*
X133141317Y-89743683D01*
X133049955Y-89668704D01*
X132945721Y-89612990D01*
X132832621Y-89578682D01*
X132744474Y-89570000D01*
X132715000Y-89567097D01*
X132685526Y-89570000D01*
X130311976Y-89570000D01*
X130337072Y-89523051D01*
X130355370Y-89462731D01*
X130361548Y-89400000D01*
X130360000Y-88990000D01*
X130280000Y-88910000D01*
X129550000Y-88910000D01*
X129550000Y-88930000D01*
X129530000Y-88930000D01*
X129530000Y-88910000D01*
X128800000Y-88910000D01*
X128720000Y-88990000D01*
X128718452Y-89400000D01*
X128724630Y-89462731D01*
X128742928Y-89523051D01*
X128772643Y-89578642D01*
X128812631Y-89627369D01*
X128861358Y-89667357D01*
X128899928Y-89687974D01*
X128831049Y-89791058D01*
X128770743Y-89936649D01*
X128740000Y-90091207D01*
X128740000Y-90248793D01*
X128770743Y-90403351D01*
X128831049Y-90548942D01*
X128918599Y-90679970D01*
X129030030Y-90791401D01*
X129050382Y-90805000D01*
X129030030Y-90818599D01*
X128918599Y-90930030D01*
X128831049Y-91061058D01*
X128770743Y-91206649D01*
X128740000Y-91361207D01*
X128740000Y-91518793D01*
X128770743Y-91673351D01*
X128831049Y-91818942D01*
X128918599Y-91949970D01*
X129030030Y-92061401D01*
X129050382Y-92075000D01*
X129030030Y-92088599D01*
X128918599Y-92200030D01*
X128831049Y-92331058D01*
X128770743Y-92476649D01*
X128740000Y-92631207D01*
X128740000Y-92788793D01*
X128770743Y-92943351D01*
X128831049Y-93088942D01*
X128918599Y-93219970D01*
X129030030Y-93331401D01*
X129050382Y-93345000D01*
X129030030Y-93358599D01*
X128918599Y-93470030D01*
X128831049Y-93601058D01*
X128770743Y-93746649D01*
X128740000Y-93901207D01*
X128740000Y-94058793D01*
X128770743Y-94213351D01*
X128831049Y-94358942D01*
X128918599Y-94489970D01*
X129030030Y-94601401D01*
X129050382Y-94615000D01*
X129030030Y-94628599D01*
X128918599Y-94740030D01*
X128831049Y-94871058D01*
X128770743Y-95016649D01*
X128740000Y-95171207D01*
X128740000Y-95328793D01*
X128770743Y-95483351D01*
X128831049Y-95628942D01*
X128918599Y-95759970D01*
X129030030Y-95871401D01*
X129050382Y-95885000D01*
X129030030Y-95898599D01*
X128918599Y-96010030D01*
X128831049Y-96141058D01*
X128770743Y-96286649D01*
X128740000Y-96441207D01*
X128740000Y-96598793D01*
X128770743Y-96753351D01*
X128831049Y-96898942D01*
X128918599Y-97029970D01*
X129030030Y-97141401D01*
X129050382Y-97155000D01*
X129030030Y-97168599D01*
X129008629Y-97190000D01*
X117088528Y-97190000D01*
X110935113Y-91036586D01*
X110916317Y-91013683D01*
X110824955Y-90938704D01*
X110720721Y-90882990D01*
X110607621Y-90848682D01*
X110519474Y-90840000D01*
X110490000Y-90837097D01*
X110460526Y-90840000D01*
X103067305Y-90840000D01*
X103022478Y-90756134D01*
X102869397Y-90569603D01*
X102682866Y-90416522D01*
X102470055Y-90302772D01*
X102239142Y-90232725D01*
X102059178Y-90215000D01*
X100740822Y-90215000D01*
X100560858Y-90232725D01*
X100329945Y-90302772D01*
X100117134Y-90416522D01*
X99930603Y-90569603D01*
X99777522Y-90756134D01*
X99732695Y-90840000D01*
X90567305Y-90840000D01*
X90522478Y-90756134D01*
X90369397Y-90569603D01*
X90182866Y-90416522D01*
X89970055Y-90302772D01*
X89739142Y-90232725D01*
X89559178Y-90215000D01*
X88240822Y-90215000D01*
X88060858Y-90232725D01*
X87829945Y-90302772D01*
X87617134Y-90416522D01*
X87430603Y-90569603D01*
X87277522Y-90756134D01*
X87163772Y-90968945D01*
X87093725Y-91199858D01*
X87070073Y-91440000D01*
X87093725Y-91680142D01*
X87163772Y-91911055D01*
X87277522Y-92123866D01*
X87430603Y-92310397D01*
X87617134Y-92463478D01*
X87829945Y-92577228D01*
X88060858Y-92647275D01*
X88240822Y-92665000D01*
X89559178Y-92665000D01*
X89739142Y-92647275D01*
X89970055Y-92577228D01*
X90182866Y-92463478D01*
X90369397Y-92310397D01*
X90522478Y-92123866D01*
X90567305Y-92040000D01*
X99732695Y-92040000D01*
X99777522Y-92123866D01*
X99930603Y-92310397D01*
X100117134Y-92463478D01*
X100329945Y-92577228D01*
X100560858Y-92647275D01*
X100740822Y-92665000D01*
X102059178Y-92665000D01*
X102239142Y-92647275D01*
X102470055Y-92577228D01*
X102682866Y-92463478D01*
X102869397Y-92310397D01*
X103022478Y-92123866D01*
X103067305Y-92040000D01*
X110241473Y-92040000D01*
X116394891Y-98193419D01*
X116413683Y-98216317D01*
X116505045Y-98291296D01*
X116609279Y-98347010D01*
X116722379Y-98381318D01*
X116839999Y-98392903D01*
X116869473Y-98390000D01*
X129008629Y-98390000D01*
X129030030Y-98411401D01*
X129050382Y-98425000D01*
X129030030Y-98438599D01*
X128918599Y-98550030D01*
X128831049Y-98681058D01*
X128770743Y-98826649D01*
X128740000Y-98981207D01*
X128740000Y-99138793D01*
X128770743Y-99293351D01*
X128831049Y-99438942D01*
X128918599Y-99569970D01*
X129030030Y-99681401D01*
X129050382Y-99695000D01*
X129030030Y-99708599D01*
X129008629Y-99730000D01*
X91014474Y-99730000D01*
X90985000Y-99727097D01*
X90955526Y-99730000D01*
X90867379Y-99738682D01*
X90754279Y-99772990D01*
X90650045Y-99828704D01*
X90558683Y-99903683D01*
X90539891Y-99926581D01*
X88296582Y-102169891D01*
X88273684Y-102188683D01*
X88198705Y-102280045D01*
X88159887Y-102352669D01*
X88142991Y-102384279D01*
X88108682Y-102497380D01*
X88097097Y-102615000D01*
X88100001Y-102644483D01*
X88100001Y-102915000D01*
X88040822Y-102915000D01*
X87860858Y-102932725D01*
X87629945Y-103002772D01*
X87417134Y-103116522D01*
X87230603Y-103269603D01*
X87077522Y-103456134D01*
X87032695Y-103540000D01*
X77867305Y-103540000D01*
X77822478Y-103456134D01*
X77669397Y-103269603D01*
X77482866Y-103116522D01*
X77270055Y-103002772D01*
X77039142Y-102932725D01*
X76859178Y-102915000D01*
X75540822Y-102915000D01*
X75360858Y-102932725D01*
X75129945Y-103002772D01*
X74917134Y-103116522D01*
X74730603Y-103269603D01*
X74577522Y-103456134D01*
X74463772Y-103668945D01*
X74393725Y-103899858D01*
X74370073Y-104140000D01*
X67766036Y-104140000D01*
X67945720Y-102550609D01*
X68332192Y-100515000D01*
X68870207Y-98514090D01*
X69556736Y-96559142D01*
X69608911Y-96440000D01*
X87070073Y-96440000D01*
X87093725Y-96680142D01*
X87163772Y-96911055D01*
X87277522Y-97123866D01*
X87430603Y-97310397D01*
X87617134Y-97463478D01*
X87829945Y-97577228D01*
X88060858Y-97647275D01*
X88240822Y-97665000D01*
X89559178Y-97665000D01*
X89739142Y-97647275D01*
X89970055Y-97577228D01*
X90182866Y-97463478D01*
X90369397Y-97310397D01*
X90522478Y-97123866D01*
X90636228Y-96911055D01*
X90706275Y-96680142D01*
X90729927Y-96440000D01*
X99570073Y-96440000D01*
X99593725Y-96680142D01*
X99663772Y-96911055D01*
X99777522Y-97123866D01*
X99930603Y-97310397D01*
X100117134Y-97463478D01*
X100329945Y-97577228D01*
X100560858Y-97647275D01*
X100740822Y-97665000D01*
X102059178Y-97665000D01*
X102239142Y-97647275D01*
X102470055Y-97577228D01*
X102682866Y-97463478D01*
X102869397Y-97310397D01*
X103022478Y-97123866D01*
X103136228Y-96911055D01*
X103206275Y-96680142D01*
X103229927Y-96440000D01*
X103206275Y-96199858D01*
X103136228Y-95968945D01*
X103022478Y-95756134D01*
X102869397Y-95569603D01*
X102682866Y-95416522D01*
X102470055Y-95302772D01*
X102239142Y-95232725D01*
X102059178Y-95215000D01*
X100740822Y-95215000D01*
X100560858Y-95232725D01*
X100329945Y-95302772D01*
X100117134Y-95416522D01*
X99930603Y-95569603D01*
X99777522Y-95756134D01*
X99663772Y-95968945D01*
X99593725Y-96199858D01*
X99570073Y-96440000D01*
X90729927Y-96440000D01*
X90706275Y-96199858D01*
X90636228Y-95968945D01*
X90522478Y-95756134D01*
X90369397Y-95569603D01*
X90182866Y-95416522D01*
X89970055Y-95302772D01*
X89739142Y-95232725D01*
X89559178Y-95215000D01*
X88240822Y-95215000D01*
X88060858Y-95232725D01*
X87829945Y-95302772D01*
X87617134Y-95416522D01*
X87430603Y-95569603D01*
X87277522Y-95756134D01*
X87163772Y-95968945D01*
X87093725Y-96199858D01*
X87070073Y-96440000D01*
X69608911Y-96440000D01*
X70387901Y-94661198D01*
X71359039Y-92830901D01*
X72464679Y-91078566D01*
X73698595Y-89414064D01*
X74575458Y-88400000D01*
X128718452Y-88400000D01*
X128720000Y-88810000D01*
X128800000Y-88890000D01*
X129530000Y-88890000D01*
X129530000Y-88160000D01*
X129550000Y-88160000D01*
X129550000Y-88890000D01*
X130280000Y-88890000D01*
X130360000Y-88810000D01*
X130361548Y-88400000D01*
X130355370Y-88337269D01*
X130337072Y-88276949D01*
X130307357Y-88221358D01*
X130267369Y-88172631D01*
X130218642Y-88132643D01*
X130163051Y-88102928D01*
X130102731Y-88084630D01*
X130040000Y-88078452D01*
X129630000Y-88080000D01*
X129550000Y-88160000D01*
X129530000Y-88160000D01*
X129450000Y-88080000D01*
X129040000Y-88078452D01*
X128977269Y-88084630D01*
X128916949Y-88102928D01*
X128861358Y-88132643D01*
X128812631Y-88172631D01*
X128772643Y-88221358D01*
X128742928Y-88276949D01*
X128724630Y-88337269D01*
X128718452Y-88400000D01*
X74575458Y-88400000D01*
X75053833Y-87846775D01*
X76522776Y-86385502D01*
X78097150Y-85038482D01*
X79768082Y-83813303D01*
X81526173Y-82716859D01*
X83361538Y-81755313D01*
X85263825Y-80934090D01*
X87222319Y-80257813D01*
X89226028Y-79730281D01*
X91263627Y-79354473D01*
X93324121Y-79132451D01*
X95255672Y-79065000D01*
X186683907Y-79065000D01*
X188760516Y-79142960D01*
G37*
%TD.AperFunction*%
%TD*%
M02*
