%TF.GenerationSoftware,KiCad,Pcbnew,(5.1.8)-1*%
%TF.CreationDate,2020-11-24T01:58:45+03:00*%
%TF.ProjectId,mesp240_gamepadshield,6d657370-3234-4305-9f67-616d65706164,rev?*%
%TF.SameCoordinates,Original*%
%TF.FileFunction,Soldermask,Top*%
%TF.FilePolarity,Negative*%
%FSLAX46Y46*%
G04 Gerber Fmt 4.6, Leading zero omitted, Abs format (unit mm)*
G04 Created by KiCad (PCBNEW (5.1.8)-1) date 2020-11-24 01:58:45*
%MOMM*%
%LPD*%
G01*
G04 APERTURE LIST*
%ADD10C,0.200000*%
%ADD11O,3.048000X1.850000*%
%ADD12O,1.700000X1.700000*%
%ADD13R,1.700000X1.700000*%
%ADD14O,1.000000X1.000000*%
%ADD15R,1.000000X1.000000*%
G04 APERTURE END LIST*
D10*
X129084285Y-121700857D02*
X129084285Y-120500857D01*
X129484285Y-121358000D01*
X129884285Y-120500857D01*
X129884285Y-121700857D01*
X130627142Y-121700857D02*
X130512857Y-121643714D01*
X130455714Y-121586571D01*
X130398571Y-121472285D01*
X130398571Y-121129428D01*
X130455714Y-121015142D01*
X130512857Y-120958000D01*
X130627142Y-120900857D01*
X130798571Y-120900857D01*
X130912857Y-120958000D01*
X130970000Y-121015142D01*
X131027142Y-121129428D01*
X131027142Y-121472285D01*
X130970000Y-121586571D01*
X130912857Y-121643714D01*
X130798571Y-121700857D01*
X130627142Y-121700857D01*
X131541428Y-121700857D02*
X131541428Y-120900857D01*
X131541428Y-121129428D02*
X131598571Y-121015142D01*
X131655714Y-120958000D01*
X131770000Y-120900857D01*
X131884285Y-120900857D01*
X132284285Y-120900857D02*
X132284285Y-122100857D01*
X132284285Y-120958000D02*
X132398571Y-120900857D01*
X132627142Y-120900857D01*
X132741428Y-120958000D01*
X132798571Y-121015142D01*
X132855714Y-121129428D01*
X132855714Y-121472285D01*
X132798571Y-121586571D01*
X132741428Y-121643714D01*
X132627142Y-121700857D01*
X132398571Y-121700857D01*
X132284285Y-121643714D01*
X133370000Y-121700857D02*
X133370000Y-120500857D01*
X133884285Y-121700857D02*
X133884285Y-121072285D01*
X133827142Y-120958000D01*
X133712857Y-120900857D01*
X133541428Y-120900857D01*
X133427142Y-120958000D01*
X133370000Y-121015142D01*
X134455714Y-121072285D02*
X134855714Y-121072285D01*
X135027142Y-121700857D02*
X134455714Y-121700857D01*
X134455714Y-120500857D01*
X135027142Y-120500857D01*
X135484285Y-121643714D02*
X135655714Y-121700857D01*
X135941428Y-121700857D01*
X136055714Y-121643714D01*
X136112857Y-121586571D01*
X136170000Y-121472285D01*
X136170000Y-121358000D01*
X136112857Y-121243714D01*
X136055714Y-121186571D01*
X135941428Y-121129428D01*
X135712857Y-121072285D01*
X135598571Y-121015142D01*
X135541428Y-120958000D01*
X135484285Y-120843714D01*
X135484285Y-120729428D01*
X135541428Y-120615142D01*
X135598571Y-120558000D01*
X135712857Y-120500857D01*
X135998571Y-120500857D01*
X136170000Y-120558000D01*
X136684285Y-121700857D02*
X136684285Y-120500857D01*
X137141428Y-120500857D01*
X137255714Y-120558000D01*
X137312857Y-120615142D01*
X137370000Y-120729428D01*
X137370000Y-120900857D01*
X137312857Y-121015142D01*
X137255714Y-121072285D01*
X137141428Y-121129428D01*
X136684285Y-121129428D01*
X138741428Y-120615142D02*
X138798571Y-120558000D01*
X138912857Y-120500857D01*
X139198571Y-120500857D01*
X139312857Y-120558000D01*
X139370000Y-120615142D01*
X139427142Y-120729428D01*
X139427142Y-120843714D01*
X139370000Y-121015142D01*
X138684285Y-121700857D01*
X139427142Y-121700857D01*
X140455714Y-120900857D02*
X140455714Y-121700857D01*
X140170000Y-120443714D02*
X139884285Y-121300857D01*
X140627142Y-121300857D01*
X141312857Y-120500857D02*
X141427142Y-120500857D01*
X141541428Y-120558000D01*
X141598571Y-120615142D01*
X141655714Y-120729428D01*
X141712857Y-120958000D01*
X141712857Y-121243714D01*
X141655714Y-121472285D01*
X141598571Y-121586571D01*
X141541428Y-121643714D01*
X141427142Y-121700857D01*
X141312857Y-121700857D01*
X141198571Y-121643714D01*
X141141428Y-121586571D01*
X141084285Y-121472285D01*
X141027142Y-121243714D01*
X141027142Y-120958000D01*
X141084285Y-120729428D01*
X141141428Y-120615142D01*
X141198571Y-120558000D01*
X141312857Y-120500857D01*
X143141428Y-121700857D02*
X143141428Y-120500857D01*
X143141428Y-120958000D02*
X143255714Y-120900857D01*
X143484285Y-120900857D01*
X143598571Y-120958000D01*
X143655714Y-121015142D01*
X143712857Y-121129428D01*
X143712857Y-121472285D01*
X143655714Y-121586571D01*
X143598571Y-121643714D01*
X143484285Y-121700857D01*
X143255714Y-121700857D01*
X143141428Y-121643714D01*
X144112857Y-120900857D02*
X144398571Y-121700857D01*
X144684285Y-120900857D02*
X144398571Y-121700857D01*
X144284285Y-121986571D01*
X144227142Y-122043714D01*
X144112857Y-122100857D01*
X146798571Y-121129428D02*
X146741428Y-121072285D01*
X146627142Y-121015142D01*
X146512857Y-121015142D01*
X146398571Y-121072285D01*
X146341428Y-121129428D01*
X146284285Y-121243714D01*
X146284285Y-121358000D01*
X146341428Y-121472285D01*
X146398571Y-121529428D01*
X146512857Y-121586571D01*
X146627142Y-121586571D01*
X146741428Y-121529428D01*
X146798571Y-121472285D01*
X146798571Y-121015142D02*
X146798571Y-121472285D01*
X146855714Y-121529428D01*
X146912857Y-121529428D01*
X147027142Y-121472285D01*
X147084285Y-121358000D01*
X147084285Y-121072285D01*
X146970000Y-120900857D01*
X146798571Y-120786571D01*
X146570000Y-120729428D01*
X146341428Y-120786571D01*
X146170000Y-120900857D01*
X146055714Y-121072285D01*
X145998571Y-121300857D01*
X146055714Y-121529428D01*
X146170000Y-121700857D01*
X146341428Y-121815142D01*
X146570000Y-121872285D01*
X146798571Y-121815142D01*
X146970000Y-121700857D01*
X148112857Y-121643714D02*
X147998571Y-121700857D01*
X147770000Y-121700857D01*
X147655714Y-121643714D01*
X147598571Y-121586571D01*
X147541428Y-121472285D01*
X147541428Y-121129428D01*
X147598571Y-121015142D01*
X147655714Y-120958000D01*
X147770000Y-120900857D01*
X147998571Y-120900857D01*
X148112857Y-120958000D01*
X149141428Y-121643714D02*
X149027142Y-121700857D01*
X148798571Y-121700857D01*
X148684285Y-121643714D01*
X148627142Y-121586571D01*
X148570000Y-121472285D01*
X148570000Y-121129428D01*
X148627142Y-121015142D01*
X148684285Y-120958000D01*
X148798571Y-120900857D01*
X149027142Y-120900857D01*
X149141428Y-120958000D01*
X150170000Y-121700857D02*
X150170000Y-121072285D01*
X150112857Y-120958000D01*
X149998571Y-120900857D01*
X149770000Y-120900857D01*
X149655714Y-120958000D01*
X150170000Y-121643714D02*
X150055714Y-121700857D01*
X149770000Y-121700857D01*
X149655714Y-121643714D01*
X149598571Y-121529428D01*
X149598571Y-121415142D01*
X149655714Y-121300857D01*
X149770000Y-121243714D01*
X150055714Y-121243714D01*
X150170000Y-121186571D01*
X151255714Y-121700857D02*
X151255714Y-120500857D01*
X151255714Y-121643714D02*
X151141428Y-121700857D01*
X150912857Y-121700857D01*
X150798571Y-121643714D01*
X150741428Y-121586571D01*
X150684285Y-121472285D01*
X150684285Y-121129428D01*
X150741428Y-121015142D01*
X150798571Y-120958000D01*
X150912857Y-120900857D01*
X151141428Y-120900857D01*
X151255714Y-120958000D01*
X151827142Y-121700857D02*
X151827142Y-120900857D01*
X151827142Y-120500857D02*
X151770000Y-120558000D01*
X151827142Y-120615142D01*
X151884285Y-120558000D01*
X151827142Y-120500857D01*
X151827142Y-120615142D01*
X152912857Y-121643714D02*
X152798571Y-121700857D01*
X152570000Y-121700857D01*
X152455714Y-121643714D01*
X152398571Y-121586571D01*
X152341428Y-121472285D01*
X152341428Y-121129428D01*
X152398571Y-121015142D01*
X152455714Y-120958000D01*
X152570000Y-120900857D01*
X152798571Y-120900857D01*
X152912857Y-120958000D01*
D11*
%TO.C,SW8*%
X180340000Y-121840000D03*
X180340000Y-116840000D03*
X192840000Y-121840000D03*
X192840000Y-116840000D03*
%TD*%
%TO.C,SW7*%
X180340000Y-96440000D03*
X180340000Y-91440000D03*
X192840000Y-96440000D03*
X192840000Y-91440000D03*
%TD*%
%TO.C,SW6*%
X167640000Y-109140000D03*
X167640000Y-104140000D03*
X180140000Y-109140000D03*
X180140000Y-104140000D03*
%TD*%
%TO.C,SW5*%
X193040000Y-109140000D03*
X193040000Y-104140000D03*
X205540000Y-109140000D03*
X205540000Y-104140000D03*
%TD*%
%TO.C,SW4*%
X88900000Y-96440000D03*
X88900000Y-91440000D03*
X101400000Y-96440000D03*
X101400000Y-91440000D03*
%TD*%
%TO.C,SW3*%
X101600000Y-109140000D03*
X101600000Y-104140000D03*
X114100000Y-109140000D03*
X114100000Y-104140000D03*
%TD*%
%TO.C,SW2*%
X76200000Y-109140000D03*
X76200000Y-104140000D03*
X88700000Y-109140000D03*
X88700000Y-104140000D03*
%TD*%
%TO.C,SW1*%
X88900000Y-121840000D03*
X88900000Y-116840000D03*
X101400000Y-121840000D03*
X101400000Y-116840000D03*
%TD*%
D12*
%TO.C,J3*%
X137922000Y-98806000D03*
D13*
X137922000Y-101346000D03*
%TD*%
D14*
%TO.C,J2*%
X152400000Y-118110000D03*
X152400000Y-116840000D03*
X152400000Y-115570000D03*
X152400000Y-114300000D03*
X152400000Y-113030000D03*
X152400000Y-111760000D03*
X152400000Y-110490000D03*
X152400000Y-109220000D03*
X152400000Y-107950000D03*
X152400000Y-106680000D03*
X152400000Y-105410000D03*
X152400000Y-104140000D03*
X152400000Y-102870000D03*
X152400000Y-101600000D03*
X152400000Y-100330000D03*
X152400000Y-99060000D03*
X152400000Y-97790000D03*
X152400000Y-96520000D03*
X152400000Y-95250000D03*
X152400000Y-93980000D03*
X152400000Y-92710000D03*
X152400000Y-91440000D03*
X152400000Y-90170000D03*
D15*
X152400000Y-88900000D03*
%TD*%
D14*
%TO.C,J1*%
X129540000Y-107950000D03*
X129540000Y-106680000D03*
X129540000Y-105410000D03*
X129540000Y-104140000D03*
X129540000Y-102870000D03*
X129540000Y-101600000D03*
X129540000Y-100330000D03*
X129540000Y-99060000D03*
X129540000Y-97790000D03*
X129540000Y-96520000D03*
X129540000Y-95250000D03*
X129540000Y-93980000D03*
X129540000Y-92710000D03*
X129540000Y-91440000D03*
X129540000Y-90170000D03*
D15*
X129540000Y-88900000D03*
%TD*%
M02*
