%TF.GenerationSoftware,KiCad,Pcbnew,(5.1.8)-1*%
%TF.CreationDate,2020-11-24T01:58:45+03:00*%
%TF.ProjectId,mesp240_gamepadshield,6d657370-3234-4305-9f67-616d65706164,rev?*%
%TF.SameCoordinates,Original*%
%TF.FileFunction,Legend,Top*%
%TF.FilePolarity,Positive*%
%FSLAX46Y46*%
G04 Gerber Fmt 4.6, Leading zero omitted, Abs format (unit mm)*
G04 Created by KiCad (PCBNEW (5.1.8)-1) date 2020-11-24 01:58:45*
%MOMM*%
%LPD*%
G01*
G04 APERTURE LIST*
%ADD10C,0.100000*%
%ADD11C,0.500000*%
%ADD12C,0.250000*%
%ADD13C,0.150000*%
%ADD14C,0.200000*%
%ADD15C,0.120000*%
%ADD16C,0.010000*%
G04 APERTURE END LIST*
D10*
G36*
X95250000Y-130175000D02*
G01*
X92710000Y-127635000D01*
X97790000Y-127635000D01*
X95250000Y-130175000D01*
G37*
X95250000Y-130175000D02*
X92710000Y-127635000D01*
X97790000Y-127635000D01*
X95250000Y-130175000D01*
G36*
X118745000Y-106680000D02*
G01*
X116205000Y-109220000D01*
X116205000Y-104140000D01*
X118745000Y-106680000D01*
G37*
X118745000Y-106680000D02*
X116205000Y-109220000D01*
X116205000Y-104140000D01*
X118745000Y-106680000D01*
G36*
X97790000Y-85725000D02*
G01*
X92710000Y-85725000D01*
X95250000Y-83185000D01*
X97790000Y-85725000D01*
G37*
X97790000Y-85725000D02*
X92710000Y-85725000D01*
X95250000Y-83185000D01*
X97790000Y-85725000D01*
G36*
X74295000Y-109220000D02*
G01*
X71755000Y-106680000D01*
X74295000Y-104140000D01*
X74295000Y-109220000D01*
G37*
X74295000Y-109220000D02*
X71755000Y-106680000D01*
X74295000Y-104140000D01*
X74295000Y-109220000D01*
D11*
X186690000Y-102175476D02*
X186690000Y-103365952D01*
X185856666Y-100865952D02*
X186690000Y-102175476D01*
X187523333Y-100865952D01*
X199568571Y-114756428D02*
X199925714Y-114875476D01*
X200044761Y-114994523D01*
X200163809Y-115232619D01*
X200163809Y-115589761D01*
X200044761Y-115827857D01*
X199925714Y-115946904D01*
X199687619Y-116065952D01*
X198735238Y-116065952D01*
X198735238Y-113565952D01*
X199568571Y-113565952D01*
X199806666Y-113685000D01*
X199925714Y-113804047D01*
X200044761Y-114042142D01*
X200044761Y-114280238D01*
X199925714Y-114518333D01*
X199806666Y-114637380D01*
X199568571Y-114756428D01*
X198735238Y-114756428D01*
X186094761Y-128051666D02*
X187285238Y-128051666D01*
X185856666Y-128765952D02*
X186690000Y-126265952D01*
X187523333Y-128765952D01*
X173156666Y-113565952D02*
X174823333Y-116065952D01*
X174823333Y-113565952D02*
X173156666Y-116065952D01*
D12*
X95250000Y-134366000D02*
X186690000Y-134366000D01*
X95250000Y-78994000D02*
X186690000Y-78994000D01*
X186690000Y-78994000D02*
G75*
G02*
X186690000Y-134366000I0J-27686000D01*
G01*
X95250000Y-134366000D02*
G75*
G02*
X95250000Y-78994000I0J27686000D01*
G01*
D13*
X135255047Y-101417428D02*
X136016952Y-101417428D01*
X135636000Y-101798380D02*
X135636000Y-101036476D01*
X135029142Y-104075714D02*
X135157714Y-104118571D01*
X135200571Y-104161428D01*
X135243428Y-104247142D01*
X135243428Y-104375714D01*
X135200571Y-104461428D01*
X135157714Y-104504285D01*
X135072000Y-104547142D01*
X134729142Y-104547142D01*
X134729142Y-103647142D01*
X135029142Y-103647142D01*
X135114857Y-103690000D01*
X135157714Y-103732857D01*
X135200571Y-103818571D01*
X135200571Y-103904285D01*
X135157714Y-103990000D01*
X135114857Y-104032857D01*
X135029142Y-104075714D01*
X134729142Y-104075714D01*
X136014857Y-103947142D02*
X136014857Y-104547142D01*
X135629142Y-103947142D02*
X135629142Y-104418571D01*
X135672000Y-104504285D01*
X135757714Y-104547142D01*
X135886285Y-104547142D01*
X135972000Y-104504285D01*
X136014857Y-104461428D01*
X136357714Y-103947142D02*
X136829142Y-103947142D01*
X136357714Y-104547142D01*
X136829142Y-104547142D01*
X137086285Y-103947142D02*
X137557714Y-103947142D01*
X137086285Y-104547142D01*
X137557714Y-104547142D01*
X138243428Y-104504285D02*
X138157714Y-104547142D01*
X137986285Y-104547142D01*
X137900571Y-104504285D01*
X137857714Y-104418571D01*
X137857714Y-104075714D01*
X137900571Y-103990000D01*
X137986285Y-103947142D01*
X138157714Y-103947142D01*
X138243428Y-103990000D01*
X138286285Y-104075714D01*
X138286285Y-104161428D01*
X137857714Y-104247142D01*
X138672000Y-104547142D02*
X138672000Y-103947142D01*
X138672000Y-104118571D02*
X138714857Y-104032857D01*
X138757714Y-103990000D01*
X138843428Y-103947142D01*
X138929142Y-103947142D01*
X140343428Y-103647142D02*
X139914857Y-103647142D01*
X139872000Y-104075714D01*
X139914857Y-104032857D01*
X140000571Y-103990000D01*
X140214857Y-103990000D01*
X140300571Y-104032857D01*
X140343428Y-104075714D01*
X140386285Y-104161428D01*
X140386285Y-104375714D01*
X140343428Y-104461428D01*
X140300571Y-104504285D01*
X140214857Y-104547142D01*
X140000571Y-104547142D01*
X139914857Y-104504285D01*
X139872000Y-104461428D01*
X140643428Y-103647142D02*
X140943428Y-104547142D01*
X141243428Y-103647142D01*
D14*
X159228142Y-132749857D02*
X159228142Y-131549857D01*
X159228142Y-132007000D02*
X159342428Y-131949857D01*
X159571000Y-131949857D01*
X159685285Y-132007000D01*
X159742428Y-132064142D01*
X159799571Y-132178428D01*
X159799571Y-132521285D01*
X159742428Y-132635571D01*
X159685285Y-132692714D01*
X159571000Y-132749857D01*
X159342428Y-132749857D01*
X159228142Y-132692714D01*
X160199571Y-131949857D02*
X160485285Y-132749857D01*
X160771000Y-131949857D02*
X160485285Y-132749857D01*
X160371000Y-133035571D01*
X160313857Y-133092714D01*
X160199571Y-133149857D01*
X162142428Y-132749857D02*
X162142428Y-131549857D01*
X162142428Y-132121285D02*
X162828142Y-132121285D01*
X162828142Y-132749857D02*
X162828142Y-131549857D01*
X163285285Y-131549857D02*
X163571000Y-132749857D01*
X163799571Y-131892714D01*
X164028142Y-132749857D01*
X164313857Y-131549857D01*
X165456714Y-132749857D02*
X165056714Y-132178428D01*
X164771000Y-132749857D02*
X164771000Y-131549857D01*
X165228142Y-131549857D01*
X165342428Y-131607000D01*
X165399571Y-131664142D01*
X165456714Y-131778428D01*
X165456714Y-131949857D01*
X165399571Y-132064142D01*
X165342428Y-132121285D01*
X165228142Y-132178428D01*
X164771000Y-132178428D01*
X166199571Y-131549857D02*
X166313857Y-131549857D01*
X166428142Y-131607000D01*
X166485285Y-131664142D01*
X166542428Y-131778428D01*
X166599571Y-132007000D01*
X166599571Y-132292714D01*
X166542428Y-132521285D01*
X166485285Y-132635571D01*
X166428142Y-132692714D01*
X166313857Y-132749857D01*
X166199571Y-132749857D01*
X166085285Y-132692714D01*
X166028142Y-132635571D01*
X165971000Y-132521285D01*
X165913857Y-132292714D01*
X165913857Y-132007000D01*
X165971000Y-131778428D01*
X166028142Y-131664142D01*
X166085285Y-131607000D01*
X166199571Y-131549857D01*
X168942428Y-131949857D02*
X168028142Y-132292714D01*
X168942428Y-132635571D01*
X169971000Y-132692714D02*
X169856714Y-132749857D01*
X169628142Y-132749857D01*
X169513857Y-132692714D01*
X169456714Y-132578428D01*
X169456714Y-132121285D01*
X169513857Y-132007000D01*
X169628142Y-131949857D01*
X169856714Y-131949857D01*
X169971000Y-132007000D01*
X170028142Y-132121285D01*
X170028142Y-132235571D01*
X169456714Y-132349857D01*
X170428142Y-131949857D02*
X170713857Y-132749857D01*
X170999571Y-131949857D01*
X171456714Y-132749857D02*
X171456714Y-131949857D01*
X171456714Y-131549857D02*
X171399571Y-131607000D01*
X171456714Y-131664142D01*
X171513857Y-131607000D01*
X171456714Y-131549857D01*
X171456714Y-131664142D01*
X172199571Y-132749857D02*
X172085285Y-132692714D01*
X172028142Y-132578428D01*
X172028142Y-131549857D01*
X172656714Y-132749857D02*
X172656714Y-131549857D01*
X173171000Y-132749857D02*
X173171000Y-132121285D01*
X173113857Y-132007000D01*
X172999571Y-131949857D01*
X172828142Y-131949857D01*
X172713857Y-132007000D01*
X172656714Y-132064142D01*
X174256714Y-132749857D02*
X174256714Y-132121285D01*
X174199571Y-132007000D01*
X174085285Y-131949857D01*
X173856714Y-131949857D01*
X173742428Y-132007000D01*
X174256714Y-132692714D02*
X174142428Y-132749857D01*
X173856714Y-132749857D01*
X173742428Y-132692714D01*
X173685285Y-132578428D01*
X173685285Y-132464142D01*
X173742428Y-132349857D01*
X173856714Y-132292714D01*
X174142428Y-132292714D01*
X174256714Y-132235571D01*
X174828142Y-132749857D02*
X174828142Y-131949857D01*
X174828142Y-132178428D02*
X174885285Y-132064142D01*
X174942428Y-132007000D01*
X175056714Y-131949857D01*
X175171000Y-131949857D01*
X176085285Y-132749857D02*
X176085285Y-131549857D01*
X176085285Y-132692714D02*
X175971000Y-132749857D01*
X175742428Y-132749857D01*
X175628142Y-132692714D01*
X175571000Y-132635571D01*
X175513857Y-132521285D01*
X175513857Y-132178428D01*
X175571000Y-132064142D01*
X175628142Y-132007000D01*
X175742428Y-131949857D01*
X175971000Y-131949857D01*
X176085285Y-132007000D01*
X176542428Y-131949857D02*
X176771000Y-132749857D01*
X176999571Y-132178428D01*
X177228142Y-132749857D01*
X177456714Y-131949857D01*
X178428142Y-132749857D02*
X178428142Y-132121285D01*
X178371000Y-132007000D01*
X178256714Y-131949857D01*
X178028142Y-131949857D01*
X177913857Y-132007000D01*
X178428142Y-132692714D02*
X178313857Y-132749857D01*
X178028142Y-132749857D01*
X177913857Y-132692714D01*
X177856714Y-132578428D01*
X177856714Y-132464142D01*
X177913857Y-132349857D01*
X178028142Y-132292714D01*
X178313857Y-132292714D01*
X178428142Y-132235571D01*
X178999571Y-132749857D02*
X178999571Y-131949857D01*
X178999571Y-132178428D02*
X179056714Y-132064142D01*
X179113857Y-132007000D01*
X179228142Y-131949857D01*
X179342428Y-131949857D01*
X180199571Y-132692714D02*
X180085285Y-132749857D01*
X179856714Y-132749857D01*
X179742428Y-132692714D01*
X179685285Y-132578428D01*
X179685285Y-132121285D01*
X179742428Y-132007000D01*
X179856714Y-131949857D01*
X180085285Y-131949857D01*
X180199571Y-132007000D01*
X180256714Y-132121285D01*
X180256714Y-132235571D01*
X179685285Y-132349857D01*
X181513857Y-132178428D02*
X181456714Y-132121285D01*
X181342428Y-132064142D01*
X181228142Y-132064142D01*
X181113857Y-132121285D01*
X181056714Y-132178428D01*
X180999571Y-132292714D01*
X180999571Y-132407000D01*
X181056714Y-132521285D01*
X181113857Y-132578428D01*
X181228142Y-132635571D01*
X181342428Y-132635571D01*
X181456714Y-132578428D01*
X181513857Y-132521285D01*
X181513857Y-132064142D02*
X181513857Y-132521285D01*
X181571000Y-132578428D01*
X181628142Y-132578428D01*
X181742428Y-132521285D01*
X181799571Y-132407000D01*
X181799571Y-132121285D01*
X181685285Y-131949857D01*
X181513857Y-131835571D01*
X181285285Y-131778428D01*
X181056714Y-131835571D01*
X180885285Y-131949857D01*
X180771000Y-132121285D01*
X180713857Y-132349857D01*
X180771000Y-132578428D01*
X180885285Y-132749857D01*
X181056714Y-132864142D01*
X181285285Y-132921285D01*
X181513857Y-132864142D01*
X181685285Y-132749857D01*
X182313857Y-132749857D02*
X182313857Y-131949857D01*
X182313857Y-132064142D02*
X182371000Y-132007000D01*
X182485285Y-131949857D01*
X182656714Y-131949857D01*
X182771000Y-132007000D01*
X182828142Y-132121285D01*
X182828142Y-132749857D01*
X182828142Y-132121285D02*
X182885285Y-132007000D01*
X182999571Y-131949857D01*
X183171000Y-131949857D01*
X183285285Y-132007000D01*
X183342428Y-132121285D01*
X183342428Y-132749857D01*
X184428142Y-132749857D02*
X184428142Y-132121285D01*
X184371000Y-132007000D01*
X184256714Y-131949857D01*
X184028142Y-131949857D01*
X183913857Y-132007000D01*
X184428142Y-132692714D02*
X184313857Y-132749857D01*
X184028142Y-132749857D01*
X183913857Y-132692714D01*
X183856714Y-132578428D01*
X183856714Y-132464142D01*
X183913857Y-132349857D01*
X184028142Y-132292714D01*
X184313857Y-132292714D01*
X184428142Y-132235571D01*
X184999571Y-132749857D02*
X184999571Y-131949857D01*
X184999571Y-131549857D02*
X184942428Y-131607000D01*
X184999571Y-131664142D01*
X185056714Y-131607000D01*
X184999571Y-131549857D01*
X184999571Y-131664142D01*
X185742428Y-132749857D02*
X185628142Y-132692714D01*
X185571000Y-132578428D01*
X185571000Y-131549857D01*
X186199571Y-132635571D02*
X186256714Y-132692714D01*
X186199571Y-132749857D01*
X186142428Y-132692714D01*
X186199571Y-132635571D01*
X186199571Y-132749857D01*
X186771000Y-132749857D02*
X186771000Y-131949857D01*
X186771000Y-132178428D02*
X186828142Y-132064142D01*
X186885285Y-132007000D01*
X186999571Y-131949857D01*
X187113857Y-131949857D01*
X188028142Y-131949857D02*
X188028142Y-132749857D01*
X187513857Y-131949857D02*
X187513857Y-132578428D01*
X187571000Y-132692714D01*
X187685285Y-132749857D01*
X187856714Y-132749857D01*
X187971000Y-132692714D01*
X188028142Y-132635571D01*
X188599571Y-131949857D02*
X189513857Y-132292714D01*
X188599571Y-132635571D01*
D11*
X103684285Y-85521619D02*
X103684285Y-82321619D01*
X104650952Y-84607333D01*
X105617619Y-82321619D01*
X105617619Y-85521619D01*
X107412857Y-85521619D02*
X107136666Y-85369238D01*
X106998571Y-85216857D01*
X106860476Y-84912095D01*
X106860476Y-83997809D01*
X106998571Y-83693047D01*
X107136666Y-83540666D01*
X107412857Y-83388285D01*
X107827142Y-83388285D01*
X108103333Y-83540666D01*
X108241428Y-83693047D01*
X108379523Y-83997809D01*
X108379523Y-84912095D01*
X108241428Y-85216857D01*
X108103333Y-85369238D01*
X107827142Y-85521619D01*
X107412857Y-85521619D01*
X109622380Y-85521619D02*
X109622380Y-83388285D01*
X109622380Y-83997809D02*
X109760476Y-83693047D01*
X109898571Y-83540666D01*
X110174761Y-83388285D01*
X110450952Y-83388285D01*
X111417619Y-83388285D02*
X111417619Y-86588285D01*
X111417619Y-83540666D02*
X111693809Y-83388285D01*
X112246190Y-83388285D01*
X112522380Y-83540666D01*
X112660476Y-83693047D01*
X112798571Y-83997809D01*
X112798571Y-84912095D01*
X112660476Y-85216857D01*
X112522380Y-85369238D01*
X112246190Y-85521619D01*
X111693809Y-85521619D01*
X111417619Y-85369238D01*
X114041428Y-85521619D02*
X114041428Y-82321619D01*
X115284285Y-85521619D02*
X115284285Y-83845428D01*
X115146190Y-83540666D01*
X114870000Y-83388285D01*
X114455714Y-83388285D01*
X114179523Y-83540666D01*
X114041428Y-83693047D01*
X116665238Y-83845428D02*
X117631904Y-83845428D01*
X118046190Y-85521619D02*
X116665238Y-85521619D01*
X116665238Y-82321619D01*
X118046190Y-82321619D01*
X119150952Y-85369238D02*
X119565238Y-85521619D01*
X120255714Y-85521619D01*
X120531904Y-85369238D01*
X120670000Y-85216857D01*
X120808095Y-84912095D01*
X120808095Y-84607333D01*
X120670000Y-84302571D01*
X120531904Y-84150190D01*
X120255714Y-83997809D01*
X119703333Y-83845428D01*
X119427142Y-83693047D01*
X119289047Y-83540666D01*
X119150952Y-83235904D01*
X119150952Y-82931142D01*
X119289047Y-82626380D01*
X119427142Y-82474000D01*
X119703333Y-82321619D01*
X120393809Y-82321619D01*
X120808095Y-82474000D01*
X122050952Y-85521619D02*
X122050952Y-82321619D01*
X123155714Y-82321619D01*
X123431904Y-82474000D01*
X123570000Y-82626380D01*
X123708095Y-82931142D01*
X123708095Y-83388285D01*
X123570000Y-83693047D01*
X123431904Y-83845428D01*
X123155714Y-83997809D01*
X122050952Y-83997809D01*
X127022380Y-82626380D02*
X127160476Y-82474000D01*
X127436666Y-82321619D01*
X128127142Y-82321619D01*
X128403333Y-82474000D01*
X128541428Y-82626380D01*
X128679523Y-82931142D01*
X128679523Y-83235904D01*
X128541428Y-83693047D01*
X126884285Y-85521619D01*
X128679523Y-85521619D01*
X131165238Y-83388285D02*
X131165238Y-85521619D01*
X130474761Y-82169238D02*
X129784285Y-84454952D01*
X131579523Y-84454952D01*
X133236666Y-82321619D02*
X133512857Y-82321619D01*
X133789047Y-82474000D01*
X133927142Y-82626380D01*
X134065238Y-82931142D01*
X134203333Y-83540666D01*
X134203333Y-84302571D01*
X134065238Y-84912095D01*
X133927142Y-85216857D01*
X133789047Y-85369238D01*
X133512857Y-85521619D01*
X133236666Y-85521619D01*
X132960476Y-85369238D01*
X132822380Y-85216857D01*
X132684285Y-84912095D01*
X132546190Y-84302571D01*
X132546190Y-83540666D01*
X132684285Y-82931142D01*
X132822380Y-82626380D01*
X132960476Y-82474000D01*
X133236666Y-82321619D01*
X145803333Y-82474000D02*
X145527142Y-82321619D01*
X145112857Y-82321619D01*
X144698571Y-82474000D01*
X144422380Y-82778761D01*
X144284285Y-83083523D01*
X144146190Y-83693047D01*
X144146190Y-84150190D01*
X144284285Y-84759714D01*
X144422380Y-85064476D01*
X144698571Y-85369238D01*
X145112857Y-85521619D01*
X145389047Y-85521619D01*
X145803333Y-85369238D01*
X145941428Y-85216857D01*
X145941428Y-84150190D01*
X145389047Y-84150190D01*
X148427142Y-85521619D02*
X148427142Y-83845428D01*
X148289047Y-83540666D01*
X148012857Y-83388285D01*
X147460476Y-83388285D01*
X147184285Y-83540666D01*
X148427142Y-85369238D02*
X148150952Y-85521619D01*
X147460476Y-85521619D01*
X147184285Y-85369238D01*
X147046190Y-85064476D01*
X147046190Y-84759714D01*
X147184285Y-84454952D01*
X147460476Y-84302571D01*
X148150952Y-84302571D01*
X148427142Y-84150190D01*
X149808095Y-85521619D02*
X149808095Y-83388285D01*
X149808095Y-83693047D02*
X149946190Y-83540666D01*
X150222380Y-83388285D01*
X150636666Y-83388285D01*
X150912857Y-83540666D01*
X151050952Y-83845428D01*
X151050952Y-85521619D01*
X151050952Y-83845428D02*
X151189047Y-83540666D01*
X151465238Y-83388285D01*
X151879523Y-83388285D01*
X152155714Y-83540666D01*
X152293809Y-83845428D01*
X152293809Y-85521619D01*
X154779523Y-85369238D02*
X154503333Y-85521619D01*
X153950952Y-85521619D01*
X153674761Y-85369238D01*
X153536666Y-85064476D01*
X153536666Y-83845428D01*
X153674761Y-83540666D01*
X153950952Y-83388285D01*
X154503333Y-83388285D01*
X154779523Y-83540666D01*
X154917619Y-83845428D01*
X154917619Y-84150190D01*
X153536666Y-84454952D01*
X156160476Y-83388285D02*
X156160476Y-86588285D01*
X156160476Y-83540666D02*
X156436666Y-83388285D01*
X156989047Y-83388285D01*
X157265238Y-83540666D01*
X157403333Y-83693047D01*
X157541428Y-83997809D01*
X157541428Y-84912095D01*
X157403333Y-85216857D01*
X157265238Y-85369238D01*
X156989047Y-85521619D01*
X156436666Y-85521619D01*
X156160476Y-85369238D01*
X160027142Y-85521619D02*
X160027142Y-83845428D01*
X159889047Y-83540666D01*
X159612857Y-83388285D01*
X159060476Y-83388285D01*
X158784285Y-83540666D01*
X160027142Y-85369238D02*
X159750952Y-85521619D01*
X159060476Y-85521619D01*
X158784285Y-85369238D01*
X158646190Y-85064476D01*
X158646190Y-84759714D01*
X158784285Y-84454952D01*
X159060476Y-84302571D01*
X159750952Y-84302571D01*
X160027142Y-84150190D01*
X162650952Y-85521619D02*
X162650952Y-82321619D01*
X162650952Y-85369238D02*
X162374761Y-85521619D01*
X161822380Y-85521619D01*
X161546190Y-85369238D01*
X161408095Y-85216857D01*
X161269999Y-84912095D01*
X161269999Y-83997809D01*
X161408095Y-83693047D01*
X161546190Y-83540666D01*
X161822380Y-83388285D01*
X162374761Y-83388285D01*
X162650952Y-83540666D01*
X166103333Y-85369238D02*
X166517619Y-85521619D01*
X167208095Y-85521619D01*
X167484285Y-85369238D01*
X167622380Y-85216857D01*
X167760476Y-84912095D01*
X167760476Y-84607333D01*
X167622380Y-84302571D01*
X167484285Y-84150190D01*
X167208095Y-83997809D01*
X166655714Y-83845428D01*
X166379523Y-83693047D01*
X166241428Y-83540666D01*
X166103333Y-83235904D01*
X166103333Y-82931142D01*
X166241428Y-82626380D01*
X166379523Y-82474000D01*
X166655714Y-82321619D01*
X167346190Y-82321619D01*
X167760476Y-82474000D01*
X169003333Y-85521619D02*
X169003333Y-82321619D01*
X170246190Y-85521619D02*
X170246190Y-83845428D01*
X170108095Y-83540666D01*
X169831904Y-83388285D01*
X169417619Y-83388285D01*
X169141428Y-83540666D01*
X169003333Y-83693047D01*
X171627142Y-85521619D02*
X171627142Y-83388285D01*
X171627142Y-82321619D02*
X171489047Y-82474000D01*
X171627142Y-82626380D01*
X171765238Y-82474000D01*
X171627142Y-82321619D01*
X171627142Y-82626380D01*
X174112857Y-85369238D02*
X173836666Y-85521619D01*
X173284285Y-85521619D01*
X173008095Y-85369238D01*
X172869999Y-85064476D01*
X172869999Y-83845428D01*
X173008095Y-83540666D01*
X173284285Y-83388285D01*
X173836666Y-83388285D01*
X174112857Y-83540666D01*
X174250952Y-83845428D01*
X174250952Y-84150190D01*
X172869999Y-84454952D01*
X175908095Y-85521619D02*
X175631904Y-85369238D01*
X175493809Y-85064476D01*
X175493809Y-82321619D01*
X178255714Y-85521619D02*
X178255714Y-82321619D01*
X178255714Y-85369238D02*
X177979523Y-85521619D01*
X177427142Y-85521619D01*
X177150952Y-85369238D01*
X177012857Y-85216857D01*
X176874761Y-84912095D01*
X176874761Y-83997809D01*
X177012857Y-83693047D01*
X177150952Y-83540666D01*
X177427142Y-83388285D01*
X177979523Y-83388285D01*
X178255714Y-83540666D01*
D15*
%TO.C,SW8*%
X180440000Y-113190000D02*
X192740000Y-113190000D01*
X192740000Y-117770000D02*
X192740000Y-120910000D01*
X192740000Y-125490000D02*
X180440000Y-125490000D01*
X180440000Y-115910000D02*
X180440000Y-113190000D01*
X191269050Y-119380000D02*
G75*
G03*
X191269050Y-119380000I-4579050J0D01*
G01*
X180440000Y-125490000D02*
X180440000Y-122770000D01*
X180440000Y-120910000D02*
X180440000Y-117770000D01*
X192740000Y-122770000D02*
X192740000Y-125490000D01*
X192740000Y-113190000D02*
X192740000Y-115910000D01*
%TO.C,SW7*%
X180440000Y-87790000D02*
X192740000Y-87790000D01*
X192740000Y-92370000D02*
X192740000Y-95510000D01*
X192740000Y-100090000D02*
X180440000Y-100090000D01*
X180440000Y-90510000D02*
X180440000Y-87790000D01*
X191269050Y-93980000D02*
G75*
G03*
X191269050Y-93980000I-4579050J0D01*
G01*
X180440000Y-100090000D02*
X180440000Y-97370000D01*
X180440000Y-95510000D02*
X180440000Y-92370000D01*
X192740000Y-97370000D02*
X192740000Y-100090000D01*
X192740000Y-87790000D02*
X192740000Y-90510000D01*
%TO.C,SW6*%
X167740000Y-100490000D02*
X180040000Y-100490000D01*
X180040000Y-105070000D02*
X180040000Y-108210000D01*
X180040000Y-112790000D02*
X167740000Y-112790000D01*
X167740000Y-103210000D02*
X167740000Y-100490000D01*
X178569050Y-106680000D02*
G75*
G03*
X178569050Y-106680000I-4579050J0D01*
G01*
X167740000Y-112790000D02*
X167740000Y-110070000D01*
X167740000Y-108210000D02*
X167740000Y-105070000D01*
X180040000Y-110070000D02*
X180040000Y-112790000D01*
X180040000Y-100490000D02*
X180040000Y-103210000D01*
%TO.C,SW5*%
X193140000Y-100490000D02*
X205440000Y-100490000D01*
X205440000Y-105070000D02*
X205440000Y-108210000D01*
X205440000Y-112790000D02*
X193140000Y-112790000D01*
X193140000Y-103210000D02*
X193140000Y-100490000D01*
X203969050Y-106680000D02*
G75*
G03*
X203969050Y-106680000I-4579050J0D01*
G01*
X193140000Y-112790000D02*
X193140000Y-110070000D01*
X193140000Y-108210000D02*
X193140000Y-105070000D01*
X205440000Y-110070000D02*
X205440000Y-112790000D01*
X205440000Y-100490000D02*
X205440000Y-103210000D01*
%TO.C,SW4*%
X89000000Y-87790000D02*
X101300000Y-87790000D01*
X101300000Y-92370000D02*
X101300000Y-95510000D01*
X101300000Y-100090000D02*
X89000000Y-100090000D01*
X89000000Y-90510000D02*
X89000000Y-87790000D01*
X99829050Y-93980000D02*
G75*
G03*
X99829050Y-93980000I-4579050J0D01*
G01*
X89000000Y-100090000D02*
X89000000Y-97370000D01*
X89000000Y-95510000D02*
X89000000Y-92370000D01*
X101300000Y-97370000D02*
X101300000Y-100090000D01*
X101300000Y-87790000D02*
X101300000Y-90510000D01*
%TO.C,SW3*%
X101700000Y-100490000D02*
X114000000Y-100490000D01*
X114000000Y-105070000D02*
X114000000Y-108210000D01*
X114000000Y-112790000D02*
X101700000Y-112790000D01*
X101700000Y-103210000D02*
X101700000Y-100490000D01*
X112529050Y-106680000D02*
G75*
G03*
X112529050Y-106680000I-4579050J0D01*
G01*
X101700000Y-112790000D02*
X101700000Y-110070000D01*
X101700000Y-108210000D02*
X101700000Y-105070000D01*
X114000000Y-110070000D02*
X114000000Y-112790000D01*
X114000000Y-100490000D02*
X114000000Y-103210000D01*
%TO.C,SW2*%
X76300000Y-100490000D02*
X88600000Y-100490000D01*
X88600000Y-105070000D02*
X88600000Y-108210000D01*
X88600000Y-112790000D02*
X76300000Y-112790000D01*
X76300000Y-103210000D02*
X76300000Y-100490000D01*
X87129050Y-106680000D02*
G75*
G03*
X87129050Y-106680000I-4579050J0D01*
G01*
X76300000Y-112790000D02*
X76300000Y-110070000D01*
X76300000Y-108210000D02*
X76300000Y-105070000D01*
X88600000Y-110070000D02*
X88600000Y-112790000D01*
X88600000Y-100490000D02*
X88600000Y-103210000D01*
%TO.C,SW1*%
X89000000Y-113190000D02*
X101300000Y-113190000D01*
X101300000Y-117770000D02*
X101300000Y-120910000D01*
X101300000Y-125490000D02*
X89000000Y-125490000D01*
X89000000Y-115910000D02*
X89000000Y-113190000D01*
X99829050Y-119380000D02*
G75*
G03*
X99829050Y-119380000I-4579050J0D01*
G01*
X89000000Y-125490000D02*
X89000000Y-122770000D01*
X89000000Y-120910000D02*
X89000000Y-117770000D01*
X101300000Y-122770000D02*
X101300000Y-125490000D01*
X101300000Y-113190000D02*
X101300000Y-115910000D01*
D16*
%TO.C,G\u002A\u002A\u002A*%
G36*
X140132999Y-82372805D02*
G01*
X140218564Y-82372838D01*
X140296998Y-82372898D01*
X140368636Y-82372989D01*
X140433815Y-82373110D01*
X140492872Y-82373263D01*
X140546143Y-82373449D01*
X140593965Y-82373669D01*
X140636674Y-82373926D01*
X140674607Y-82374219D01*
X140708099Y-82374551D01*
X140737488Y-82374922D01*
X140763111Y-82375334D01*
X140785302Y-82375788D01*
X140804400Y-82376284D01*
X140820740Y-82376826D01*
X140834659Y-82377413D01*
X140846493Y-82378047D01*
X140856579Y-82378729D01*
X140865254Y-82379461D01*
X140868400Y-82379767D01*
X140996277Y-82397741D01*
X141121413Y-82425369D01*
X141243363Y-82462406D01*
X141361680Y-82508609D01*
X141475919Y-82563735D01*
X141585635Y-82627538D01*
X141690382Y-82699777D01*
X141789713Y-82780206D01*
X141883183Y-82868582D01*
X141970347Y-82964661D01*
X141996872Y-82997040D01*
X142072547Y-83099748D01*
X142139448Y-83207149D01*
X142197501Y-83318689D01*
X142246632Y-83433813D01*
X142286766Y-83551965D01*
X142317830Y-83672591D01*
X142339749Y-83795136D01*
X142352449Y-83919045D01*
X142355856Y-84043764D01*
X142349895Y-84168737D01*
X142334493Y-84293409D01*
X142309575Y-84417227D01*
X142275067Y-84539634D01*
X142230895Y-84660076D01*
X142222076Y-84681121D01*
X142167510Y-84796099D01*
X142104403Y-84905995D01*
X142033234Y-85010391D01*
X141954483Y-85108869D01*
X141868629Y-85201010D01*
X141776152Y-85286396D01*
X141677532Y-85364609D01*
X141573246Y-85435229D01*
X141463777Y-85497839D01*
X141349602Y-85552021D01*
X141231201Y-85597355D01*
X141140180Y-85625225D01*
X141115443Y-85632015D01*
X141093799Y-85637840D01*
X141074267Y-85642772D01*
X141055868Y-85646879D01*
X141037621Y-85650233D01*
X141018546Y-85652901D01*
X140997664Y-85654955D01*
X140973993Y-85656465D01*
X140946554Y-85657499D01*
X140914366Y-85658129D01*
X140876450Y-85658424D01*
X140831825Y-85658453D01*
X140779511Y-85658287D01*
X140718529Y-85657996D01*
X140682980Y-85657818D01*
X140373100Y-85656285D01*
X140299913Y-85636878D01*
X140172624Y-85598600D01*
X140052289Y-85553077D01*
X139938598Y-85500171D01*
X139831246Y-85439742D01*
X139763500Y-85395523D01*
X139730853Y-85372041D01*
X139694041Y-85344031D01*
X139655714Y-85313626D01*
X139618523Y-85282959D01*
X139585117Y-85254164D01*
X139563838Y-85234795D01*
X139523321Y-85196680D01*
X138855328Y-85196680D01*
X138817478Y-85230970D01*
X138715699Y-85317638D01*
X138612395Y-85394480D01*
X138507027Y-85461781D01*
X138399055Y-85519824D01*
X138287941Y-85568896D01*
X138173144Y-85609281D01*
X138054126Y-85641264D01*
X138032122Y-85646171D01*
X137972972Y-85658960D01*
X137671896Y-85658595D01*
X137370820Y-85658231D01*
X137314940Y-85645418D01*
X137189514Y-85611590D01*
X137068350Y-85568782D01*
X136951826Y-85517352D01*
X136840321Y-85457659D01*
X136734214Y-85390062D01*
X136633884Y-85314919D01*
X136539710Y-85232590D01*
X136452070Y-85143433D01*
X136371344Y-85047806D01*
X136297910Y-84946068D01*
X136232147Y-84838579D01*
X136174434Y-84725696D01*
X136125151Y-84607778D01*
X136084674Y-84485185D01*
X136082894Y-84478958D01*
X136056333Y-84371848D01*
X136037021Y-84262403D01*
X136029353Y-84201026D01*
X136025759Y-84157193D01*
X136023518Y-84106532D01*
X136022589Y-84051444D01*
X136022742Y-84025740D01*
X136461711Y-84025740D01*
X136462128Y-84079737D01*
X136463732Y-84126330D01*
X136466831Y-84168238D01*
X136471730Y-84208179D01*
X136478737Y-84248869D01*
X136488159Y-84293028D01*
X136495245Y-84322920D01*
X136524148Y-84421111D01*
X136562505Y-84518321D01*
X136609619Y-84613189D01*
X136664792Y-84704360D01*
X136727324Y-84790475D01*
X136750017Y-84818220D01*
X136821052Y-84894881D01*
X136899313Y-84965334D01*
X136983834Y-85029059D01*
X137073650Y-85085533D01*
X137167795Y-85134236D01*
X137265305Y-85174646D01*
X137365212Y-85206242D01*
X137466551Y-85228503D01*
X137525760Y-85236949D01*
X137549128Y-85239616D01*
X137570704Y-85242087D01*
X137587089Y-85243973D01*
X137591800Y-85244519D01*
X137609080Y-85245590D01*
X137634327Y-85245923D01*
X137665380Y-85245599D01*
X137700079Y-85244702D01*
X137736265Y-85243311D01*
X137771776Y-85241509D01*
X137804453Y-85239377D01*
X137832135Y-85236998D01*
X137850880Y-85234729D01*
X137961046Y-85213400D01*
X138066485Y-85183215D01*
X138167743Y-85143943D01*
X138265369Y-85095355D01*
X138359909Y-85037220D01*
X138416605Y-84996740D01*
X138447657Y-84971963D01*
X138481765Y-84942349D01*
X138516980Y-84909791D01*
X138551350Y-84876185D01*
X138582924Y-84843424D01*
X138609752Y-84813403D01*
X138625580Y-84793832D01*
X138650980Y-84760384D01*
X139723168Y-84759800D01*
X139761114Y-84806123D01*
X139814842Y-84866301D01*
X139876407Y-84925774D01*
X139943555Y-84982629D01*
X140014034Y-85034955D01*
X140082198Y-85078829D01*
X140175931Y-85128684D01*
X140275415Y-85170388D01*
X140380087Y-85203747D01*
X140489382Y-85228569D01*
X140548360Y-85238110D01*
X140580408Y-85241388D01*
X140620028Y-85243558D01*
X140664693Y-85244644D01*
X140711878Y-85244667D01*
X140759057Y-85243650D01*
X140803704Y-85241615D01*
X140843293Y-85238584D01*
X140870940Y-85235263D01*
X140979898Y-85213926D01*
X141085492Y-85183310D01*
X141187199Y-85143796D01*
X141284497Y-85095766D01*
X141376866Y-85039601D01*
X141463783Y-84975683D01*
X141544725Y-84904394D01*
X141619173Y-84826115D01*
X141686603Y-84741227D01*
X141746494Y-84650113D01*
X141795445Y-84559140D01*
X141839447Y-84456860D01*
X141873715Y-84352282D01*
X141898257Y-84245983D01*
X141913084Y-84138545D01*
X141918204Y-84030545D01*
X141913627Y-83922564D01*
X141899362Y-83815179D01*
X141875418Y-83708972D01*
X141841805Y-83604520D01*
X141798533Y-83502404D01*
X141777783Y-83460929D01*
X141722696Y-83366475D01*
X141659750Y-83278051D01*
X141589524Y-83196040D01*
X141512595Y-83120827D01*
X141429540Y-83052798D01*
X141340936Y-82992335D01*
X141247362Y-82939824D01*
X141149394Y-82895650D01*
X141047610Y-82860197D01*
X140942588Y-82833850D01*
X140834905Y-82816993D01*
X140806718Y-82814227D01*
X140796777Y-82813629D01*
X140781202Y-82813075D01*
X140759766Y-82812564D01*
X140732239Y-82812097D01*
X140698394Y-82811671D01*
X140658000Y-82811288D01*
X140610829Y-82810946D01*
X140556653Y-82810644D01*
X140495243Y-82810383D01*
X140426370Y-82810161D01*
X140349805Y-82809978D01*
X140265320Y-82809834D01*
X140172686Y-82809727D01*
X140071674Y-82809658D01*
X139962056Y-82809625D01*
X139843602Y-82809629D01*
X139716084Y-82809668D01*
X139579273Y-82809742D01*
X139432941Y-82809851D01*
X139276859Y-82809993D01*
X139146280Y-82810130D01*
X138993598Y-82810290D01*
X138850729Y-82810430D01*
X138717322Y-82810556D01*
X138593029Y-82810677D01*
X138477502Y-82810799D01*
X138370391Y-82810929D01*
X138271349Y-82811076D01*
X138180026Y-82811246D01*
X138096074Y-82811447D01*
X138019145Y-82811686D01*
X137948890Y-82811971D01*
X137884959Y-82812308D01*
X137827005Y-82812705D01*
X137774679Y-82813170D01*
X137727632Y-82813710D01*
X137685516Y-82814332D01*
X137647982Y-82815043D01*
X137614681Y-82815852D01*
X137585265Y-82816764D01*
X137559385Y-82817788D01*
X137536693Y-82818931D01*
X137516840Y-82820200D01*
X137499476Y-82821603D01*
X137484255Y-82823146D01*
X137470827Y-82824838D01*
X137458843Y-82826685D01*
X137447955Y-82828696D01*
X137437814Y-82830876D01*
X137428071Y-82833234D01*
X137418379Y-82835777D01*
X137408387Y-82838513D01*
X137397749Y-82841448D01*
X137386115Y-82844590D01*
X137375172Y-82847432D01*
X137270660Y-82879116D01*
X137170289Y-82919799D01*
X137074536Y-82969003D01*
X136983880Y-83026249D01*
X136898800Y-83091058D01*
X136819773Y-83162953D01*
X136747279Y-83241454D01*
X136681795Y-83326083D01*
X136623801Y-83416362D01*
X136573775Y-83511813D01*
X136532195Y-83611956D01*
X136499540Y-83716314D01*
X136497210Y-83725292D01*
X136485731Y-83772544D01*
X136476911Y-83814985D01*
X136470436Y-83855260D01*
X136465994Y-83896015D01*
X136463272Y-83939897D01*
X136461958Y-83989553D01*
X136461711Y-84025740D01*
X136022742Y-84025740D01*
X136022929Y-83994332D01*
X136024497Y-83937598D01*
X136027252Y-83883644D01*
X136031152Y-83834872D01*
X136036156Y-83793684D01*
X136036429Y-83791899D01*
X136060820Y-83663243D01*
X136093388Y-83540240D01*
X136134461Y-83422124D01*
X136184368Y-83308132D01*
X136243437Y-83197498D01*
X136311996Y-83089459D01*
X136375641Y-83002120D01*
X136400912Y-82971247D01*
X136432344Y-82935805D01*
X136468159Y-82897570D01*
X136506582Y-82858319D01*
X136545838Y-82819826D01*
X136584149Y-82783868D01*
X136619741Y-82752220D01*
X136650838Y-82726659D01*
X136652000Y-82725761D01*
X136755718Y-82650937D01*
X136860927Y-82585587D01*
X136968618Y-82529284D01*
X137079783Y-82481602D01*
X137195416Y-82442115D01*
X137316509Y-82410398D01*
X137443337Y-82386138D01*
X137513060Y-82375029D01*
X139151360Y-82373414D01*
X139306091Y-82373265D01*
X139451000Y-82373134D01*
X139586421Y-82373023D01*
X139712692Y-82372933D01*
X139830149Y-82372865D01*
X139939128Y-82372820D01*
X140039966Y-82372800D01*
X140132999Y-82372805D01*
G37*
X140132999Y-82372805D02*
X140218564Y-82372838D01*
X140296998Y-82372898D01*
X140368636Y-82372989D01*
X140433815Y-82373110D01*
X140492872Y-82373263D01*
X140546143Y-82373449D01*
X140593965Y-82373669D01*
X140636674Y-82373926D01*
X140674607Y-82374219D01*
X140708099Y-82374551D01*
X140737488Y-82374922D01*
X140763111Y-82375334D01*
X140785302Y-82375788D01*
X140804400Y-82376284D01*
X140820740Y-82376826D01*
X140834659Y-82377413D01*
X140846493Y-82378047D01*
X140856579Y-82378729D01*
X140865254Y-82379461D01*
X140868400Y-82379767D01*
X140996277Y-82397741D01*
X141121413Y-82425369D01*
X141243363Y-82462406D01*
X141361680Y-82508609D01*
X141475919Y-82563735D01*
X141585635Y-82627538D01*
X141690382Y-82699777D01*
X141789713Y-82780206D01*
X141883183Y-82868582D01*
X141970347Y-82964661D01*
X141996872Y-82997040D01*
X142072547Y-83099748D01*
X142139448Y-83207149D01*
X142197501Y-83318689D01*
X142246632Y-83433813D01*
X142286766Y-83551965D01*
X142317830Y-83672591D01*
X142339749Y-83795136D01*
X142352449Y-83919045D01*
X142355856Y-84043764D01*
X142349895Y-84168737D01*
X142334493Y-84293409D01*
X142309575Y-84417227D01*
X142275067Y-84539634D01*
X142230895Y-84660076D01*
X142222076Y-84681121D01*
X142167510Y-84796099D01*
X142104403Y-84905995D01*
X142033234Y-85010391D01*
X141954483Y-85108869D01*
X141868629Y-85201010D01*
X141776152Y-85286396D01*
X141677532Y-85364609D01*
X141573246Y-85435229D01*
X141463777Y-85497839D01*
X141349602Y-85552021D01*
X141231201Y-85597355D01*
X141140180Y-85625225D01*
X141115443Y-85632015D01*
X141093799Y-85637840D01*
X141074267Y-85642772D01*
X141055868Y-85646879D01*
X141037621Y-85650233D01*
X141018546Y-85652901D01*
X140997664Y-85654955D01*
X140973993Y-85656465D01*
X140946554Y-85657499D01*
X140914366Y-85658129D01*
X140876450Y-85658424D01*
X140831825Y-85658453D01*
X140779511Y-85658287D01*
X140718529Y-85657996D01*
X140682980Y-85657818D01*
X140373100Y-85656285D01*
X140299913Y-85636878D01*
X140172624Y-85598600D01*
X140052289Y-85553077D01*
X139938598Y-85500171D01*
X139831246Y-85439742D01*
X139763500Y-85395523D01*
X139730853Y-85372041D01*
X139694041Y-85344031D01*
X139655714Y-85313626D01*
X139618523Y-85282959D01*
X139585117Y-85254164D01*
X139563838Y-85234795D01*
X139523321Y-85196680D01*
X138855328Y-85196680D01*
X138817478Y-85230970D01*
X138715699Y-85317638D01*
X138612395Y-85394480D01*
X138507027Y-85461781D01*
X138399055Y-85519824D01*
X138287941Y-85568896D01*
X138173144Y-85609281D01*
X138054126Y-85641264D01*
X138032122Y-85646171D01*
X137972972Y-85658960D01*
X137671896Y-85658595D01*
X137370820Y-85658231D01*
X137314940Y-85645418D01*
X137189514Y-85611590D01*
X137068350Y-85568782D01*
X136951826Y-85517352D01*
X136840321Y-85457659D01*
X136734214Y-85390062D01*
X136633884Y-85314919D01*
X136539710Y-85232590D01*
X136452070Y-85143433D01*
X136371344Y-85047806D01*
X136297910Y-84946068D01*
X136232147Y-84838579D01*
X136174434Y-84725696D01*
X136125151Y-84607778D01*
X136084674Y-84485185D01*
X136082894Y-84478958D01*
X136056333Y-84371848D01*
X136037021Y-84262403D01*
X136029353Y-84201026D01*
X136025759Y-84157193D01*
X136023518Y-84106532D01*
X136022589Y-84051444D01*
X136022742Y-84025740D01*
X136461711Y-84025740D01*
X136462128Y-84079737D01*
X136463732Y-84126330D01*
X136466831Y-84168238D01*
X136471730Y-84208179D01*
X136478737Y-84248869D01*
X136488159Y-84293028D01*
X136495245Y-84322920D01*
X136524148Y-84421111D01*
X136562505Y-84518321D01*
X136609619Y-84613189D01*
X136664792Y-84704360D01*
X136727324Y-84790475D01*
X136750017Y-84818220D01*
X136821052Y-84894881D01*
X136899313Y-84965334D01*
X136983834Y-85029059D01*
X137073650Y-85085533D01*
X137167795Y-85134236D01*
X137265305Y-85174646D01*
X137365212Y-85206242D01*
X137466551Y-85228503D01*
X137525760Y-85236949D01*
X137549128Y-85239616D01*
X137570704Y-85242087D01*
X137587089Y-85243973D01*
X137591800Y-85244519D01*
X137609080Y-85245590D01*
X137634327Y-85245923D01*
X137665380Y-85245599D01*
X137700079Y-85244702D01*
X137736265Y-85243311D01*
X137771776Y-85241509D01*
X137804453Y-85239377D01*
X137832135Y-85236998D01*
X137850880Y-85234729D01*
X137961046Y-85213400D01*
X138066485Y-85183215D01*
X138167743Y-85143943D01*
X138265369Y-85095355D01*
X138359909Y-85037220D01*
X138416605Y-84996740D01*
X138447657Y-84971963D01*
X138481765Y-84942349D01*
X138516980Y-84909791D01*
X138551350Y-84876185D01*
X138582924Y-84843424D01*
X138609752Y-84813403D01*
X138625580Y-84793832D01*
X138650980Y-84760384D01*
X139723168Y-84759800D01*
X139761114Y-84806123D01*
X139814842Y-84866301D01*
X139876407Y-84925774D01*
X139943555Y-84982629D01*
X140014034Y-85034955D01*
X140082198Y-85078829D01*
X140175931Y-85128684D01*
X140275415Y-85170388D01*
X140380087Y-85203747D01*
X140489382Y-85228569D01*
X140548360Y-85238110D01*
X140580408Y-85241388D01*
X140620028Y-85243558D01*
X140664693Y-85244644D01*
X140711878Y-85244667D01*
X140759057Y-85243650D01*
X140803704Y-85241615D01*
X140843293Y-85238584D01*
X140870940Y-85235263D01*
X140979898Y-85213926D01*
X141085492Y-85183310D01*
X141187199Y-85143796D01*
X141284497Y-85095766D01*
X141376866Y-85039601D01*
X141463783Y-84975683D01*
X141544725Y-84904394D01*
X141619173Y-84826115D01*
X141686603Y-84741227D01*
X141746494Y-84650113D01*
X141795445Y-84559140D01*
X141839447Y-84456860D01*
X141873715Y-84352282D01*
X141898257Y-84245983D01*
X141913084Y-84138545D01*
X141918204Y-84030545D01*
X141913627Y-83922564D01*
X141899362Y-83815179D01*
X141875418Y-83708972D01*
X141841805Y-83604520D01*
X141798533Y-83502404D01*
X141777783Y-83460929D01*
X141722696Y-83366475D01*
X141659750Y-83278051D01*
X141589524Y-83196040D01*
X141512595Y-83120827D01*
X141429540Y-83052798D01*
X141340936Y-82992335D01*
X141247362Y-82939824D01*
X141149394Y-82895650D01*
X141047610Y-82860197D01*
X140942588Y-82833850D01*
X140834905Y-82816993D01*
X140806718Y-82814227D01*
X140796777Y-82813629D01*
X140781202Y-82813075D01*
X140759766Y-82812564D01*
X140732239Y-82812097D01*
X140698394Y-82811671D01*
X140658000Y-82811288D01*
X140610829Y-82810946D01*
X140556653Y-82810644D01*
X140495243Y-82810383D01*
X140426370Y-82810161D01*
X140349805Y-82809978D01*
X140265320Y-82809834D01*
X140172686Y-82809727D01*
X140071674Y-82809658D01*
X139962056Y-82809625D01*
X139843602Y-82809629D01*
X139716084Y-82809668D01*
X139579273Y-82809742D01*
X139432941Y-82809851D01*
X139276859Y-82809993D01*
X139146280Y-82810130D01*
X138993598Y-82810290D01*
X138850729Y-82810430D01*
X138717322Y-82810556D01*
X138593029Y-82810677D01*
X138477502Y-82810799D01*
X138370391Y-82810929D01*
X138271349Y-82811076D01*
X138180026Y-82811246D01*
X138096074Y-82811447D01*
X138019145Y-82811686D01*
X137948890Y-82811971D01*
X137884959Y-82812308D01*
X137827005Y-82812705D01*
X137774679Y-82813170D01*
X137727632Y-82813710D01*
X137685516Y-82814332D01*
X137647982Y-82815043D01*
X137614681Y-82815852D01*
X137585265Y-82816764D01*
X137559385Y-82817788D01*
X137536693Y-82818931D01*
X137516840Y-82820200D01*
X137499476Y-82821603D01*
X137484255Y-82823146D01*
X137470827Y-82824838D01*
X137458843Y-82826685D01*
X137447955Y-82828696D01*
X137437814Y-82830876D01*
X137428071Y-82833234D01*
X137418379Y-82835777D01*
X137408387Y-82838513D01*
X137397749Y-82841448D01*
X137386115Y-82844590D01*
X137375172Y-82847432D01*
X137270660Y-82879116D01*
X137170289Y-82919799D01*
X137074536Y-82969003D01*
X136983880Y-83026249D01*
X136898800Y-83091058D01*
X136819773Y-83162953D01*
X136747279Y-83241454D01*
X136681795Y-83326083D01*
X136623801Y-83416362D01*
X136573775Y-83511813D01*
X136532195Y-83611956D01*
X136499540Y-83716314D01*
X136497210Y-83725292D01*
X136485731Y-83772544D01*
X136476911Y-83814985D01*
X136470436Y-83855260D01*
X136465994Y-83896015D01*
X136463272Y-83939897D01*
X136461958Y-83989553D01*
X136461711Y-84025740D01*
X136022742Y-84025740D01*
X136022929Y-83994332D01*
X136024497Y-83937598D01*
X136027252Y-83883644D01*
X136031152Y-83834872D01*
X136036156Y-83793684D01*
X136036429Y-83791899D01*
X136060820Y-83663243D01*
X136093388Y-83540240D01*
X136134461Y-83422124D01*
X136184368Y-83308132D01*
X136243437Y-83197498D01*
X136311996Y-83089459D01*
X136375641Y-83002120D01*
X136400912Y-82971247D01*
X136432344Y-82935805D01*
X136468159Y-82897570D01*
X136506582Y-82858319D01*
X136545838Y-82819826D01*
X136584149Y-82783868D01*
X136619741Y-82752220D01*
X136650838Y-82726659D01*
X136652000Y-82725761D01*
X136755718Y-82650937D01*
X136860927Y-82585587D01*
X136968618Y-82529284D01*
X137079783Y-82481602D01*
X137195416Y-82442115D01*
X137316509Y-82410398D01*
X137443337Y-82386138D01*
X137513060Y-82375029D01*
X139151360Y-82373414D01*
X139306091Y-82373265D01*
X139451000Y-82373134D01*
X139586421Y-82373023D01*
X139712692Y-82372933D01*
X139830149Y-82372865D01*
X139939128Y-82372820D01*
X140039966Y-82372800D01*
X140132999Y-82372805D01*
G36*
X142367000Y-80497419D02*
G01*
X142364794Y-80547624D01*
X142358509Y-80604006D01*
X142348643Y-80663670D01*
X142335694Y-80723724D01*
X142320162Y-80781273D01*
X142315574Y-80796053D01*
X142278866Y-80894360D01*
X142233302Y-80988234D01*
X142179399Y-81077121D01*
X142117668Y-81160464D01*
X142048625Y-81237708D01*
X141972783Y-81308298D01*
X141890656Y-81371679D01*
X141802757Y-81427294D01*
X141709601Y-81474588D01*
X141673580Y-81489999D01*
X141629872Y-81507020D01*
X141588709Y-81521257D01*
X141547467Y-81533429D01*
X141503527Y-81544255D01*
X141454264Y-81554453D01*
X141407079Y-81563021D01*
X141399232Y-81564232D01*
X141389997Y-81565334D01*
X141378842Y-81566333D01*
X141365235Y-81567240D01*
X141348644Y-81568062D01*
X141328539Y-81568808D01*
X141304386Y-81569486D01*
X141275655Y-81570104D01*
X141241814Y-81570671D01*
X141202331Y-81571195D01*
X141156675Y-81571685D01*
X141104314Y-81572149D01*
X141044716Y-81572596D01*
X140977351Y-81573033D01*
X140901685Y-81573469D01*
X140817189Y-81573913D01*
X140723329Y-81574373D01*
X140672820Y-81574612D01*
X140574085Y-81575064D01*
X140484958Y-81575469D01*
X140404887Y-81575850D01*
X140333319Y-81576230D01*
X140269702Y-81576632D01*
X140213484Y-81577079D01*
X140164113Y-81577596D01*
X140121036Y-81578205D01*
X140083702Y-81578929D01*
X140051558Y-81579792D01*
X140024053Y-81580817D01*
X140000634Y-81582027D01*
X139980748Y-81583446D01*
X139963844Y-81585097D01*
X139949370Y-81587003D01*
X139936773Y-81589187D01*
X139925501Y-81591672D01*
X139915003Y-81594483D01*
X139904725Y-81597642D01*
X139894116Y-81601172D01*
X139882624Y-81605098D01*
X139873056Y-81608327D01*
X139797045Y-81638916D01*
X139725906Y-81678100D01*
X139660281Y-81725237D01*
X139600813Y-81779682D01*
X139548145Y-81840795D01*
X139502920Y-81907930D01*
X139465782Y-81980446D01*
X139443731Y-82037650D01*
X139430551Y-82081970D01*
X139420231Y-82126684D01*
X139413350Y-82168796D01*
X139410487Y-82205312D01*
X139410440Y-82209889D01*
X139410719Y-82220796D01*
X139410977Y-82229818D01*
X139410339Y-82237133D01*
X139407932Y-82242918D01*
X139402884Y-82247350D01*
X139394320Y-82250607D01*
X139381368Y-82252865D01*
X139363155Y-82254303D01*
X139338807Y-82255096D01*
X139307451Y-82255423D01*
X139268214Y-82255460D01*
X139220223Y-82255385D01*
X139186376Y-82255360D01*
X138968480Y-82255360D01*
X138968497Y-82233770D01*
X138968972Y-82219817D01*
X138970245Y-82198856D01*
X138972109Y-82173985D01*
X138973848Y-82153760D01*
X138988382Y-82049242D01*
X139012398Y-81947601D01*
X139045497Y-81849383D01*
X139087277Y-81755135D01*
X139137337Y-81665404D01*
X139195278Y-81580738D01*
X139260697Y-81501683D01*
X139333194Y-81428787D01*
X139412368Y-81362597D01*
X139497819Y-81303659D01*
X139589144Y-81252521D01*
X139657048Y-81221368D01*
X139713088Y-81200049D01*
X139775060Y-81180226D01*
X139838736Y-81163156D01*
X139890500Y-81151856D01*
X139898608Y-81150333D01*
X139906679Y-81148957D01*
X139915255Y-81147718D01*
X139924883Y-81146605D01*
X139936107Y-81145608D01*
X139949471Y-81144717D01*
X139965521Y-81143921D01*
X139984801Y-81143210D01*
X140007857Y-81142573D01*
X140035232Y-81142001D01*
X140067471Y-81141482D01*
X140105120Y-81141008D01*
X140148724Y-81140566D01*
X140198826Y-81140148D01*
X140255972Y-81139742D01*
X140320707Y-81139338D01*
X140393574Y-81138926D01*
X140475120Y-81138495D01*
X140565889Y-81138036D01*
X140637260Y-81137682D01*
X140737240Y-81137195D01*
X140827614Y-81136757D01*
X140908931Y-81136341D01*
X140981746Y-81135923D01*
X141046610Y-81135478D01*
X141104074Y-81134979D01*
X141154692Y-81134402D01*
X141199015Y-81133721D01*
X141237596Y-81132912D01*
X141270987Y-81131948D01*
X141299739Y-81130805D01*
X141324405Y-81129458D01*
X141345538Y-81127880D01*
X141363689Y-81126047D01*
X141379411Y-81123933D01*
X141393255Y-81121514D01*
X141405774Y-81118763D01*
X141417521Y-81115656D01*
X141429046Y-81112168D01*
X141440903Y-81108272D01*
X141453643Y-81103944D01*
X141466113Y-81099728D01*
X141541763Y-81069239D01*
X141612312Y-81030418D01*
X141677222Y-80983959D01*
X141735952Y-80930556D01*
X141787965Y-80870901D01*
X141832719Y-80805688D01*
X141869677Y-80735612D01*
X141898298Y-80661364D01*
X141918044Y-80583639D01*
X141928210Y-80505533D01*
X141931619Y-80457040D01*
X142367000Y-80457040D01*
X142367000Y-80497419D01*
G37*
X142367000Y-80497419D02*
X142364794Y-80547624D01*
X142358509Y-80604006D01*
X142348643Y-80663670D01*
X142335694Y-80723724D01*
X142320162Y-80781273D01*
X142315574Y-80796053D01*
X142278866Y-80894360D01*
X142233302Y-80988234D01*
X142179399Y-81077121D01*
X142117668Y-81160464D01*
X142048625Y-81237708D01*
X141972783Y-81308298D01*
X141890656Y-81371679D01*
X141802757Y-81427294D01*
X141709601Y-81474588D01*
X141673580Y-81489999D01*
X141629872Y-81507020D01*
X141588709Y-81521257D01*
X141547467Y-81533429D01*
X141503527Y-81544255D01*
X141454264Y-81554453D01*
X141407079Y-81563021D01*
X141399232Y-81564232D01*
X141389997Y-81565334D01*
X141378842Y-81566333D01*
X141365235Y-81567240D01*
X141348644Y-81568062D01*
X141328539Y-81568808D01*
X141304386Y-81569486D01*
X141275655Y-81570104D01*
X141241814Y-81570671D01*
X141202331Y-81571195D01*
X141156675Y-81571685D01*
X141104314Y-81572149D01*
X141044716Y-81572596D01*
X140977351Y-81573033D01*
X140901685Y-81573469D01*
X140817189Y-81573913D01*
X140723329Y-81574373D01*
X140672820Y-81574612D01*
X140574085Y-81575064D01*
X140484958Y-81575469D01*
X140404887Y-81575850D01*
X140333319Y-81576230D01*
X140269702Y-81576632D01*
X140213484Y-81577079D01*
X140164113Y-81577596D01*
X140121036Y-81578205D01*
X140083702Y-81578929D01*
X140051558Y-81579792D01*
X140024053Y-81580817D01*
X140000634Y-81582027D01*
X139980748Y-81583446D01*
X139963844Y-81585097D01*
X139949370Y-81587003D01*
X139936773Y-81589187D01*
X139925501Y-81591672D01*
X139915003Y-81594483D01*
X139904725Y-81597642D01*
X139894116Y-81601172D01*
X139882624Y-81605098D01*
X139873056Y-81608327D01*
X139797045Y-81638916D01*
X139725906Y-81678100D01*
X139660281Y-81725237D01*
X139600813Y-81779682D01*
X139548145Y-81840795D01*
X139502920Y-81907930D01*
X139465782Y-81980446D01*
X139443731Y-82037650D01*
X139430551Y-82081970D01*
X139420231Y-82126684D01*
X139413350Y-82168796D01*
X139410487Y-82205312D01*
X139410440Y-82209889D01*
X139410719Y-82220796D01*
X139410977Y-82229818D01*
X139410339Y-82237133D01*
X139407932Y-82242918D01*
X139402884Y-82247350D01*
X139394320Y-82250607D01*
X139381368Y-82252865D01*
X139363155Y-82254303D01*
X139338807Y-82255096D01*
X139307451Y-82255423D01*
X139268214Y-82255460D01*
X139220223Y-82255385D01*
X139186376Y-82255360D01*
X138968480Y-82255360D01*
X138968497Y-82233770D01*
X138968972Y-82219817D01*
X138970245Y-82198856D01*
X138972109Y-82173985D01*
X138973848Y-82153760D01*
X138988382Y-82049242D01*
X139012398Y-81947601D01*
X139045497Y-81849383D01*
X139087277Y-81755135D01*
X139137337Y-81665404D01*
X139195278Y-81580738D01*
X139260697Y-81501683D01*
X139333194Y-81428787D01*
X139412368Y-81362597D01*
X139497819Y-81303659D01*
X139589144Y-81252521D01*
X139657048Y-81221368D01*
X139713088Y-81200049D01*
X139775060Y-81180226D01*
X139838736Y-81163156D01*
X139890500Y-81151856D01*
X139898608Y-81150333D01*
X139906679Y-81148957D01*
X139915255Y-81147718D01*
X139924883Y-81146605D01*
X139936107Y-81145608D01*
X139949471Y-81144717D01*
X139965521Y-81143921D01*
X139984801Y-81143210D01*
X140007857Y-81142573D01*
X140035232Y-81142001D01*
X140067471Y-81141482D01*
X140105120Y-81141008D01*
X140148724Y-81140566D01*
X140198826Y-81140148D01*
X140255972Y-81139742D01*
X140320707Y-81139338D01*
X140393574Y-81138926D01*
X140475120Y-81138495D01*
X140565889Y-81138036D01*
X140637260Y-81137682D01*
X140737240Y-81137195D01*
X140827614Y-81136757D01*
X140908931Y-81136341D01*
X140981746Y-81135923D01*
X141046610Y-81135478D01*
X141104074Y-81134979D01*
X141154692Y-81134402D01*
X141199015Y-81133721D01*
X141237596Y-81132912D01*
X141270987Y-81131948D01*
X141299739Y-81130805D01*
X141324405Y-81129458D01*
X141345538Y-81127880D01*
X141363689Y-81126047D01*
X141379411Y-81123933D01*
X141393255Y-81121514D01*
X141405774Y-81118763D01*
X141417521Y-81115656D01*
X141429046Y-81112168D01*
X141440903Y-81108272D01*
X141453643Y-81103944D01*
X141466113Y-81099728D01*
X141541763Y-81069239D01*
X141612312Y-81030418D01*
X141677222Y-80983959D01*
X141735952Y-80930556D01*
X141787965Y-80870901D01*
X141832719Y-80805688D01*
X141869677Y-80735612D01*
X141898298Y-80661364D01*
X141918044Y-80583639D01*
X141928210Y-80505533D01*
X141931619Y-80457040D01*
X142367000Y-80457040D01*
X142367000Y-80497419D01*
G36*
X137722039Y-83294247D02*
G01*
X137756967Y-83294379D01*
X137784151Y-83294691D01*
X137804800Y-83295260D01*
X137820121Y-83296162D01*
X137831323Y-83297470D01*
X137839614Y-83299263D01*
X137846202Y-83301614D01*
X137852295Y-83304601D01*
X137853420Y-83305204D01*
X137870509Y-83316407D01*
X137887035Y-83330199D01*
X137889992Y-83333144D01*
X137897754Y-83341423D01*
X137904147Y-83349237D01*
X137909304Y-83357622D01*
X137913358Y-83367618D01*
X137916442Y-83380261D01*
X137918688Y-83396590D01*
X137920229Y-83417641D01*
X137921198Y-83444452D01*
X137921727Y-83478062D01*
X137921950Y-83519507D01*
X137921999Y-83569825D01*
X137922000Y-83583342D01*
X137922000Y-83778811D01*
X138118850Y-83780355D01*
X138168964Y-83780771D01*
X138209975Y-83781196D01*
X138242941Y-83781687D01*
X138268918Y-83782303D01*
X138288965Y-83783103D01*
X138304138Y-83784145D01*
X138315494Y-83785488D01*
X138324091Y-83787191D01*
X138330986Y-83789311D01*
X138337236Y-83791907D01*
X138338560Y-83792516D01*
X138362253Y-83807599D01*
X138383799Y-83828595D01*
X138400095Y-83852190D01*
X138405256Y-83863786D01*
X138407468Y-83872753D01*
X138409200Y-83886376D01*
X138410496Y-83905669D01*
X138411399Y-83931648D01*
X138411952Y-83965328D01*
X138412197Y-84007725D01*
X138412220Y-84028280D01*
X138412105Y-84075617D01*
X138411613Y-84114009D01*
X138410519Y-84144669D01*
X138408598Y-84168809D01*
X138405628Y-84187644D01*
X138401383Y-84202386D01*
X138395641Y-84214249D01*
X138388176Y-84224446D01*
X138378765Y-84234190D01*
X138373262Y-84239270D01*
X138364360Y-84247229D01*
X138356229Y-84253786D01*
X138347824Y-84259077D01*
X138338097Y-84263238D01*
X138326004Y-84266404D01*
X138310499Y-84268711D01*
X138290535Y-84270295D01*
X138265066Y-84271293D01*
X138233048Y-84271838D01*
X138193433Y-84272069D01*
X138145176Y-84272119D01*
X138120283Y-84272120D01*
X137922000Y-84272120D01*
X137922000Y-84470403D01*
X137921928Y-84523366D01*
X137921695Y-84567066D01*
X137921270Y-84602394D01*
X137920625Y-84630247D01*
X137919731Y-84651518D01*
X137918558Y-84667101D01*
X137917078Y-84677892D01*
X137915261Y-84684784D01*
X137915015Y-84685402D01*
X137899941Y-84710552D01*
X137877939Y-84733326D01*
X137852198Y-84750430D01*
X137851926Y-84750564D01*
X137844463Y-84754056D01*
X137837045Y-84756792D01*
X137828354Y-84758873D01*
X137817068Y-84760404D01*
X137801870Y-84761487D01*
X137781437Y-84762225D01*
X137754450Y-84762720D01*
X137719590Y-84763076D01*
X137688320Y-84763307D01*
X137650600Y-84763393D01*
X137615314Y-84763145D01*
X137584005Y-84762600D01*
X137558220Y-84761793D01*
X137539504Y-84760761D01*
X137529404Y-84759542D01*
X137500581Y-84749413D01*
X137476873Y-84733497D01*
X137466327Y-84723403D01*
X137458024Y-84714584D01*
X137451171Y-84706360D01*
X137445620Y-84697688D01*
X137441223Y-84687529D01*
X137437832Y-84674839D01*
X137435300Y-84658579D01*
X137433478Y-84637705D01*
X137432219Y-84611177D01*
X137431374Y-84577953D01*
X137430795Y-84536992D01*
X137430336Y-84487252D01*
X137430187Y-84468970D01*
X137428594Y-84272120D01*
X137233173Y-84272120D01*
X137180586Y-84272047D01*
X137137257Y-84271808D01*
X137102287Y-84271374D01*
X137074773Y-84270715D01*
X137053816Y-84269801D01*
X137038516Y-84268603D01*
X137027970Y-84267091D01*
X137021280Y-84265235D01*
X137021037Y-84265135D01*
X136998078Y-84251617D01*
X136975919Y-84231862D01*
X136958313Y-84209355D01*
X136955230Y-84204020D01*
X136952083Y-84197776D01*
X136949592Y-84191323D01*
X136947681Y-84183451D01*
X136946274Y-84172946D01*
X136945293Y-84158600D01*
X136944661Y-84139200D01*
X136944304Y-84113535D01*
X136944142Y-84080394D01*
X136944100Y-84038565D01*
X136944100Y-84028280D01*
X136944127Y-83984400D01*
X136944259Y-83949472D01*
X136944571Y-83922288D01*
X136945140Y-83901639D01*
X136946042Y-83886318D01*
X136947350Y-83875116D01*
X136949143Y-83866825D01*
X136951494Y-83860237D01*
X136954481Y-83854144D01*
X136955084Y-83853020D01*
X136974623Y-83825561D01*
X136999908Y-83802883D01*
X137020300Y-83791047D01*
X137026382Y-83788677D01*
X137033781Y-83786729D01*
X137043540Y-83785153D01*
X137056705Y-83783894D01*
X137074321Y-83782903D01*
X137097433Y-83782125D01*
X137127086Y-83781509D01*
X137164325Y-83781004D01*
X137210195Y-83780556D01*
X137234653Y-83780353D01*
X137428687Y-83778807D01*
X137430233Y-83584773D01*
X137430672Y-83534552D01*
X137431145Y-83493446D01*
X137431703Y-83460410D01*
X137432399Y-83434398D01*
X137433285Y-83414367D01*
X137434414Y-83399270D01*
X137435836Y-83388064D01*
X137437606Y-83379702D01*
X137439773Y-83373140D01*
X137440927Y-83370420D01*
X137458104Y-83342986D01*
X137482343Y-83318900D01*
X137502900Y-83305204D01*
X137509031Y-83302097D01*
X137515443Y-83299638D01*
X137523342Y-83297752D01*
X137533938Y-83296362D01*
X137548438Y-83295394D01*
X137568051Y-83294772D01*
X137593983Y-83294419D01*
X137627445Y-83294260D01*
X137669644Y-83294220D01*
X137678160Y-83294220D01*
X137722039Y-83294247D01*
G37*
X137722039Y-83294247D02*
X137756967Y-83294379D01*
X137784151Y-83294691D01*
X137804800Y-83295260D01*
X137820121Y-83296162D01*
X137831323Y-83297470D01*
X137839614Y-83299263D01*
X137846202Y-83301614D01*
X137852295Y-83304601D01*
X137853420Y-83305204D01*
X137870509Y-83316407D01*
X137887035Y-83330199D01*
X137889992Y-83333144D01*
X137897754Y-83341423D01*
X137904147Y-83349237D01*
X137909304Y-83357622D01*
X137913358Y-83367618D01*
X137916442Y-83380261D01*
X137918688Y-83396590D01*
X137920229Y-83417641D01*
X137921198Y-83444452D01*
X137921727Y-83478062D01*
X137921950Y-83519507D01*
X137921999Y-83569825D01*
X137922000Y-83583342D01*
X137922000Y-83778811D01*
X138118850Y-83780355D01*
X138168964Y-83780771D01*
X138209975Y-83781196D01*
X138242941Y-83781687D01*
X138268918Y-83782303D01*
X138288965Y-83783103D01*
X138304138Y-83784145D01*
X138315494Y-83785488D01*
X138324091Y-83787191D01*
X138330986Y-83789311D01*
X138337236Y-83791907D01*
X138338560Y-83792516D01*
X138362253Y-83807599D01*
X138383799Y-83828595D01*
X138400095Y-83852190D01*
X138405256Y-83863786D01*
X138407468Y-83872753D01*
X138409200Y-83886376D01*
X138410496Y-83905669D01*
X138411399Y-83931648D01*
X138411952Y-83965328D01*
X138412197Y-84007725D01*
X138412220Y-84028280D01*
X138412105Y-84075617D01*
X138411613Y-84114009D01*
X138410519Y-84144669D01*
X138408598Y-84168809D01*
X138405628Y-84187644D01*
X138401383Y-84202386D01*
X138395641Y-84214249D01*
X138388176Y-84224446D01*
X138378765Y-84234190D01*
X138373262Y-84239270D01*
X138364360Y-84247229D01*
X138356229Y-84253786D01*
X138347824Y-84259077D01*
X138338097Y-84263238D01*
X138326004Y-84266404D01*
X138310499Y-84268711D01*
X138290535Y-84270295D01*
X138265066Y-84271293D01*
X138233048Y-84271838D01*
X138193433Y-84272069D01*
X138145176Y-84272119D01*
X138120283Y-84272120D01*
X137922000Y-84272120D01*
X137922000Y-84470403D01*
X137921928Y-84523366D01*
X137921695Y-84567066D01*
X137921270Y-84602394D01*
X137920625Y-84630247D01*
X137919731Y-84651518D01*
X137918558Y-84667101D01*
X137917078Y-84677892D01*
X137915261Y-84684784D01*
X137915015Y-84685402D01*
X137899941Y-84710552D01*
X137877939Y-84733326D01*
X137852198Y-84750430D01*
X137851926Y-84750564D01*
X137844463Y-84754056D01*
X137837045Y-84756792D01*
X137828354Y-84758873D01*
X137817068Y-84760404D01*
X137801870Y-84761487D01*
X137781437Y-84762225D01*
X137754450Y-84762720D01*
X137719590Y-84763076D01*
X137688320Y-84763307D01*
X137650600Y-84763393D01*
X137615314Y-84763145D01*
X137584005Y-84762600D01*
X137558220Y-84761793D01*
X137539504Y-84760761D01*
X137529404Y-84759542D01*
X137500581Y-84749413D01*
X137476873Y-84733497D01*
X137466327Y-84723403D01*
X137458024Y-84714584D01*
X137451171Y-84706360D01*
X137445620Y-84697688D01*
X137441223Y-84687529D01*
X137437832Y-84674839D01*
X137435300Y-84658579D01*
X137433478Y-84637705D01*
X137432219Y-84611177D01*
X137431374Y-84577953D01*
X137430795Y-84536992D01*
X137430336Y-84487252D01*
X137430187Y-84468970D01*
X137428594Y-84272120D01*
X137233173Y-84272120D01*
X137180586Y-84272047D01*
X137137257Y-84271808D01*
X137102287Y-84271374D01*
X137074773Y-84270715D01*
X137053816Y-84269801D01*
X137038516Y-84268603D01*
X137027970Y-84267091D01*
X137021280Y-84265235D01*
X137021037Y-84265135D01*
X136998078Y-84251617D01*
X136975919Y-84231862D01*
X136958313Y-84209355D01*
X136955230Y-84204020D01*
X136952083Y-84197776D01*
X136949592Y-84191323D01*
X136947681Y-84183451D01*
X136946274Y-84172946D01*
X136945293Y-84158600D01*
X136944661Y-84139200D01*
X136944304Y-84113535D01*
X136944142Y-84080394D01*
X136944100Y-84038565D01*
X136944100Y-84028280D01*
X136944127Y-83984400D01*
X136944259Y-83949472D01*
X136944571Y-83922288D01*
X136945140Y-83901639D01*
X136946042Y-83886318D01*
X136947350Y-83875116D01*
X136949143Y-83866825D01*
X136951494Y-83860237D01*
X136954481Y-83854144D01*
X136955084Y-83853020D01*
X136974623Y-83825561D01*
X136999908Y-83802883D01*
X137020300Y-83791047D01*
X137026382Y-83788677D01*
X137033781Y-83786729D01*
X137043540Y-83785153D01*
X137056705Y-83783894D01*
X137074321Y-83782903D01*
X137097433Y-83782125D01*
X137127086Y-83781509D01*
X137164325Y-83781004D01*
X137210195Y-83780556D01*
X137234653Y-83780353D01*
X137428687Y-83778807D01*
X137430233Y-83584773D01*
X137430672Y-83534552D01*
X137431145Y-83493446D01*
X137431703Y-83460410D01*
X137432399Y-83434398D01*
X137433285Y-83414367D01*
X137434414Y-83399270D01*
X137435836Y-83388064D01*
X137437606Y-83379702D01*
X137439773Y-83373140D01*
X137440927Y-83370420D01*
X137458104Y-83342986D01*
X137482343Y-83318900D01*
X137502900Y-83305204D01*
X137509031Y-83302097D01*
X137515443Y-83299638D01*
X137523342Y-83297752D01*
X137533938Y-83296362D01*
X137548438Y-83295394D01*
X137568051Y-83294772D01*
X137593983Y-83294419D01*
X137627445Y-83294260D01*
X137669644Y-83294220D01*
X137678160Y-83294220D01*
X137722039Y-83294247D01*
G36*
X140746845Y-84276644D02*
G01*
X140791790Y-84289556D01*
X140831886Y-84309863D01*
X140866662Y-84336573D01*
X140895644Y-84368693D01*
X140918362Y-84405231D01*
X140934343Y-84445196D01*
X140943116Y-84487594D01*
X140944207Y-84531433D01*
X140937146Y-84575721D01*
X140921460Y-84619465D01*
X140896677Y-84661674D01*
X140888175Y-84672917D01*
X140856755Y-84704550D01*
X140818737Y-84729948D01*
X140776079Y-84748351D01*
X140730741Y-84759003D01*
X140684681Y-84761143D01*
X140665200Y-84759266D01*
X140618620Y-84747855D01*
X140576172Y-84728120D01*
X140538675Y-84701158D01*
X140506951Y-84668065D01*
X140481820Y-84629937D01*
X140464102Y-84587871D01*
X140454618Y-84542963D01*
X140454187Y-84496310D01*
X140456280Y-84480057D01*
X140469036Y-84431718D01*
X140490001Y-84388278D01*
X140518254Y-84350532D01*
X140552871Y-84319275D01*
X140592930Y-84295303D01*
X140637507Y-84279411D01*
X140685681Y-84272395D01*
X140697524Y-84272120D01*
X140746845Y-84276644D01*
G37*
X140746845Y-84276644D02*
X140791790Y-84289556D01*
X140831886Y-84309863D01*
X140866662Y-84336573D01*
X140895644Y-84368693D01*
X140918362Y-84405231D01*
X140934343Y-84445196D01*
X140943116Y-84487594D01*
X140944207Y-84531433D01*
X140937146Y-84575721D01*
X140921460Y-84619465D01*
X140896677Y-84661674D01*
X140888175Y-84672917D01*
X140856755Y-84704550D01*
X140818737Y-84729948D01*
X140776079Y-84748351D01*
X140730741Y-84759003D01*
X140684681Y-84761143D01*
X140665200Y-84759266D01*
X140618620Y-84747855D01*
X140576172Y-84728120D01*
X140538675Y-84701158D01*
X140506951Y-84668065D01*
X140481820Y-84629937D01*
X140464102Y-84587871D01*
X140454618Y-84542963D01*
X140454187Y-84496310D01*
X140456280Y-84480057D01*
X140469036Y-84431718D01*
X140490001Y-84388278D01*
X140518254Y-84350532D01*
X140552871Y-84319275D01*
X140592930Y-84295303D01*
X140637507Y-84279411D01*
X140685681Y-84272395D01*
X140697524Y-84272120D01*
X140746845Y-84276644D01*
G36*
X140279631Y-83792695D02*
G01*
X140317812Y-83807421D01*
X140358451Y-83832283D01*
X140392939Y-83864119D01*
X140420633Y-83901572D01*
X140440893Y-83943284D01*
X140453077Y-83987900D01*
X140456545Y-84034062D01*
X140450654Y-84080414D01*
X140449342Y-84085718D01*
X140432443Y-84131636D01*
X140407368Y-84173127D01*
X140375262Y-84208970D01*
X140337267Y-84237947D01*
X140294525Y-84258836D01*
X140283737Y-84262495D01*
X140251152Y-84269323D01*
X140213870Y-84271884D01*
X140176200Y-84270185D01*
X140142454Y-84264234D01*
X140135670Y-84262255D01*
X140092873Y-84243516D01*
X140054848Y-84216903D01*
X140022420Y-84183755D01*
X139996413Y-84145410D01*
X139977651Y-84103205D01*
X139966959Y-84058479D01*
X139965160Y-84012570D01*
X139967824Y-83989759D01*
X139980698Y-83942264D01*
X140001525Y-83899862D01*
X140029228Y-83863112D01*
X140062732Y-83832575D01*
X140100963Y-83808812D01*
X140142843Y-83792382D01*
X140187298Y-83783845D01*
X140233253Y-83783763D01*
X140279631Y-83792695D01*
G37*
X140279631Y-83792695D02*
X140317812Y-83807421D01*
X140358451Y-83832283D01*
X140392939Y-83864119D01*
X140420633Y-83901572D01*
X140440893Y-83943284D01*
X140453077Y-83987900D01*
X140456545Y-84034062D01*
X140450654Y-84080414D01*
X140449342Y-84085718D01*
X140432443Y-84131636D01*
X140407368Y-84173127D01*
X140375262Y-84208970D01*
X140337267Y-84237947D01*
X140294525Y-84258836D01*
X140283737Y-84262495D01*
X140251152Y-84269323D01*
X140213870Y-84271884D01*
X140176200Y-84270185D01*
X140142454Y-84264234D01*
X140135670Y-84262255D01*
X140092873Y-84243516D01*
X140054848Y-84216903D01*
X140022420Y-84183755D01*
X139996413Y-84145410D01*
X139977651Y-84103205D01*
X139966959Y-84058479D01*
X139965160Y-84012570D01*
X139967824Y-83989759D01*
X139980698Y-83942264D01*
X140001525Y-83899862D01*
X140029228Y-83863112D01*
X140062732Y-83832575D01*
X140100963Y-83808812D01*
X140142843Y-83792382D01*
X140187298Y-83783845D01*
X140233253Y-83783763D01*
X140279631Y-83792695D01*
G36*
X141218553Y-83784744D02*
G01*
X141262488Y-83794314D01*
X141304165Y-83811808D01*
X141342311Y-83837113D01*
X141375654Y-83870118D01*
X141392636Y-83893277D01*
X141414381Y-83933932D01*
X141427129Y-83975656D01*
X141431519Y-84020880D01*
X141431101Y-84040029D01*
X141426306Y-84082526D01*
X141415829Y-84119280D01*
X141398467Y-84153665D01*
X141382243Y-84177247D01*
X141352049Y-84209711D01*
X141315136Y-84237082D01*
X141274490Y-84257271D01*
X141261276Y-84261844D01*
X141230273Y-84268493D01*
X141194796Y-84271497D01*
X141159174Y-84270764D01*
X141127734Y-84266201D01*
X141122400Y-84264840D01*
X141077106Y-84247393D01*
X141037831Y-84222678D01*
X141004892Y-84191836D01*
X140978609Y-84156011D01*
X140959297Y-84116344D01*
X140947277Y-84073978D01*
X140942867Y-84030055D01*
X140946384Y-83985716D01*
X140958146Y-83942105D01*
X140978473Y-83900363D01*
X141007682Y-83861632D01*
X141009514Y-83859653D01*
X141045663Y-83827931D01*
X141085913Y-83804691D01*
X141128993Y-83789821D01*
X141173630Y-83783209D01*
X141218553Y-83784744D01*
G37*
X141218553Y-83784744D02*
X141262488Y-83794314D01*
X141304165Y-83811808D01*
X141342311Y-83837113D01*
X141375654Y-83870118D01*
X141392636Y-83893277D01*
X141414381Y-83933932D01*
X141427129Y-83975656D01*
X141431519Y-84020880D01*
X141431101Y-84040029D01*
X141426306Y-84082526D01*
X141415829Y-84119280D01*
X141398467Y-84153665D01*
X141382243Y-84177247D01*
X141352049Y-84209711D01*
X141315136Y-84237082D01*
X141274490Y-84257271D01*
X141261276Y-84261844D01*
X141230273Y-84268493D01*
X141194796Y-84271497D01*
X141159174Y-84270764D01*
X141127734Y-84266201D01*
X141122400Y-84264840D01*
X141077106Y-84247393D01*
X141037831Y-84222678D01*
X141004892Y-84191836D01*
X140978609Y-84156011D01*
X140959297Y-84116344D01*
X140947277Y-84073978D01*
X140942867Y-84030055D01*
X140946384Y-83985716D01*
X140958146Y-83942105D01*
X140978473Y-83900363D01*
X141007682Y-83861632D01*
X141009514Y-83859653D01*
X141045663Y-83827931D01*
X141085913Y-83804691D01*
X141128993Y-83789821D01*
X141173630Y-83783209D01*
X141218553Y-83784744D01*
G36*
X140724865Y-83295355D02*
G01*
X140742943Y-83298292D01*
X140789137Y-83311499D01*
X140828953Y-83331425D01*
X140864470Y-83359161D01*
X140870907Y-83365407D01*
X140903403Y-83404603D01*
X140926626Y-83447326D01*
X140940445Y-83492673D01*
X140944730Y-83539739D01*
X140939350Y-83587623D01*
X140924176Y-83635419D01*
X140913169Y-83658455D01*
X140890277Y-83692010D01*
X140859760Y-83722943D01*
X140824128Y-83749335D01*
X140785893Y-83769265D01*
X140755208Y-83779246D01*
X140727731Y-83783114D01*
X140695715Y-83783862D01*
X140663563Y-83781646D01*
X140635675Y-83776617D01*
X140629640Y-83774860D01*
X140593669Y-83761079D01*
X140563791Y-83744197D01*
X140535956Y-83721751D01*
X140525169Y-83711349D01*
X140494218Y-83673612D01*
X140471568Y-83631353D01*
X140457692Y-83586024D01*
X140453060Y-83539078D01*
X140456582Y-83499878D01*
X140469648Y-83453268D01*
X140490750Y-83411132D01*
X140518793Y-83374238D01*
X140552686Y-83343356D01*
X140591333Y-83319258D01*
X140633641Y-83302711D01*
X140678516Y-83294487D01*
X140724865Y-83295355D01*
G37*
X140724865Y-83295355D02*
X140742943Y-83298292D01*
X140789137Y-83311499D01*
X140828953Y-83331425D01*
X140864470Y-83359161D01*
X140870907Y-83365407D01*
X140903403Y-83404603D01*
X140926626Y-83447326D01*
X140940445Y-83492673D01*
X140944730Y-83539739D01*
X140939350Y-83587623D01*
X140924176Y-83635419D01*
X140913169Y-83658455D01*
X140890277Y-83692010D01*
X140859760Y-83722943D01*
X140824128Y-83749335D01*
X140785893Y-83769265D01*
X140755208Y-83779246D01*
X140727731Y-83783114D01*
X140695715Y-83783862D01*
X140663563Y-83781646D01*
X140635675Y-83776617D01*
X140629640Y-83774860D01*
X140593669Y-83761079D01*
X140563791Y-83744197D01*
X140535956Y-83721751D01*
X140525169Y-83711349D01*
X140494218Y-83673612D01*
X140471568Y-83631353D01*
X140457692Y-83586024D01*
X140453060Y-83539078D01*
X140456582Y-83499878D01*
X140469648Y-83453268D01*
X140490750Y-83411132D01*
X140518793Y-83374238D01*
X140552686Y-83343356D01*
X140591333Y-83319258D01*
X140633641Y-83302711D01*
X140678516Y-83294487D01*
X140724865Y-83295355D01*
D15*
%TO.C,J3*%
X139252000Y-97476000D02*
X136592000Y-97476000D01*
X139252000Y-100076000D02*
X139252000Y-97476000D01*
X136592000Y-100076000D02*
X136592000Y-97476000D01*
X139252000Y-100076000D02*
X136592000Y-100076000D01*
X139252000Y-101346000D02*
X139252000Y-102676000D01*
X139252000Y-102676000D02*
X137922000Y-102676000D01*
%TO.C,J2*%
X151070000Y-89535000D02*
X151640000Y-89535000D01*
X153160000Y-89535000D02*
X153730000Y-89535000D01*
X151070000Y-89535000D02*
X151070000Y-118805000D01*
X151070000Y-118805000D02*
X152092470Y-118805000D01*
X152707530Y-118805000D02*
X153730000Y-118805000D01*
X153730000Y-89535000D02*
X153730000Y-118805000D01*
X153730000Y-88140000D02*
X153730000Y-88900000D01*
X152400000Y-88140000D02*
X153730000Y-88140000D01*
%TO.C,J1*%
X128210000Y-89535000D02*
X128780000Y-89535000D01*
X130300000Y-89535000D02*
X130870000Y-89535000D01*
X128210000Y-89535000D02*
X128210000Y-108645000D01*
X128210000Y-108645000D02*
X129232470Y-108645000D01*
X129847530Y-108645000D02*
X130870000Y-108645000D01*
X130870000Y-89535000D02*
X130870000Y-108645000D01*
X130870000Y-88140000D02*
X130870000Y-88900000D01*
X129540000Y-88140000D02*
X130870000Y-88140000D01*
%TD*%
M02*
