M48
; DRILL file {KiCad (5.1.8)-1} date 11/23/20 02:20:38
; FORMAT={-:-/ absolute / inch / decimal}
; #@! TF.CreationDate,2020-11-23T02:20:38+03:00
; #@! TF.GenerationSoftware,Kicad,Pcbnew,(5.1.8)-1
; #@! TF.FileFunction,Plated,1,2,PTH
FMAT,2
INCH
T1C0.0118
T2C0.0276
T3C0.0394
T4C0.0512
%
G90
G05
T1
X4.3281Y-3.7007
X4.3925Y-3.6099
X4.6717Y-3.8028
X4.8755Y-3.0948
X5.265Y-3.4213
X5.4334Y-3.182
X5.5117Y-4.43
X5.5763Y-3.1635
X5.5953Y-3.2979
X5.6185Y-4.1183
X5.6196Y-3.7001
X5.6205Y-3.5166
X5.626Y-3.9424
X5.636Y-2.8284
X5.6385Y-3.2672
X5.6506Y-3.623
X5.6753Y-3.1554
X5.7059Y-3.7215
X5.7176Y-2.9667
X5.7413Y-3.83
X5.7471Y-3.7307
X5.7674Y-3.8575
X5.7746Y-3.4294
X5.7796Y-2.6715
X5.7831Y-3.3037
X5.7854Y-3.6816
X5.7872Y-3.8825
X5.7872Y-4.0791
X5.7875Y-2.7846
X5.7919Y-3.4816
X5.7998Y-2.5626
X5.815Y-3.1305
X5.8158Y-2.7027
X5.84Y-3.796
X5.8572Y-3.4336
X5.9589Y-3.62
X5.9589Y-3.82
X5.9679Y-3.9459
X6.0022Y-3.3823
X6.0601Y-2.6362
X6.0918Y-3.9491
X6.1535Y-3.7911
X6.1624Y-3.357
X6.1624Y-3.4879
X6.1624Y-3.574
X6.3Y-2.6291
T2
X4.25Y-3.25
X4.25Y-3.3
X4.25Y-3.35
X4.25Y-3.4
X4.25Y-3.45
X4.25Y-3.5
X4.25Y-3.55
X4.25Y-3.6
X4.25Y-3.65
X4.25Y-3.7
X4.25Y-3.75
X4.25Y-3.8
X4.25Y-3.85
X4.25Y-3.9
X4.25Y-3.95
X4.25Y-4.0
X4.25Y-4.05
X4.25Y-4.1
X4.25Y-4.15
X4.25Y-4.2
X4.25Y-4.25
X4.25Y-4.3
X4.25Y-4.35
X4.25Y-4.4
X3.35Y-3.25
X3.35Y-3.3
X3.35Y-3.35
X3.35Y-3.4
X3.35Y-3.45
X3.35Y-3.5
X3.35Y-3.55
X3.35Y-3.6
X3.35Y-3.65
X3.35Y-3.7
X3.35Y-3.75
X3.35Y-3.8
X3.35Y-3.85
X3.35Y-3.9
X3.35Y-3.95
X3.35Y-4.0
T3
X4.77Y-3.37
X4.77Y-3.47
X6.25Y-3.12
X6.25Y-3.22
X6.25Y-3.32
X6.25Y-3.42
X6.25Y-3.52
X6.25Y-3.62
X6.25Y-3.72
X6.25Y-3.82
X6.25Y-3.92
X6.25Y-4.02
X6.25Y-4.12
X5.82Y-2.35
X5.92Y-2.35
X6.02Y-2.35
X6.12Y-2.35
X6.22Y-2.35
X6.32Y-2.35
X4.77Y-2.35
X4.87Y-2.35
X6.35Y-3.12
X6.35Y-3.22
X6.35Y-3.32
X6.35Y-3.42
X6.35Y-3.52
X6.35Y-3.62
X6.35Y-3.72
X6.35Y-3.82
X6.35Y-3.92
X6.35Y-4.02
X6.35Y-4.12
X3.1Y-2.45
X3.1Y-2.55
X3.1Y-2.65
X3.1Y-2.75
X3.1Y-2.85
X3.1Y-2.95
X3.1Y-3.05
X3.1Y-3.15
X3.1Y-3.25
X3.1Y-3.35
X3.1Y-3.45
X3.1Y-3.55
X3.1Y-3.65
X3.1Y-3.75
X3.1Y-3.85
X3.1Y-3.95
X5.12Y-2.35
X5.22Y-2.35
X5.32Y-2.35
X5.42Y-2.35
X5.5Y-3.27
X5.5Y-3.37
X5.5Y-3.47
X5.5Y-3.57
X5.5Y-3.67
X5.5Y-3.77
X5.5Y-3.87
X5.5Y-3.97
X5.5Y-4.07
X5.5Y-4.17
X4.55Y-2.45
X4.55Y-2.55
X4.55Y-2.65
X4.55Y-2.75
X4.55Y-2.85
X4.55Y-2.95
X4.55Y-3.05
X4.55Y-3.15
X4.55Y-3.25
X4.55Y-3.35
X4.55Y-3.45
X4.55Y-3.55
X4.55Y-3.65
X4.55Y-3.75
X4.55Y-3.85
X4.55Y-3.95
X4.55Y-4.05
X4.55Y-4.15
X4.55Y-4.25
X4.55Y-4.35
X4.55Y-4.45
X4.55Y-4.55
X4.55Y-4.65
X4.55Y-4.75
T4
X4.78Y-4.55
X4.78Y-4.7469
X5.2721Y-4.55
X5.2721Y-4.7469
X5.65Y-4.5531
X5.65Y-4.75
X6.1421Y-4.5531
X6.1421Y-4.75
T0
M30
