%TF.GenerationSoftware,KiCad,Pcbnew,(5.1.8)-1*%
%TF.CreationDate,2020-11-23T02:20:36+03:00*%
%TF.ProjectId,morphesp240_g850_interface,6d6f7270-6865-4737-9032-34305f673835,1.0*%
%TF.SameCoordinates,Original*%
%TF.FileFunction,Soldermask,Top*%
%TF.FilePolarity,Negative*%
%FSLAX46Y46*%
G04 Gerber Fmt 4.6, Leading zero omitted, Abs format (unit mm)*
G04 Created by KiCad (PCBNEW (5.1.8)-1) date 2020-11-23 02:20:36*
%MOMM*%
%LPD*%
G01*
G04 APERTURE LIST*
%ADD10C,0.010000*%
%ADD11C,0.100000*%
%ADD12O,3.048000X1.850000*%
%ADD13R,0.900000X0.800000*%
%ADD14O,1.700000X1.700000*%
%ADD15R,1.700000X1.700000*%
%ADD16O,1.000000X1.000000*%
%ADD17R,1.000000X1.000000*%
G04 APERTURE END LIST*
D10*
%TO.C,G\u002A\u002A\u002A*%
G36*
X91961027Y-64532998D02*
G01*
X92048785Y-64556516D01*
X92128012Y-64597533D01*
X92196763Y-64654471D01*
X92253090Y-64725747D01*
X92295048Y-64809781D01*
X92319085Y-64895926D01*
X92323988Y-64977425D01*
X92310568Y-65060984D01*
X92280761Y-65142508D01*
X92236505Y-65217902D01*
X92179737Y-65283069D01*
X92112394Y-65333916D01*
X92111727Y-65334306D01*
X92029899Y-65370498D01*
X91940096Y-65389773D01*
X91847825Y-65391540D01*
X91758596Y-65375209D01*
X91751249Y-65372942D01*
X91666721Y-65335510D01*
X91593469Y-65282219D01*
X91533342Y-65215772D01*
X91488190Y-65138871D01*
X91459864Y-65054220D01*
X91450213Y-64964521D01*
X91450510Y-64957069D01*
X91586111Y-64957069D01*
X91590799Y-65025400D01*
X91606399Y-65081778D01*
X91635217Y-65133600D01*
X91645528Y-65147724D01*
X91697377Y-65199047D01*
X91761117Y-65235791D01*
X91832388Y-65256957D01*
X91906833Y-65261544D01*
X91980091Y-65248551D01*
X92018708Y-65233353D01*
X92083801Y-65191462D01*
X92133297Y-65138230D01*
X92167203Y-65076630D01*
X92185527Y-65009635D01*
X92188277Y-64940219D01*
X92175461Y-64871353D01*
X92147086Y-64806012D01*
X92103160Y-64747168D01*
X92043691Y-64697793D01*
X92017280Y-64682271D01*
X91967838Y-64665088D01*
X91907646Y-64657380D01*
X91844890Y-64659146D01*
X91787754Y-64670386D01*
X91758456Y-64682264D01*
X91687565Y-64729226D01*
X91635713Y-64785171D01*
X91602428Y-64850851D01*
X91587240Y-64927018D01*
X91586111Y-64957069D01*
X91450510Y-64957069D01*
X91451400Y-64934812D01*
X91462824Y-64853739D01*
X91485309Y-64785450D01*
X91521791Y-64723597D01*
X91575205Y-64661832D01*
X91579812Y-64657189D01*
X91640581Y-64603069D01*
X91700134Y-64565811D01*
X91764861Y-64542552D01*
X91841151Y-64530425D01*
X91866686Y-64528562D01*
X91961027Y-64532998D01*
G37*
X91961027Y-64532998D02*
X92048785Y-64556516D01*
X92128012Y-64597533D01*
X92196763Y-64654471D01*
X92253090Y-64725747D01*
X92295048Y-64809781D01*
X92319085Y-64895926D01*
X92323988Y-64977425D01*
X92310568Y-65060984D01*
X92280761Y-65142508D01*
X92236505Y-65217902D01*
X92179737Y-65283069D01*
X92112394Y-65333916D01*
X92111727Y-65334306D01*
X92029899Y-65370498D01*
X91940096Y-65389773D01*
X91847825Y-65391540D01*
X91758596Y-65375209D01*
X91751249Y-65372942D01*
X91666721Y-65335510D01*
X91593469Y-65282219D01*
X91533342Y-65215772D01*
X91488190Y-65138871D01*
X91459864Y-65054220D01*
X91450213Y-64964521D01*
X91450510Y-64957069D01*
X91586111Y-64957069D01*
X91590799Y-65025400D01*
X91606399Y-65081778D01*
X91635217Y-65133600D01*
X91645528Y-65147724D01*
X91697377Y-65199047D01*
X91761117Y-65235791D01*
X91832388Y-65256957D01*
X91906833Y-65261544D01*
X91980091Y-65248551D01*
X92018708Y-65233353D01*
X92083801Y-65191462D01*
X92133297Y-65138230D01*
X92167203Y-65076630D01*
X92185527Y-65009635D01*
X92188277Y-64940219D01*
X92175461Y-64871353D01*
X92147086Y-64806012D01*
X92103160Y-64747168D01*
X92043691Y-64697793D01*
X92017280Y-64682271D01*
X91967838Y-64665088D01*
X91907646Y-64657380D01*
X91844890Y-64659146D01*
X91787754Y-64670386D01*
X91758456Y-64682264D01*
X91687565Y-64729226D01*
X91635713Y-64785171D01*
X91602428Y-64850851D01*
X91587240Y-64927018D01*
X91586111Y-64957069D01*
X91450510Y-64957069D01*
X91451400Y-64934812D01*
X91462824Y-64853739D01*
X91485309Y-64785450D01*
X91521791Y-64723597D01*
X91575205Y-64661832D01*
X91579812Y-64657189D01*
X91640581Y-64603069D01*
X91700134Y-64565811D01*
X91764861Y-64542552D01*
X91841151Y-64530425D01*
X91866686Y-64528562D01*
X91961027Y-64532998D01*
G36*
X101043605Y-65103577D02*
G01*
X101070437Y-65108260D01*
X101217744Y-65139409D01*
X101360113Y-65178622D01*
X101495103Y-65224821D01*
X101620273Y-65276923D01*
X101733184Y-65333850D01*
X101831395Y-65394521D01*
X101912465Y-65457855D01*
X101954566Y-65499663D01*
X102001479Y-65558314D01*
X102031756Y-65613405D01*
X102047811Y-65670622D01*
X102052097Y-65729350D01*
X102051145Y-65771153D01*
X102047165Y-65798481D01*
X102038474Y-65817993D01*
X102025627Y-65833945D01*
X101993187Y-65860838D01*
X101954541Y-65881364D01*
X101918594Y-65891025D01*
X101912149Y-65891251D01*
X101889249Y-65886814D01*
X101861517Y-65876961D01*
X101821599Y-65854106D01*
X101779883Y-65818747D01*
X101733717Y-65768398D01*
X101697717Y-65723404D01*
X101589922Y-65599048D01*
X101464732Y-65482955D01*
X101325052Y-65377359D01*
X101173787Y-65284493D01*
X101040967Y-65218435D01*
X100995743Y-65197801D01*
X100966660Y-65182842D01*
X100950331Y-65171041D01*
X100943371Y-65159879D01*
X100942393Y-65146839D01*
X100942504Y-65145204D01*
X100945973Y-65120396D01*
X100954277Y-65104851D01*
X100970957Y-65097548D01*
X100999553Y-65097464D01*
X101043605Y-65103577D01*
G37*
X101043605Y-65103577D02*
X101070437Y-65108260D01*
X101217744Y-65139409D01*
X101360113Y-65178622D01*
X101495103Y-65224821D01*
X101620273Y-65276923D01*
X101733184Y-65333850D01*
X101831395Y-65394521D01*
X101912465Y-65457855D01*
X101954566Y-65499663D01*
X102001479Y-65558314D01*
X102031756Y-65613405D01*
X102047811Y-65670622D01*
X102052097Y-65729350D01*
X102051145Y-65771153D01*
X102047165Y-65798481D01*
X102038474Y-65817993D01*
X102025627Y-65833945D01*
X101993187Y-65860838D01*
X101954541Y-65881364D01*
X101918594Y-65891025D01*
X101912149Y-65891251D01*
X101889249Y-65886814D01*
X101861517Y-65876961D01*
X101821599Y-65854106D01*
X101779883Y-65818747D01*
X101733717Y-65768398D01*
X101697717Y-65723404D01*
X101589922Y-65599048D01*
X101464732Y-65482955D01*
X101325052Y-65377359D01*
X101173787Y-65284493D01*
X101040967Y-65218435D01*
X100995743Y-65197801D01*
X100966660Y-65182842D01*
X100950331Y-65171041D01*
X100943371Y-65159879D01*
X100942393Y-65146839D01*
X100942504Y-65145204D01*
X100945973Y-65120396D01*
X100954277Y-65104851D01*
X100970957Y-65097548D01*
X100999553Y-65097464D01*
X101043605Y-65103577D01*
G36*
X91454173Y-66369250D02*
G01*
X91605979Y-66460050D01*
X91742574Y-66556154D01*
X91869909Y-66662120D01*
X91993935Y-66782507D01*
X91994516Y-66783111D01*
X92087084Y-66887840D01*
X92159076Y-66988385D01*
X92210622Y-67084990D01*
X92241850Y-67177902D01*
X92252893Y-67267365D01*
X92252915Y-67270505D01*
X92247768Y-67337889D01*
X92232426Y-67391547D01*
X92207727Y-67429219D01*
X92188826Y-67443177D01*
X92145287Y-67455983D01*
X92096144Y-67456091D01*
X92052338Y-67443581D01*
X92049683Y-67442196D01*
X92024704Y-67421940D01*
X91999197Y-67387141D01*
X91972066Y-67335921D01*
X91942213Y-67266399D01*
X91932251Y-67240881D01*
X91864227Y-67086320D01*
X91780181Y-66937156D01*
X91678001Y-66789776D01*
X91639341Y-66740166D01*
X91588250Y-66679674D01*
X91529876Y-66616047D01*
X91468457Y-66553500D01*
X91408235Y-66496244D01*
X91353450Y-66448492D01*
X91318770Y-66421658D01*
X91291761Y-66401289D01*
X91273506Y-66385497D01*
X91268478Y-66378984D01*
X91275427Y-66368236D01*
X91292998Y-66348804D01*
X91303298Y-66338520D01*
X91338117Y-66304772D01*
X91454173Y-66369250D01*
G37*
X91454173Y-66369250D02*
X91605979Y-66460050D01*
X91742574Y-66556154D01*
X91869909Y-66662120D01*
X91993935Y-66782507D01*
X91994516Y-66783111D01*
X92087084Y-66887840D01*
X92159076Y-66988385D01*
X92210622Y-67084990D01*
X92241850Y-67177902D01*
X92252893Y-67267365D01*
X92252915Y-67270505D01*
X92247768Y-67337889D01*
X92232426Y-67391547D01*
X92207727Y-67429219D01*
X92188826Y-67443177D01*
X92145287Y-67455983D01*
X92096144Y-67456091D01*
X92052338Y-67443581D01*
X92049683Y-67442196D01*
X92024704Y-67421940D01*
X91999197Y-67387141D01*
X91972066Y-67335921D01*
X91942213Y-67266399D01*
X91932251Y-67240881D01*
X91864227Y-67086320D01*
X91780181Y-66937156D01*
X91678001Y-66789776D01*
X91639341Y-66740166D01*
X91588250Y-66679674D01*
X91529876Y-66616047D01*
X91468457Y-66553500D01*
X91408235Y-66496244D01*
X91353450Y-66448492D01*
X91318770Y-66421658D01*
X91291761Y-66401289D01*
X91273506Y-66385497D01*
X91268478Y-66378984D01*
X91275427Y-66368236D01*
X91292998Y-66348804D01*
X91303298Y-66338520D01*
X91338117Y-66304772D01*
X91454173Y-66369250D01*
G36*
X89913247Y-66498092D02*
G01*
X89905810Y-66663848D01*
X89883348Y-66814968D01*
X89845631Y-66951963D01*
X89792431Y-67075346D01*
X89723519Y-67185628D01*
X89638665Y-67283320D01*
X89537643Y-67368935D01*
X89517417Y-67383314D01*
X89444803Y-67425612D01*
X89368345Y-67456022D01*
X89292632Y-67473417D01*
X89222251Y-67476671D01*
X89172105Y-67468107D01*
X89138443Y-67452728D01*
X89106849Y-67430428D01*
X89104968Y-67428702D01*
X89086807Y-67408988D01*
X89078985Y-67389480D01*
X89078688Y-67361170D01*
X89079786Y-67348110D01*
X89091350Y-67302147D01*
X89117894Y-67265750D01*
X89161669Y-67236525D01*
X89199801Y-67220467D01*
X89329579Y-67165335D01*
X89441730Y-67099545D01*
X89537606Y-67021836D01*
X89618555Y-66930948D01*
X89685927Y-66825622D01*
X89734584Y-66721168D01*
X89752140Y-66671695D01*
X89769460Y-66613183D01*
X89785075Y-66551757D01*
X89797516Y-66493540D01*
X89805314Y-66444654D01*
X89807231Y-66418406D01*
X89808720Y-66401155D01*
X89816613Y-66392551D01*
X89836374Y-66389599D01*
X89860308Y-66389290D01*
X89913247Y-66389290D01*
X89913247Y-66498092D01*
G37*
X89913247Y-66498092D02*
X89905810Y-66663848D01*
X89883348Y-66814968D01*
X89845631Y-66951963D01*
X89792431Y-67075346D01*
X89723519Y-67185628D01*
X89638665Y-67283320D01*
X89537643Y-67368935D01*
X89517417Y-67383314D01*
X89444803Y-67425612D01*
X89368345Y-67456022D01*
X89292632Y-67473417D01*
X89222251Y-67476671D01*
X89172105Y-67468107D01*
X89138443Y-67452728D01*
X89106849Y-67430428D01*
X89104968Y-67428702D01*
X89086807Y-67408988D01*
X89078985Y-67389480D01*
X89078688Y-67361170D01*
X89079786Y-67348110D01*
X89091350Y-67302147D01*
X89117894Y-67265750D01*
X89161669Y-67236525D01*
X89199801Y-67220467D01*
X89329579Y-67165335D01*
X89441730Y-67099545D01*
X89537606Y-67021836D01*
X89618555Y-66930948D01*
X89685927Y-66825622D01*
X89734584Y-66721168D01*
X89752140Y-66671695D01*
X89769460Y-66613183D01*
X89785075Y-66551757D01*
X89797516Y-66493540D01*
X89805314Y-66444654D01*
X89807231Y-66418406D01*
X89808720Y-66401155D01*
X89816613Y-66392551D01*
X89836374Y-66389599D01*
X89860308Y-66389290D01*
X89913247Y-66389290D01*
X89913247Y-66498092D01*
G36*
X97173539Y-65233440D02*
G01*
X97186333Y-65254749D01*
X97186861Y-65255997D01*
X97205681Y-65285935D01*
X97237371Y-65321322D01*
X97276459Y-65357023D01*
X97317475Y-65387901D01*
X97344355Y-65403870D01*
X97375989Y-65419128D01*
X97406583Y-65431363D01*
X97438816Y-65440843D01*
X97475366Y-65447834D01*
X97518910Y-65452604D01*
X97572127Y-65455421D01*
X97637695Y-65456552D01*
X97718291Y-65456263D01*
X97816593Y-65454824D01*
X97848762Y-65454229D01*
X98072593Y-65448341D01*
X98310828Y-65439057D01*
X98557025Y-65426699D01*
X98804741Y-65411589D01*
X99040736Y-65394582D01*
X99127515Y-65387534D01*
X99196231Y-65380981D01*
X99249962Y-65374171D01*
X99291784Y-65366349D01*
X99324773Y-65356765D01*
X99352005Y-65344665D01*
X99376559Y-65329296D01*
X99401509Y-65309907D01*
X99407568Y-65304850D01*
X99446183Y-65276514D01*
X99479483Y-65264272D01*
X99514599Y-65267088D01*
X99556937Y-65283133D01*
X99609466Y-65311046D01*
X99662553Y-65345994D01*
X99712968Y-65385069D01*
X99757481Y-65425368D01*
X99792864Y-65463984D01*
X99815888Y-65498013D01*
X99823376Y-65522839D01*
X99813239Y-65557806D01*
X99784599Y-65588964D01*
X99745472Y-65611145D01*
X99706611Y-65633778D01*
X99681234Y-65666056D01*
X99665330Y-65711674D01*
X99661951Y-65732171D01*
X99656947Y-65771318D01*
X99650578Y-65826675D01*
X99643106Y-65895799D01*
X99634789Y-65976250D01*
X99625887Y-66065588D01*
X99616662Y-66161370D01*
X99611175Y-66219886D01*
X99597584Y-66365453D01*
X99585564Y-66492134D01*
X99574881Y-66602142D01*
X99565298Y-66697687D01*
X99556582Y-66780984D01*
X99548496Y-66854243D01*
X99540806Y-66919677D01*
X99533277Y-66979499D01*
X99525673Y-67035920D01*
X99520764Y-67070542D01*
X99514370Y-67117124D01*
X99509769Y-67155201D01*
X99507449Y-67180391D01*
X99507615Y-67188380D01*
X99518162Y-67194377D01*
X99542045Y-67206851D01*
X99567579Y-67219816D01*
X99623415Y-67253397D01*
X99671827Y-67293018D01*
X99708568Y-67334619D01*
X99729390Y-67374135D01*
X99729590Y-67374792D01*
X99735174Y-67414740D01*
X99723842Y-67444605D01*
X99694382Y-67465977D01*
X99649651Y-67479626D01*
X99624653Y-67484309D01*
X99601896Y-67486693D01*
X99577277Y-67486395D01*
X99546690Y-67483032D01*
X99506033Y-67476222D01*
X99451200Y-67465583D01*
X99410454Y-67457337D01*
X99327786Y-67444529D01*
X99226016Y-67435651D01*
X99106846Y-67430693D01*
X98971980Y-67429644D01*
X98823120Y-67432491D01*
X98661970Y-67439223D01*
X98490232Y-67449829D01*
X98309610Y-67464297D01*
X98304035Y-67464794D01*
X98126238Y-67482101D01*
X97969399Y-67500360D01*
X97833551Y-67519566D01*
X97718730Y-67539712D01*
X97624972Y-67560793D01*
X97552313Y-67582802D01*
X97517867Y-67596915D01*
X97445790Y-67622214D01*
X97377864Y-67627550D01*
X97311387Y-67612995D01*
X97287611Y-67603051D01*
X97226767Y-67566373D01*
X97167180Y-67515852D01*
X97112979Y-67456299D01*
X97068293Y-67392529D01*
X97037250Y-67329353D01*
X97028490Y-67300995D01*
X97021784Y-67263985D01*
X97022762Y-67231821D01*
X97031866Y-67192756D01*
X97032678Y-67189943D01*
X97046607Y-67153204D01*
X97065485Y-67117424D01*
X97085870Y-67087902D01*
X97104318Y-67069940D01*
X97112612Y-67066906D01*
X97121289Y-67075666D01*
X97135491Y-67098477D01*
X97149915Y-67125972D01*
X97192248Y-67195042D01*
X97244545Y-67247317D01*
X97309352Y-67284631D01*
X97389214Y-67308817D01*
X97408975Y-67312545D01*
X97424953Y-67314797D01*
X97444268Y-67316439D01*
X97468380Y-67317414D01*
X97498750Y-67317661D01*
X97536837Y-67317122D01*
X97584103Y-67315739D01*
X97642006Y-67313452D01*
X97712008Y-67310202D01*
X97795569Y-67305932D01*
X97894149Y-67300581D01*
X98009208Y-67294092D01*
X98142206Y-67286406D01*
X98294604Y-67277462D01*
X98325463Y-67275641D01*
X98494934Y-67265520D01*
X98644066Y-67256376D01*
X98773670Y-67248150D01*
X98884556Y-67240782D01*
X98977536Y-67234212D01*
X99053421Y-67228380D01*
X99113021Y-67223226D01*
X99157148Y-67218691D01*
X99186613Y-67214714D01*
X99202226Y-67211236D01*
X99203049Y-67210917D01*
X99232292Y-67192077D01*
X99244986Y-67165824D01*
X99250199Y-67132656D01*
X99256479Y-67080651D01*
X99263644Y-67012108D01*
X99271515Y-66929328D01*
X99279912Y-66834611D01*
X99288653Y-66730260D01*
X99297560Y-66618573D01*
X99306450Y-66501852D01*
X99315144Y-66382397D01*
X99323462Y-66262509D01*
X99331223Y-66144489D01*
X99338247Y-66030637D01*
X99344353Y-65923254D01*
X99348130Y-65850228D01*
X99360837Y-65591741D01*
X99335810Y-65571475D01*
X99321260Y-65561814D01*
X99303756Y-65556426D01*
X99278065Y-65554707D01*
X99238952Y-65556054D01*
X99215038Y-65557534D01*
X98992682Y-65572509D01*
X98790485Y-65586755D01*
X98607444Y-65600379D01*
X98442560Y-65613488D01*
X98294830Y-65626186D01*
X98163254Y-65638580D01*
X98046831Y-65650776D01*
X97944559Y-65662880D01*
X97855437Y-65674998D01*
X97778466Y-65687237D01*
X97712642Y-65699701D01*
X97656966Y-65712498D01*
X97610436Y-65725733D01*
X97602439Y-65728342D01*
X97554614Y-65743407D01*
X97511389Y-65755414D01*
X97478415Y-65762881D01*
X97464230Y-65764613D01*
X97419470Y-65755648D01*
X97368403Y-65730867D01*
X97314093Y-65693445D01*
X97259607Y-65646554D01*
X97208009Y-65593366D01*
X97162365Y-65537056D01*
X97125741Y-65480795D01*
X97101203Y-65427757D01*
X97091814Y-65381115D01*
X97091797Y-65379116D01*
X97096228Y-65333593D01*
X97107898Y-65290528D01*
X97124621Y-65254811D01*
X97144208Y-65231331D01*
X97160915Y-65224638D01*
X97173539Y-65233440D01*
G37*
X97173539Y-65233440D02*
X97186333Y-65254749D01*
X97186861Y-65255997D01*
X97205681Y-65285935D01*
X97237371Y-65321322D01*
X97276459Y-65357023D01*
X97317475Y-65387901D01*
X97344355Y-65403870D01*
X97375989Y-65419128D01*
X97406583Y-65431363D01*
X97438816Y-65440843D01*
X97475366Y-65447834D01*
X97518910Y-65452604D01*
X97572127Y-65455421D01*
X97637695Y-65456552D01*
X97718291Y-65456263D01*
X97816593Y-65454824D01*
X97848762Y-65454229D01*
X98072593Y-65448341D01*
X98310828Y-65439057D01*
X98557025Y-65426699D01*
X98804741Y-65411589D01*
X99040736Y-65394582D01*
X99127515Y-65387534D01*
X99196231Y-65380981D01*
X99249962Y-65374171D01*
X99291784Y-65366349D01*
X99324773Y-65356765D01*
X99352005Y-65344665D01*
X99376559Y-65329296D01*
X99401509Y-65309907D01*
X99407568Y-65304850D01*
X99446183Y-65276514D01*
X99479483Y-65264272D01*
X99514599Y-65267088D01*
X99556937Y-65283133D01*
X99609466Y-65311046D01*
X99662553Y-65345994D01*
X99712968Y-65385069D01*
X99757481Y-65425368D01*
X99792864Y-65463984D01*
X99815888Y-65498013D01*
X99823376Y-65522839D01*
X99813239Y-65557806D01*
X99784599Y-65588964D01*
X99745472Y-65611145D01*
X99706611Y-65633778D01*
X99681234Y-65666056D01*
X99665330Y-65711674D01*
X99661951Y-65732171D01*
X99656947Y-65771318D01*
X99650578Y-65826675D01*
X99643106Y-65895799D01*
X99634789Y-65976250D01*
X99625887Y-66065588D01*
X99616662Y-66161370D01*
X99611175Y-66219886D01*
X99597584Y-66365453D01*
X99585564Y-66492134D01*
X99574881Y-66602142D01*
X99565298Y-66697687D01*
X99556582Y-66780984D01*
X99548496Y-66854243D01*
X99540806Y-66919677D01*
X99533277Y-66979499D01*
X99525673Y-67035920D01*
X99520764Y-67070542D01*
X99514370Y-67117124D01*
X99509769Y-67155201D01*
X99507449Y-67180391D01*
X99507615Y-67188380D01*
X99518162Y-67194377D01*
X99542045Y-67206851D01*
X99567579Y-67219816D01*
X99623415Y-67253397D01*
X99671827Y-67293018D01*
X99708568Y-67334619D01*
X99729390Y-67374135D01*
X99729590Y-67374792D01*
X99735174Y-67414740D01*
X99723842Y-67444605D01*
X99694382Y-67465977D01*
X99649651Y-67479626D01*
X99624653Y-67484309D01*
X99601896Y-67486693D01*
X99577277Y-67486395D01*
X99546690Y-67483032D01*
X99506033Y-67476222D01*
X99451200Y-67465583D01*
X99410454Y-67457337D01*
X99327786Y-67444529D01*
X99226016Y-67435651D01*
X99106846Y-67430693D01*
X98971980Y-67429644D01*
X98823120Y-67432491D01*
X98661970Y-67439223D01*
X98490232Y-67449829D01*
X98309610Y-67464297D01*
X98304035Y-67464794D01*
X98126238Y-67482101D01*
X97969399Y-67500360D01*
X97833551Y-67519566D01*
X97718730Y-67539712D01*
X97624972Y-67560793D01*
X97552313Y-67582802D01*
X97517867Y-67596915D01*
X97445790Y-67622214D01*
X97377864Y-67627550D01*
X97311387Y-67612995D01*
X97287611Y-67603051D01*
X97226767Y-67566373D01*
X97167180Y-67515852D01*
X97112979Y-67456299D01*
X97068293Y-67392529D01*
X97037250Y-67329353D01*
X97028490Y-67300995D01*
X97021784Y-67263985D01*
X97022762Y-67231821D01*
X97031866Y-67192756D01*
X97032678Y-67189943D01*
X97046607Y-67153204D01*
X97065485Y-67117424D01*
X97085870Y-67087902D01*
X97104318Y-67069940D01*
X97112612Y-67066906D01*
X97121289Y-67075666D01*
X97135491Y-67098477D01*
X97149915Y-67125972D01*
X97192248Y-67195042D01*
X97244545Y-67247317D01*
X97309352Y-67284631D01*
X97389214Y-67308817D01*
X97408975Y-67312545D01*
X97424953Y-67314797D01*
X97444268Y-67316439D01*
X97468380Y-67317414D01*
X97498750Y-67317661D01*
X97536837Y-67317122D01*
X97584103Y-67315739D01*
X97642006Y-67313452D01*
X97712008Y-67310202D01*
X97795569Y-67305932D01*
X97894149Y-67300581D01*
X98009208Y-67294092D01*
X98142206Y-67286406D01*
X98294604Y-67277462D01*
X98325463Y-67275641D01*
X98494934Y-67265520D01*
X98644066Y-67256376D01*
X98773670Y-67248150D01*
X98884556Y-67240782D01*
X98977536Y-67234212D01*
X99053421Y-67228380D01*
X99113021Y-67223226D01*
X99157148Y-67218691D01*
X99186613Y-67214714D01*
X99202226Y-67211236D01*
X99203049Y-67210917D01*
X99232292Y-67192077D01*
X99244986Y-67165824D01*
X99250199Y-67132656D01*
X99256479Y-67080651D01*
X99263644Y-67012108D01*
X99271515Y-66929328D01*
X99279912Y-66834611D01*
X99288653Y-66730260D01*
X99297560Y-66618573D01*
X99306450Y-66501852D01*
X99315144Y-66382397D01*
X99323462Y-66262509D01*
X99331223Y-66144489D01*
X99338247Y-66030637D01*
X99344353Y-65923254D01*
X99348130Y-65850228D01*
X99360837Y-65591741D01*
X99335810Y-65571475D01*
X99321260Y-65561814D01*
X99303756Y-65556426D01*
X99278065Y-65554707D01*
X99238952Y-65556054D01*
X99215038Y-65557534D01*
X98992682Y-65572509D01*
X98790485Y-65586755D01*
X98607444Y-65600379D01*
X98442560Y-65613488D01*
X98294830Y-65626186D01*
X98163254Y-65638580D01*
X98046831Y-65650776D01*
X97944559Y-65662880D01*
X97855437Y-65674998D01*
X97778466Y-65687237D01*
X97712642Y-65699701D01*
X97656966Y-65712498D01*
X97610436Y-65725733D01*
X97602439Y-65728342D01*
X97554614Y-65743407D01*
X97511389Y-65755414D01*
X97478415Y-65762881D01*
X97464230Y-65764613D01*
X97419470Y-65755648D01*
X97368403Y-65730867D01*
X97314093Y-65693445D01*
X97259607Y-65646554D01*
X97208009Y-65593366D01*
X97162365Y-65537056D01*
X97125741Y-65480795D01*
X97101203Y-65427757D01*
X97091814Y-65381115D01*
X97091797Y-65379116D01*
X97096228Y-65333593D01*
X97107898Y-65290528D01*
X97124621Y-65254811D01*
X97144208Y-65231331D01*
X97160915Y-65224638D01*
X97173539Y-65233440D01*
G36*
X103939995Y-65358198D02*
G01*
X103965710Y-65374559D01*
X103981722Y-65386721D01*
X103984360Y-65390160D01*
X103979860Y-65401027D01*
X103967431Y-65427468D01*
X103948683Y-65466147D01*
X103925225Y-65513731D01*
X103909279Y-65545729D01*
X103763891Y-65812777D01*
X103600679Y-66068614D01*
X103419992Y-66312900D01*
X103222177Y-66545296D01*
X103007581Y-66765464D01*
X102776551Y-66973064D01*
X102529436Y-67167758D01*
X102266583Y-67349206D01*
X101988339Y-67517070D01*
X101766257Y-67635625D01*
X101694697Y-67672529D01*
X101638928Y-67703177D01*
X101595349Y-67729808D01*
X101560354Y-67754665D01*
X101530340Y-67779989D01*
X101522738Y-67787088D01*
X101479176Y-67826988D01*
X101445452Y-67852928D01*
X101417290Y-67866734D01*
X101390414Y-67870231D01*
X101360546Y-67865242D01*
X101348012Y-67861652D01*
X101282037Y-67833630D01*
X101212015Y-67789847D01*
X101143139Y-67733597D01*
X101136988Y-67727860D01*
X101066610Y-67653306D01*
X101015798Y-67581183D01*
X100984707Y-67512090D01*
X100973496Y-67446626D01*
X100982320Y-67385389D01*
X101011338Y-67328979D01*
X101027306Y-67309360D01*
X101065445Y-67267145D01*
X101095685Y-67330151D01*
X101137698Y-67397962D01*
X101189590Y-67447613D01*
X101250598Y-67478574D01*
X101319958Y-67490318D01*
X101327258Y-67490415D01*
X101380582Y-67484314D01*
X101449000Y-67466646D01*
X101530524Y-67438360D01*
X101623169Y-67400408D01*
X101724949Y-67353741D01*
X101833879Y-67299309D01*
X101947971Y-67238064D01*
X102065240Y-67170956D01*
X102183701Y-67098936D01*
X102295615Y-67026779D01*
X102463340Y-66910795D01*
X102623249Y-66790252D01*
X102779487Y-66661714D01*
X102936198Y-66521747D01*
X103097525Y-66366913D01*
X103127417Y-66337156D01*
X103272907Y-66187022D01*
X103402739Y-66042899D01*
X103519973Y-65900900D01*
X103627670Y-65757138D01*
X103728891Y-65607726D01*
X103825835Y-65450241D01*
X103895630Y-65331742D01*
X103939995Y-65358198D01*
G37*
X103939995Y-65358198D02*
X103965710Y-65374559D01*
X103981722Y-65386721D01*
X103984360Y-65390160D01*
X103979860Y-65401027D01*
X103967431Y-65427468D01*
X103948683Y-65466147D01*
X103925225Y-65513731D01*
X103909279Y-65545729D01*
X103763891Y-65812777D01*
X103600679Y-66068614D01*
X103419992Y-66312900D01*
X103222177Y-66545296D01*
X103007581Y-66765464D01*
X102776551Y-66973064D01*
X102529436Y-67167758D01*
X102266583Y-67349206D01*
X101988339Y-67517070D01*
X101766257Y-67635625D01*
X101694697Y-67672529D01*
X101638928Y-67703177D01*
X101595349Y-67729808D01*
X101560354Y-67754665D01*
X101530340Y-67779989D01*
X101522738Y-67787088D01*
X101479176Y-67826988D01*
X101445452Y-67852928D01*
X101417290Y-67866734D01*
X101390414Y-67870231D01*
X101360546Y-67865242D01*
X101348012Y-67861652D01*
X101282037Y-67833630D01*
X101212015Y-67789847D01*
X101143139Y-67733597D01*
X101136988Y-67727860D01*
X101066610Y-67653306D01*
X101015798Y-67581183D01*
X100984707Y-67512090D01*
X100973496Y-67446626D01*
X100982320Y-67385389D01*
X101011338Y-67328979D01*
X101027306Y-67309360D01*
X101065445Y-67267145D01*
X101095685Y-67330151D01*
X101137698Y-67397962D01*
X101189590Y-67447613D01*
X101250598Y-67478574D01*
X101319958Y-67490318D01*
X101327258Y-67490415D01*
X101380582Y-67484314D01*
X101449000Y-67466646D01*
X101530524Y-67438360D01*
X101623169Y-67400408D01*
X101724949Y-67353741D01*
X101833879Y-67299309D01*
X101947971Y-67238064D01*
X102065240Y-67170956D01*
X102183701Y-67098936D01*
X102295615Y-67026779D01*
X102463340Y-66910795D01*
X102623249Y-66790252D01*
X102779487Y-66661714D01*
X102936198Y-66521747D01*
X103097525Y-66366913D01*
X103127417Y-66337156D01*
X103272907Y-66187022D01*
X103402739Y-66042899D01*
X103519973Y-65900900D01*
X103627670Y-65757138D01*
X103728891Y-65607726D01*
X103825835Y-65450241D01*
X103895630Y-65331742D01*
X103939995Y-65358198D01*
G36*
X90504239Y-64805249D02*
G01*
X90582909Y-64820883D01*
X90659897Y-64844883D01*
X90730518Y-64876204D01*
X90790086Y-64913800D01*
X90811462Y-64931942D01*
X90850288Y-64974532D01*
X90870912Y-65014498D01*
X90873902Y-65056238D01*
X90859828Y-65104147D01*
X90839103Y-65145549D01*
X90801474Y-65212836D01*
X90789921Y-65446601D01*
X90786749Y-65514595D01*
X90784284Y-65575110D01*
X90782623Y-65625078D01*
X90781860Y-65661431D01*
X90782092Y-65681102D01*
X90782552Y-65683699D01*
X90794271Y-65684168D01*
X90823764Y-65682996D01*
X90867714Y-65680441D01*
X90922804Y-65676763D01*
X90985718Y-65672219D01*
X91053138Y-65667069D01*
X91121749Y-65661570D01*
X91188233Y-65655983D01*
X91249274Y-65650564D01*
X91301555Y-65645574D01*
X91341761Y-65641270D01*
X91363768Y-65638375D01*
X91446649Y-65622075D01*
X91511424Y-65601759D01*
X91560956Y-65576385D01*
X91585378Y-65557554D01*
X91609151Y-65538271D01*
X91632047Y-65526701D01*
X91658540Y-65522603D01*
X91693104Y-65525734D01*
X91740213Y-65535853D01*
X91782696Y-65546868D01*
X91873770Y-65574979D01*
X91950676Y-65606260D01*
X92012501Y-65639784D01*
X92058334Y-65674624D01*
X92087262Y-65709851D01*
X92098373Y-65744540D01*
X92090755Y-65777762D01*
X92063496Y-65808591D01*
X92049691Y-65818300D01*
X92033492Y-65827487D01*
X92016509Y-65833392D01*
X91994280Y-65836435D01*
X91962342Y-65837041D01*
X91916232Y-65835631D01*
X91882568Y-65834119D01*
X91814608Y-65830536D01*
X91738053Y-65825908D01*
X91664153Y-65820938D01*
X91623168Y-65817881D01*
X91577849Y-65815653D01*
X91515292Y-65814485D01*
X91439404Y-65814293D01*
X91354092Y-65814991D01*
X91263262Y-65816495D01*
X91170821Y-65818722D01*
X91080676Y-65821585D01*
X90996733Y-65825002D01*
X90922899Y-65828887D01*
X90863081Y-65833156D01*
X90846745Y-65834668D01*
X90779701Y-65841380D01*
X90784670Y-66626194D01*
X90785705Y-66779785D01*
X90786760Y-66913727D01*
X90787872Y-67029544D01*
X90789078Y-67128762D01*
X90790416Y-67212906D01*
X90791924Y-67283502D01*
X90793640Y-67342075D01*
X90795600Y-67390151D01*
X90797843Y-67429255D01*
X90800406Y-67460913D01*
X90803326Y-67486650D01*
X90806341Y-67506297D01*
X90817993Y-67584410D01*
X90822365Y-67648383D01*
X90819385Y-67703986D01*
X90808977Y-67756991D01*
X90802871Y-67778265D01*
X90773173Y-67852381D01*
X90734585Y-67914060D01*
X90689532Y-67959739D01*
X90670840Y-67972384D01*
X90624568Y-67993479D01*
X90586264Y-67996542D01*
X90552677Y-67981498D01*
X90538812Y-67969381D01*
X90519117Y-67943264D01*
X90498647Y-67906200D01*
X90485953Y-67876738D01*
X90465373Y-67830171D01*
X90439520Y-67791245D01*
X90403843Y-67754385D01*
X90353792Y-67714018D01*
X90352116Y-67712766D01*
X90307319Y-67681917D01*
X90248269Y-67645006D01*
X90179928Y-67604871D01*
X90107260Y-67564347D01*
X90035225Y-67526271D01*
X89968788Y-67493480D01*
X89967180Y-67492724D01*
X89925201Y-67472901D01*
X89890996Y-67456558D01*
X89868690Y-67445676D01*
X89862221Y-67442271D01*
X89861393Y-67430396D01*
X89867431Y-67408360D01*
X89877286Y-67383741D01*
X89887905Y-67364118D01*
X89896239Y-67357073D01*
X89896483Y-67357160D01*
X89911983Y-67362759D01*
X89944033Y-67373562D01*
X89988986Y-67388396D01*
X90043200Y-67406085D01*
X90103030Y-67425459D01*
X90164832Y-67445343D01*
X90224961Y-67464564D01*
X90279774Y-67481949D01*
X90325627Y-67496325D01*
X90358875Y-67506518D01*
X90373814Y-67510837D01*
X90414080Y-67518411D01*
X90456418Y-67522062D01*
X90460919Y-67522119D01*
X90483535Y-67521250D01*
X90501327Y-67517016D01*
X90515015Y-67507085D01*
X90525319Y-67489121D01*
X90532960Y-67460788D01*
X90538659Y-67419753D01*
X90543136Y-67363679D01*
X90547112Y-67290233D01*
X90549658Y-67234570D01*
X90551527Y-67181418D01*
X90553110Y-67114172D01*
X90554414Y-67034969D01*
X90555446Y-66945948D01*
X90556210Y-66849246D01*
X90556714Y-66747001D01*
X90556963Y-66641350D01*
X90556963Y-66534431D01*
X90556722Y-66428383D01*
X90556243Y-66325342D01*
X90555535Y-66227446D01*
X90554602Y-66136834D01*
X90553452Y-66055642D01*
X90552090Y-65986009D01*
X90550521Y-65930073D01*
X90548753Y-65889970D01*
X90546792Y-65867839D01*
X90545744Y-65864185D01*
X90532412Y-65862153D01*
X90501050Y-65862509D01*
X90454636Y-65864965D01*
X90396145Y-65869232D01*
X90328554Y-65875023D01*
X90254839Y-65882049D01*
X90177977Y-65890022D01*
X90100945Y-65898653D01*
X90026718Y-65907655D01*
X89958273Y-65916738D01*
X89898586Y-65925616D01*
X89880246Y-65928633D01*
X89824096Y-65940689D01*
X89762669Y-65957757D01*
X89708764Y-65976259D01*
X89706195Y-65977279D01*
X89656365Y-65995492D01*
X89618167Y-66004738D01*
X89584807Y-66006485D01*
X89574589Y-66005753D01*
X89510341Y-65991594D01*
X89446576Y-65963273D01*
X89386272Y-65923720D01*
X89332403Y-65875866D01*
X89287945Y-65822641D01*
X89255874Y-65766974D01*
X89239164Y-65711797D01*
X89238256Y-65674546D01*
X89245586Y-65638601D01*
X89257291Y-65607211D01*
X89261027Y-65600656D01*
X89278618Y-65583165D01*
X89298806Y-65574595D01*
X89314891Y-65576432D01*
X89320333Y-65587503D01*
X89328277Y-65608084D01*
X89348856Y-65635421D01*
X89377195Y-65664368D01*
X89408414Y-65689775D01*
X89429580Y-65702805D01*
X89462966Y-65718445D01*
X89497625Y-65731349D01*
X89535432Y-65741574D01*
X89578261Y-65749174D01*
X89627989Y-65754208D01*
X89686489Y-65756730D01*
X89755638Y-65756796D01*
X89837310Y-65754464D01*
X89933381Y-65749788D01*
X90045725Y-65742826D01*
X90176218Y-65733632D01*
X90257349Y-65727574D01*
X90324898Y-65722299D01*
X90387685Y-65717108D01*
X90441715Y-65712354D01*
X90482990Y-65708390D01*
X90507515Y-65705568D01*
X90508808Y-65705375D01*
X90548512Y-65699225D01*
X90548285Y-65602219D01*
X90547178Y-65537056D01*
X90544359Y-65463592D01*
X90540168Y-65386716D01*
X90534945Y-65311318D01*
X90529030Y-65242288D01*
X90522763Y-65184514D01*
X90516483Y-65142886D01*
X90516309Y-65141996D01*
X90496804Y-65071515D01*
X90468297Y-65018838D01*
X90428600Y-64982215D01*
X90375528Y-64959899D01*
X90306895Y-64950138D01*
X90275567Y-64949357D01*
X90232533Y-64949112D01*
X90206799Y-64947622D01*
X90194493Y-64943750D01*
X90191740Y-64936361D01*
X90194298Y-64925534D01*
X90214123Y-64889539D01*
X90249072Y-64854109D01*
X90293631Y-64824553D01*
X90304994Y-64818991D01*
X90360597Y-64803258D01*
X90428574Y-64799026D01*
X90504239Y-64805249D01*
G37*
X90504239Y-64805249D02*
X90582909Y-64820883D01*
X90659897Y-64844883D01*
X90730518Y-64876204D01*
X90790086Y-64913800D01*
X90811462Y-64931942D01*
X90850288Y-64974532D01*
X90870912Y-65014498D01*
X90873902Y-65056238D01*
X90859828Y-65104147D01*
X90839103Y-65145549D01*
X90801474Y-65212836D01*
X90789921Y-65446601D01*
X90786749Y-65514595D01*
X90784284Y-65575110D01*
X90782623Y-65625078D01*
X90781860Y-65661431D01*
X90782092Y-65681102D01*
X90782552Y-65683699D01*
X90794271Y-65684168D01*
X90823764Y-65682996D01*
X90867714Y-65680441D01*
X90922804Y-65676763D01*
X90985718Y-65672219D01*
X91053138Y-65667069D01*
X91121749Y-65661570D01*
X91188233Y-65655983D01*
X91249274Y-65650564D01*
X91301555Y-65645574D01*
X91341761Y-65641270D01*
X91363768Y-65638375D01*
X91446649Y-65622075D01*
X91511424Y-65601759D01*
X91560956Y-65576385D01*
X91585378Y-65557554D01*
X91609151Y-65538271D01*
X91632047Y-65526701D01*
X91658540Y-65522603D01*
X91693104Y-65525734D01*
X91740213Y-65535853D01*
X91782696Y-65546868D01*
X91873770Y-65574979D01*
X91950676Y-65606260D01*
X92012501Y-65639784D01*
X92058334Y-65674624D01*
X92087262Y-65709851D01*
X92098373Y-65744540D01*
X92090755Y-65777762D01*
X92063496Y-65808591D01*
X92049691Y-65818300D01*
X92033492Y-65827487D01*
X92016509Y-65833392D01*
X91994280Y-65836435D01*
X91962342Y-65837041D01*
X91916232Y-65835631D01*
X91882568Y-65834119D01*
X91814608Y-65830536D01*
X91738053Y-65825908D01*
X91664153Y-65820938D01*
X91623168Y-65817881D01*
X91577849Y-65815653D01*
X91515292Y-65814485D01*
X91439404Y-65814293D01*
X91354092Y-65814991D01*
X91263262Y-65816495D01*
X91170821Y-65818722D01*
X91080676Y-65821585D01*
X90996733Y-65825002D01*
X90922899Y-65828887D01*
X90863081Y-65833156D01*
X90846745Y-65834668D01*
X90779701Y-65841380D01*
X90784670Y-66626194D01*
X90785705Y-66779785D01*
X90786760Y-66913727D01*
X90787872Y-67029544D01*
X90789078Y-67128762D01*
X90790416Y-67212906D01*
X90791924Y-67283502D01*
X90793640Y-67342075D01*
X90795600Y-67390151D01*
X90797843Y-67429255D01*
X90800406Y-67460913D01*
X90803326Y-67486650D01*
X90806341Y-67506297D01*
X90817993Y-67584410D01*
X90822365Y-67648383D01*
X90819385Y-67703986D01*
X90808977Y-67756991D01*
X90802871Y-67778265D01*
X90773173Y-67852381D01*
X90734585Y-67914060D01*
X90689532Y-67959739D01*
X90670840Y-67972384D01*
X90624568Y-67993479D01*
X90586264Y-67996542D01*
X90552677Y-67981498D01*
X90538812Y-67969381D01*
X90519117Y-67943264D01*
X90498647Y-67906200D01*
X90485953Y-67876738D01*
X90465373Y-67830171D01*
X90439520Y-67791245D01*
X90403843Y-67754385D01*
X90353792Y-67714018D01*
X90352116Y-67712766D01*
X90307319Y-67681917D01*
X90248269Y-67645006D01*
X90179928Y-67604871D01*
X90107260Y-67564347D01*
X90035225Y-67526271D01*
X89968788Y-67493480D01*
X89967180Y-67492724D01*
X89925201Y-67472901D01*
X89890996Y-67456558D01*
X89868690Y-67445676D01*
X89862221Y-67442271D01*
X89861393Y-67430396D01*
X89867431Y-67408360D01*
X89877286Y-67383741D01*
X89887905Y-67364118D01*
X89896239Y-67357073D01*
X89896483Y-67357160D01*
X89911983Y-67362759D01*
X89944033Y-67373562D01*
X89988986Y-67388396D01*
X90043200Y-67406085D01*
X90103030Y-67425459D01*
X90164832Y-67445343D01*
X90224961Y-67464564D01*
X90279774Y-67481949D01*
X90325627Y-67496325D01*
X90358875Y-67506518D01*
X90373814Y-67510837D01*
X90414080Y-67518411D01*
X90456418Y-67522062D01*
X90460919Y-67522119D01*
X90483535Y-67521250D01*
X90501327Y-67517016D01*
X90515015Y-67507085D01*
X90525319Y-67489121D01*
X90532960Y-67460788D01*
X90538659Y-67419753D01*
X90543136Y-67363679D01*
X90547112Y-67290233D01*
X90549658Y-67234570D01*
X90551527Y-67181418D01*
X90553110Y-67114172D01*
X90554414Y-67034969D01*
X90555446Y-66945948D01*
X90556210Y-66849246D01*
X90556714Y-66747001D01*
X90556963Y-66641350D01*
X90556963Y-66534431D01*
X90556722Y-66428383D01*
X90556243Y-66325342D01*
X90555535Y-66227446D01*
X90554602Y-66136834D01*
X90553452Y-66055642D01*
X90552090Y-65986009D01*
X90550521Y-65930073D01*
X90548753Y-65889970D01*
X90546792Y-65867839D01*
X90545744Y-65864185D01*
X90532412Y-65862153D01*
X90501050Y-65862509D01*
X90454636Y-65864965D01*
X90396145Y-65869232D01*
X90328554Y-65875023D01*
X90254839Y-65882049D01*
X90177977Y-65890022D01*
X90100945Y-65898653D01*
X90026718Y-65907655D01*
X89958273Y-65916738D01*
X89898586Y-65925616D01*
X89880246Y-65928633D01*
X89824096Y-65940689D01*
X89762669Y-65957757D01*
X89708764Y-65976259D01*
X89706195Y-65977279D01*
X89656365Y-65995492D01*
X89618167Y-66004738D01*
X89584807Y-66006485D01*
X89574589Y-66005753D01*
X89510341Y-65991594D01*
X89446576Y-65963273D01*
X89386272Y-65923720D01*
X89332403Y-65875866D01*
X89287945Y-65822641D01*
X89255874Y-65766974D01*
X89239164Y-65711797D01*
X89238256Y-65674546D01*
X89245586Y-65638601D01*
X89257291Y-65607211D01*
X89261027Y-65600656D01*
X89278618Y-65583165D01*
X89298806Y-65574595D01*
X89314891Y-65576432D01*
X89320333Y-65587503D01*
X89328277Y-65608084D01*
X89348856Y-65635421D01*
X89377195Y-65664368D01*
X89408414Y-65689775D01*
X89429580Y-65702805D01*
X89462966Y-65718445D01*
X89497625Y-65731349D01*
X89535432Y-65741574D01*
X89578261Y-65749174D01*
X89627989Y-65754208D01*
X89686489Y-65756730D01*
X89755638Y-65756796D01*
X89837310Y-65754464D01*
X89933381Y-65749788D01*
X90045725Y-65742826D01*
X90176218Y-65733632D01*
X90257349Y-65727574D01*
X90324898Y-65722299D01*
X90387685Y-65717108D01*
X90441715Y-65712354D01*
X90482990Y-65708390D01*
X90507515Y-65705568D01*
X90508808Y-65705375D01*
X90548512Y-65699225D01*
X90548285Y-65602219D01*
X90547178Y-65537056D01*
X90544359Y-65463592D01*
X90540168Y-65386716D01*
X90534945Y-65311318D01*
X90529030Y-65242288D01*
X90522763Y-65184514D01*
X90516483Y-65142886D01*
X90516309Y-65141996D01*
X90496804Y-65071515D01*
X90468297Y-65018838D01*
X90428600Y-64982215D01*
X90375528Y-64959899D01*
X90306895Y-64950138D01*
X90275567Y-64949357D01*
X90232533Y-64949112D01*
X90206799Y-64947622D01*
X90194493Y-64943750D01*
X90191740Y-64936361D01*
X90194298Y-64925534D01*
X90214123Y-64889539D01*
X90249072Y-64854109D01*
X90293631Y-64824553D01*
X90304994Y-64818991D01*
X90360597Y-64803258D01*
X90428574Y-64799026D01*
X90504239Y-64805249D01*
G36*
X93876050Y-64708313D02*
G01*
X93955866Y-64717336D01*
X94032387Y-64734661D01*
X94103140Y-64758873D01*
X94165652Y-64788556D01*
X94217450Y-64822296D01*
X94256061Y-64858677D01*
X94279011Y-64896283D01*
X94283828Y-64933700D01*
X94282433Y-64940893D01*
X94269987Y-64962497D01*
X94246060Y-64986923D01*
X94232437Y-64997424D01*
X94215081Y-65010198D01*
X94200216Y-65023857D01*
X94186264Y-65041172D01*
X94171647Y-65064916D01*
X94154787Y-65097861D01*
X94134105Y-65142779D01*
X94108023Y-65202441D01*
X94084542Y-65257188D01*
X94054166Y-65326232D01*
X94018652Y-65403780D01*
X93982253Y-65480706D01*
X93949225Y-65547881D01*
X93946821Y-65552629D01*
X93921874Y-65602356D01*
X93901064Y-65644967D01*
X93885975Y-65677129D01*
X93878188Y-65695510D01*
X93877543Y-65698507D01*
X93888785Y-65701077D01*
X93915952Y-65705153D01*
X93953912Y-65709990D01*
X93968125Y-65711648D01*
X94023987Y-65715157D01*
X94099275Y-65715345D01*
X94192516Y-65712324D01*
X94302241Y-65706208D01*
X94426979Y-65697110D01*
X94565259Y-65685144D01*
X94715612Y-65670421D01*
X94876565Y-65653057D01*
X95046650Y-65633162D01*
X95143593Y-65621179D01*
X95254469Y-65606345D01*
X95347204Y-65591793D01*
X95424807Y-65576760D01*
X95490287Y-65560480D01*
X95546651Y-65542189D01*
X95596909Y-65521123D01*
X95644069Y-65496516D01*
X95651805Y-65492038D01*
X95679993Y-65477694D01*
X95707969Y-65469577D01*
X95740035Y-65467746D01*
X95780491Y-65472262D01*
X95833640Y-65483187D01*
X95883197Y-65495313D01*
X95967053Y-65520601D01*
X96031337Y-65549338D01*
X96077503Y-65582461D01*
X96107006Y-65620911D01*
X96117145Y-65646331D01*
X96120927Y-65675313D01*
X96110269Y-65699662D01*
X96106023Y-65705316D01*
X96091945Y-65718824D01*
X96071635Y-65729700D01*
X96042700Y-65738322D01*
X96002749Y-65745067D01*
X95949390Y-65750311D01*
X95880231Y-65754432D01*
X95792880Y-65757807D01*
X95768270Y-65758568D01*
X95705818Y-65760753D01*
X95633906Y-65763812D01*
X95555463Y-65767569D01*
X95473417Y-65771845D01*
X95390695Y-65776466D01*
X95310226Y-65781254D01*
X95234937Y-65786031D01*
X95167756Y-65790623D01*
X95111612Y-65794852D01*
X95069433Y-65798540D01*
X95044146Y-65801513D01*
X95039024Y-65802580D01*
X95036846Y-65810845D01*
X95053069Y-65827534D01*
X95065905Y-65837356D01*
X95114672Y-65882024D01*
X95143403Y-65931279D01*
X95150810Y-65959699D01*
X95151318Y-65986496D01*
X95140511Y-66010693D01*
X95125005Y-66030311D01*
X95091132Y-66075045D01*
X95068235Y-66121575D01*
X95052536Y-66178237D01*
X95048541Y-66199160D01*
X95041322Y-66235301D01*
X95030130Y-66285728D01*
X95016391Y-66344249D01*
X95001527Y-66404673D01*
X94998719Y-66415759D01*
X94931243Y-66643245D01*
X94848268Y-66856374D01*
X94749660Y-67055361D01*
X94635287Y-67240421D01*
X94505014Y-67411766D01*
X94358709Y-67569613D01*
X94196237Y-67714173D01*
X94183381Y-67724498D01*
X94136054Y-67760566D01*
X94080106Y-67800505D01*
X94018341Y-67842579D01*
X93953563Y-67885053D01*
X93888575Y-67926190D01*
X93826183Y-67964257D01*
X93769190Y-67997516D01*
X93720401Y-68024233D01*
X93682619Y-68042671D01*
X93658649Y-68051097D01*
X93655134Y-68051435D01*
X93643886Y-68043232D01*
X93627268Y-68022811D01*
X93620847Y-68013371D01*
X93606562Y-67989719D01*
X93599651Y-67975015D01*
X93599672Y-67973012D01*
X93609237Y-67966330D01*
X93632381Y-67950197D01*
X93665306Y-67927261D01*
X93693072Y-67907925D01*
X93878629Y-67766143D01*
X94048469Y-67610453D01*
X94202082Y-67441683D01*
X94338959Y-67260664D01*
X94458588Y-67068223D01*
X94560461Y-66865190D01*
X94644065Y-66652394D01*
X94708892Y-66430663D01*
X94754430Y-66200826D01*
X94757782Y-66178276D01*
X94768601Y-66085893D01*
X94771399Y-66011243D01*
X94765805Y-65952316D01*
X94751453Y-65907101D01*
X94727973Y-65873588D01*
X94697887Y-65851305D01*
X94675330Y-65844902D01*
X94636758Y-65841930D01*
X94581281Y-65842426D01*
X94508010Y-65846432D01*
X94416052Y-65853986D01*
X94304518Y-65865127D01*
X94248929Y-65871185D01*
X94158055Y-65880603D01*
X94084706Y-65886308D01*
X94025529Y-65888123D01*
X93977171Y-65885870D01*
X93936277Y-65879371D01*
X93899495Y-65868449D01*
X93863471Y-65852925D01*
X93858534Y-65850492D01*
X93793656Y-65818133D01*
X93772480Y-65846819D01*
X93660343Y-65992675D01*
X93545425Y-66130641D01*
X93430737Y-66257315D01*
X93319290Y-66369297D01*
X93267783Y-66416874D01*
X93211863Y-66465995D01*
X93155990Y-66513386D01*
X93102731Y-66557029D01*
X93054658Y-66594905D01*
X93014340Y-66624996D01*
X92984345Y-66645283D01*
X92967244Y-66653747D01*
X92966106Y-66653873D01*
X92951968Y-66646468D01*
X92932122Y-66627931D01*
X92926665Y-66621721D01*
X92899519Y-66589459D01*
X93013976Y-66475002D01*
X93189758Y-66286157D01*
X93349582Y-66087522D01*
X93491956Y-65881152D01*
X93615390Y-65669104D01*
X93655816Y-65589915D01*
X93707903Y-65478770D01*
X93753271Y-65371574D01*
X93791392Y-65270228D01*
X93821739Y-65176631D01*
X93843782Y-65092683D01*
X93856995Y-65020285D01*
X93860848Y-64961335D01*
X93854814Y-64917733D01*
X93847268Y-64901255D01*
X93817001Y-64871822D01*
X93772147Y-64849086D01*
X93718895Y-64835646D01*
X93685131Y-64833124D01*
X93649200Y-64830728D01*
X93632350Y-64822723D01*
X93634142Y-64807313D01*
X93654140Y-64782701D01*
X93669250Y-64767871D01*
X93704097Y-64738550D01*
X93738232Y-64719676D01*
X93777353Y-64709610D01*
X93827156Y-64706711D01*
X93876050Y-64708313D01*
G37*
X93876050Y-64708313D02*
X93955866Y-64717336D01*
X94032387Y-64734661D01*
X94103140Y-64758873D01*
X94165652Y-64788556D01*
X94217450Y-64822296D01*
X94256061Y-64858677D01*
X94279011Y-64896283D01*
X94283828Y-64933700D01*
X94282433Y-64940893D01*
X94269987Y-64962497D01*
X94246060Y-64986923D01*
X94232437Y-64997424D01*
X94215081Y-65010198D01*
X94200216Y-65023857D01*
X94186264Y-65041172D01*
X94171647Y-65064916D01*
X94154787Y-65097861D01*
X94134105Y-65142779D01*
X94108023Y-65202441D01*
X94084542Y-65257188D01*
X94054166Y-65326232D01*
X94018652Y-65403780D01*
X93982253Y-65480706D01*
X93949225Y-65547881D01*
X93946821Y-65552629D01*
X93921874Y-65602356D01*
X93901064Y-65644967D01*
X93885975Y-65677129D01*
X93878188Y-65695510D01*
X93877543Y-65698507D01*
X93888785Y-65701077D01*
X93915952Y-65705153D01*
X93953912Y-65709990D01*
X93968125Y-65711648D01*
X94023987Y-65715157D01*
X94099275Y-65715345D01*
X94192516Y-65712324D01*
X94302241Y-65706208D01*
X94426979Y-65697110D01*
X94565259Y-65685144D01*
X94715612Y-65670421D01*
X94876565Y-65653057D01*
X95046650Y-65633162D01*
X95143593Y-65621179D01*
X95254469Y-65606345D01*
X95347204Y-65591793D01*
X95424807Y-65576760D01*
X95490287Y-65560480D01*
X95546651Y-65542189D01*
X95596909Y-65521123D01*
X95644069Y-65496516D01*
X95651805Y-65492038D01*
X95679993Y-65477694D01*
X95707969Y-65469577D01*
X95740035Y-65467746D01*
X95780491Y-65472262D01*
X95833640Y-65483187D01*
X95883197Y-65495313D01*
X95967053Y-65520601D01*
X96031337Y-65549338D01*
X96077503Y-65582461D01*
X96107006Y-65620911D01*
X96117145Y-65646331D01*
X96120927Y-65675313D01*
X96110269Y-65699662D01*
X96106023Y-65705316D01*
X96091945Y-65718824D01*
X96071635Y-65729700D01*
X96042700Y-65738322D01*
X96002749Y-65745067D01*
X95949390Y-65750311D01*
X95880231Y-65754432D01*
X95792880Y-65757807D01*
X95768270Y-65758568D01*
X95705818Y-65760753D01*
X95633906Y-65763812D01*
X95555463Y-65767569D01*
X95473417Y-65771845D01*
X95390695Y-65776466D01*
X95310226Y-65781254D01*
X95234937Y-65786031D01*
X95167756Y-65790623D01*
X95111612Y-65794852D01*
X95069433Y-65798540D01*
X95044146Y-65801513D01*
X95039024Y-65802580D01*
X95036846Y-65810845D01*
X95053069Y-65827534D01*
X95065905Y-65837356D01*
X95114672Y-65882024D01*
X95143403Y-65931279D01*
X95150810Y-65959699D01*
X95151318Y-65986496D01*
X95140511Y-66010693D01*
X95125005Y-66030311D01*
X95091132Y-66075045D01*
X95068235Y-66121575D01*
X95052536Y-66178237D01*
X95048541Y-66199160D01*
X95041322Y-66235301D01*
X95030130Y-66285728D01*
X95016391Y-66344249D01*
X95001527Y-66404673D01*
X94998719Y-66415759D01*
X94931243Y-66643245D01*
X94848268Y-66856374D01*
X94749660Y-67055361D01*
X94635287Y-67240421D01*
X94505014Y-67411766D01*
X94358709Y-67569613D01*
X94196237Y-67714173D01*
X94183381Y-67724498D01*
X94136054Y-67760566D01*
X94080106Y-67800505D01*
X94018341Y-67842579D01*
X93953563Y-67885053D01*
X93888575Y-67926190D01*
X93826183Y-67964257D01*
X93769190Y-67997516D01*
X93720401Y-68024233D01*
X93682619Y-68042671D01*
X93658649Y-68051097D01*
X93655134Y-68051435D01*
X93643886Y-68043232D01*
X93627268Y-68022811D01*
X93620847Y-68013371D01*
X93606562Y-67989719D01*
X93599651Y-67975015D01*
X93599672Y-67973012D01*
X93609237Y-67966330D01*
X93632381Y-67950197D01*
X93665306Y-67927261D01*
X93693072Y-67907925D01*
X93878629Y-67766143D01*
X94048469Y-67610453D01*
X94202082Y-67441683D01*
X94338959Y-67260664D01*
X94458588Y-67068223D01*
X94560461Y-66865190D01*
X94644065Y-66652394D01*
X94708892Y-66430663D01*
X94754430Y-66200826D01*
X94757782Y-66178276D01*
X94768601Y-66085893D01*
X94771399Y-66011243D01*
X94765805Y-65952316D01*
X94751453Y-65907101D01*
X94727973Y-65873588D01*
X94697887Y-65851305D01*
X94675330Y-65844902D01*
X94636758Y-65841930D01*
X94581281Y-65842426D01*
X94508010Y-65846432D01*
X94416052Y-65853986D01*
X94304518Y-65865127D01*
X94248929Y-65871185D01*
X94158055Y-65880603D01*
X94084706Y-65886308D01*
X94025529Y-65888123D01*
X93977171Y-65885870D01*
X93936277Y-65879371D01*
X93899495Y-65868449D01*
X93863471Y-65852925D01*
X93858534Y-65850492D01*
X93793656Y-65818133D01*
X93772480Y-65846819D01*
X93660343Y-65992675D01*
X93545425Y-66130641D01*
X93430737Y-66257315D01*
X93319290Y-66369297D01*
X93267783Y-66416874D01*
X93211863Y-66465995D01*
X93155990Y-66513386D01*
X93102731Y-66557029D01*
X93054658Y-66594905D01*
X93014340Y-66624996D01*
X92984345Y-66645283D01*
X92967244Y-66653747D01*
X92966106Y-66653873D01*
X92951968Y-66646468D01*
X92932122Y-66627931D01*
X92926665Y-66621721D01*
X92899519Y-66589459D01*
X93013976Y-66475002D01*
X93189758Y-66286157D01*
X93349582Y-66087522D01*
X93491956Y-65881152D01*
X93615390Y-65669104D01*
X93655816Y-65589915D01*
X93707903Y-65478770D01*
X93753271Y-65371574D01*
X93791392Y-65270228D01*
X93821739Y-65176631D01*
X93843782Y-65092683D01*
X93856995Y-65020285D01*
X93860848Y-64961335D01*
X93854814Y-64917733D01*
X93847268Y-64901255D01*
X93817001Y-64871822D01*
X93772147Y-64849086D01*
X93718895Y-64835646D01*
X93685131Y-64833124D01*
X93649200Y-64830728D01*
X93632350Y-64822723D01*
X93634142Y-64807313D01*
X93654140Y-64782701D01*
X93669250Y-64767871D01*
X93704097Y-64738550D01*
X93738232Y-64719676D01*
X93777353Y-64709610D01*
X93827156Y-64706711D01*
X93876050Y-64708313D01*
D11*
%TO.C,J7*%
G36*
X159020000Y-73422000D02*
G01*
X161020000Y-73422000D01*
X161020000Y-75422000D01*
X159020000Y-75422000D01*
X159020000Y-75322000D01*
X159020000Y-73422000D01*
G37*
X159020000Y-73422000D02*
X161020000Y-73422000D01*
X161020000Y-75422000D01*
X159020000Y-75422000D01*
X159020000Y-75322000D01*
X159020000Y-73422000D01*
%TO.C,J5*%
G36*
X159020000Y-68342000D02*
G01*
X161020000Y-68342000D01*
X161020000Y-70342000D01*
X159020000Y-70342000D01*
X159020000Y-70242000D01*
X159020000Y-68342000D01*
G37*
X159020000Y-68342000D02*
X161020000Y-68342000D01*
X161020000Y-70342000D01*
X159020000Y-70342000D01*
X159020000Y-70242000D01*
X159020000Y-68342000D01*
%TD*%
%TO.C,U1*%
G36*
G01*
X149201000Y-67079000D02*
X149201000Y-66779000D01*
G75*
G02*
X149351000Y-66629000I150000J0D01*
G01*
X151001000Y-66629000D01*
G75*
G02*
X151151000Y-66779000I0J-150000D01*
G01*
X151151000Y-67079000D01*
G75*
G02*
X151001000Y-67229000I-150000J0D01*
G01*
X149351000Y-67229000D01*
G75*
G02*
X149201000Y-67079000I0J150000D01*
G01*
G37*
G36*
G01*
X149201000Y-68349000D02*
X149201000Y-68049000D01*
G75*
G02*
X149351000Y-67899000I150000J0D01*
G01*
X151001000Y-67899000D01*
G75*
G02*
X151151000Y-68049000I0J-150000D01*
G01*
X151151000Y-68349000D01*
G75*
G02*
X151001000Y-68499000I-150000J0D01*
G01*
X149351000Y-68499000D01*
G75*
G02*
X149201000Y-68349000I0J150000D01*
G01*
G37*
G36*
G01*
X149201000Y-69619000D02*
X149201000Y-69319000D01*
G75*
G02*
X149351000Y-69169000I150000J0D01*
G01*
X151001000Y-69169000D01*
G75*
G02*
X151151000Y-69319000I0J-150000D01*
G01*
X151151000Y-69619000D01*
G75*
G02*
X151001000Y-69769000I-150000J0D01*
G01*
X149351000Y-69769000D01*
G75*
G02*
X149201000Y-69619000I0J150000D01*
G01*
G37*
G36*
G01*
X149201000Y-70889000D02*
X149201000Y-70589000D01*
G75*
G02*
X149351000Y-70439000I150000J0D01*
G01*
X151001000Y-70439000D01*
G75*
G02*
X151151000Y-70589000I0J-150000D01*
G01*
X151151000Y-70889000D01*
G75*
G02*
X151001000Y-71039000I-150000J0D01*
G01*
X149351000Y-71039000D01*
G75*
G02*
X149201000Y-70889000I0J150000D01*
G01*
G37*
G36*
G01*
X149201000Y-72159000D02*
X149201000Y-71859000D01*
G75*
G02*
X149351000Y-71709000I150000J0D01*
G01*
X151001000Y-71709000D01*
G75*
G02*
X151151000Y-71859000I0J-150000D01*
G01*
X151151000Y-72159000D01*
G75*
G02*
X151001000Y-72309000I-150000J0D01*
G01*
X149351000Y-72309000D01*
G75*
G02*
X149201000Y-72159000I0J150000D01*
G01*
G37*
G36*
G01*
X149201000Y-73429000D02*
X149201000Y-73129000D01*
G75*
G02*
X149351000Y-72979000I150000J0D01*
G01*
X151001000Y-72979000D01*
G75*
G02*
X151151000Y-73129000I0J-150000D01*
G01*
X151151000Y-73429000D01*
G75*
G02*
X151001000Y-73579000I-150000J0D01*
G01*
X149351000Y-73579000D01*
G75*
G02*
X149201000Y-73429000I0J150000D01*
G01*
G37*
G36*
G01*
X149201000Y-74699000D02*
X149201000Y-74399000D01*
G75*
G02*
X149351000Y-74249000I150000J0D01*
G01*
X151001000Y-74249000D01*
G75*
G02*
X151151000Y-74399000I0J-150000D01*
G01*
X151151000Y-74699000D01*
G75*
G02*
X151001000Y-74849000I-150000J0D01*
G01*
X149351000Y-74849000D01*
G75*
G02*
X149201000Y-74699000I0J150000D01*
G01*
G37*
G36*
G01*
X144251000Y-74699000D02*
X144251000Y-74399000D01*
G75*
G02*
X144401000Y-74249000I150000J0D01*
G01*
X146051000Y-74249000D01*
G75*
G02*
X146201000Y-74399000I0J-150000D01*
G01*
X146201000Y-74699000D01*
G75*
G02*
X146051000Y-74849000I-150000J0D01*
G01*
X144401000Y-74849000D01*
G75*
G02*
X144251000Y-74699000I0J150000D01*
G01*
G37*
G36*
G01*
X144251000Y-73429000D02*
X144251000Y-73129000D01*
G75*
G02*
X144401000Y-72979000I150000J0D01*
G01*
X146051000Y-72979000D01*
G75*
G02*
X146201000Y-73129000I0J-150000D01*
G01*
X146201000Y-73429000D01*
G75*
G02*
X146051000Y-73579000I-150000J0D01*
G01*
X144401000Y-73579000D01*
G75*
G02*
X144251000Y-73429000I0J150000D01*
G01*
G37*
G36*
G01*
X144251000Y-72159000D02*
X144251000Y-71859000D01*
G75*
G02*
X144401000Y-71709000I150000J0D01*
G01*
X146051000Y-71709000D01*
G75*
G02*
X146201000Y-71859000I0J-150000D01*
G01*
X146201000Y-72159000D01*
G75*
G02*
X146051000Y-72309000I-150000J0D01*
G01*
X144401000Y-72309000D01*
G75*
G02*
X144251000Y-72159000I0J150000D01*
G01*
G37*
G36*
G01*
X144251000Y-70889000D02*
X144251000Y-70589000D01*
G75*
G02*
X144401000Y-70439000I150000J0D01*
G01*
X146051000Y-70439000D01*
G75*
G02*
X146201000Y-70589000I0J-150000D01*
G01*
X146201000Y-70889000D01*
G75*
G02*
X146051000Y-71039000I-150000J0D01*
G01*
X144401000Y-71039000D01*
G75*
G02*
X144251000Y-70889000I0J150000D01*
G01*
G37*
G36*
G01*
X144251000Y-69619000D02*
X144251000Y-69319000D01*
G75*
G02*
X144401000Y-69169000I150000J0D01*
G01*
X146051000Y-69169000D01*
G75*
G02*
X146201000Y-69319000I0J-150000D01*
G01*
X146201000Y-69619000D01*
G75*
G02*
X146051000Y-69769000I-150000J0D01*
G01*
X144401000Y-69769000D01*
G75*
G02*
X144251000Y-69619000I0J150000D01*
G01*
G37*
G36*
G01*
X144251000Y-68349000D02*
X144251000Y-68049000D01*
G75*
G02*
X144401000Y-67899000I150000J0D01*
G01*
X146051000Y-67899000D01*
G75*
G02*
X146201000Y-68049000I0J-150000D01*
G01*
X146201000Y-68349000D01*
G75*
G02*
X146051000Y-68499000I-150000J0D01*
G01*
X144401000Y-68499000D01*
G75*
G02*
X144251000Y-68349000I0J150000D01*
G01*
G37*
G36*
G01*
X144251000Y-67079000D02*
X144251000Y-66779000D01*
G75*
G02*
X144401000Y-66629000I150000J0D01*
G01*
X146051000Y-66629000D01*
G75*
G02*
X146201000Y-66779000I0J-150000D01*
G01*
X146201000Y-67079000D01*
G75*
G02*
X146051000Y-67229000I-150000J0D01*
G01*
X144401000Y-67229000D01*
G75*
G02*
X144251000Y-67079000I0J150000D01*
G01*
G37*
%TD*%
D12*
%TO.C,SW2*%
X143510000Y-120650000D03*
X143510000Y-115650000D03*
X156010000Y-120650000D03*
X156010000Y-115650000D03*
%TD*%
%TO.C,SW1*%
X121412000Y-120570000D03*
X121412000Y-115570000D03*
X133912000Y-120570000D03*
X133912000Y-115570000D03*
%TD*%
%TO.C,R18*%
G36*
G01*
X160627080Y-116401280D02*
X160997080Y-116401280D01*
G75*
G02*
X161132080Y-116536280I0J-135000D01*
G01*
X161132080Y-116806280D01*
G75*
G02*
X160997080Y-116941280I-135000J0D01*
G01*
X160627080Y-116941280D01*
G75*
G02*
X160492080Y-116806280I0J135000D01*
G01*
X160492080Y-116536280D01*
G75*
G02*
X160627080Y-116401280I135000J0D01*
G01*
G37*
G36*
G01*
X160627080Y-115381280D02*
X160997080Y-115381280D01*
G75*
G02*
X161132080Y-115516280I0J-135000D01*
G01*
X161132080Y-115786280D01*
G75*
G02*
X160997080Y-115921280I-135000J0D01*
G01*
X160627080Y-115921280D01*
G75*
G02*
X160492080Y-115786280I0J135000D01*
G01*
X160492080Y-115516280D01*
G75*
G02*
X160627080Y-115381280I135000J0D01*
G01*
G37*
%TD*%
%TO.C,R17*%
G36*
G01*
X138702000Y-116269000D02*
X139072000Y-116269000D01*
G75*
G02*
X139207000Y-116404000I0J-135000D01*
G01*
X139207000Y-116674000D01*
G75*
G02*
X139072000Y-116809000I-135000J0D01*
G01*
X138702000Y-116809000D01*
G75*
G02*
X138567000Y-116674000I0J135000D01*
G01*
X138567000Y-116404000D01*
G75*
G02*
X138702000Y-116269000I135000J0D01*
G01*
G37*
G36*
G01*
X138702000Y-115249000D02*
X139072000Y-115249000D01*
G75*
G02*
X139207000Y-115384000I0J-135000D01*
G01*
X139207000Y-115654000D01*
G75*
G02*
X139072000Y-115789000I-135000J0D01*
G01*
X138702000Y-115789000D01*
G75*
G02*
X138567000Y-115654000I0J135000D01*
G01*
X138567000Y-115384000D01*
G75*
G02*
X138702000Y-115249000I135000J0D01*
G01*
G37*
%TD*%
%TO.C,R16*%
G36*
G01*
X154552000Y-96760000D02*
X154922000Y-96760000D01*
G75*
G02*
X155057000Y-96895000I0J-135000D01*
G01*
X155057000Y-97165000D01*
G75*
G02*
X154922000Y-97300000I-135000J0D01*
G01*
X154552000Y-97300000D01*
G75*
G02*
X154417000Y-97165000I0J135000D01*
G01*
X154417000Y-96895000D01*
G75*
G02*
X154552000Y-96760000I135000J0D01*
G01*
G37*
G36*
G01*
X154552000Y-95740000D02*
X154922000Y-95740000D01*
G75*
G02*
X155057000Y-95875000I0J-135000D01*
G01*
X155057000Y-96145000D01*
G75*
G02*
X154922000Y-96280000I-135000J0D01*
G01*
X154552000Y-96280000D01*
G75*
G02*
X154417000Y-96145000I0J135000D01*
G01*
X154417000Y-95875000D01*
G75*
G02*
X154552000Y-95740000I135000J0D01*
G01*
G37*
%TD*%
%TO.C,R15*%
G36*
G01*
X149980000Y-97725200D02*
X150350000Y-97725200D01*
G75*
G02*
X150485000Y-97860200I0J-135000D01*
G01*
X150485000Y-98130200D01*
G75*
G02*
X150350000Y-98265200I-135000J0D01*
G01*
X149980000Y-98265200D01*
G75*
G02*
X149845000Y-98130200I0J135000D01*
G01*
X149845000Y-97860200D01*
G75*
G02*
X149980000Y-97725200I135000J0D01*
G01*
G37*
G36*
G01*
X149980000Y-96705200D02*
X150350000Y-96705200D01*
G75*
G02*
X150485000Y-96840200I0J-135000D01*
G01*
X150485000Y-97110200D01*
G75*
G02*
X150350000Y-97245200I-135000J0D01*
G01*
X149980000Y-97245200D01*
G75*
G02*
X149845000Y-97110200I0J135000D01*
G01*
X149845000Y-96840200D01*
G75*
G02*
X149980000Y-96705200I135000J0D01*
G01*
G37*
%TD*%
%TO.C,R14*%
G36*
G01*
X154450000Y-101838000D02*
X154820000Y-101838000D01*
G75*
G02*
X154955000Y-101973000I0J-135000D01*
G01*
X154955000Y-102243000D01*
G75*
G02*
X154820000Y-102378000I-135000J0D01*
G01*
X154450000Y-102378000D01*
G75*
G02*
X154315000Y-102243000I0J135000D01*
G01*
X154315000Y-101973000D01*
G75*
G02*
X154450000Y-101838000I135000J0D01*
G01*
G37*
G36*
G01*
X154450000Y-100818000D02*
X154820000Y-100818000D01*
G75*
G02*
X154955000Y-100953000I0J-135000D01*
G01*
X154955000Y-101223000D01*
G75*
G02*
X154820000Y-101358000I-135000J0D01*
G01*
X154450000Y-101358000D01*
G75*
G02*
X154315000Y-101223000I0J135000D01*
G01*
X154315000Y-100953000D01*
G75*
G02*
X154450000Y-100818000I135000J0D01*
G01*
G37*
%TD*%
%TO.C,R13*%
G36*
G01*
X149980000Y-102803000D02*
X150350000Y-102803000D01*
G75*
G02*
X150485000Y-102938000I0J-135000D01*
G01*
X150485000Y-103208000D01*
G75*
G02*
X150350000Y-103343000I-135000J0D01*
G01*
X149980000Y-103343000D01*
G75*
G02*
X149845000Y-103208000I0J135000D01*
G01*
X149845000Y-102938000D01*
G75*
G02*
X149980000Y-102803000I135000J0D01*
G01*
G37*
G36*
G01*
X149980000Y-101783000D02*
X150350000Y-101783000D01*
G75*
G02*
X150485000Y-101918000I0J-135000D01*
G01*
X150485000Y-102188000D01*
G75*
G02*
X150350000Y-102323000I-135000J0D01*
G01*
X149980000Y-102323000D01*
G75*
G02*
X149845000Y-102188000I0J135000D01*
G01*
X149845000Y-101918000D01*
G75*
G02*
X149980000Y-101783000I135000J0D01*
G01*
G37*
%TD*%
%TO.C,R12*%
G36*
G01*
X148100000Y-94218000D02*
X148470000Y-94218000D01*
G75*
G02*
X148605000Y-94353000I0J-135000D01*
G01*
X148605000Y-94623000D01*
G75*
G02*
X148470000Y-94758000I-135000J0D01*
G01*
X148100000Y-94758000D01*
G75*
G02*
X147965000Y-94623000I0J135000D01*
G01*
X147965000Y-94353000D01*
G75*
G02*
X148100000Y-94218000I135000J0D01*
G01*
G37*
G36*
G01*
X148100000Y-93198000D02*
X148470000Y-93198000D01*
G75*
G02*
X148605000Y-93333000I0J-135000D01*
G01*
X148605000Y-93603000D01*
G75*
G02*
X148470000Y-93738000I-135000J0D01*
G01*
X148100000Y-93738000D01*
G75*
G02*
X147965000Y-93603000I0J135000D01*
G01*
X147965000Y-93333000D01*
G75*
G02*
X148100000Y-93198000I135000J0D01*
G01*
G37*
%TD*%
%TO.C,R11*%
G36*
G01*
X143579000Y-95134400D02*
X143949000Y-95134400D01*
G75*
G02*
X144084000Y-95269400I0J-135000D01*
G01*
X144084000Y-95539400D01*
G75*
G02*
X143949000Y-95674400I-135000J0D01*
G01*
X143579000Y-95674400D01*
G75*
G02*
X143444000Y-95539400I0J135000D01*
G01*
X143444000Y-95269400D01*
G75*
G02*
X143579000Y-95134400I135000J0D01*
G01*
G37*
G36*
G01*
X143579000Y-94114400D02*
X143949000Y-94114400D01*
G75*
G02*
X144084000Y-94249400I0J-135000D01*
G01*
X144084000Y-94519400D01*
G75*
G02*
X143949000Y-94654400I-135000J0D01*
G01*
X143579000Y-94654400D01*
G75*
G02*
X143444000Y-94519400I0J135000D01*
G01*
X143444000Y-94249400D01*
G75*
G02*
X143579000Y-94114400I135000J0D01*
G01*
G37*
%TD*%
%TO.C,R10*%
G36*
G01*
X154450000Y-91680000D02*
X154820000Y-91680000D01*
G75*
G02*
X154955000Y-91815000I0J-135000D01*
G01*
X154955000Y-92085000D01*
G75*
G02*
X154820000Y-92220000I-135000J0D01*
G01*
X154450000Y-92220000D01*
G75*
G02*
X154315000Y-92085000I0J135000D01*
G01*
X154315000Y-91815000D01*
G75*
G02*
X154450000Y-91680000I135000J0D01*
G01*
G37*
G36*
G01*
X154450000Y-90660000D02*
X154820000Y-90660000D01*
G75*
G02*
X154955000Y-90795000I0J-135000D01*
G01*
X154955000Y-91065000D01*
G75*
G02*
X154820000Y-91200000I-135000J0D01*
G01*
X154450000Y-91200000D01*
G75*
G02*
X154315000Y-91065000I0J135000D01*
G01*
X154315000Y-90795000D01*
G75*
G02*
X154450000Y-90660000I135000J0D01*
G01*
G37*
%TD*%
%TO.C,R9*%
G36*
G01*
X149980000Y-92645200D02*
X150350000Y-92645200D01*
G75*
G02*
X150485000Y-92780200I0J-135000D01*
G01*
X150485000Y-93050200D01*
G75*
G02*
X150350000Y-93185200I-135000J0D01*
G01*
X149980000Y-93185200D01*
G75*
G02*
X149845000Y-93050200I0J135000D01*
G01*
X149845000Y-92780200D01*
G75*
G02*
X149980000Y-92645200I135000J0D01*
G01*
G37*
G36*
G01*
X149980000Y-91625200D02*
X150350000Y-91625200D01*
G75*
G02*
X150485000Y-91760200I0J-135000D01*
G01*
X150485000Y-92030200D01*
G75*
G02*
X150350000Y-92165200I-135000J0D01*
G01*
X149980000Y-92165200D01*
G75*
G02*
X149845000Y-92030200I0J135000D01*
G01*
X149845000Y-91760200D01*
G75*
G02*
X149980000Y-91625200I135000J0D01*
G01*
G37*
%TD*%
%TO.C,R8*%
G36*
G01*
X148151000Y-104378000D02*
X148521000Y-104378000D01*
G75*
G02*
X148656000Y-104513000I0J-135000D01*
G01*
X148656000Y-104783000D01*
G75*
G02*
X148521000Y-104918000I-135000J0D01*
G01*
X148151000Y-104918000D01*
G75*
G02*
X148016000Y-104783000I0J135000D01*
G01*
X148016000Y-104513000D01*
G75*
G02*
X148151000Y-104378000I135000J0D01*
G01*
G37*
G36*
G01*
X148151000Y-103358000D02*
X148521000Y-103358000D01*
G75*
G02*
X148656000Y-103493000I0J-135000D01*
G01*
X148656000Y-103763000D01*
G75*
G02*
X148521000Y-103898000I-135000J0D01*
G01*
X148151000Y-103898000D01*
G75*
G02*
X148016000Y-103763000I0J135000D01*
G01*
X148016000Y-103493000D01*
G75*
G02*
X148151000Y-103358000I135000J0D01*
G01*
G37*
%TD*%
%TO.C,R7*%
G36*
G01*
X148100000Y-89140000D02*
X148470000Y-89140000D01*
G75*
G02*
X148605000Y-89275000I0J-135000D01*
G01*
X148605000Y-89545000D01*
G75*
G02*
X148470000Y-89680000I-135000J0D01*
G01*
X148100000Y-89680000D01*
G75*
G02*
X147965000Y-89545000I0J135000D01*
G01*
X147965000Y-89275000D01*
G75*
G02*
X148100000Y-89140000I135000J0D01*
G01*
G37*
G36*
G01*
X148100000Y-88120000D02*
X148470000Y-88120000D01*
G75*
G02*
X148605000Y-88255000I0J-135000D01*
G01*
X148605000Y-88525000D01*
G75*
G02*
X148470000Y-88660000I-135000J0D01*
G01*
X148100000Y-88660000D01*
G75*
G02*
X147965000Y-88525000I0J135000D01*
G01*
X147965000Y-88255000D01*
G75*
G02*
X148100000Y-88120000I135000J0D01*
G01*
G37*
%TD*%
%TO.C,R6*%
G36*
G01*
X143579000Y-105345000D02*
X143949000Y-105345000D01*
G75*
G02*
X144084000Y-105480000I0J-135000D01*
G01*
X144084000Y-105750000D01*
G75*
G02*
X143949000Y-105885000I-135000J0D01*
G01*
X143579000Y-105885000D01*
G75*
G02*
X143444000Y-105750000I0J135000D01*
G01*
X143444000Y-105480000D01*
G75*
G02*
X143579000Y-105345000I135000J0D01*
G01*
G37*
G36*
G01*
X143579000Y-104325000D02*
X143949000Y-104325000D01*
G75*
G02*
X144084000Y-104460000I0J-135000D01*
G01*
X144084000Y-104730000D01*
G75*
G02*
X143949000Y-104865000I-135000J0D01*
G01*
X143579000Y-104865000D01*
G75*
G02*
X143444000Y-104730000I0J135000D01*
G01*
X143444000Y-104460000D01*
G75*
G02*
X143579000Y-104325000I135000J0D01*
G01*
G37*
%TD*%
%TO.C,R5*%
G36*
G01*
X143630000Y-90105200D02*
X144000000Y-90105200D01*
G75*
G02*
X144135000Y-90240200I0J-135000D01*
G01*
X144135000Y-90510200D01*
G75*
G02*
X144000000Y-90645200I-135000J0D01*
G01*
X143630000Y-90645200D01*
G75*
G02*
X143495000Y-90510200I0J135000D01*
G01*
X143495000Y-90240200D01*
G75*
G02*
X143630000Y-90105200I135000J0D01*
G01*
G37*
G36*
G01*
X143630000Y-89085200D02*
X144000000Y-89085200D01*
G75*
G02*
X144135000Y-89220200I0J-135000D01*
G01*
X144135000Y-89490200D01*
G75*
G02*
X144000000Y-89625200I-135000J0D01*
G01*
X143630000Y-89625200D01*
G75*
G02*
X143495000Y-89490200I0J135000D01*
G01*
X143495000Y-89220200D01*
G75*
G02*
X143630000Y-89085200I135000J0D01*
G01*
G37*
%TD*%
%TO.C,R4*%
G36*
G01*
X148100000Y-99300000D02*
X148470000Y-99300000D01*
G75*
G02*
X148605000Y-99435000I0J-135000D01*
G01*
X148605000Y-99705000D01*
G75*
G02*
X148470000Y-99840000I-135000J0D01*
G01*
X148100000Y-99840000D01*
G75*
G02*
X147965000Y-99705000I0J135000D01*
G01*
X147965000Y-99435000D01*
G75*
G02*
X148100000Y-99300000I135000J0D01*
G01*
G37*
G36*
G01*
X148100000Y-98280000D02*
X148470000Y-98280000D01*
G75*
G02*
X148605000Y-98415000I0J-135000D01*
G01*
X148605000Y-98685000D01*
G75*
G02*
X148470000Y-98820000I-135000J0D01*
G01*
X148100000Y-98820000D01*
G75*
G02*
X147965000Y-98685000I0J135000D01*
G01*
X147965000Y-98415000D01*
G75*
G02*
X148100000Y-98280000I135000J0D01*
G01*
G37*
%TD*%
%TO.C,R3*%
G36*
G01*
X154501000Y-86600000D02*
X154871000Y-86600000D01*
G75*
G02*
X155006000Y-86735000I0J-135000D01*
G01*
X155006000Y-87005000D01*
G75*
G02*
X154871000Y-87140000I-135000J0D01*
G01*
X154501000Y-87140000D01*
G75*
G02*
X154366000Y-87005000I0J135000D01*
G01*
X154366000Y-86735000D01*
G75*
G02*
X154501000Y-86600000I135000J0D01*
G01*
G37*
G36*
G01*
X154501000Y-85580000D02*
X154871000Y-85580000D01*
G75*
G02*
X155006000Y-85715000I0J-135000D01*
G01*
X155006000Y-85985000D01*
G75*
G02*
X154871000Y-86120000I-135000J0D01*
G01*
X154501000Y-86120000D01*
G75*
G02*
X154366000Y-85985000I0J135000D01*
G01*
X154366000Y-85715000D01*
G75*
G02*
X154501000Y-85580000I135000J0D01*
G01*
G37*
%TD*%
%TO.C,R2*%
G36*
G01*
X143630000Y-100265000D02*
X144000000Y-100265000D01*
G75*
G02*
X144135000Y-100400000I0J-135000D01*
G01*
X144135000Y-100670000D01*
G75*
G02*
X144000000Y-100805000I-135000J0D01*
G01*
X143630000Y-100805000D01*
G75*
G02*
X143495000Y-100670000I0J135000D01*
G01*
X143495000Y-100400000D01*
G75*
G02*
X143630000Y-100265000I135000J0D01*
G01*
G37*
G36*
G01*
X143630000Y-99245000D02*
X144000000Y-99245000D01*
G75*
G02*
X144135000Y-99380000I0J-135000D01*
G01*
X144135000Y-99650000D01*
G75*
G02*
X144000000Y-99785000I-135000J0D01*
G01*
X143630000Y-99785000D01*
G75*
G02*
X143495000Y-99650000I0J135000D01*
G01*
X143495000Y-99380000D01*
G75*
G02*
X143630000Y-99245000I135000J0D01*
G01*
G37*
%TD*%
%TO.C,R1*%
G36*
G01*
X149929000Y-87514400D02*
X150299000Y-87514400D01*
G75*
G02*
X150434000Y-87649400I0J-135000D01*
G01*
X150434000Y-87919400D01*
G75*
G02*
X150299000Y-88054400I-135000J0D01*
G01*
X149929000Y-88054400D01*
G75*
G02*
X149794000Y-87919400I0J135000D01*
G01*
X149794000Y-87649400D01*
G75*
G02*
X149929000Y-87514400I135000J0D01*
G01*
G37*
G36*
G01*
X149929000Y-86494400D02*
X150299000Y-86494400D01*
G75*
G02*
X150434000Y-86629400I0J-135000D01*
G01*
X150434000Y-86899400D01*
G75*
G02*
X150299000Y-87034400I-135000J0D01*
G01*
X149929000Y-87034400D01*
G75*
G02*
X149794000Y-86899400I0J135000D01*
G01*
X149794000Y-86629400D01*
G75*
G02*
X149929000Y-86494400I135000J0D01*
G01*
G37*
%TD*%
D13*
%TO.C,Q8*%
X153400000Y-97028000D03*
X151400000Y-97978000D03*
X151400000Y-96078000D03*
%TD*%
%TO.C,Q7*%
X153400000Y-102108000D03*
X151400000Y-103058000D03*
X151400000Y-101158000D03*
%TD*%
%TO.C,Q6*%
X147050000Y-94488000D03*
X145050000Y-95438000D03*
X145050000Y-93538000D03*
%TD*%
%TO.C,Q5*%
X153400000Y-91948000D03*
X151400000Y-92898000D03*
X151400000Y-90998000D03*
%TD*%
%TO.C,Q4*%
X147050000Y-104648000D03*
X145050000Y-105598000D03*
X145050000Y-103698000D03*
%TD*%
%TO.C,Q3*%
X147050000Y-89408000D03*
X145050000Y-90358000D03*
X145050000Y-88458000D03*
%TD*%
%TO.C,Q2*%
X147050000Y-99568000D03*
X145050000Y-100518000D03*
X145050000Y-98618000D03*
%TD*%
%TO.C,Q1*%
X153400000Y-86868000D03*
X151400000Y-87818000D03*
X151400000Y-85918000D03*
%TD*%
D11*
%TO.C,JPTXD1*%
G36*
X148856602Y-77709000D02*
G01*
X148856602Y-77684466D01*
X148861412Y-77635635D01*
X148870984Y-77587510D01*
X148885228Y-77540555D01*
X148904005Y-77495222D01*
X148927136Y-77451949D01*
X148954396Y-77411150D01*
X148985524Y-77373221D01*
X149020221Y-77338524D01*
X149058150Y-77307396D01*
X149098949Y-77280136D01*
X149142222Y-77257005D01*
X149187555Y-77238228D01*
X149234510Y-77223984D01*
X149282635Y-77214412D01*
X149331466Y-77209602D01*
X149356000Y-77209602D01*
X149356000Y-77209000D01*
X149856000Y-77209000D01*
X149856000Y-77209602D01*
X149880534Y-77209602D01*
X149929365Y-77214412D01*
X149977490Y-77223984D01*
X150024445Y-77238228D01*
X150069778Y-77257005D01*
X150113051Y-77280136D01*
X150153850Y-77307396D01*
X150191779Y-77338524D01*
X150226476Y-77373221D01*
X150257604Y-77411150D01*
X150284864Y-77451949D01*
X150307995Y-77495222D01*
X150326772Y-77540555D01*
X150341016Y-77587510D01*
X150350588Y-77635635D01*
X150355398Y-77684466D01*
X150355398Y-77709000D01*
X150356000Y-77709000D01*
X150356000Y-78209000D01*
X148856000Y-78209000D01*
X148856000Y-77709000D01*
X148856602Y-77709000D01*
G37*
G36*
X150356000Y-78509000D02*
G01*
X150356000Y-79009000D01*
X150355398Y-79009000D01*
X150355398Y-79033534D01*
X150350588Y-79082365D01*
X150341016Y-79130490D01*
X150326772Y-79177445D01*
X150307995Y-79222778D01*
X150284864Y-79266051D01*
X150257604Y-79306850D01*
X150226476Y-79344779D01*
X150191779Y-79379476D01*
X150153850Y-79410604D01*
X150113051Y-79437864D01*
X150069778Y-79460995D01*
X150024445Y-79479772D01*
X149977490Y-79494016D01*
X149929365Y-79503588D01*
X149880534Y-79508398D01*
X149856000Y-79508398D01*
X149856000Y-79509000D01*
X149356000Y-79509000D01*
X149356000Y-79508398D01*
X149331466Y-79508398D01*
X149282635Y-79503588D01*
X149234510Y-79494016D01*
X149187555Y-79479772D01*
X149142222Y-79460995D01*
X149098949Y-79437864D01*
X149058150Y-79410604D01*
X149020221Y-79379476D01*
X148985524Y-79344779D01*
X148954396Y-79306850D01*
X148927136Y-79266051D01*
X148904005Y-79222778D01*
X148885228Y-79177445D01*
X148870984Y-79130490D01*
X148861412Y-79082365D01*
X148856602Y-79033534D01*
X148856602Y-79009000D01*
X148856000Y-79009000D01*
X148856000Y-78509000D01*
X150356000Y-78509000D01*
G37*
%TD*%
%TO.C,JPRXD1*%
G36*
X146545398Y-79009000D02*
G01*
X146545398Y-79033534D01*
X146540588Y-79082365D01*
X146531016Y-79130490D01*
X146516772Y-79177445D01*
X146497995Y-79222778D01*
X146474864Y-79266051D01*
X146447604Y-79306850D01*
X146416476Y-79344779D01*
X146381779Y-79379476D01*
X146343850Y-79410604D01*
X146303051Y-79437864D01*
X146259778Y-79460995D01*
X146214445Y-79479772D01*
X146167490Y-79494016D01*
X146119365Y-79503588D01*
X146070534Y-79508398D01*
X146046000Y-79508398D01*
X146046000Y-79509000D01*
X145546000Y-79509000D01*
X145546000Y-79508398D01*
X145521466Y-79508398D01*
X145472635Y-79503588D01*
X145424510Y-79494016D01*
X145377555Y-79479772D01*
X145332222Y-79460995D01*
X145288949Y-79437864D01*
X145248150Y-79410604D01*
X145210221Y-79379476D01*
X145175524Y-79344779D01*
X145144396Y-79306850D01*
X145117136Y-79266051D01*
X145094005Y-79222778D01*
X145075228Y-79177445D01*
X145060984Y-79130490D01*
X145051412Y-79082365D01*
X145046602Y-79033534D01*
X145046602Y-79009000D01*
X145046000Y-79009000D01*
X145046000Y-78509000D01*
X146546000Y-78509000D01*
X146546000Y-79009000D01*
X146545398Y-79009000D01*
G37*
G36*
X145046000Y-78209000D02*
G01*
X145046000Y-77709000D01*
X145046602Y-77709000D01*
X145046602Y-77684466D01*
X145051412Y-77635635D01*
X145060984Y-77587510D01*
X145075228Y-77540555D01*
X145094005Y-77495222D01*
X145117136Y-77451949D01*
X145144396Y-77411150D01*
X145175524Y-77373221D01*
X145210221Y-77338524D01*
X145248150Y-77307396D01*
X145288949Y-77280136D01*
X145332222Y-77257005D01*
X145377555Y-77238228D01*
X145424510Y-77223984D01*
X145472635Y-77214412D01*
X145521466Y-77209602D01*
X145546000Y-77209602D01*
X145546000Y-77209000D01*
X146046000Y-77209000D01*
X146046000Y-77209602D01*
X146070534Y-77209602D01*
X146119365Y-77214412D01*
X146167490Y-77223984D01*
X146214445Y-77238228D01*
X146259778Y-77257005D01*
X146303051Y-77280136D01*
X146343850Y-77307396D01*
X146381779Y-77338524D01*
X146416476Y-77373221D01*
X146447604Y-77411150D01*
X146474864Y-77451949D01*
X146497995Y-77495222D01*
X146516772Y-77540555D01*
X146531016Y-77587510D01*
X146540588Y-77635635D01*
X146545398Y-77684466D01*
X146545398Y-77709000D01*
X146546000Y-77709000D01*
X146546000Y-78209000D01*
X145046000Y-78209000D01*
G37*
%TD*%
%TO.C,JPLTXD1*%
G36*
X121920000Y-76466602D02*
G01*
X121944534Y-76466602D01*
X121993365Y-76471412D01*
X122041490Y-76480984D01*
X122088445Y-76495228D01*
X122133778Y-76514005D01*
X122177051Y-76537136D01*
X122217850Y-76564396D01*
X122255779Y-76595524D01*
X122290476Y-76630221D01*
X122321604Y-76668150D01*
X122348864Y-76708949D01*
X122371995Y-76752222D01*
X122390772Y-76797555D01*
X122405016Y-76844510D01*
X122414588Y-76892635D01*
X122419398Y-76941466D01*
X122419398Y-76966000D01*
X122420000Y-76966000D01*
X122420000Y-77466000D01*
X122419398Y-77466000D01*
X122419398Y-77490534D01*
X122414588Y-77539365D01*
X122405016Y-77587490D01*
X122390772Y-77634445D01*
X122371995Y-77679778D01*
X122348864Y-77723051D01*
X122321604Y-77763850D01*
X122290476Y-77801779D01*
X122255779Y-77836476D01*
X122217850Y-77867604D01*
X122177051Y-77894864D01*
X122133778Y-77917995D01*
X122088445Y-77936772D01*
X122041490Y-77951016D01*
X121993365Y-77960588D01*
X121944534Y-77965398D01*
X121920000Y-77965398D01*
X121920000Y-77966000D01*
X121420000Y-77966000D01*
X121420000Y-76466000D01*
X121920000Y-76466000D01*
X121920000Y-76466602D01*
G37*
G36*
X121120000Y-77966000D02*
G01*
X120620000Y-77966000D01*
X120620000Y-77965398D01*
X120595466Y-77965398D01*
X120546635Y-77960588D01*
X120498510Y-77951016D01*
X120451555Y-77936772D01*
X120406222Y-77917995D01*
X120362949Y-77894864D01*
X120322150Y-77867604D01*
X120284221Y-77836476D01*
X120249524Y-77801779D01*
X120218396Y-77763850D01*
X120191136Y-77723051D01*
X120168005Y-77679778D01*
X120149228Y-77634445D01*
X120134984Y-77587490D01*
X120125412Y-77539365D01*
X120120602Y-77490534D01*
X120120602Y-77466000D01*
X120120000Y-77466000D01*
X120120000Y-76966000D01*
X120120602Y-76966000D01*
X120120602Y-76941466D01*
X120125412Y-76892635D01*
X120134984Y-76844510D01*
X120149228Y-76797555D01*
X120168005Y-76752222D01*
X120191136Y-76708949D01*
X120218396Y-76668150D01*
X120249524Y-76630221D01*
X120284221Y-76595524D01*
X120322150Y-76564396D01*
X120362949Y-76537136D01*
X120406222Y-76514005D01*
X120451555Y-76495228D01*
X120498510Y-76480984D01*
X120546635Y-76471412D01*
X120595466Y-76466602D01*
X120620000Y-76466602D01*
X120620000Y-76466000D01*
X121120000Y-76466000D01*
X121120000Y-77966000D01*
G37*
%TD*%
%TO.C,JPLRXD1*%
G36*
X121920000Y-79260602D02*
G01*
X121944534Y-79260602D01*
X121993365Y-79265412D01*
X122041490Y-79274984D01*
X122088445Y-79289228D01*
X122133778Y-79308005D01*
X122177051Y-79331136D01*
X122217850Y-79358396D01*
X122255779Y-79389524D01*
X122290476Y-79424221D01*
X122321604Y-79462150D01*
X122348864Y-79502949D01*
X122371995Y-79546222D01*
X122390772Y-79591555D01*
X122405016Y-79638510D01*
X122414588Y-79686635D01*
X122419398Y-79735466D01*
X122419398Y-79760000D01*
X122420000Y-79760000D01*
X122420000Y-80260000D01*
X122419398Y-80260000D01*
X122419398Y-80284534D01*
X122414588Y-80333365D01*
X122405016Y-80381490D01*
X122390772Y-80428445D01*
X122371995Y-80473778D01*
X122348864Y-80517051D01*
X122321604Y-80557850D01*
X122290476Y-80595779D01*
X122255779Y-80630476D01*
X122217850Y-80661604D01*
X122177051Y-80688864D01*
X122133778Y-80711995D01*
X122088445Y-80730772D01*
X122041490Y-80745016D01*
X121993365Y-80754588D01*
X121944534Y-80759398D01*
X121920000Y-80759398D01*
X121920000Y-80760000D01*
X121420000Y-80760000D01*
X121420000Y-79260000D01*
X121920000Y-79260000D01*
X121920000Y-79260602D01*
G37*
G36*
X121120000Y-80760000D02*
G01*
X120620000Y-80760000D01*
X120620000Y-80759398D01*
X120595466Y-80759398D01*
X120546635Y-80754588D01*
X120498510Y-80745016D01*
X120451555Y-80730772D01*
X120406222Y-80711995D01*
X120362949Y-80688864D01*
X120322150Y-80661604D01*
X120284221Y-80630476D01*
X120249524Y-80595779D01*
X120218396Y-80557850D01*
X120191136Y-80517051D01*
X120168005Y-80473778D01*
X120149228Y-80428445D01*
X120134984Y-80381490D01*
X120125412Y-80333365D01*
X120120602Y-80284534D01*
X120120602Y-80260000D01*
X120120000Y-80260000D01*
X120120000Y-79760000D01*
X120120602Y-79760000D01*
X120120602Y-79735466D01*
X120125412Y-79686635D01*
X120134984Y-79638510D01*
X120149228Y-79591555D01*
X120168005Y-79546222D01*
X120191136Y-79502949D01*
X120218396Y-79462150D01*
X120249524Y-79424221D01*
X120284221Y-79389524D01*
X120322150Y-79358396D01*
X120362949Y-79331136D01*
X120406222Y-79308005D01*
X120451555Y-79289228D01*
X120498510Y-79274984D01*
X120546635Y-79265412D01*
X120595466Y-79260602D01*
X120620000Y-79260602D01*
X120620000Y-79260000D01*
X121120000Y-79260000D01*
X121120000Y-80760000D01*
G37*
%TD*%
D14*
%TO.C,J13*%
X161290000Y-104648000D03*
X161290000Y-102108000D03*
X161290000Y-99568000D03*
X161290000Y-97028000D03*
X161290000Y-94488000D03*
X161290000Y-91948000D03*
X161290000Y-89408000D03*
X161290000Y-86868000D03*
X161290000Y-84328000D03*
X161290000Y-81788000D03*
D15*
X161290000Y-79248000D03*
%TD*%
D14*
%TO.C,J12*%
X158750000Y-104648000D03*
X158750000Y-102108000D03*
X158750000Y-99568000D03*
X158750000Y-97028000D03*
X158750000Y-94488000D03*
X158750000Y-91948000D03*
X158750000Y-89408000D03*
X158750000Y-86868000D03*
X158750000Y-84328000D03*
X158750000Y-81788000D03*
D15*
X158750000Y-79248000D03*
%TD*%
D14*
%TO.C,J11*%
X160528000Y-59690000D03*
X157988000Y-59690000D03*
X155448000Y-59690000D03*
X152908000Y-59690000D03*
X150368000Y-59690000D03*
D15*
X147828000Y-59690000D03*
%TD*%
D14*
%TO.C,J10*%
X139700000Y-105918000D03*
X139700000Y-103378000D03*
X139700000Y-100838000D03*
X139700000Y-98298000D03*
X139700000Y-95758000D03*
X139700000Y-93218000D03*
X139700000Y-90678000D03*
X139700000Y-88138000D03*
X139700000Y-85598000D03*
D15*
X139700000Y-83058000D03*
%TD*%
D14*
%TO.C,J9*%
X121158000Y-85598000D03*
D15*
X121158000Y-88138000D03*
%TD*%
D14*
%TO.C,J8*%
X130048000Y-59690000D03*
X132588000Y-59690000D03*
X135128000Y-59690000D03*
D15*
X137668000Y-59690000D03*
%TD*%
D14*
%TO.C,J6*%
X123698000Y-59690000D03*
D15*
X121158000Y-59690000D03*
%TD*%
%TO.C,C3*%
G36*
G01*
X161442080Y-114754280D02*
X161442080Y-114414280D01*
G75*
G02*
X161582080Y-114274280I140000J0D01*
G01*
X161862080Y-114274280D01*
G75*
G02*
X162002080Y-114414280I0J-140000D01*
G01*
X162002080Y-114754280D01*
G75*
G02*
X161862080Y-114894280I-140000J0D01*
G01*
X161582080Y-114894280D01*
G75*
G02*
X161442080Y-114754280I0J140000D01*
G01*
G37*
G36*
G01*
X160482080Y-114754280D02*
X160482080Y-114414280D01*
G75*
G02*
X160622080Y-114274280I140000J0D01*
G01*
X160902080Y-114274280D01*
G75*
G02*
X161042080Y-114414280I0J-140000D01*
G01*
X161042080Y-114754280D01*
G75*
G02*
X160902080Y-114894280I-140000J0D01*
G01*
X160622080Y-114894280D01*
G75*
G02*
X160482080Y-114754280I0J140000D01*
G01*
G37*
%TD*%
%TO.C,C2*%
G36*
G01*
X139522000Y-114673000D02*
X139522000Y-114333000D01*
G75*
G02*
X139662000Y-114193000I140000J0D01*
G01*
X139942000Y-114193000D01*
G75*
G02*
X140082000Y-114333000I0J-140000D01*
G01*
X140082000Y-114673000D01*
G75*
G02*
X139942000Y-114813000I-140000J0D01*
G01*
X139662000Y-114813000D01*
G75*
G02*
X139522000Y-114673000I0J140000D01*
G01*
G37*
G36*
G01*
X138562000Y-114673000D02*
X138562000Y-114333000D01*
G75*
G02*
X138702000Y-114193000I140000J0D01*
G01*
X138982000Y-114193000D01*
G75*
G02*
X139122000Y-114333000I0J-140000D01*
G01*
X139122000Y-114673000D01*
G75*
G02*
X138982000Y-114813000I-140000J0D01*
G01*
X138702000Y-114813000D01*
G75*
G02*
X138562000Y-114673000I0J140000D01*
G01*
G37*
%TD*%
%TO.C,C1*%
G36*
G01*
X152727000Y-67099000D02*
X152727000Y-66759000D01*
G75*
G02*
X152867000Y-66619000I140000J0D01*
G01*
X153147000Y-66619000D01*
G75*
G02*
X153287000Y-66759000I0J-140000D01*
G01*
X153287000Y-67099000D01*
G75*
G02*
X153147000Y-67239000I-140000J0D01*
G01*
X152867000Y-67239000D01*
G75*
G02*
X152727000Y-67099000I0J140000D01*
G01*
G37*
G36*
G01*
X151767000Y-67099000D02*
X151767000Y-66759000D01*
G75*
G02*
X151907000Y-66619000I140000J0D01*
G01*
X152187000Y-66619000D01*
G75*
G02*
X152327000Y-66759000I0J-140000D01*
G01*
X152327000Y-67099000D01*
G75*
G02*
X152187000Y-67239000I-140000J0D01*
G01*
X151907000Y-67239000D01*
G75*
G02*
X151767000Y-67099000I0J140000D01*
G01*
G37*
%TD*%
D16*
%TO.C,J3*%
X85090000Y-101600000D03*
X85090000Y-100330000D03*
X85090000Y-99060000D03*
X85090000Y-97790000D03*
X85090000Y-96520000D03*
X85090000Y-95250000D03*
X85090000Y-93980000D03*
X85090000Y-92710000D03*
X85090000Y-91440000D03*
X85090000Y-90170000D03*
X85090000Y-88900000D03*
X85090000Y-87630000D03*
X85090000Y-86360000D03*
X85090000Y-85090000D03*
X85090000Y-83820000D03*
D17*
X85090000Y-82550000D03*
%TD*%
D16*
%TO.C,J2*%
X107950000Y-111760000D03*
X107950000Y-110490000D03*
X107950000Y-109220000D03*
X107950000Y-107950000D03*
X107950000Y-106680000D03*
X107950000Y-105410000D03*
X107950000Y-104140000D03*
X107950000Y-102870000D03*
X107950000Y-101600000D03*
X107950000Y-100330000D03*
X107950000Y-99060000D03*
X107950000Y-97790000D03*
X107950000Y-96520000D03*
X107950000Y-95250000D03*
X107950000Y-93980000D03*
X107950000Y-92710000D03*
X107950000Y-91440000D03*
X107950000Y-90170000D03*
X107950000Y-88900000D03*
X107950000Y-87630000D03*
X107950000Y-86360000D03*
X107950000Y-85090000D03*
X107950000Y-83820000D03*
D17*
X107950000Y-82550000D03*
%TD*%
D15*
%TO.C,J1*%
X115570000Y-62230000D03*
D14*
X115570000Y-64770000D03*
X115570000Y-67310000D03*
X115570000Y-69850000D03*
X115570000Y-72390000D03*
X115570000Y-74930000D03*
X115570000Y-77470000D03*
X115570000Y-80010000D03*
X115570000Y-82550000D03*
X115570000Y-85090000D03*
X115570000Y-87630000D03*
X115570000Y-90170000D03*
X115570000Y-92710000D03*
X115570000Y-95250000D03*
X115570000Y-97790000D03*
X115570000Y-100330000D03*
X115570000Y-102870000D03*
X115570000Y-105410000D03*
X115570000Y-107950000D03*
X115570000Y-110490000D03*
X115570000Y-113030000D03*
X115570000Y-115570000D03*
X115570000Y-118110000D03*
X115570000Y-120650000D03*
%TD*%
D15*
%TO.C,J4*%
X78740000Y-62230000D03*
D14*
X78740000Y-64770000D03*
X78740000Y-67310000D03*
X78740000Y-69850000D03*
X78740000Y-72390000D03*
X78740000Y-74930000D03*
X78740000Y-77470000D03*
X78740000Y-80010000D03*
X78740000Y-82550000D03*
X78740000Y-85090000D03*
X78740000Y-87630000D03*
X78740000Y-90170000D03*
X78740000Y-92710000D03*
X78740000Y-95250000D03*
X78740000Y-97790000D03*
X78740000Y-100330000D03*
%TD*%
M02*
