%TF.GenerationSoftware,KiCad,Pcbnew,(5.1.8)-1*%
%TF.CreationDate,2020-11-23T02:20:36+03:00*%
%TF.ProjectId,morphesp240_g850_interface,6d6f7270-6865-4737-9032-34305f673835,1.0*%
%TF.SameCoordinates,Original*%
%TF.FileFunction,Paste,Top*%
%TF.FilePolarity,Positive*%
%FSLAX46Y46*%
G04 Gerber Fmt 4.6, Leading zero omitted, Abs format (unit mm)*
G04 Created by KiCad (PCBNEW (5.1.8)-1) date 2020-11-23 02:20:36*
%MOMM*%
%LPD*%
G01*
G04 APERTURE LIST*
%ADD10R,0.900000X0.800000*%
G04 APERTURE END LIST*
%TO.C,U1*%
G36*
G01*
X149201000Y-67079000D02*
X149201000Y-66779000D01*
G75*
G02*
X149351000Y-66629000I150000J0D01*
G01*
X151001000Y-66629000D01*
G75*
G02*
X151151000Y-66779000I0J-150000D01*
G01*
X151151000Y-67079000D01*
G75*
G02*
X151001000Y-67229000I-150000J0D01*
G01*
X149351000Y-67229000D01*
G75*
G02*
X149201000Y-67079000I0J150000D01*
G01*
G37*
G36*
G01*
X149201000Y-68349000D02*
X149201000Y-68049000D01*
G75*
G02*
X149351000Y-67899000I150000J0D01*
G01*
X151001000Y-67899000D01*
G75*
G02*
X151151000Y-68049000I0J-150000D01*
G01*
X151151000Y-68349000D01*
G75*
G02*
X151001000Y-68499000I-150000J0D01*
G01*
X149351000Y-68499000D01*
G75*
G02*
X149201000Y-68349000I0J150000D01*
G01*
G37*
G36*
G01*
X149201000Y-69619000D02*
X149201000Y-69319000D01*
G75*
G02*
X149351000Y-69169000I150000J0D01*
G01*
X151001000Y-69169000D01*
G75*
G02*
X151151000Y-69319000I0J-150000D01*
G01*
X151151000Y-69619000D01*
G75*
G02*
X151001000Y-69769000I-150000J0D01*
G01*
X149351000Y-69769000D01*
G75*
G02*
X149201000Y-69619000I0J150000D01*
G01*
G37*
G36*
G01*
X149201000Y-70889000D02*
X149201000Y-70589000D01*
G75*
G02*
X149351000Y-70439000I150000J0D01*
G01*
X151001000Y-70439000D01*
G75*
G02*
X151151000Y-70589000I0J-150000D01*
G01*
X151151000Y-70889000D01*
G75*
G02*
X151001000Y-71039000I-150000J0D01*
G01*
X149351000Y-71039000D01*
G75*
G02*
X149201000Y-70889000I0J150000D01*
G01*
G37*
G36*
G01*
X149201000Y-72159000D02*
X149201000Y-71859000D01*
G75*
G02*
X149351000Y-71709000I150000J0D01*
G01*
X151001000Y-71709000D01*
G75*
G02*
X151151000Y-71859000I0J-150000D01*
G01*
X151151000Y-72159000D01*
G75*
G02*
X151001000Y-72309000I-150000J0D01*
G01*
X149351000Y-72309000D01*
G75*
G02*
X149201000Y-72159000I0J150000D01*
G01*
G37*
G36*
G01*
X149201000Y-73429000D02*
X149201000Y-73129000D01*
G75*
G02*
X149351000Y-72979000I150000J0D01*
G01*
X151001000Y-72979000D01*
G75*
G02*
X151151000Y-73129000I0J-150000D01*
G01*
X151151000Y-73429000D01*
G75*
G02*
X151001000Y-73579000I-150000J0D01*
G01*
X149351000Y-73579000D01*
G75*
G02*
X149201000Y-73429000I0J150000D01*
G01*
G37*
G36*
G01*
X149201000Y-74699000D02*
X149201000Y-74399000D01*
G75*
G02*
X149351000Y-74249000I150000J0D01*
G01*
X151001000Y-74249000D01*
G75*
G02*
X151151000Y-74399000I0J-150000D01*
G01*
X151151000Y-74699000D01*
G75*
G02*
X151001000Y-74849000I-150000J0D01*
G01*
X149351000Y-74849000D01*
G75*
G02*
X149201000Y-74699000I0J150000D01*
G01*
G37*
G36*
G01*
X144251000Y-74699000D02*
X144251000Y-74399000D01*
G75*
G02*
X144401000Y-74249000I150000J0D01*
G01*
X146051000Y-74249000D01*
G75*
G02*
X146201000Y-74399000I0J-150000D01*
G01*
X146201000Y-74699000D01*
G75*
G02*
X146051000Y-74849000I-150000J0D01*
G01*
X144401000Y-74849000D01*
G75*
G02*
X144251000Y-74699000I0J150000D01*
G01*
G37*
G36*
G01*
X144251000Y-73429000D02*
X144251000Y-73129000D01*
G75*
G02*
X144401000Y-72979000I150000J0D01*
G01*
X146051000Y-72979000D01*
G75*
G02*
X146201000Y-73129000I0J-150000D01*
G01*
X146201000Y-73429000D01*
G75*
G02*
X146051000Y-73579000I-150000J0D01*
G01*
X144401000Y-73579000D01*
G75*
G02*
X144251000Y-73429000I0J150000D01*
G01*
G37*
G36*
G01*
X144251000Y-72159000D02*
X144251000Y-71859000D01*
G75*
G02*
X144401000Y-71709000I150000J0D01*
G01*
X146051000Y-71709000D01*
G75*
G02*
X146201000Y-71859000I0J-150000D01*
G01*
X146201000Y-72159000D01*
G75*
G02*
X146051000Y-72309000I-150000J0D01*
G01*
X144401000Y-72309000D01*
G75*
G02*
X144251000Y-72159000I0J150000D01*
G01*
G37*
G36*
G01*
X144251000Y-70889000D02*
X144251000Y-70589000D01*
G75*
G02*
X144401000Y-70439000I150000J0D01*
G01*
X146051000Y-70439000D01*
G75*
G02*
X146201000Y-70589000I0J-150000D01*
G01*
X146201000Y-70889000D01*
G75*
G02*
X146051000Y-71039000I-150000J0D01*
G01*
X144401000Y-71039000D01*
G75*
G02*
X144251000Y-70889000I0J150000D01*
G01*
G37*
G36*
G01*
X144251000Y-69619000D02*
X144251000Y-69319000D01*
G75*
G02*
X144401000Y-69169000I150000J0D01*
G01*
X146051000Y-69169000D01*
G75*
G02*
X146201000Y-69319000I0J-150000D01*
G01*
X146201000Y-69619000D01*
G75*
G02*
X146051000Y-69769000I-150000J0D01*
G01*
X144401000Y-69769000D01*
G75*
G02*
X144251000Y-69619000I0J150000D01*
G01*
G37*
G36*
G01*
X144251000Y-68349000D02*
X144251000Y-68049000D01*
G75*
G02*
X144401000Y-67899000I150000J0D01*
G01*
X146051000Y-67899000D01*
G75*
G02*
X146201000Y-68049000I0J-150000D01*
G01*
X146201000Y-68349000D01*
G75*
G02*
X146051000Y-68499000I-150000J0D01*
G01*
X144401000Y-68499000D01*
G75*
G02*
X144251000Y-68349000I0J150000D01*
G01*
G37*
G36*
G01*
X144251000Y-67079000D02*
X144251000Y-66779000D01*
G75*
G02*
X144401000Y-66629000I150000J0D01*
G01*
X146051000Y-66629000D01*
G75*
G02*
X146201000Y-66779000I0J-150000D01*
G01*
X146201000Y-67079000D01*
G75*
G02*
X146051000Y-67229000I-150000J0D01*
G01*
X144401000Y-67229000D01*
G75*
G02*
X144251000Y-67079000I0J150000D01*
G01*
G37*
%TD*%
%TO.C,R18*%
G36*
G01*
X160627080Y-116401280D02*
X160997080Y-116401280D01*
G75*
G02*
X161132080Y-116536280I0J-135000D01*
G01*
X161132080Y-116806280D01*
G75*
G02*
X160997080Y-116941280I-135000J0D01*
G01*
X160627080Y-116941280D01*
G75*
G02*
X160492080Y-116806280I0J135000D01*
G01*
X160492080Y-116536280D01*
G75*
G02*
X160627080Y-116401280I135000J0D01*
G01*
G37*
G36*
G01*
X160627080Y-115381280D02*
X160997080Y-115381280D01*
G75*
G02*
X161132080Y-115516280I0J-135000D01*
G01*
X161132080Y-115786280D01*
G75*
G02*
X160997080Y-115921280I-135000J0D01*
G01*
X160627080Y-115921280D01*
G75*
G02*
X160492080Y-115786280I0J135000D01*
G01*
X160492080Y-115516280D01*
G75*
G02*
X160627080Y-115381280I135000J0D01*
G01*
G37*
%TD*%
%TO.C,R17*%
G36*
G01*
X138702000Y-116269000D02*
X139072000Y-116269000D01*
G75*
G02*
X139207000Y-116404000I0J-135000D01*
G01*
X139207000Y-116674000D01*
G75*
G02*
X139072000Y-116809000I-135000J0D01*
G01*
X138702000Y-116809000D01*
G75*
G02*
X138567000Y-116674000I0J135000D01*
G01*
X138567000Y-116404000D01*
G75*
G02*
X138702000Y-116269000I135000J0D01*
G01*
G37*
G36*
G01*
X138702000Y-115249000D02*
X139072000Y-115249000D01*
G75*
G02*
X139207000Y-115384000I0J-135000D01*
G01*
X139207000Y-115654000D01*
G75*
G02*
X139072000Y-115789000I-135000J0D01*
G01*
X138702000Y-115789000D01*
G75*
G02*
X138567000Y-115654000I0J135000D01*
G01*
X138567000Y-115384000D01*
G75*
G02*
X138702000Y-115249000I135000J0D01*
G01*
G37*
%TD*%
%TO.C,R16*%
G36*
G01*
X154552000Y-96760000D02*
X154922000Y-96760000D01*
G75*
G02*
X155057000Y-96895000I0J-135000D01*
G01*
X155057000Y-97165000D01*
G75*
G02*
X154922000Y-97300000I-135000J0D01*
G01*
X154552000Y-97300000D01*
G75*
G02*
X154417000Y-97165000I0J135000D01*
G01*
X154417000Y-96895000D01*
G75*
G02*
X154552000Y-96760000I135000J0D01*
G01*
G37*
G36*
G01*
X154552000Y-95740000D02*
X154922000Y-95740000D01*
G75*
G02*
X155057000Y-95875000I0J-135000D01*
G01*
X155057000Y-96145000D01*
G75*
G02*
X154922000Y-96280000I-135000J0D01*
G01*
X154552000Y-96280000D01*
G75*
G02*
X154417000Y-96145000I0J135000D01*
G01*
X154417000Y-95875000D01*
G75*
G02*
X154552000Y-95740000I135000J0D01*
G01*
G37*
%TD*%
%TO.C,R15*%
G36*
G01*
X149980000Y-97725200D02*
X150350000Y-97725200D01*
G75*
G02*
X150485000Y-97860200I0J-135000D01*
G01*
X150485000Y-98130200D01*
G75*
G02*
X150350000Y-98265200I-135000J0D01*
G01*
X149980000Y-98265200D01*
G75*
G02*
X149845000Y-98130200I0J135000D01*
G01*
X149845000Y-97860200D01*
G75*
G02*
X149980000Y-97725200I135000J0D01*
G01*
G37*
G36*
G01*
X149980000Y-96705200D02*
X150350000Y-96705200D01*
G75*
G02*
X150485000Y-96840200I0J-135000D01*
G01*
X150485000Y-97110200D01*
G75*
G02*
X150350000Y-97245200I-135000J0D01*
G01*
X149980000Y-97245200D01*
G75*
G02*
X149845000Y-97110200I0J135000D01*
G01*
X149845000Y-96840200D01*
G75*
G02*
X149980000Y-96705200I135000J0D01*
G01*
G37*
%TD*%
%TO.C,R14*%
G36*
G01*
X154450000Y-101838000D02*
X154820000Y-101838000D01*
G75*
G02*
X154955000Y-101973000I0J-135000D01*
G01*
X154955000Y-102243000D01*
G75*
G02*
X154820000Y-102378000I-135000J0D01*
G01*
X154450000Y-102378000D01*
G75*
G02*
X154315000Y-102243000I0J135000D01*
G01*
X154315000Y-101973000D01*
G75*
G02*
X154450000Y-101838000I135000J0D01*
G01*
G37*
G36*
G01*
X154450000Y-100818000D02*
X154820000Y-100818000D01*
G75*
G02*
X154955000Y-100953000I0J-135000D01*
G01*
X154955000Y-101223000D01*
G75*
G02*
X154820000Y-101358000I-135000J0D01*
G01*
X154450000Y-101358000D01*
G75*
G02*
X154315000Y-101223000I0J135000D01*
G01*
X154315000Y-100953000D01*
G75*
G02*
X154450000Y-100818000I135000J0D01*
G01*
G37*
%TD*%
%TO.C,R13*%
G36*
G01*
X149980000Y-102803000D02*
X150350000Y-102803000D01*
G75*
G02*
X150485000Y-102938000I0J-135000D01*
G01*
X150485000Y-103208000D01*
G75*
G02*
X150350000Y-103343000I-135000J0D01*
G01*
X149980000Y-103343000D01*
G75*
G02*
X149845000Y-103208000I0J135000D01*
G01*
X149845000Y-102938000D01*
G75*
G02*
X149980000Y-102803000I135000J0D01*
G01*
G37*
G36*
G01*
X149980000Y-101783000D02*
X150350000Y-101783000D01*
G75*
G02*
X150485000Y-101918000I0J-135000D01*
G01*
X150485000Y-102188000D01*
G75*
G02*
X150350000Y-102323000I-135000J0D01*
G01*
X149980000Y-102323000D01*
G75*
G02*
X149845000Y-102188000I0J135000D01*
G01*
X149845000Y-101918000D01*
G75*
G02*
X149980000Y-101783000I135000J0D01*
G01*
G37*
%TD*%
%TO.C,R12*%
G36*
G01*
X148100000Y-94218000D02*
X148470000Y-94218000D01*
G75*
G02*
X148605000Y-94353000I0J-135000D01*
G01*
X148605000Y-94623000D01*
G75*
G02*
X148470000Y-94758000I-135000J0D01*
G01*
X148100000Y-94758000D01*
G75*
G02*
X147965000Y-94623000I0J135000D01*
G01*
X147965000Y-94353000D01*
G75*
G02*
X148100000Y-94218000I135000J0D01*
G01*
G37*
G36*
G01*
X148100000Y-93198000D02*
X148470000Y-93198000D01*
G75*
G02*
X148605000Y-93333000I0J-135000D01*
G01*
X148605000Y-93603000D01*
G75*
G02*
X148470000Y-93738000I-135000J0D01*
G01*
X148100000Y-93738000D01*
G75*
G02*
X147965000Y-93603000I0J135000D01*
G01*
X147965000Y-93333000D01*
G75*
G02*
X148100000Y-93198000I135000J0D01*
G01*
G37*
%TD*%
%TO.C,R11*%
G36*
G01*
X143579000Y-95134400D02*
X143949000Y-95134400D01*
G75*
G02*
X144084000Y-95269400I0J-135000D01*
G01*
X144084000Y-95539400D01*
G75*
G02*
X143949000Y-95674400I-135000J0D01*
G01*
X143579000Y-95674400D01*
G75*
G02*
X143444000Y-95539400I0J135000D01*
G01*
X143444000Y-95269400D01*
G75*
G02*
X143579000Y-95134400I135000J0D01*
G01*
G37*
G36*
G01*
X143579000Y-94114400D02*
X143949000Y-94114400D01*
G75*
G02*
X144084000Y-94249400I0J-135000D01*
G01*
X144084000Y-94519400D01*
G75*
G02*
X143949000Y-94654400I-135000J0D01*
G01*
X143579000Y-94654400D01*
G75*
G02*
X143444000Y-94519400I0J135000D01*
G01*
X143444000Y-94249400D01*
G75*
G02*
X143579000Y-94114400I135000J0D01*
G01*
G37*
%TD*%
%TO.C,R10*%
G36*
G01*
X154450000Y-91680000D02*
X154820000Y-91680000D01*
G75*
G02*
X154955000Y-91815000I0J-135000D01*
G01*
X154955000Y-92085000D01*
G75*
G02*
X154820000Y-92220000I-135000J0D01*
G01*
X154450000Y-92220000D01*
G75*
G02*
X154315000Y-92085000I0J135000D01*
G01*
X154315000Y-91815000D01*
G75*
G02*
X154450000Y-91680000I135000J0D01*
G01*
G37*
G36*
G01*
X154450000Y-90660000D02*
X154820000Y-90660000D01*
G75*
G02*
X154955000Y-90795000I0J-135000D01*
G01*
X154955000Y-91065000D01*
G75*
G02*
X154820000Y-91200000I-135000J0D01*
G01*
X154450000Y-91200000D01*
G75*
G02*
X154315000Y-91065000I0J135000D01*
G01*
X154315000Y-90795000D01*
G75*
G02*
X154450000Y-90660000I135000J0D01*
G01*
G37*
%TD*%
%TO.C,R9*%
G36*
G01*
X149980000Y-92645200D02*
X150350000Y-92645200D01*
G75*
G02*
X150485000Y-92780200I0J-135000D01*
G01*
X150485000Y-93050200D01*
G75*
G02*
X150350000Y-93185200I-135000J0D01*
G01*
X149980000Y-93185200D01*
G75*
G02*
X149845000Y-93050200I0J135000D01*
G01*
X149845000Y-92780200D01*
G75*
G02*
X149980000Y-92645200I135000J0D01*
G01*
G37*
G36*
G01*
X149980000Y-91625200D02*
X150350000Y-91625200D01*
G75*
G02*
X150485000Y-91760200I0J-135000D01*
G01*
X150485000Y-92030200D01*
G75*
G02*
X150350000Y-92165200I-135000J0D01*
G01*
X149980000Y-92165200D01*
G75*
G02*
X149845000Y-92030200I0J135000D01*
G01*
X149845000Y-91760200D01*
G75*
G02*
X149980000Y-91625200I135000J0D01*
G01*
G37*
%TD*%
%TO.C,R8*%
G36*
G01*
X148151000Y-104378000D02*
X148521000Y-104378000D01*
G75*
G02*
X148656000Y-104513000I0J-135000D01*
G01*
X148656000Y-104783000D01*
G75*
G02*
X148521000Y-104918000I-135000J0D01*
G01*
X148151000Y-104918000D01*
G75*
G02*
X148016000Y-104783000I0J135000D01*
G01*
X148016000Y-104513000D01*
G75*
G02*
X148151000Y-104378000I135000J0D01*
G01*
G37*
G36*
G01*
X148151000Y-103358000D02*
X148521000Y-103358000D01*
G75*
G02*
X148656000Y-103493000I0J-135000D01*
G01*
X148656000Y-103763000D01*
G75*
G02*
X148521000Y-103898000I-135000J0D01*
G01*
X148151000Y-103898000D01*
G75*
G02*
X148016000Y-103763000I0J135000D01*
G01*
X148016000Y-103493000D01*
G75*
G02*
X148151000Y-103358000I135000J0D01*
G01*
G37*
%TD*%
%TO.C,R7*%
G36*
G01*
X148100000Y-89140000D02*
X148470000Y-89140000D01*
G75*
G02*
X148605000Y-89275000I0J-135000D01*
G01*
X148605000Y-89545000D01*
G75*
G02*
X148470000Y-89680000I-135000J0D01*
G01*
X148100000Y-89680000D01*
G75*
G02*
X147965000Y-89545000I0J135000D01*
G01*
X147965000Y-89275000D01*
G75*
G02*
X148100000Y-89140000I135000J0D01*
G01*
G37*
G36*
G01*
X148100000Y-88120000D02*
X148470000Y-88120000D01*
G75*
G02*
X148605000Y-88255000I0J-135000D01*
G01*
X148605000Y-88525000D01*
G75*
G02*
X148470000Y-88660000I-135000J0D01*
G01*
X148100000Y-88660000D01*
G75*
G02*
X147965000Y-88525000I0J135000D01*
G01*
X147965000Y-88255000D01*
G75*
G02*
X148100000Y-88120000I135000J0D01*
G01*
G37*
%TD*%
%TO.C,R6*%
G36*
G01*
X143579000Y-105345000D02*
X143949000Y-105345000D01*
G75*
G02*
X144084000Y-105480000I0J-135000D01*
G01*
X144084000Y-105750000D01*
G75*
G02*
X143949000Y-105885000I-135000J0D01*
G01*
X143579000Y-105885000D01*
G75*
G02*
X143444000Y-105750000I0J135000D01*
G01*
X143444000Y-105480000D01*
G75*
G02*
X143579000Y-105345000I135000J0D01*
G01*
G37*
G36*
G01*
X143579000Y-104325000D02*
X143949000Y-104325000D01*
G75*
G02*
X144084000Y-104460000I0J-135000D01*
G01*
X144084000Y-104730000D01*
G75*
G02*
X143949000Y-104865000I-135000J0D01*
G01*
X143579000Y-104865000D01*
G75*
G02*
X143444000Y-104730000I0J135000D01*
G01*
X143444000Y-104460000D01*
G75*
G02*
X143579000Y-104325000I135000J0D01*
G01*
G37*
%TD*%
%TO.C,R5*%
G36*
G01*
X143630000Y-90105200D02*
X144000000Y-90105200D01*
G75*
G02*
X144135000Y-90240200I0J-135000D01*
G01*
X144135000Y-90510200D01*
G75*
G02*
X144000000Y-90645200I-135000J0D01*
G01*
X143630000Y-90645200D01*
G75*
G02*
X143495000Y-90510200I0J135000D01*
G01*
X143495000Y-90240200D01*
G75*
G02*
X143630000Y-90105200I135000J0D01*
G01*
G37*
G36*
G01*
X143630000Y-89085200D02*
X144000000Y-89085200D01*
G75*
G02*
X144135000Y-89220200I0J-135000D01*
G01*
X144135000Y-89490200D01*
G75*
G02*
X144000000Y-89625200I-135000J0D01*
G01*
X143630000Y-89625200D01*
G75*
G02*
X143495000Y-89490200I0J135000D01*
G01*
X143495000Y-89220200D01*
G75*
G02*
X143630000Y-89085200I135000J0D01*
G01*
G37*
%TD*%
%TO.C,R4*%
G36*
G01*
X148100000Y-99300000D02*
X148470000Y-99300000D01*
G75*
G02*
X148605000Y-99435000I0J-135000D01*
G01*
X148605000Y-99705000D01*
G75*
G02*
X148470000Y-99840000I-135000J0D01*
G01*
X148100000Y-99840000D01*
G75*
G02*
X147965000Y-99705000I0J135000D01*
G01*
X147965000Y-99435000D01*
G75*
G02*
X148100000Y-99300000I135000J0D01*
G01*
G37*
G36*
G01*
X148100000Y-98280000D02*
X148470000Y-98280000D01*
G75*
G02*
X148605000Y-98415000I0J-135000D01*
G01*
X148605000Y-98685000D01*
G75*
G02*
X148470000Y-98820000I-135000J0D01*
G01*
X148100000Y-98820000D01*
G75*
G02*
X147965000Y-98685000I0J135000D01*
G01*
X147965000Y-98415000D01*
G75*
G02*
X148100000Y-98280000I135000J0D01*
G01*
G37*
%TD*%
%TO.C,R3*%
G36*
G01*
X154501000Y-86600000D02*
X154871000Y-86600000D01*
G75*
G02*
X155006000Y-86735000I0J-135000D01*
G01*
X155006000Y-87005000D01*
G75*
G02*
X154871000Y-87140000I-135000J0D01*
G01*
X154501000Y-87140000D01*
G75*
G02*
X154366000Y-87005000I0J135000D01*
G01*
X154366000Y-86735000D01*
G75*
G02*
X154501000Y-86600000I135000J0D01*
G01*
G37*
G36*
G01*
X154501000Y-85580000D02*
X154871000Y-85580000D01*
G75*
G02*
X155006000Y-85715000I0J-135000D01*
G01*
X155006000Y-85985000D01*
G75*
G02*
X154871000Y-86120000I-135000J0D01*
G01*
X154501000Y-86120000D01*
G75*
G02*
X154366000Y-85985000I0J135000D01*
G01*
X154366000Y-85715000D01*
G75*
G02*
X154501000Y-85580000I135000J0D01*
G01*
G37*
%TD*%
%TO.C,R2*%
G36*
G01*
X143630000Y-100265000D02*
X144000000Y-100265000D01*
G75*
G02*
X144135000Y-100400000I0J-135000D01*
G01*
X144135000Y-100670000D01*
G75*
G02*
X144000000Y-100805000I-135000J0D01*
G01*
X143630000Y-100805000D01*
G75*
G02*
X143495000Y-100670000I0J135000D01*
G01*
X143495000Y-100400000D01*
G75*
G02*
X143630000Y-100265000I135000J0D01*
G01*
G37*
G36*
G01*
X143630000Y-99245000D02*
X144000000Y-99245000D01*
G75*
G02*
X144135000Y-99380000I0J-135000D01*
G01*
X144135000Y-99650000D01*
G75*
G02*
X144000000Y-99785000I-135000J0D01*
G01*
X143630000Y-99785000D01*
G75*
G02*
X143495000Y-99650000I0J135000D01*
G01*
X143495000Y-99380000D01*
G75*
G02*
X143630000Y-99245000I135000J0D01*
G01*
G37*
%TD*%
%TO.C,R1*%
G36*
G01*
X149929000Y-87514400D02*
X150299000Y-87514400D01*
G75*
G02*
X150434000Y-87649400I0J-135000D01*
G01*
X150434000Y-87919400D01*
G75*
G02*
X150299000Y-88054400I-135000J0D01*
G01*
X149929000Y-88054400D01*
G75*
G02*
X149794000Y-87919400I0J135000D01*
G01*
X149794000Y-87649400D01*
G75*
G02*
X149929000Y-87514400I135000J0D01*
G01*
G37*
G36*
G01*
X149929000Y-86494400D02*
X150299000Y-86494400D01*
G75*
G02*
X150434000Y-86629400I0J-135000D01*
G01*
X150434000Y-86899400D01*
G75*
G02*
X150299000Y-87034400I-135000J0D01*
G01*
X149929000Y-87034400D01*
G75*
G02*
X149794000Y-86899400I0J135000D01*
G01*
X149794000Y-86629400D01*
G75*
G02*
X149929000Y-86494400I135000J0D01*
G01*
G37*
%TD*%
D10*
%TO.C,Q8*%
X153400000Y-97028000D03*
X151400000Y-97978000D03*
X151400000Y-96078000D03*
%TD*%
%TO.C,Q7*%
X153400000Y-102108000D03*
X151400000Y-103058000D03*
X151400000Y-101158000D03*
%TD*%
%TO.C,Q6*%
X147050000Y-94488000D03*
X145050000Y-95438000D03*
X145050000Y-93538000D03*
%TD*%
%TO.C,Q5*%
X153400000Y-91948000D03*
X151400000Y-92898000D03*
X151400000Y-90998000D03*
%TD*%
%TO.C,Q4*%
X147050000Y-104648000D03*
X145050000Y-105598000D03*
X145050000Y-103698000D03*
%TD*%
%TO.C,Q3*%
X147050000Y-89408000D03*
X145050000Y-90358000D03*
X145050000Y-88458000D03*
%TD*%
%TO.C,Q2*%
X147050000Y-99568000D03*
X145050000Y-100518000D03*
X145050000Y-98618000D03*
%TD*%
%TO.C,Q1*%
X153400000Y-86868000D03*
X151400000Y-87818000D03*
X151400000Y-85918000D03*
%TD*%
%TO.C,C3*%
G36*
G01*
X161442080Y-114754280D02*
X161442080Y-114414280D01*
G75*
G02*
X161582080Y-114274280I140000J0D01*
G01*
X161862080Y-114274280D01*
G75*
G02*
X162002080Y-114414280I0J-140000D01*
G01*
X162002080Y-114754280D01*
G75*
G02*
X161862080Y-114894280I-140000J0D01*
G01*
X161582080Y-114894280D01*
G75*
G02*
X161442080Y-114754280I0J140000D01*
G01*
G37*
G36*
G01*
X160482080Y-114754280D02*
X160482080Y-114414280D01*
G75*
G02*
X160622080Y-114274280I140000J0D01*
G01*
X160902080Y-114274280D01*
G75*
G02*
X161042080Y-114414280I0J-140000D01*
G01*
X161042080Y-114754280D01*
G75*
G02*
X160902080Y-114894280I-140000J0D01*
G01*
X160622080Y-114894280D01*
G75*
G02*
X160482080Y-114754280I0J140000D01*
G01*
G37*
%TD*%
%TO.C,C2*%
G36*
G01*
X139522000Y-114673000D02*
X139522000Y-114333000D01*
G75*
G02*
X139662000Y-114193000I140000J0D01*
G01*
X139942000Y-114193000D01*
G75*
G02*
X140082000Y-114333000I0J-140000D01*
G01*
X140082000Y-114673000D01*
G75*
G02*
X139942000Y-114813000I-140000J0D01*
G01*
X139662000Y-114813000D01*
G75*
G02*
X139522000Y-114673000I0J140000D01*
G01*
G37*
G36*
G01*
X138562000Y-114673000D02*
X138562000Y-114333000D01*
G75*
G02*
X138702000Y-114193000I140000J0D01*
G01*
X138982000Y-114193000D01*
G75*
G02*
X139122000Y-114333000I0J-140000D01*
G01*
X139122000Y-114673000D01*
G75*
G02*
X138982000Y-114813000I-140000J0D01*
G01*
X138702000Y-114813000D01*
G75*
G02*
X138562000Y-114673000I0J140000D01*
G01*
G37*
%TD*%
%TO.C,C1*%
G36*
G01*
X152727000Y-67099000D02*
X152727000Y-66759000D01*
G75*
G02*
X152867000Y-66619000I140000J0D01*
G01*
X153147000Y-66619000D01*
G75*
G02*
X153287000Y-66759000I0J-140000D01*
G01*
X153287000Y-67099000D01*
G75*
G02*
X153147000Y-67239000I-140000J0D01*
G01*
X152867000Y-67239000D01*
G75*
G02*
X152727000Y-67099000I0J140000D01*
G01*
G37*
G36*
G01*
X151767000Y-67099000D02*
X151767000Y-66759000D01*
G75*
G02*
X151907000Y-66619000I140000J0D01*
G01*
X152187000Y-66619000D01*
G75*
G02*
X152327000Y-66759000I0J-140000D01*
G01*
X152327000Y-67099000D01*
G75*
G02*
X152187000Y-67239000I-140000J0D01*
G01*
X151907000Y-67239000D01*
G75*
G02*
X151767000Y-67099000I0J140000D01*
G01*
G37*
%TD*%
M02*
