%TF.GenerationSoftware,KiCad,Pcbnew,(5.99.0-12639-gf606679164)*%
%TF.CreationDate,2021-10-07T07:50:59+03:00*%
%TF.ProjectId,mesp240_3Dpad,6d657370-3234-4305-9f33-447061642e6b,rev?*%
%TF.SameCoordinates,Original*%
%TF.FileFunction,Soldermask,Bot*%
%TF.FilePolarity,Negative*%
%FSLAX46Y46*%
G04 Gerber Fmt 4.6, Leading zero omitted, Abs format (unit mm)*
G04 Created by KiCad (PCBNEW (5.99.0-12639-gf606679164)) date 2021-10-07 07:50:59*
%MOMM*%
%LPD*%
G01*
G04 APERTURE LIST*
%ADD10R,1.000000X1.000000*%
%ADD11O,1.000000X1.000000*%
%ADD12O,3.048000X1.850000*%
%ADD13C,2.200000*%
%ADD14C,1.800000*%
%ADD15R,1.700000X1.700000*%
%ADD16O,1.700000X1.700000*%
%ADD17R,3.000000X3.000000*%
G04 APERTURE END LIST*
D10*
%TO.C,J1*%
X129540000Y-88900000D03*
D11*
X129540000Y-90170000D03*
X129540000Y-91440000D03*
X129540000Y-92710000D03*
X129540000Y-93980000D03*
X129540000Y-95250000D03*
X129540000Y-96520000D03*
X129540000Y-97790000D03*
X129540000Y-99060000D03*
X129540000Y-100330000D03*
X129540000Y-101600000D03*
X129540000Y-102870000D03*
X129540000Y-104140000D03*
X129540000Y-105410000D03*
X129540000Y-106680000D03*
X129540000Y-107950000D03*
%TD*%
D10*
%TO.C,J2*%
X152400000Y-88900000D03*
D11*
X152400000Y-90170000D03*
X152400000Y-91440000D03*
X152400000Y-92710000D03*
X152400000Y-93980000D03*
X152400000Y-95250000D03*
X152400000Y-96520000D03*
X152400000Y-97790000D03*
X152400000Y-99060000D03*
X152400000Y-100330000D03*
X152400000Y-101600000D03*
X152400000Y-102870000D03*
X152400000Y-104140000D03*
X152400000Y-105410000D03*
X152400000Y-106680000D03*
X152400000Y-107950000D03*
X152400000Y-109220000D03*
X152400000Y-110490000D03*
X152400000Y-111760000D03*
X152400000Y-113030000D03*
X152400000Y-114300000D03*
X152400000Y-115570000D03*
X152400000Y-116840000D03*
X152400000Y-118110000D03*
%TD*%
D12*
%TO.C,SW1*%
X87177900Y-116843000D03*
X99677900Y-116843000D03*
X87177900Y-121843000D03*
X99677900Y-121843000D03*
%TD*%
%TO.C,SW2*%
X86977900Y-104143000D03*
X74477900Y-104143000D03*
X74477900Y-109143000D03*
X86977900Y-109143000D03*
%TD*%
%TO.C,SW3*%
X99877900Y-104143000D03*
X112377900Y-104143000D03*
X112377900Y-109143000D03*
X99877900Y-109143000D03*
%TD*%
%TO.C,SW4*%
X99677900Y-91442500D03*
X87177900Y-91442500D03*
X99677900Y-96442500D03*
X87177900Y-96442500D03*
%TD*%
%TO.C,SW5*%
X208748000Y-104496000D03*
X196248000Y-104496000D03*
X196248000Y-109496000D03*
X208748000Y-109496000D03*
%TD*%
%TO.C,SW6*%
X183348000Y-104496000D03*
X170848000Y-104496000D03*
X170848000Y-109496000D03*
X183348000Y-109496000D03*
%TD*%
%TO.C,SW7*%
X183548000Y-91795600D03*
X196048000Y-91795600D03*
X196048000Y-96795600D03*
X183548000Y-96795600D03*
%TD*%
%TO.C,SW8*%
X183548000Y-117196000D03*
X196048000Y-117196000D03*
X196048000Y-122196000D03*
X183548000Y-122196000D03*
%TD*%
D13*
%TO.C,JS1*%
X104730000Y-145390000D03*
X120230000Y-145390000D03*
X104730000Y-132090000D03*
X120230000Y-132090000D03*
D14*
X109980000Y-128990000D03*
X112480000Y-128990000D03*
X114980000Y-128990000D03*
X122230000Y-136240000D03*
X122230000Y-138740000D03*
X122230000Y-141240000D03*
%TD*%
D15*
%TO.C,J4*%
X144030000Y-90360000D03*
D16*
X144030000Y-92900000D03*
%TD*%
D15*
%TO.C,J3*%
X138040000Y-103140000D03*
D16*
X143120000Y-103140000D03*
%TD*%
D13*
%TO.C,JS2*%
X162430000Y-145350000D03*
X177930000Y-145350000D03*
X177930000Y-132050000D03*
X162430000Y-132050000D03*
D14*
X167680000Y-128950000D03*
X170180000Y-128950000D03*
X172680000Y-128950000D03*
X179930000Y-136200000D03*
X179930000Y-138700000D03*
X179930000Y-141200000D03*
%TD*%
D17*
%TO.C,TP1*%
X137780000Y-120670000D03*
%TD*%
%TO.C,TP2*%
X150080000Y-126170000D03*
%TD*%
%TO.C,TP3*%
X150150000Y-134270000D03*
%TD*%
%TO.C,TP4*%
X137770000Y-115790000D03*
%TD*%
M02*
