M48
; DRILL file {KiCad (5.99.0-12639-gf606679164)} date Thu Oct  7 07:51:01 2021
; FORMAT={-:-/ absolute / inch / decimal}
; #@! TF.CreationDate,2021-10-07T07:51:01+03:00
; #@! TF.GenerationSoftware,Kicad,Pcbnew,(5.99.0-12639-gf606679164)
; #@! TF.FileFunction,Plated,1,2,PTH
FMAT,2
INCH
; #@! TA.AperFunction,Plated,PTH,ViaDrill
T1C0.0118
; #@! TA.AperFunction,Plated,PTH,ComponentDrill
T2C0.0276
; #@! TA.AperFunction,Plated,PTH,ComponentDrill
T3C0.0394
; #@! TA.AperFunction,Plated,PTH,ComponentDrill
T4C0.0402
; #@! TA.AperFunction,Plated,PTH,ComponentDrill
T5C0.0512
%
G90
G05
T1
X2.9933Y-6.215
X3.1059Y-3.8138
X3.213Y-6.2669
X3.2933Y-3.813
X3.6461Y-4.3154
X3.6713Y-3.4941
X3.6894Y-3.7992
X3.9415Y-3.389
X3.9657Y-3.3398
X4.0516Y-4.5382
X4.0772Y-4.8185
X4.1366Y-3.7449
X4.335Y-4.365
X4.3504Y-4.013
X4.3559Y-3.7142
X4.3614Y-3.8181
X4.3689Y-5.3508
X4.3961Y-4.7992
X4.5453Y-3.6374
X4.6039Y-4.0335
X4.6492Y-4.0693
X4.65Y-3.9307
X4.7425Y-3.4433
X4.7906Y-3.2028
X4.8325Y-3.705
X4.8433Y-4.2591
X4.8512Y-4.02
X4.8972Y-3.6559
X4.9091Y-4.9563
X4.9563Y-3.9028
X4.9638Y-3.7126
X5.0098Y-3.6417
X5.1366Y-5.5913
X5.2102Y-5.2465
X5.3146Y-4.2945
X5.4236Y-4.7516
X5.424Y-4.5579
X5.4447Y-5.2073
X5.4504Y-4.9024
X5.5253Y-5.4173
X5.5504Y-4.9654
X5.5874Y-5.4118
X5.6271Y-5.0777
X5.6283Y-5.1898
X5.6488Y-5.1004
X5.7378Y-5.3051
X5.7488Y-4.6677
X5.7524Y-3.8906
X5.7969Y-3.774
X5.8016Y-4.4157
X5.8039Y-4.2811
X5.8067Y-4.115
X5.8126Y-3.9961
X5.8252Y-4.7839
X5.8693Y-4.5142
X5.9087Y-4.9673
X5.9114Y-5.2862
X5.9622Y-5.5846
X6.113Y-3.7543
X6.1224Y-4.3634
X6.165Y-4.0366
X6.1657Y-4.2917
X6.291Y-4.22
X6.3437Y-4.5878
X6.3751Y-3.9645
X6.3787Y-3.8681
X6.4303Y-3.5764
X6.4546Y-3.708
X6.486Y-3.9705
X6.5693Y-3.7346
X6.6394Y-3.8843
X6.6744Y-3.8417
X6.7071Y-3.9646
X6.7602Y-4.5941
X6.8516Y-3.6469
X7.0087Y-4.2898
X7.0602Y-3.8744
X7.1205Y-3.4193
X7.1555Y-4.7146
X7.2713Y-3.4386
X7.4256Y-4.3441
X7.4803Y-4.7736
X7.5811Y-4.1264
X7.6819Y-5.0669
X7.8854Y-4.2161
X7.9114Y-3.7142
X8.0185Y-4.3331
X8.065Y-4.0382
X8.0843Y-3.5461
X8.2024Y-3.8583
T2
X5.1Y-3.5
X5.1Y-3.55
X5.1Y-3.6
X5.1Y-3.65
X5.1Y-3.7
X5.1Y-3.75
X5.1Y-3.8
X5.1Y-3.85
X5.1Y-3.9
X5.1Y-3.95
X5.1Y-4.0
X5.1Y-4.05
X5.1Y-4.1
X5.1Y-4.15
X5.1Y-4.2
X5.1Y-4.25
X6.0Y-3.5
X6.0Y-3.55
X6.0Y-3.6
X6.0Y-3.65
X6.0Y-3.7
X6.0Y-3.75
X6.0Y-3.8
X6.0Y-3.85
X6.0Y-3.9
X6.0Y-3.95
X6.0Y-4.0
X6.0Y-4.05
X6.0Y-4.1
X6.0Y-4.15
X6.0Y-4.2
X6.0Y-4.25
X6.0Y-4.3
X6.0Y-4.35
X6.0Y-4.4
X6.0Y-4.45
X6.0Y-4.5
X6.0Y-4.55
X6.0Y-4.6
X6.0Y-4.65
T3
X5.4346Y-4.0606
X5.6346Y-4.0606
X5.6705Y-3.5575
X5.6705Y-3.6575
T4
X4.3299Y-5.0783
X4.4283Y-5.0783
X4.5268Y-5.0783
X4.8122Y-5.3638
X4.8122Y-5.4622
X4.8122Y-5.5606
X6.6016Y-5.0768
X6.7Y-5.0768
X6.7984Y-5.0768
X7.0839Y-5.3622
X7.0839Y-5.4606
X7.0839Y-5.5591
T5
X2.9322Y-4.1001
X2.9322Y-4.297
X3.4243Y-4.1001
X3.4243Y-4.297
X3.4322Y-3.6001
X3.4322Y-3.7969
X3.4322Y-4.6001
X3.4322Y-4.797
X3.9243Y-3.6001
X3.9243Y-3.7969
X3.9243Y-4.6001
X3.9243Y-4.797
X3.9322Y-4.1001
X3.9322Y-4.297
X4.4243Y-4.1001
X4.4243Y-4.297
X6.7263Y-4.114
X6.7263Y-4.3109
X7.2184Y-4.114
X7.2184Y-4.3109
X7.2263Y-3.614
X7.2263Y-3.8109
X7.2263Y-4.614
X7.2263Y-4.8109
X7.7184Y-3.614
X7.7184Y-3.8109
X7.7184Y-4.614
X7.7184Y-4.8109
X7.7263Y-4.114
X7.7263Y-4.3109
X8.2184Y-4.114
X8.2184Y-4.3109
T0
M30
