%TF.GenerationSoftware,KiCad,Pcbnew,(5.99.0-12639-gf606679164)*%
%TF.CreationDate,2021-10-07T07:50:59+03:00*%
%TF.ProjectId,mesp240_3Dpad,6d657370-3234-4305-9f33-447061642e6b,rev?*%
%TF.SameCoordinates,Original*%
%TF.FileFunction,Soldermask,Top*%
%TF.FilePolarity,Negative*%
%FSLAX46Y46*%
G04 Gerber Fmt 4.6, Leading zero omitted, Abs format (unit mm)*
G04 Created by KiCad (PCBNEW (5.99.0-12639-gf606679164)) date 2021-10-07 07:50:59*
%MOMM*%
%LPD*%
G01*
G04 APERTURE LIST*
G04 Aperture macros list*
%AMRoundRect*
0 Rectangle with rounded corners*
0 $1 Rounding radius*
0 $2 $3 $4 $5 $6 $7 $8 $9 X,Y pos of 4 corners*
0 Add a 4 corners polygon primitive as box body*
4,1,4,$2,$3,$4,$5,$6,$7,$8,$9,$2,$3,0*
0 Add four circle primitives for the rounded corners*
1,1,$1+$1,$2,$3*
1,1,$1+$1,$4,$5*
1,1,$1+$1,$6,$7*
1,1,$1+$1,$8,$9*
0 Add four rect primitives between the rounded corners*
20,1,$1+$1,$2,$3,$4,$5,0*
20,1,$1+$1,$4,$5,$6,$7,0*
20,1,$1+$1,$6,$7,$8,$9,0*
20,1,$1+$1,$8,$9,$2,$3,0*%
G04 Aperture macros list end*
%ADD10R,1.000000X1.000000*%
%ADD11O,1.000000X1.000000*%
%ADD12O,3.048000X1.850000*%
%ADD13RoundRect,0.135000X-0.135000X-0.185000X0.135000X-0.185000X0.135000X0.185000X-0.135000X0.185000X0*%
%ADD14RoundRect,0.135000X0.185000X-0.135000X0.185000X0.135000X-0.185000X0.135000X-0.185000X-0.135000X0*%
%ADD15RoundRect,0.135000X-0.185000X0.135000X-0.185000X-0.135000X0.185000X-0.135000X0.185000X0.135000X0*%
%ADD16C,2.200000*%
%ADD17C,1.800000*%
%ADD18RoundRect,0.150000X0.587500X0.150000X-0.587500X0.150000X-0.587500X-0.150000X0.587500X-0.150000X0*%
%ADD19RoundRect,0.140000X0.170000X-0.140000X0.170000X0.140000X-0.170000X0.140000X-0.170000X-0.140000X0*%
%ADD20RoundRect,0.135000X0.135000X0.185000X-0.135000X0.185000X-0.135000X-0.185000X0.135000X-0.185000X0*%
%ADD21RoundRect,0.140000X-0.140000X-0.170000X0.140000X-0.170000X0.140000X0.170000X-0.140000X0.170000X0*%
%ADD22RoundRect,0.218750X-0.218750X-0.256250X0.218750X-0.256250X0.218750X0.256250X-0.218750X0.256250X0*%
%ADD23R,1.700000X1.700000*%
%ADD24O,1.700000X1.700000*%
%ADD25RoundRect,0.140000X0.140000X0.170000X-0.140000X0.170000X-0.140000X-0.170000X0.140000X-0.170000X0*%
%ADD26RoundRect,0.150000X-0.825000X-0.150000X0.825000X-0.150000X0.825000X0.150000X-0.825000X0.150000X0*%
%ADD27RoundRect,0.075000X-0.350000X-0.075000X0.350000X-0.075000X0.350000X0.075000X-0.350000X0.075000X0*%
%ADD28RoundRect,0.075000X0.075000X-0.350000X0.075000X0.350000X-0.075000X0.350000X-0.075000X-0.350000X0*%
%ADD29RoundRect,0.150000X0.825000X0.150000X-0.825000X0.150000X-0.825000X-0.150000X0.825000X-0.150000X0*%
%ADD30RoundRect,0.200000X0.200000X0.275000X-0.200000X0.275000X-0.200000X-0.275000X0.200000X-0.275000X0*%
%ADD31RoundRect,0.218750X0.218750X0.256250X-0.218750X0.256250X-0.218750X-0.256250X0.218750X-0.256250X0*%
%ADD32RoundRect,0.140000X-0.170000X0.140000X-0.170000X-0.140000X0.170000X-0.140000X0.170000X0.140000X0*%
%ADD33RoundRect,0.200000X-0.200000X-0.275000X0.200000X-0.275000X0.200000X0.275000X-0.200000X0.275000X0*%
G04 APERTURE END LIST*
D10*
%TO.C,J1*%
X129540000Y-88900000D03*
D11*
X129540000Y-90170000D03*
X129540000Y-91440000D03*
X129540000Y-92710000D03*
X129540000Y-93980000D03*
X129540000Y-95250000D03*
X129540000Y-96520000D03*
X129540000Y-97790000D03*
X129540000Y-99060000D03*
X129540000Y-100330000D03*
X129540000Y-101600000D03*
X129540000Y-102870000D03*
X129540000Y-104140000D03*
X129540000Y-105410000D03*
X129540000Y-106680000D03*
X129540000Y-107950000D03*
%TD*%
D10*
%TO.C,J2*%
X152400000Y-88900000D03*
D11*
X152400000Y-90170000D03*
X152400000Y-91440000D03*
X152400000Y-92710000D03*
X152400000Y-93980000D03*
X152400000Y-95250000D03*
X152400000Y-96520000D03*
X152400000Y-97790000D03*
X152400000Y-99060000D03*
X152400000Y-100330000D03*
X152400000Y-101600000D03*
X152400000Y-102870000D03*
X152400000Y-104140000D03*
X152400000Y-105410000D03*
X152400000Y-106680000D03*
X152400000Y-107950000D03*
X152400000Y-109220000D03*
X152400000Y-110490000D03*
X152400000Y-111760000D03*
X152400000Y-113030000D03*
X152400000Y-114300000D03*
X152400000Y-115570000D03*
X152400000Y-116840000D03*
X152400000Y-118110000D03*
%TD*%
D12*
%TO.C,SW1*%
X87177900Y-116843000D03*
X99677900Y-116843000D03*
X87177900Y-121843000D03*
X99677900Y-121843000D03*
%TD*%
%TO.C,SW2*%
X86977900Y-104143000D03*
X74477900Y-104143000D03*
X74477900Y-109143000D03*
X86977900Y-109143000D03*
%TD*%
%TO.C,SW3*%
X99877900Y-104143000D03*
X112377900Y-104143000D03*
X112377900Y-109143000D03*
X99877900Y-109143000D03*
%TD*%
%TO.C,SW4*%
X99677900Y-91442500D03*
X87177900Y-91442500D03*
X99677900Y-96442500D03*
X87177900Y-96442500D03*
%TD*%
%TO.C,SW5*%
X208748000Y-104496000D03*
X196248000Y-104496000D03*
X196248000Y-109496000D03*
X208748000Y-109496000D03*
%TD*%
%TO.C,SW6*%
X183348000Y-104496000D03*
X170848000Y-104496000D03*
X170848000Y-109496000D03*
X183348000Y-109496000D03*
%TD*%
%TO.C,SW7*%
X183548000Y-91795600D03*
X196048000Y-91795600D03*
X196048000Y-96795600D03*
X183548000Y-96795600D03*
%TD*%
%TO.C,SW8*%
X183548000Y-117196000D03*
X196048000Y-117196000D03*
X196048000Y-122196000D03*
X183548000Y-122196000D03*
%TD*%
D13*
%TO.C,R21*%
X139290000Y-90390000D03*
X140310000Y-90390000D03*
%TD*%
D14*
%TO.C,R23*%
X138030000Y-106660000D03*
X138030000Y-105640000D03*
%TD*%
D15*
%TO.C,R9*%
X104112000Y-116838000D03*
X104112000Y-117858000D03*
%TD*%
D16*
%TO.C,JS1*%
X104730000Y-145390000D03*
X120230000Y-145390000D03*
X104730000Y-132090000D03*
X120230000Y-132090000D03*
D17*
X109980000Y-128990000D03*
X112480000Y-128990000D03*
X114980000Y-128990000D03*
X122230000Y-136240000D03*
X122230000Y-138740000D03*
X122230000Y-141240000D03*
%TD*%
D18*
%TO.C,Q1*%
X146117500Y-101310000D03*
X146117500Y-99410000D03*
X144242500Y-100360000D03*
%TD*%
D19*
%TO.C,C10*%
X110744000Y-98524000D03*
X110744000Y-97564000D03*
%TD*%
D20*
%TO.C,R18*%
X184126000Y-86308000D03*
X183106000Y-86308000D03*
%TD*%
%TO.C,R24*%
X148720000Y-99190000D03*
X147700000Y-99190000D03*
%TD*%
D21*
%TO.C,C2*%
X194592000Y-128006000D03*
X195552000Y-128006000D03*
%TD*%
D22*
%TO.C,D2*%
X172489500Y-86594000D03*
X174064500Y-86594000D03*
%TD*%
D14*
%TO.C,R4*%
X193548000Y-128008000D03*
X193548000Y-126988000D03*
%TD*%
D23*
%TO.C,J4*%
X144030000Y-90360000D03*
D24*
X144030000Y-92900000D03*
%TD*%
D25*
%TO.C,C14*%
X118470000Y-102420000D03*
X117510000Y-102420000D03*
%TD*%
D26*
%TO.C,U2*%
X158561000Y-99568000D03*
X158561000Y-100838000D03*
X158561000Y-102108000D03*
X158561000Y-103378000D03*
X158561000Y-104648000D03*
X158561000Y-105918000D03*
X158561000Y-107188000D03*
X163511000Y-107188000D03*
X163511000Y-105918000D03*
X163511000Y-104648000D03*
X163511000Y-103378000D03*
X163511000Y-102108000D03*
X163511000Y-100838000D03*
X163511000Y-99568000D03*
%TD*%
D27*
%TO.C,U3*%
X139040000Y-132260000D03*
X139040000Y-132760000D03*
X139040000Y-133260000D03*
X139040000Y-133760000D03*
X139040000Y-134260000D03*
X139040000Y-134760000D03*
D28*
X139740000Y-135460000D03*
X140240000Y-135460000D03*
X140740000Y-135460000D03*
X141240000Y-135460000D03*
X141740000Y-135460000D03*
X142240000Y-135460000D03*
D27*
X142940000Y-134760000D03*
X142940000Y-134260000D03*
X142940000Y-133760000D03*
X142940000Y-133260000D03*
X142940000Y-132760000D03*
X142940000Y-132260000D03*
D28*
X142240000Y-131560000D03*
X141740000Y-131560000D03*
X141240000Y-131560000D03*
X140740000Y-131560000D03*
X140240000Y-131560000D03*
X139740000Y-131560000D03*
%TD*%
D20*
%TO.C,R2*%
X195630000Y-127000000D03*
X194610000Y-127000000D03*
%TD*%
D14*
%TO.C,R20*%
X182090000Y-87326000D03*
X182090000Y-86306000D03*
%TD*%
D25*
%TO.C,C7*%
X84582000Y-97536000D03*
X83622000Y-97536000D03*
%TD*%
D15*
%TO.C,R10*%
X206756000Y-98804000D03*
X206756000Y-99824000D03*
%TD*%
D25*
%TO.C,C8*%
X170344000Y-98658000D03*
X169384000Y-98658000D03*
%TD*%
D15*
%TO.C,R14*%
X171388000Y-98798000D03*
X171388000Y-99818000D03*
%TD*%
D29*
%TO.C,U1*%
X124395000Y-101092000D03*
X124395000Y-99822000D03*
X124395000Y-98552000D03*
X124395000Y-97282000D03*
X124395000Y-96012000D03*
X124395000Y-94742000D03*
X124395000Y-93472000D03*
X119445000Y-93472000D03*
X119445000Y-94742000D03*
X119445000Y-96012000D03*
X119445000Y-97282000D03*
X119445000Y-98552000D03*
X119445000Y-99822000D03*
X119445000Y-101092000D03*
%TD*%
D13*
%TO.C,R11*%
X82546000Y-99568000D03*
X83566000Y-99568000D03*
%TD*%
D30*
%TO.C,R6*%
X170942000Y-86614000D03*
X169292000Y-86614000D03*
%TD*%
D20*
%TO.C,R7*%
X106148000Y-117856000D03*
X105128000Y-117856000D03*
%TD*%
D19*
%TO.C,C3*%
X102870000Y-116812000D03*
X102870000Y-115852000D03*
%TD*%
D31*
%TO.C,D1*%
X110702500Y-86090000D03*
X109127500Y-86090000D03*
%TD*%
D18*
%TO.C,Q2*%
X146207500Y-97760000D03*
X146207500Y-95860000D03*
X144332500Y-96810000D03*
%TD*%
D13*
%TO.C,R1*%
X97026000Y-87122000D03*
X98046000Y-87122000D03*
%TD*%
D15*
%TO.C,R16*%
X140620000Y-128850000D03*
X140620000Y-129870000D03*
%TD*%
D23*
%TO.C,J3*%
X138040000Y-103140000D03*
D24*
X143120000Y-103140000D03*
%TD*%
D15*
%TO.C,R3*%
X99060000Y-86020000D03*
X99060000Y-87040000D03*
%TD*%
D13*
%TO.C,R17*%
X109684000Y-99684000D03*
X110704000Y-99684000D03*
%TD*%
D21*
%TO.C,C12*%
X141260000Y-136780000D03*
X142220000Y-136780000D03*
%TD*%
D13*
%TO.C,R12*%
X169354000Y-99814000D03*
X170374000Y-99814000D03*
%TD*%
D15*
%TO.C,R19*%
X111760000Y-98548000D03*
X111760000Y-99568000D03*
%TD*%
D20*
%TO.C,R22*%
X148730000Y-97790000D03*
X147710000Y-97790000D03*
%TD*%
D15*
%TO.C,R13*%
X84582000Y-98550000D03*
X84582000Y-99570000D03*
%TD*%
D20*
%TO.C,R8*%
X208790000Y-99822000D03*
X207770000Y-99822000D03*
%TD*%
D15*
%TO.C,R15*%
X138970000Y-128830000D03*
X138970000Y-129850000D03*
%TD*%
D21*
%TO.C,C4*%
X207800000Y-98806000D03*
X208760000Y-98806000D03*
%TD*%
%TO.C,C11*%
X183134000Y-87376000D03*
X184094000Y-87376000D03*
%TD*%
%TO.C,C5*%
X144160000Y-134750000D03*
X145120000Y-134750000D03*
%TD*%
D25*
%TO.C,C13*%
X163536000Y-98228000D03*
X162576000Y-98228000D03*
%TD*%
D21*
%TO.C,C1*%
X99088000Y-84836000D03*
X100048000Y-84836000D03*
%TD*%
%TO.C,C9*%
X141930000Y-130310000D03*
X142890000Y-130310000D03*
%TD*%
D32*
%TO.C,C15*%
X150100000Y-116500000D03*
X150100000Y-117460000D03*
%TD*%
D21*
%TO.C,C6*%
X139270000Y-137030000D03*
X140230000Y-137030000D03*
%TD*%
D33*
%TO.C,R5*%
X112250000Y-86100000D03*
X113900000Y-86100000D03*
%TD*%
D16*
%TO.C,JS2*%
X162430000Y-145350000D03*
X177930000Y-145350000D03*
X177930000Y-132050000D03*
X162430000Y-132050000D03*
D17*
X167680000Y-128950000D03*
X170180000Y-128950000D03*
X172680000Y-128950000D03*
X179930000Y-136200000D03*
X179930000Y-138700000D03*
X179930000Y-141200000D03*
%TD*%
M02*
