%TF.GenerationSoftware,KiCad,Pcbnew,(5.1.8)-1*%
%TF.CreationDate,2020-12-26T14:40:12+03:00*%
%TF.ProjectId,mesp240_opll,6d657370-3234-4305-9f6f-706c6c2e6b69,rev?*%
%TF.SameCoordinates,Original*%
%TF.FileFunction,Soldermask,Top*%
%TF.FilePolarity,Negative*%
%FSLAX46Y46*%
G04 Gerber Fmt 4.6, Leading zero omitted, Abs format (unit mm)*
G04 Created by KiCad (PCBNEW (5.1.8)-1) date 2020-12-26 14:40:12*
%MOMM*%
%LPD*%
G01*
G04 APERTURE LIST*
%ADD10C,1.000000*%
%ADD11R,1.000000X1.000000*%
%ADD12R,1.400000X1.200000*%
%ADD13R,1.981200X0.558800*%
%ADD14O,1.600000X1.600000*%
%ADD15R,1.600000X1.600000*%
%ADD16R,0.650000X1.060000*%
%ADD17C,0.100000*%
%ADD18C,1.200000*%
G04 APERTURE END LIST*
%TO.C,L4*%
G36*
G01*
X211734650Y-84211000D02*
X210972150Y-84211000D01*
G75*
G02*
X210753400Y-83992250I0J218750D01*
G01*
X210753400Y-83554750D01*
G75*
G02*
X210972150Y-83336000I218750J0D01*
G01*
X211734650Y-83336000D01*
G75*
G02*
X211953400Y-83554750I0J-218750D01*
G01*
X211953400Y-83992250D01*
G75*
G02*
X211734650Y-84211000I-218750J0D01*
G01*
G37*
G36*
G01*
X211734650Y-86336000D02*
X210972150Y-86336000D01*
G75*
G02*
X210753400Y-86117250I0J218750D01*
G01*
X210753400Y-85679750D01*
G75*
G02*
X210972150Y-85461000I218750J0D01*
G01*
X211734650Y-85461000D01*
G75*
G02*
X211953400Y-85679750I0J-218750D01*
G01*
X211953400Y-86117250D01*
G75*
G02*
X211734650Y-86336000I-218750J0D01*
G01*
G37*
%TD*%
%TO.C,L3*%
G36*
G01*
X226756900Y-95402650D02*
X226756900Y-94640150D01*
G75*
G02*
X226975650Y-94421400I218750J0D01*
G01*
X227413150Y-94421400D01*
G75*
G02*
X227631900Y-94640150I0J-218750D01*
G01*
X227631900Y-95402650D01*
G75*
G02*
X227413150Y-95621400I-218750J0D01*
G01*
X226975650Y-95621400D01*
G75*
G02*
X226756900Y-95402650I0J218750D01*
G01*
G37*
G36*
G01*
X224631900Y-95402650D02*
X224631900Y-94640150D01*
G75*
G02*
X224850650Y-94421400I218750J0D01*
G01*
X225288150Y-94421400D01*
G75*
G02*
X225506900Y-94640150I0J-218750D01*
G01*
X225506900Y-95402650D01*
G75*
G02*
X225288150Y-95621400I-218750J0D01*
G01*
X224850650Y-95621400D01*
G75*
G02*
X224631900Y-95402650I0J218750D01*
G01*
G37*
%TD*%
D10*
%TO.C,U1*%
X263423000Y-118671000D03*
X263423000Y-117401000D03*
X263423000Y-116131000D03*
X263423000Y-114861000D03*
X263423000Y-113591000D03*
X263423000Y-112321000D03*
X263423000Y-111051000D03*
X263423000Y-109781000D03*
X263423000Y-108511000D03*
X263423000Y-107241000D03*
X263423000Y-105971000D03*
X263423000Y-104701000D03*
X263423000Y-103431000D03*
X263423000Y-102161000D03*
X263423000Y-100891000D03*
X263423000Y-99621000D03*
X263423000Y-98351000D03*
X263423000Y-97081000D03*
X263423000Y-95811000D03*
X263423000Y-94541000D03*
X263423000Y-93271000D03*
X263423000Y-92001000D03*
X263423000Y-90731000D03*
D11*
X263423000Y-89461000D03*
D10*
X240563000Y-108511000D03*
X240563000Y-107241000D03*
X240563000Y-105971000D03*
X240563000Y-104701000D03*
X240563000Y-103431000D03*
X240563000Y-102161000D03*
X240563000Y-100891000D03*
X240563000Y-99621000D03*
X240563000Y-98351000D03*
X240563000Y-97081000D03*
X240563000Y-95811000D03*
X240563000Y-94541000D03*
X240563000Y-93271000D03*
X240563000Y-92001000D03*
X240563000Y-90731000D03*
D11*
X240563000Y-89461000D03*
%TD*%
%TO.C,U6*%
G36*
G01*
X243809000Y-85149400D02*
X243609000Y-85149400D01*
G75*
G02*
X243509000Y-85049400I0J100000D01*
G01*
X243509000Y-83774400D01*
G75*
G02*
X243609000Y-83674400I100000J0D01*
G01*
X243809000Y-83674400D01*
G75*
G02*
X243909000Y-83774400I0J-100000D01*
G01*
X243909000Y-85049400D01*
G75*
G02*
X243809000Y-85149400I-100000J0D01*
G01*
G37*
G36*
G01*
X244459000Y-85149400D02*
X244259000Y-85149400D01*
G75*
G02*
X244159000Y-85049400I0J100000D01*
G01*
X244159000Y-83774400D01*
G75*
G02*
X244259000Y-83674400I100000J0D01*
G01*
X244459000Y-83674400D01*
G75*
G02*
X244559000Y-83774400I0J-100000D01*
G01*
X244559000Y-85049400D01*
G75*
G02*
X244459000Y-85149400I-100000J0D01*
G01*
G37*
G36*
G01*
X245109000Y-85149400D02*
X244909000Y-85149400D01*
G75*
G02*
X244809000Y-85049400I0J100000D01*
G01*
X244809000Y-83774400D01*
G75*
G02*
X244909000Y-83674400I100000J0D01*
G01*
X245109000Y-83674400D01*
G75*
G02*
X245209000Y-83774400I0J-100000D01*
G01*
X245209000Y-85049400D01*
G75*
G02*
X245109000Y-85149400I-100000J0D01*
G01*
G37*
G36*
G01*
X245759000Y-85149400D02*
X245559000Y-85149400D01*
G75*
G02*
X245459000Y-85049400I0J100000D01*
G01*
X245459000Y-83774400D01*
G75*
G02*
X245559000Y-83674400I100000J0D01*
G01*
X245759000Y-83674400D01*
G75*
G02*
X245859000Y-83774400I0J-100000D01*
G01*
X245859000Y-85049400D01*
G75*
G02*
X245759000Y-85149400I-100000J0D01*
G01*
G37*
G36*
G01*
X246409000Y-85149400D02*
X246209000Y-85149400D01*
G75*
G02*
X246109000Y-85049400I0J100000D01*
G01*
X246109000Y-83774400D01*
G75*
G02*
X246209000Y-83674400I100000J0D01*
G01*
X246409000Y-83674400D01*
G75*
G02*
X246509000Y-83774400I0J-100000D01*
G01*
X246509000Y-85049400D01*
G75*
G02*
X246409000Y-85149400I-100000J0D01*
G01*
G37*
G36*
G01*
X247059000Y-85149400D02*
X246859000Y-85149400D01*
G75*
G02*
X246759000Y-85049400I0J100000D01*
G01*
X246759000Y-83774400D01*
G75*
G02*
X246859000Y-83674400I100000J0D01*
G01*
X247059000Y-83674400D01*
G75*
G02*
X247159000Y-83774400I0J-100000D01*
G01*
X247159000Y-85049400D01*
G75*
G02*
X247059000Y-85149400I-100000J0D01*
G01*
G37*
G36*
G01*
X247709000Y-85149400D02*
X247509000Y-85149400D01*
G75*
G02*
X247409000Y-85049400I0J100000D01*
G01*
X247409000Y-83774400D01*
G75*
G02*
X247509000Y-83674400I100000J0D01*
G01*
X247709000Y-83674400D01*
G75*
G02*
X247809000Y-83774400I0J-100000D01*
G01*
X247809000Y-85049400D01*
G75*
G02*
X247709000Y-85149400I-100000J0D01*
G01*
G37*
G36*
G01*
X248359000Y-85149400D02*
X248159000Y-85149400D01*
G75*
G02*
X248059000Y-85049400I0J100000D01*
G01*
X248059000Y-83774400D01*
G75*
G02*
X248159000Y-83674400I100000J0D01*
G01*
X248359000Y-83674400D01*
G75*
G02*
X248459000Y-83774400I0J-100000D01*
G01*
X248459000Y-85049400D01*
G75*
G02*
X248359000Y-85149400I-100000J0D01*
G01*
G37*
G36*
G01*
X249009000Y-85149400D02*
X248809000Y-85149400D01*
G75*
G02*
X248709000Y-85049400I0J100000D01*
G01*
X248709000Y-83774400D01*
G75*
G02*
X248809000Y-83674400I100000J0D01*
G01*
X249009000Y-83674400D01*
G75*
G02*
X249109000Y-83774400I0J-100000D01*
G01*
X249109000Y-85049400D01*
G75*
G02*
X249009000Y-85149400I-100000J0D01*
G01*
G37*
G36*
G01*
X249659000Y-85149400D02*
X249459000Y-85149400D01*
G75*
G02*
X249359000Y-85049400I0J100000D01*
G01*
X249359000Y-83774400D01*
G75*
G02*
X249459000Y-83674400I100000J0D01*
G01*
X249659000Y-83674400D01*
G75*
G02*
X249759000Y-83774400I0J-100000D01*
G01*
X249759000Y-85049400D01*
G75*
G02*
X249659000Y-85149400I-100000J0D01*
G01*
G37*
G36*
G01*
X249659000Y-90874400D02*
X249459000Y-90874400D01*
G75*
G02*
X249359000Y-90774400I0J100000D01*
G01*
X249359000Y-89499400D01*
G75*
G02*
X249459000Y-89399400I100000J0D01*
G01*
X249659000Y-89399400D01*
G75*
G02*
X249759000Y-89499400I0J-100000D01*
G01*
X249759000Y-90774400D01*
G75*
G02*
X249659000Y-90874400I-100000J0D01*
G01*
G37*
G36*
G01*
X249009000Y-90874400D02*
X248809000Y-90874400D01*
G75*
G02*
X248709000Y-90774400I0J100000D01*
G01*
X248709000Y-89499400D01*
G75*
G02*
X248809000Y-89399400I100000J0D01*
G01*
X249009000Y-89399400D01*
G75*
G02*
X249109000Y-89499400I0J-100000D01*
G01*
X249109000Y-90774400D01*
G75*
G02*
X249009000Y-90874400I-100000J0D01*
G01*
G37*
G36*
G01*
X248359000Y-90874400D02*
X248159000Y-90874400D01*
G75*
G02*
X248059000Y-90774400I0J100000D01*
G01*
X248059000Y-89499400D01*
G75*
G02*
X248159000Y-89399400I100000J0D01*
G01*
X248359000Y-89399400D01*
G75*
G02*
X248459000Y-89499400I0J-100000D01*
G01*
X248459000Y-90774400D01*
G75*
G02*
X248359000Y-90874400I-100000J0D01*
G01*
G37*
G36*
G01*
X247709000Y-90874400D02*
X247509000Y-90874400D01*
G75*
G02*
X247409000Y-90774400I0J100000D01*
G01*
X247409000Y-89499400D01*
G75*
G02*
X247509000Y-89399400I100000J0D01*
G01*
X247709000Y-89399400D01*
G75*
G02*
X247809000Y-89499400I0J-100000D01*
G01*
X247809000Y-90774400D01*
G75*
G02*
X247709000Y-90874400I-100000J0D01*
G01*
G37*
G36*
G01*
X247059000Y-90874400D02*
X246859000Y-90874400D01*
G75*
G02*
X246759000Y-90774400I0J100000D01*
G01*
X246759000Y-89499400D01*
G75*
G02*
X246859000Y-89399400I100000J0D01*
G01*
X247059000Y-89399400D01*
G75*
G02*
X247159000Y-89499400I0J-100000D01*
G01*
X247159000Y-90774400D01*
G75*
G02*
X247059000Y-90874400I-100000J0D01*
G01*
G37*
G36*
G01*
X246409000Y-90874400D02*
X246209000Y-90874400D01*
G75*
G02*
X246109000Y-90774400I0J100000D01*
G01*
X246109000Y-89499400D01*
G75*
G02*
X246209000Y-89399400I100000J0D01*
G01*
X246409000Y-89399400D01*
G75*
G02*
X246509000Y-89499400I0J-100000D01*
G01*
X246509000Y-90774400D01*
G75*
G02*
X246409000Y-90874400I-100000J0D01*
G01*
G37*
G36*
G01*
X245759000Y-90874400D02*
X245559000Y-90874400D01*
G75*
G02*
X245459000Y-90774400I0J100000D01*
G01*
X245459000Y-89499400D01*
G75*
G02*
X245559000Y-89399400I100000J0D01*
G01*
X245759000Y-89399400D01*
G75*
G02*
X245859000Y-89499400I0J-100000D01*
G01*
X245859000Y-90774400D01*
G75*
G02*
X245759000Y-90874400I-100000J0D01*
G01*
G37*
G36*
G01*
X245109000Y-90874400D02*
X244909000Y-90874400D01*
G75*
G02*
X244809000Y-90774400I0J100000D01*
G01*
X244809000Y-89499400D01*
G75*
G02*
X244909000Y-89399400I100000J0D01*
G01*
X245109000Y-89399400D01*
G75*
G02*
X245209000Y-89499400I0J-100000D01*
G01*
X245209000Y-90774400D01*
G75*
G02*
X245109000Y-90874400I-100000J0D01*
G01*
G37*
G36*
G01*
X244459000Y-90874400D02*
X244259000Y-90874400D01*
G75*
G02*
X244159000Y-90774400I0J100000D01*
G01*
X244159000Y-89499400D01*
G75*
G02*
X244259000Y-89399400I100000J0D01*
G01*
X244459000Y-89399400D01*
G75*
G02*
X244559000Y-89499400I0J-100000D01*
G01*
X244559000Y-90774400D01*
G75*
G02*
X244459000Y-90874400I-100000J0D01*
G01*
G37*
G36*
G01*
X243809000Y-90874400D02*
X243609000Y-90874400D01*
G75*
G02*
X243509000Y-90774400I0J100000D01*
G01*
X243509000Y-89499400D01*
G75*
G02*
X243609000Y-89399400I100000J0D01*
G01*
X243809000Y-89399400D01*
G75*
G02*
X243909000Y-89499400I0J-100000D01*
G01*
X243909000Y-90774400D01*
G75*
G02*
X243809000Y-90874400I-100000J0D01*
G01*
G37*
%TD*%
%TO.C,U5*%
G36*
G01*
X259986000Y-81325200D02*
X259986000Y-81125200D01*
G75*
G02*
X260086000Y-81025200I100000J0D01*
G01*
X261361000Y-81025200D01*
G75*
G02*
X261461000Y-81125200I0J-100000D01*
G01*
X261461000Y-81325200D01*
G75*
G02*
X261361000Y-81425200I-100000J0D01*
G01*
X260086000Y-81425200D01*
G75*
G02*
X259986000Y-81325200I0J100000D01*
G01*
G37*
G36*
G01*
X259986000Y-81975200D02*
X259986000Y-81775200D01*
G75*
G02*
X260086000Y-81675200I100000J0D01*
G01*
X261361000Y-81675200D01*
G75*
G02*
X261461000Y-81775200I0J-100000D01*
G01*
X261461000Y-81975200D01*
G75*
G02*
X261361000Y-82075200I-100000J0D01*
G01*
X260086000Y-82075200D01*
G75*
G02*
X259986000Y-81975200I0J100000D01*
G01*
G37*
G36*
G01*
X259986000Y-82625200D02*
X259986000Y-82425200D01*
G75*
G02*
X260086000Y-82325200I100000J0D01*
G01*
X261361000Y-82325200D01*
G75*
G02*
X261461000Y-82425200I0J-100000D01*
G01*
X261461000Y-82625200D01*
G75*
G02*
X261361000Y-82725200I-100000J0D01*
G01*
X260086000Y-82725200D01*
G75*
G02*
X259986000Y-82625200I0J100000D01*
G01*
G37*
G36*
G01*
X259986000Y-83275200D02*
X259986000Y-83075200D01*
G75*
G02*
X260086000Y-82975200I100000J0D01*
G01*
X261361000Y-82975200D01*
G75*
G02*
X261461000Y-83075200I0J-100000D01*
G01*
X261461000Y-83275200D01*
G75*
G02*
X261361000Y-83375200I-100000J0D01*
G01*
X260086000Y-83375200D01*
G75*
G02*
X259986000Y-83275200I0J100000D01*
G01*
G37*
G36*
G01*
X259986000Y-83925200D02*
X259986000Y-83725200D01*
G75*
G02*
X260086000Y-83625200I100000J0D01*
G01*
X261361000Y-83625200D01*
G75*
G02*
X261461000Y-83725200I0J-100000D01*
G01*
X261461000Y-83925200D01*
G75*
G02*
X261361000Y-84025200I-100000J0D01*
G01*
X260086000Y-84025200D01*
G75*
G02*
X259986000Y-83925200I0J100000D01*
G01*
G37*
G36*
G01*
X259986000Y-84575200D02*
X259986000Y-84375200D01*
G75*
G02*
X260086000Y-84275200I100000J0D01*
G01*
X261361000Y-84275200D01*
G75*
G02*
X261461000Y-84375200I0J-100000D01*
G01*
X261461000Y-84575200D01*
G75*
G02*
X261361000Y-84675200I-100000J0D01*
G01*
X260086000Y-84675200D01*
G75*
G02*
X259986000Y-84575200I0J100000D01*
G01*
G37*
G36*
G01*
X259986000Y-85225200D02*
X259986000Y-85025200D01*
G75*
G02*
X260086000Y-84925200I100000J0D01*
G01*
X261361000Y-84925200D01*
G75*
G02*
X261461000Y-85025200I0J-100000D01*
G01*
X261461000Y-85225200D01*
G75*
G02*
X261361000Y-85325200I-100000J0D01*
G01*
X260086000Y-85325200D01*
G75*
G02*
X259986000Y-85225200I0J100000D01*
G01*
G37*
G36*
G01*
X259986000Y-85875200D02*
X259986000Y-85675200D01*
G75*
G02*
X260086000Y-85575200I100000J0D01*
G01*
X261361000Y-85575200D01*
G75*
G02*
X261461000Y-85675200I0J-100000D01*
G01*
X261461000Y-85875200D01*
G75*
G02*
X261361000Y-85975200I-100000J0D01*
G01*
X260086000Y-85975200D01*
G75*
G02*
X259986000Y-85875200I0J100000D01*
G01*
G37*
G36*
G01*
X259986000Y-86525200D02*
X259986000Y-86325200D01*
G75*
G02*
X260086000Y-86225200I100000J0D01*
G01*
X261361000Y-86225200D01*
G75*
G02*
X261461000Y-86325200I0J-100000D01*
G01*
X261461000Y-86525200D01*
G75*
G02*
X261361000Y-86625200I-100000J0D01*
G01*
X260086000Y-86625200D01*
G75*
G02*
X259986000Y-86525200I0J100000D01*
G01*
G37*
G36*
G01*
X259986000Y-87175200D02*
X259986000Y-86975200D01*
G75*
G02*
X260086000Y-86875200I100000J0D01*
G01*
X261361000Y-86875200D01*
G75*
G02*
X261461000Y-86975200I0J-100000D01*
G01*
X261461000Y-87175200D01*
G75*
G02*
X261361000Y-87275200I-100000J0D01*
G01*
X260086000Y-87275200D01*
G75*
G02*
X259986000Y-87175200I0J100000D01*
G01*
G37*
G36*
G01*
X254261000Y-87175200D02*
X254261000Y-86975200D01*
G75*
G02*
X254361000Y-86875200I100000J0D01*
G01*
X255636000Y-86875200D01*
G75*
G02*
X255736000Y-86975200I0J-100000D01*
G01*
X255736000Y-87175200D01*
G75*
G02*
X255636000Y-87275200I-100000J0D01*
G01*
X254361000Y-87275200D01*
G75*
G02*
X254261000Y-87175200I0J100000D01*
G01*
G37*
G36*
G01*
X254261000Y-86525200D02*
X254261000Y-86325200D01*
G75*
G02*
X254361000Y-86225200I100000J0D01*
G01*
X255636000Y-86225200D01*
G75*
G02*
X255736000Y-86325200I0J-100000D01*
G01*
X255736000Y-86525200D01*
G75*
G02*
X255636000Y-86625200I-100000J0D01*
G01*
X254361000Y-86625200D01*
G75*
G02*
X254261000Y-86525200I0J100000D01*
G01*
G37*
G36*
G01*
X254261000Y-85875200D02*
X254261000Y-85675200D01*
G75*
G02*
X254361000Y-85575200I100000J0D01*
G01*
X255636000Y-85575200D01*
G75*
G02*
X255736000Y-85675200I0J-100000D01*
G01*
X255736000Y-85875200D01*
G75*
G02*
X255636000Y-85975200I-100000J0D01*
G01*
X254361000Y-85975200D01*
G75*
G02*
X254261000Y-85875200I0J100000D01*
G01*
G37*
G36*
G01*
X254261000Y-85225200D02*
X254261000Y-85025200D01*
G75*
G02*
X254361000Y-84925200I100000J0D01*
G01*
X255636000Y-84925200D01*
G75*
G02*
X255736000Y-85025200I0J-100000D01*
G01*
X255736000Y-85225200D01*
G75*
G02*
X255636000Y-85325200I-100000J0D01*
G01*
X254361000Y-85325200D01*
G75*
G02*
X254261000Y-85225200I0J100000D01*
G01*
G37*
G36*
G01*
X254261000Y-84575200D02*
X254261000Y-84375200D01*
G75*
G02*
X254361000Y-84275200I100000J0D01*
G01*
X255636000Y-84275200D01*
G75*
G02*
X255736000Y-84375200I0J-100000D01*
G01*
X255736000Y-84575200D01*
G75*
G02*
X255636000Y-84675200I-100000J0D01*
G01*
X254361000Y-84675200D01*
G75*
G02*
X254261000Y-84575200I0J100000D01*
G01*
G37*
G36*
G01*
X254261000Y-83925200D02*
X254261000Y-83725200D01*
G75*
G02*
X254361000Y-83625200I100000J0D01*
G01*
X255636000Y-83625200D01*
G75*
G02*
X255736000Y-83725200I0J-100000D01*
G01*
X255736000Y-83925200D01*
G75*
G02*
X255636000Y-84025200I-100000J0D01*
G01*
X254361000Y-84025200D01*
G75*
G02*
X254261000Y-83925200I0J100000D01*
G01*
G37*
G36*
G01*
X254261000Y-83275200D02*
X254261000Y-83075200D01*
G75*
G02*
X254361000Y-82975200I100000J0D01*
G01*
X255636000Y-82975200D01*
G75*
G02*
X255736000Y-83075200I0J-100000D01*
G01*
X255736000Y-83275200D01*
G75*
G02*
X255636000Y-83375200I-100000J0D01*
G01*
X254361000Y-83375200D01*
G75*
G02*
X254261000Y-83275200I0J100000D01*
G01*
G37*
G36*
G01*
X254261000Y-82625200D02*
X254261000Y-82425200D01*
G75*
G02*
X254361000Y-82325200I100000J0D01*
G01*
X255636000Y-82325200D01*
G75*
G02*
X255736000Y-82425200I0J-100000D01*
G01*
X255736000Y-82625200D01*
G75*
G02*
X255636000Y-82725200I-100000J0D01*
G01*
X254361000Y-82725200D01*
G75*
G02*
X254261000Y-82625200I0J100000D01*
G01*
G37*
G36*
G01*
X254261000Y-81975200D02*
X254261000Y-81775200D01*
G75*
G02*
X254361000Y-81675200I100000J0D01*
G01*
X255636000Y-81675200D01*
G75*
G02*
X255736000Y-81775200I0J-100000D01*
G01*
X255736000Y-81975200D01*
G75*
G02*
X255636000Y-82075200I-100000J0D01*
G01*
X254361000Y-82075200D01*
G75*
G02*
X254261000Y-81975200I0J100000D01*
G01*
G37*
G36*
G01*
X254261000Y-81325200D02*
X254261000Y-81125200D01*
G75*
G02*
X254361000Y-81025200I100000J0D01*
G01*
X255636000Y-81025200D01*
G75*
G02*
X255736000Y-81125200I0J-100000D01*
G01*
X255736000Y-81325200D01*
G75*
G02*
X255636000Y-81425200I-100000J0D01*
G01*
X254361000Y-81425200D01*
G75*
G02*
X254261000Y-81325200I0J100000D01*
G01*
G37*
%TD*%
%TO.C,C13*%
G36*
G01*
X244178000Y-82549400D02*
X244518000Y-82549400D01*
G75*
G02*
X244658000Y-82689400I0J-140000D01*
G01*
X244658000Y-82969400D01*
G75*
G02*
X244518000Y-83109400I-140000J0D01*
G01*
X244178000Y-83109400D01*
G75*
G02*
X244038000Y-82969400I0J140000D01*
G01*
X244038000Y-82689400D01*
G75*
G02*
X244178000Y-82549400I140000J0D01*
G01*
G37*
G36*
G01*
X244178000Y-81589400D02*
X244518000Y-81589400D01*
G75*
G02*
X244658000Y-81729400I0J-140000D01*
G01*
X244658000Y-82009400D01*
G75*
G02*
X244518000Y-82149400I-140000J0D01*
G01*
X244178000Y-82149400D01*
G75*
G02*
X244038000Y-82009400I0J140000D01*
G01*
X244038000Y-81729400D01*
G75*
G02*
X244178000Y-81589400I140000J0D01*
G01*
G37*
%TD*%
%TO.C,C12*%
G36*
G01*
X262535000Y-81719600D02*
X262535000Y-82059600D01*
G75*
G02*
X262395000Y-82199600I-140000J0D01*
G01*
X262115000Y-82199600D01*
G75*
G02*
X261975000Y-82059600I0J140000D01*
G01*
X261975000Y-81719600D01*
G75*
G02*
X262115000Y-81579600I140000J0D01*
G01*
X262395000Y-81579600D01*
G75*
G02*
X262535000Y-81719600I0J-140000D01*
G01*
G37*
G36*
G01*
X263495000Y-81719600D02*
X263495000Y-82059600D01*
G75*
G02*
X263355000Y-82199600I-140000J0D01*
G01*
X263075000Y-82199600D01*
G75*
G02*
X262935000Y-82059600I0J140000D01*
G01*
X262935000Y-81719600D01*
G75*
G02*
X263075000Y-81579600I140000J0D01*
G01*
X263355000Y-81579600D01*
G75*
G02*
X263495000Y-81719600I0J-140000D01*
G01*
G37*
%TD*%
%TO.C,C11*%
G36*
G01*
X242400000Y-88795200D02*
X242740000Y-88795200D01*
G75*
G02*
X242880000Y-88935200I0J-140000D01*
G01*
X242880000Y-89215200D01*
G75*
G02*
X242740000Y-89355200I-140000J0D01*
G01*
X242400000Y-89355200D01*
G75*
G02*
X242260000Y-89215200I0J140000D01*
G01*
X242260000Y-88935200D01*
G75*
G02*
X242400000Y-88795200I140000J0D01*
G01*
G37*
G36*
G01*
X242400000Y-87835200D02*
X242740000Y-87835200D01*
G75*
G02*
X242880000Y-87975200I0J-140000D01*
G01*
X242880000Y-88255200D01*
G75*
G02*
X242740000Y-88395200I-140000J0D01*
G01*
X242400000Y-88395200D01*
G75*
G02*
X242260000Y-88255200I0J140000D01*
G01*
X242260000Y-87975200D01*
G75*
G02*
X242400000Y-87835200I140000J0D01*
G01*
G37*
%TD*%
%TO.C,C10*%
G36*
G01*
X253237000Y-82059600D02*
X253237000Y-81719600D01*
G75*
G02*
X253377000Y-81579600I140000J0D01*
G01*
X253657000Y-81579600D01*
G75*
G02*
X253797000Y-81719600I0J-140000D01*
G01*
X253797000Y-82059600D01*
G75*
G02*
X253657000Y-82199600I-140000J0D01*
G01*
X253377000Y-82199600D01*
G75*
G02*
X253237000Y-82059600I0J140000D01*
G01*
G37*
G36*
G01*
X252277000Y-82059600D02*
X252277000Y-81719600D01*
G75*
G02*
X252417000Y-81579600I140000J0D01*
G01*
X252697000Y-81579600D01*
G75*
G02*
X252837000Y-81719600I0J-140000D01*
G01*
X252837000Y-82059600D01*
G75*
G02*
X252697000Y-82199600I-140000J0D01*
G01*
X252417000Y-82199600D01*
G75*
G02*
X252277000Y-82059600I0J140000D01*
G01*
G37*
%TD*%
D12*
%TO.C,Y1*%
X235983600Y-78347200D03*
X238183600Y-78347200D03*
X238183600Y-80047200D03*
X235983600Y-80047200D03*
%TD*%
D13*
%TO.C,U4*%
X235280800Y-53416200D03*
X235280800Y-54686200D03*
X235280800Y-55956200D03*
X235280800Y-57226200D03*
X235280800Y-58496200D03*
X235280800Y-59766200D03*
X235280800Y-61036200D03*
X230353200Y-61036200D03*
X230353200Y-59766200D03*
X230353200Y-58496200D03*
X230353200Y-57226200D03*
X230353200Y-55956200D03*
X230353200Y-54686200D03*
X230353200Y-53416200D03*
%TD*%
D14*
%TO.C,U3*%
X218008000Y-68224400D03*
X238328000Y-75844400D03*
X220548000Y-68224400D03*
X235788000Y-75844400D03*
X223088000Y-68224400D03*
X233248000Y-75844400D03*
X225628000Y-68224400D03*
X230708000Y-75844400D03*
X228168000Y-68224400D03*
X228168000Y-75844400D03*
X230708000Y-68224400D03*
X225628000Y-75844400D03*
X233248000Y-68224400D03*
X223088000Y-75844400D03*
X235788000Y-68224400D03*
X220548000Y-75844400D03*
X238328000Y-68224400D03*
D15*
X218008000Y-75844400D03*
%TD*%
D16*
%TO.C,U2*%
X216534600Y-91574800D03*
X217484600Y-91574800D03*
X215584600Y-91574800D03*
X215584600Y-89374800D03*
X216534600Y-89374800D03*
X217484600Y-89374800D03*
%TD*%
%TO.C,R26*%
G36*
G01*
X232468000Y-62285200D02*
X232468000Y-62835200D01*
G75*
G02*
X232268000Y-63035200I-200000J0D01*
G01*
X231868000Y-63035200D01*
G75*
G02*
X231668000Y-62835200I0J200000D01*
G01*
X231668000Y-62285200D01*
G75*
G02*
X231868000Y-62085200I200000J0D01*
G01*
X232268000Y-62085200D01*
G75*
G02*
X232468000Y-62285200I0J-200000D01*
G01*
G37*
G36*
G01*
X234118000Y-62285200D02*
X234118000Y-62835200D01*
G75*
G02*
X233918000Y-63035200I-200000J0D01*
G01*
X233518000Y-63035200D01*
G75*
G02*
X233318000Y-62835200I0J200000D01*
G01*
X233318000Y-62285200D01*
G75*
G02*
X233518000Y-62085200I200000J0D01*
G01*
X233918000Y-62085200D01*
G75*
G02*
X234118000Y-62285200I0J-200000D01*
G01*
G37*
%TD*%
%TO.C,R23*%
G36*
G01*
X228443000Y-60140800D02*
X227893000Y-60140800D01*
G75*
G02*
X227693000Y-59940800I0J200000D01*
G01*
X227693000Y-59540800D01*
G75*
G02*
X227893000Y-59340800I200000J0D01*
G01*
X228443000Y-59340800D01*
G75*
G02*
X228643000Y-59540800I0J-200000D01*
G01*
X228643000Y-59940800D01*
G75*
G02*
X228443000Y-60140800I-200000J0D01*
G01*
G37*
G36*
G01*
X228443000Y-61790800D02*
X227893000Y-61790800D01*
G75*
G02*
X227693000Y-61590800I0J200000D01*
G01*
X227693000Y-61190800D01*
G75*
G02*
X227893000Y-60990800I200000J0D01*
G01*
X228443000Y-60990800D01*
G75*
G02*
X228643000Y-61190800I0J-200000D01*
G01*
X228643000Y-61590800D01*
G75*
G02*
X228443000Y-61790800I-200000J0D01*
G01*
G37*
%TD*%
%TO.C,R20*%
G36*
G01*
X226411000Y-58159600D02*
X225861000Y-58159600D01*
G75*
G02*
X225661000Y-57959600I0J200000D01*
G01*
X225661000Y-57559600D01*
G75*
G02*
X225861000Y-57359600I200000J0D01*
G01*
X226411000Y-57359600D01*
G75*
G02*
X226611000Y-57559600I0J-200000D01*
G01*
X226611000Y-57959600D01*
G75*
G02*
X226411000Y-58159600I-200000J0D01*
G01*
G37*
G36*
G01*
X226411000Y-59809600D02*
X225861000Y-59809600D01*
G75*
G02*
X225661000Y-59609600I0J200000D01*
G01*
X225661000Y-59209600D01*
G75*
G02*
X225861000Y-59009600I200000J0D01*
G01*
X226411000Y-59009600D01*
G75*
G02*
X226611000Y-59209600I0J-200000D01*
G01*
X226611000Y-59609600D01*
G75*
G02*
X226411000Y-59809600I-200000J0D01*
G01*
G37*
%TD*%
%TO.C,R19*%
G36*
G01*
X224885000Y-55986000D02*
X224885000Y-56536000D01*
G75*
G02*
X224685000Y-56736000I-200000J0D01*
G01*
X224285000Y-56736000D01*
G75*
G02*
X224085000Y-56536000I0J200000D01*
G01*
X224085000Y-55986000D01*
G75*
G02*
X224285000Y-55786000I200000J0D01*
G01*
X224685000Y-55786000D01*
G75*
G02*
X224885000Y-55986000I0J-200000D01*
G01*
G37*
G36*
G01*
X226535000Y-55986000D02*
X226535000Y-56536000D01*
G75*
G02*
X226335000Y-56736000I-200000J0D01*
G01*
X225935000Y-56736000D01*
G75*
G02*
X225735000Y-56536000I0J200000D01*
G01*
X225735000Y-55986000D01*
G75*
G02*
X225935000Y-55786000I200000J0D01*
G01*
X226335000Y-55786000D01*
G75*
G02*
X226535000Y-55986000I0J-200000D01*
G01*
G37*
%TD*%
%TO.C,R18*%
G36*
G01*
X227919000Y-65970200D02*
X228469000Y-65970200D01*
G75*
G02*
X228669000Y-66170200I0J-200000D01*
G01*
X228669000Y-66570200D01*
G75*
G02*
X228469000Y-66770200I-200000J0D01*
G01*
X227919000Y-66770200D01*
G75*
G02*
X227719000Y-66570200I0J200000D01*
G01*
X227719000Y-66170200D01*
G75*
G02*
X227919000Y-65970200I200000J0D01*
G01*
G37*
G36*
G01*
X227919000Y-64320200D02*
X228469000Y-64320200D01*
G75*
G02*
X228669000Y-64520200I0J-200000D01*
G01*
X228669000Y-64920200D01*
G75*
G02*
X228469000Y-65120200I-200000J0D01*
G01*
X227919000Y-65120200D01*
G75*
G02*
X227719000Y-64920200I0J200000D01*
G01*
X227719000Y-64520200D01*
G75*
G02*
X227919000Y-64320200I200000J0D01*
G01*
G37*
%TD*%
%TO.C,R17*%
G36*
G01*
X225379000Y-65970200D02*
X225929000Y-65970200D01*
G75*
G02*
X226129000Y-66170200I0J-200000D01*
G01*
X226129000Y-66570200D01*
G75*
G02*
X225929000Y-66770200I-200000J0D01*
G01*
X225379000Y-66770200D01*
G75*
G02*
X225179000Y-66570200I0J200000D01*
G01*
X225179000Y-66170200D01*
G75*
G02*
X225379000Y-65970200I200000J0D01*
G01*
G37*
G36*
G01*
X225379000Y-64320200D02*
X225929000Y-64320200D01*
G75*
G02*
X226129000Y-64520200I0J-200000D01*
G01*
X226129000Y-64920200D01*
G75*
G02*
X225929000Y-65120200I-200000J0D01*
G01*
X225379000Y-65120200D01*
G75*
G02*
X225179000Y-64920200I0J200000D01*
G01*
X225179000Y-64520200D01*
G75*
G02*
X225379000Y-64320200I200000J0D01*
G01*
G37*
%TD*%
%TO.C,R12*%
G36*
G01*
X216243600Y-93301400D02*
X216243600Y-92931400D01*
G75*
G02*
X216378600Y-92796400I135000J0D01*
G01*
X216648600Y-92796400D01*
G75*
G02*
X216783600Y-92931400I0J-135000D01*
G01*
X216783600Y-93301400D01*
G75*
G02*
X216648600Y-93436400I-135000J0D01*
G01*
X216378600Y-93436400D01*
G75*
G02*
X216243600Y-93301400I0J135000D01*
G01*
G37*
G36*
G01*
X215223600Y-93301400D02*
X215223600Y-92931400D01*
G75*
G02*
X215358600Y-92796400I135000J0D01*
G01*
X215628600Y-92796400D01*
G75*
G02*
X215763600Y-92931400I0J-135000D01*
G01*
X215763600Y-93301400D01*
G75*
G02*
X215628600Y-93436400I-135000J0D01*
G01*
X215358600Y-93436400D01*
G75*
G02*
X215223600Y-93301400I0J135000D01*
G01*
G37*
%TD*%
%TO.C,R11*%
G36*
G01*
X214287800Y-93301400D02*
X214287800Y-92931400D01*
G75*
G02*
X214422800Y-92796400I135000J0D01*
G01*
X214692800Y-92796400D01*
G75*
G02*
X214827800Y-92931400I0J-135000D01*
G01*
X214827800Y-93301400D01*
G75*
G02*
X214692800Y-93436400I-135000J0D01*
G01*
X214422800Y-93436400D01*
G75*
G02*
X214287800Y-93301400I0J135000D01*
G01*
G37*
G36*
G01*
X213267800Y-93301400D02*
X213267800Y-92931400D01*
G75*
G02*
X213402800Y-92796400I135000J0D01*
G01*
X213672800Y-92796400D01*
G75*
G02*
X213807800Y-92931400I0J-135000D01*
G01*
X213807800Y-93301400D01*
G75*
G02*
X213672800Y-93436400I-135000J0D01*
G01*
X213402800Y-93436400D01*
G75*
G02*
X213267800Y-93301400I0J135000D01*
G01*
G37*
%TD*%
%TO.C,L2*%
G36*
G01*
X220683001Y-57164400D02*
X218482999Y-57164400D01*
G75*
G02*
X218233000Y-56914401I0J249999D01*
G01*
X218233000Y-56089399D01*
G75*
G02*
X218482999Y-55839400I249999J0D01*
G01*
X220683001Y-55839400D01*
G75*
G02*
X220933000Y-56089399I0J-249999D01*
G01*
X220933000Y-56914401D01*
G75*
G02*
X220683001Y-57164400I-249999J0D01*
G01*
G37*
G36*
G01*
X220683001Y-60289400D02*
X218482999Y-60289400D01*
G75*
G02*
X218233000Y-60039401I0J249999D01*
G01*
X218233000Y-59214399D01*
G75*
G02*
X218482999Y-58964400I249999J0D01*
G01*
X220683001Y-58964400D01*
G75*
G02*
X220933000Y-59214399I0J-249999D01*
G01*
X220933000Y-60039401D01*
G75*
G02*
X220683001Y-60289400I-249999J0D01*
G01*
G37*
%TD*%
%TO.C,L1*%
G36*
G01*
X222689601Y-89358500D02*
X220489599Y-89358500D01*
G75*
G02*
X220239600Y-89108501I0J249999D01*
G01*
X220239600Y-88283499D01*
G75*
G02*
X220489599Y-88033500I249999J0D01*
G01*
X222689601Y-88033500D01*
G75*
G02*
X222939600Y-88283499I0J-249999D01*
G01*
X222939600Y-89108501D01*
G75*
G02*
X222689601Y-89358500I-249999J0D01*
G01*
G37*
G36*
G01*
X222689601Y-92483500D02*
X220489599Y-92483500D01*
G75*
G02*
X220239600Y-92233501I0J249999D01*
G01*
X220239600Y-91408499D01*
G75*
G02*
X220489599Y-91158500I249999J0D01*
G01*
X222689601Y-91158500D01*
G75*
G02*
X222939600Y-91408499I0J-249999D01*
G01*
X222939600Y-92233501D01*
G75*
G02*
X222689601Y-92483500I-249999J0D01*
G01*
G37*
%TD*%
D17*
%TO.C,J1*%
G36*
X211480241Y-49630458D02*
G01*
X215377721Y-48730653D01*
X215715147Y-50192208D01*
X211817667Y-51092013D01*
X211480241Y-49630458D01*
G37*
G36*
X216201706Y-43408902D02*
G01*
X220099186Y-42509097D01*
X220436612Y-43970652D01*
X216539132Y-44870457D01*
X216201706Y-43408902D01*
G37*
G36*
X209661991Y-42866106D02*
G01*
X213559471Y-41966301D01*
X213896897Y-43427856D01*
X209999417Y-44327661D01*
X209661991Y-42866106D01*
G37*
D18*
X216295853Y-48262110D03*
X214946147Y-42415890D03*
%TD*%
%TO.C,C9*%
G36*
G01*
X219826000Y-53586200D02*
X219826000Y-52636200D01*
G75*
G02*
X220076000Y-52386200I250000J0D01*
G01*
X220751000Y-52386200D01*
G75*
G02*
X221001000Y-52636200I0J-250000D01*
G01*
X221001000Y-53586200D01*
G75*
G02*
X220751000Y-53836200I-250000J0D01*
G01*
X220076000Y-53836200D01*
G75*
G02*
X219826000Y-53586200I0J250000D01*
G01*
G37*
G36*
G01*
X217751000Y-53586200D02*
X217751000Y-52636200D01*
G75*
G02*
X218001000Y-52386200I250000J0D01*
G01*
X218676000Y-52386200D01*
G75*
G02*
X218926000Y-52636200I0J-250000D01*
G01*
X218926000Y-53586200D01*
G75*
G02*
X218676000Y-53836200I-250000J0D01*
G01*
X218001000Y-53836200D01*
G75*
G02*
X217751000Y-53586200I0J250000D01*
G01*
G37*
%TD*%
%TO.C,C8*%
G36*
G01*
X223560000Y-43375600D02*
X223560000Y-42425600D01*
G75*
G02*
X223810000Y-42175600I250000J0D01*
G01*
X224485000Y-42175600D01*
G75*
G02*
X224735000Y-42425600I0J-250000D01*
G01*
X224735000Y-43375600D01*
G75*
G02*
X224485000Y-43625600I-250000J0D01*
G01*
X223810000Y-43625600D01*
G75*
G02*
X223560000Y-43375600I0J250000D01*
G01*
G37*
G36*
G01*
X221485000Y-43375600D02*
X221485000Y-42425600D01*
G75*
G02*
X221735000Y-42175600I250000J0D01*
G01*
X222410000Y-42175600D01*
G75*
G02*
X222660000Y-42425600I0J-250000D01*
G01*
X222660000Y-43375600D01*
G75*
G02*
X222410000Y-43625600I-250000J0D01*
G01*
X221735000Y-43625600D01*
G75*
G02*
X221485000Y-43375600I0J250000D01*
G01*
G37*
%TD*%
%TO.C,C7*%
G36*
G01*
X237766200Y-59936200D02*
X237766200Y-59596200D01*
G75*
G02*
X237906200Y-59456200I140000J0D01*
G01*
X238186200Y-59456200D01*
G75*
G02*
X238326200Y-59596200I0J-140000D01*
G01*
X238326200Y-59936200D01*
G75*
G02*
X238186200Y-60076200I-140000J0D01*
G01*
X237906200Y-60076200D01*
G75*
G02*
X237766200Y-59936200I0J140000D01*
G01*
G37*
G36*
G01*
X236806200Y-59936200D02*
X236806200Y-59596200D01*
G75*
G02*
X236946200Y-59456200I140000J0D01*
G01*
X237226200Y-59456200D01*
G75*
G02*
X237366200Y-59596200I0J-140000D01*
G01*
X237366200Y-59936200D01*
G75*
G02*
X237226200Y-60076200I-140000J0D01*
G01*
X236946200Y-60076200D01*
G75*
G02*
X236806200Y-59936200I0J140000D01*
G01*
G37*
%TD*%
%TO.C,C6*%
G36*
G01*
X222944000Y-66115600D02*
X223284000Y-66115600D01*
G75*
G02*
X223424000Y-66255600I0J-140000D01*
G01*
X223424000Y-66535600D01*
G75*
G02*
X223284000Y-66675600I-140000J0D01*
G01*
X222944000Y-66675600D01*
G75*
G02*
X222804000Y-66535600I0J140000D01*
G01*
X222804000Y-66255600D01*
G75*
G02*
X222944000Y-66115600I140000J0D01*
G01*
G37*
G36*
G01*
X222944000Y-65155600D02*
X223284000Y-65155600D01*
G75*
G02*
X223424000Y-65295600I0J-140000D01*
G01*
X223424000Y-65575600D01*
G75*
G02*
X223284000Y-65715600I-140000J0D01*
G01*
X222944000Y-65715600D01*
G75*
G02*
X222804000Y-65575600I0J140000D01*
G01*
X222804000Y-65295600D01*
G75*
G02*
X222944000Y-65155600I140000J0D01*
G01*
G37*
%TD*%
%TO.C,C5*%
G36*
G01*
X221879999Y-58925900D02*
X223180001Y-58925900D01*
G75*
G02*
X223430000Y-59175899I0J-249999D01*
G01*
X223430000Y-60000901D01*
G75*
G02*
X223180001Y-60250900I-249999J0D01*
G01*
X221879999Y-60250900D01*
G75*
G02*
X221630000Y-60000901I0J249999D01*
G01*
X221630000Y-59175899D01*
G75*
G02*
X221879999Y-58925900I249999J0D01*
G01*
G37*
G36*
G01*
X221879999Y-55800900D02*
X223180001Y-55800900D01*
G75*
G02*
X223430000Y-56050899I0J-249999D01*
G01*
X223430000Y-56875901D01*
G75*
G02*
X223180001Y-57125900I-249999J0D01*
G01*
X221879999Y-57125900D01*
G75*
G02*
X221630000Y-56875901I0J249999D01*
G01*
X221630000Y-56050899D01*
G75*
G02*
X221879999Y-55800900I249999J0D01*
G01*
G37*
%TD*%
%TO.C,C4*%
G36*
G01*
X212079601Y-89206100D02*
X210779599Y-89206100D01*
G75*
G02*
X210529600Y-88956101I0J249999D01*
G01*
X210529600Y-88131099D01*
G75*
G02*
X210779599Y-87881100I249999J0D01*
G01*
X212079601Y-87881100D01*
G75*
G02*
X212329600Y-88131099I0J-249999D01*
G01*
X212329600Y-88956101D01*
G75*
G02*
X212079601Y-89206100I-249999J0D01*
G01*
G37*
G36*
G01*
X212079601Y-92331100D02*
X210779599Y-92331100D01*
G75*
G02*
X210529600Y-92081101I0J249999D01*
G01*
X210529600Y-91256099D01*
G75*
G02*
X210779599Y-91006100I249999J0D01*
G01*
X212079601Y-91006100D01*
G75*
G02*
X212329600Y-91256099I0J-249999D01*
G01*
X212329600Y-92081101D01*
G75*
G02*
X212079601Y-92331100I-249999J0D01*
G01*
G37*
%TD*%
%TO.C,C3*%
G36*
G01*
X240433200Y-80205400D02*
X240433200Y-79865400D01*
G75*
G02*
X240573200Y-79725400I140000J0D01*
G01*
X240853200Y-79725400D01*
G75*
G02*
X240993200Y-79865400I0J-140000D01*
G01*
X240993200Y-80205400D01*
G75*
G02*
X240853200Y-80345400I-140000J0D01*
G01*
X240573200Y-80345400D01*
G75*
G02*
X240433200Y-80205400I0J140000D01*
G01*
G37*
G36*
G01*
X239473200Y-80205400D02*
X239473200Y-79865400D01*
G75*
G02*
X239613200Y-79725400I140000J0D01*
G01*
X239893200Y-79725400D01*
G75*
G02*
X240033200Y-79865400I0J-140000D01*
G01*
X240033200Y-80205400D01*
G75*
G02*
X239893200Y-80345400I-140000J0D01*
G01*
X239613200Y-80345400D01*
G75*
G02*
X239473200Y-80205400I0J140000D01*
G01*
G37*
%TD*%
%TO.C,C2*%
G36*
G01*
X233680600Y-79865400D02*
X233680600Y-80205400D01*
G75*
G02*
X233540600Y-80345400I-140000J0D01*
G01*
X233260600Y-80345400D01*
G75*
G02*
X233120600Y-80205400I0J140000D01*
G01*
X233120600Y-79865400D01*
G75*
G02*
X233260600Y-79725400I140000J0D01*
G01*
X233540600Y-79725400D01*
G75*
G02*
X233680600Y-79865400I0J-140000D01*
G01*
G37*
G36*
G01*
X234640600Y-79865400D02*
X234640600Y-80205400D01*
G75*
G02*
X234500600Y-80345400I-140000J0D01*
G01*
X234220600Y-80345400D01*
G75*
G02*
X234080600Y-80205400I0J140000D01*
G01*
X234080600Y-79865400D01*
G75*
G02*
X234220600Y-79725400I140000J0D01*
G01*
X234500600Y-79725400D01*
G75*
G02*
X234640600Y-79865400I0J-140000D01*
G01*
G37*
%TD*%
%TO.C,C1*%
G36*
G01*
X219295600Y-90683800D02*
X218955600Y-90683800D01*
G75*
G02*
X218815600Y-90543800I0J140000D01*
G01*
X218815600Y-90263800D01*
G75*
G02*
X218955600Y-90123800I140000J0D01*
G01*
X219295600Y-90123800D01*
G75*
G02*
X219435600Y-90263800I0J-140000D01*
G01*
X219435600Y-90543800D01*
G75*
G02*
X219295600Y-90683800I-140000J0D01*
G01*
G37*
G36*
G01*
X219295600Y-91643800D02*
X218955600Y-91643800D01*
G75*
G02*
X218815600Y-91503800I0J140000D01*
G01*
X218815600Y-91223800D01*
G75*
G02*
X218955600Y-91083800I140000J0D01*
G01*
X219295600Y-91083800D01*
G75*
G02*
X219435600Y-91223800I0J-140000D01*
G01*
X219435600Y-91503800D01*
G75*
G02*
X219295600Y-91643800I-140000J0D01*
G01*
G37*
%TD*%
M02*
