%TF.GenerationSoftware,KiCad,Pcbnew,(5.1.8)-1*%
%TF.CreationDate,2020-12-26T14:40:12+03:00*%
%TF.ProjectId,mesp240_opll,6d657370-3234-4305-9f6f-706c6c2e6b69,rev?*%
%TF.SameCoordinates,Original*%
%TF.FileFunction,Soldermask,Bot*%
%TF.FilePolarity,Negative*%
%FSLAX46Y46*%
G04 Gerber Fmt 4.6, Leading zero omitted, Abs format (unit mm)*
G04 Created by KiCad (PCBNEW (5.1.8)-1) date 2020-12-26 14:40:12*
%MOMM*%
%LPD*%
G01*
G04 APERTURE LIST*
%ADD10C,1.000000*%
%ADD11R,1.000000X1.000000*%
%ADD12O,1.600000X1.600000*%
%ADD13R,1.600000X1.600000*%
%ADD14C,1.200000*%
G04 APERTURE END LIST*
D10*
%TO.C,U1*%
X263423000Y-118671000D03*
X263423000Y-117401000D03*
X263423000Y-116131000D03*
X263423000Y-114861000D03*
X263423000Y-113591000D03*
X263423000Y-112321000D03*
X263423000Y-111051000D03*
X263423000Y-109781000D03*
X263423000Y-108511000D03*
X263423000Y-107241000D03*
X263423000Y-105971000D03*
X263423000Y-104701000D03*
X263423000Y-103431000D03*
X263423000Y-102161000D03*
X263423000Y-100891000D03*
X263423000Y-99621000D03*
X263423000Y-98351000D03*
X263423000Y-97081000D03*
X263423000Y-95811000D03*
X263423000Y-94541000D03*
X263423000Y-93271000D03*
X263423000Y-92001000D03*
X263423000Y-90731000D03*
D11*
X263423000Y-89461000D03*
D10*
X240563000Y-108511000D03*
X240563000Y-107241000D03*
X240563000Y-105971000D03*
X240563000Y-104701000D03*
X240563000Y-103431000D03*
X240563000Y-102161000D03*
X240563000Y-100891000D03*
X240563000Y-99621000D03*
X240563000Y-98351000D03*
X240563000Y-97081000D03*
X240563000Y-95811000D03*
X240563000Y-94541000D03*
X240563000Y-93271000D03*
X240563000Y-92001000D03*
X240563000Y-90731000D03*
D11*
X240563000Y-89461000D03*
%TD*%
D12*
%TO.C,U3*%
X218008000Y-68224400D03*
X238328000Y-75844400D03*
X220548000Y-68224400D03*
X235788000Y-75844400D03*
X223088000Y-68224400D03*
X233248000Y-75844400D03*
X225628000Y-68224400D03*
X230708000Y-75844400D03*
X228168000Y-68224400D03*
X228168000Y-75844400D03*
X230708000Y-68224400D03*
X225628000Y-75844400D03*
X233248000Y-68224400D03*
X223088000Y-75844400D03*
X235788000Y-68224400D03*
X220548000Y-75844400D03*
X238328000Y-68224400D03*
D13*
X218008000Y-75844400D03*
%TD*%
D14*
%TO.C,J1*%
X216295853Y-48262110D03*
X214946147Y-42415890D03*
%TD*%
M02*
