M48
; DRILL file {KiCad (5.1.8)-1} date 12/26/20 14:40:14
; FORMAT={-:-/ absolute / inch / decimal}
; #@! TF.CreationDate,2020-12-26T14:40:14+03:00
; #@! TF.GenerationSoftware,Kicad,Pcbnew,(5.1.8)-1
; #@! TF.FileFunction,Plated,1,2,PTH
FMAT,2
INCH
T1C0.0118
T2C0.0157
T3C0.0244
T4C0.0315
%
G90
G05
T1
X8.065Y-3.46
X8.072Y-3.08
X8.095Y-3.181
X8.098Y-3.308
X8.099Y-3.258
X8.153Y-2.932
X8.162Y-3.602
X8.162Y-3.702
X8.163Y-3.541
X8.164Y-3.658
X8.181Y-3.393
X8.185Y-3.308
X8.19Y-3.708
X8.191Y-3.249
X8.198Y-3.163
X8.213Y-3.053
X8.244Y-3.708
X8.251Y-3.397
X8.253Y-1.992
X8.256Y-2.818
X8.276Y-2.938
X8.313Y-3.706
X8.324Y-3.424
X8.354Y-2.046
X8.374Y-2.698
X8.374Y-2.859
X8.382Y-3.705
X8.39Y-1.888
X8.416Y-3.391
X8.43Y-2.125
X8.432Y-1.771
X8.452Y-3.531
X8.456Y-3.706
X8.473Y-2.898
X8.481Y-2.012
X8.494Y-2.715
X8.504Y-3.391
X8.513Y-2.565
X8.524Y-3.7
X8.532Y-2.141
X8.54Y-2.354
X8.561Y-2.218
X8.561Y-3.148
X8.568Y-3.654
X8.569Y-1.628
X8.574Y-3.709
X8.582Y-3.392
X8.591Y-2.018
X8.598Y-2.463
X8.63Y-3.709
X8.642Y-2.595
X8.648Y-1.794
X8.666Y-3.393
X8.672Y-3.262
X8.682Y-2.529
X8.689Y-3.712
X8.692Y-2.025
X8.711Y-2.842
X8.733Y-2.153
X8.734Y-3.394
X8.739Y-2.415
X8.747Y-3.713
X8.765Y-1.593
X8.777Y-2.03
X8.784Y-2.541
X8.787Y-1.795
X8.799Y-2.478
X8.801Y-3.712
X8.804Y-3.083
X8.811Y-3.396
X8.816Y-3.742
X8.828Y-3.288
X8.833Y-3.463
X8.833Y-3.518
X8.846Y-2.846
X8.858Y-2.155
X8.861Y-2.026
X8.903Y-1.792
X8.943Y-3.566
X8.944Y-3.344
X8.95Y-2.486
X8.958Y-2.148
X8.96Y-2.063
X8.961Y-1.622
X8.964Y-2.298
X8.967Y-3.669
X9.0Y-1.876
X9.022Y-3.522
X9.041Y-2.487
X9.042Y-1.732
X9.048Y-3.639
X9.062Y-3.402
X9.11Y-3.524
X9.111Y-1.963
X9.114Y-2.836
X9.121Y-3.633
X9.134Y-2.575
X9.144Y-1.838
X9.16Y-2.362
X9.166Y-2.261
X9.17Y-2.046
X9.177Y-3.52
X9.187Y-2.145
X9.1925Y-3.1115
X9.193Y-3.632
X9.22Y-2.585
X9.237Y-1.914
X9.257Y-2.76
X9.263Y-3.521
X9.279Y-3.634
X9.303Y-2.469
X9.33Y-2.006
X9.331Y-2.404
X9.333Y-2.307
X9.348Y-3.513
X9.36Y-2.138
X9.365Y-2.791
X9.365Y-3.224
X9.366Y-2.206
X9.368Y-3.639
X9.368Y-3.736
X9.369Y-4.368
X9.373Y-2.316
X9.373Y-4.068
X9.379Y-3.893
X9.379Y-4.244
X9.387Y-2.592
X9.402Y-2.413
X9.412Y-3.635
X9.414Y-3.525
X9.423Y-2.263
X9.436Y-2.334
X9.476Y-3.115
X9.489Y-4.383
X9.497Y-2.602
X9.516Y-2.791
X9.529Y-3.574
X9.535Y-2.978
X9.537Y-2.924
X9.537Y-3.207
X9.568Y-4.207
X9.58Y-3.261
X9.587Y-4.012
X9.592Y-4.36
X9.621Y-3.051
X9.633Y-2.795
X9.656Y-2.598
X9.685Y-2.928
X9.709Y-3.132
X9.729Y-3.454
X9.74Y-2.6
X9.753Y-3.878
X9.761Y-2.759
X9.796Y-2.943
X9.814Y-3.48
X9.825Y-3.267
X9.828Y-2.646
X9.832Y-3.139
X9.851Y-3.754
X9.882Y-3.016
X9.89Y-3.877
X9.892Y-4.159
X9.898Y-3.699
X9.903Y-3.223
X9.906Y-4.035
X9.926Y-2.751
X9.947Y-3.279
X9.98Y-3.107
X10.0Y-3.507
X10.014Y-4.081
X10.014Y-4.297
X10.015Y-3.767
X10.015Y-3.951
X10.037Y-2.845
X10.04Y-4.201
X10.095Y-3.215
X10.101Y-3.74
X10.106Y-4.397
X10.119Y-3.624
X10.135Y-4.303
X10.138Y-2.936
X10.194Y-3.363
X10.204Y-3.519
X10.205Y-3.008
X10.222Y-3.71
X10.228Y-4.521
X10.236Y-3.119
X10.241Y-4.41
X10.283Y-3.634
X10.283Y-4.11
X10.283Y-4.297
X10.293Y-3.904
X10.296Y-3.485
X10.305Y-4.593
X10.313Y-3.779
X10.32Y-4.481
X10.325Y-3.26
X10.348Y-3.341
X10.384Y-3.45
X10.402Y-3.224
X10.482Y-4.497
X10.491Y-4.136
X10.496Y-3.893
X10.498Y-3.602
T2
X8.996Y-3.261
X9.1Y-3.2085
X9.3737Y-2.8954
X9.4356Y-3.3975
X9.5334Y-3.9193
X9.7256Y-3.2635
X9.7853Y-3.3773
X10.1745Y-3.2285
X10.2067Y-3.2059
T3
X9.471Y-3.5221
X9.471Y-3.5721
X9.471Y-3.6221
X9.471Y-3.6721
X9.471Y-3.7221
X9.471Y-3.7721
X9.471Y-3.8221
X9.471Y-3.8721
X9.471Y-3.9221
X9.471Y-3.9721
X9.471Y-4.0221
X9.471Y-4.0721
X9.471Y-4.1221
X9.471Y-4.1721
X9.471Y-4.2221
X9.471Y-4.2721
X10.371Y-3.5221
X10.371Y-3.5721
X10.371Y-3.6221
X10.371Y-3.6721
X10.371Y-3.7221
X10.371Y-3.7721
X10.371Y-3.8221
X10.371Y-3.8721
X10.371Y-3.9221
X10.371Y-3.9721
X10.371Y-4.0221
X10.371Y-4.0721
X10.371Y-4.1221
X10.371Y-4.1721
X10.371Y-4.2221
X10.371Y-4.2721
X10.371Y-4.3221
X10.371Y-4.3721
X10.371Y-4.4221
X10.371Y-4.4721
X10.371Y-4.5221
X10.371Y-4.5721
X10.371Y-4.6221
X10.371Y-4.6721
T4
X8.583Y-2.686
X8.583Y-2.986
X8.683Y-2.686
X8.683Y-2.986
X8.783Y-2.686
X8.783Y-2.986
X8.883Y-2.686
X8.883Y-2.986
X8.983Y-2.686
X8.983Y-2.986
X9.083Y-2.686
X9.083Y-2.986
X9.183Y-2.686
X9.183Y-2.986
X9.283Y-2.686
X9.283Y-2.986
X9.383Y-2.686
X9.383Y-2.986
T0
M30
