%TF.GenerationSoftware,KiCad,Pcbnew,(5.1.8)-1*%
%TF.CreationDate,2020-12-26T14:40:12+03:00*%
%TF.ProjectId,mesp240_opll,6d657370-3234-4305-9f6f-706c6c2e6b69,rev?*%
%TF.SameCoordinates,Original*%
%TF.FileFunction,Profile,NP*%
%FSLAX46Y46*%
G04 Gerber Fmt 4.6, Leading zero omitted, Abs format (unit mm)*
G04 Created by KiCad (PCBNEW (5.1.8)-1) date 2020-12-26 14:40:12*
%MOMM*%
%LPD*%
G01*
G04 APERTURE LIST*
%TA.AperFunction,Profile*%
%ADD10C,0.100000*%
%TD*%
G04 APERTURE END LIST*
D10*
X269641320Y-131455160D02*
X269841980Y-130144520D01*
X269372080Y-132608320D02*
X269641320Y-131455160D01*
X268897100Y-134109460D02*
X269372080Y-132608320D01*
X268541500Y-134868920D02*
X268897100Y-134109460D01*
X267860780Y-136093200D02*
X268541500Y-134868920D01*
X266954000Y-137454640D02*
X267860780Y-136093200D01*
X266303760Y-138226800D02*
X266954000Y-137454640D01*
X265630660Y-138912600D02*
X266303760Y-138226800D01*
X264340340Y-140096240D02*
X265630660Y-138912600D01*
X262928100Y-141264640D02*
X264340340Y-140096240D01*
X262255000Y-141762480D02*
X262928100Y-141264640D01*
X261048500Y-142524480D02*
X262255000Y-141762480D01*
X260126480Y-142989300D02*
X261048500Y-142524480D01*
X259085080Y-143515080D02*
X260126480Y-142989300D01*
X257776980Y-144043400D02*
X259085080Y-143515080D01*
X256397760Y-144556480D02*
X257776980Y-144043400D01*
X254546100Y-145064480D02*
X256397760Y-144556480D01*
X183680100Y-156773880D02*
X254546100Y-145064480D01*
X182880000Y-156852620D02*
X183680100Y-156773880D01*
X181310280Y-156949140D02*
X182880000Y-156852620D01*
X179438300Y-157007560D02*
X181310280Y-156949140D01*
X177528220Y-156923740D02*
X179438300Y-157007560D01*
X176192180Y-156817060D02*
X177528220Y-156923740D01*
X174249080Y-156453840D02*
X176192180Y-156817060D01*
X172382180Y-155811220D02*
X174249080Y-156453840D01*
X170754040Y-155064460D02*
X172382180Y-155811220D01*
X169786300Y-154520900D02*
X170754040Y-155064460D01*
X168346120Y-153400760D02*
X169786300Y-154520900D01*
X167177720Y-152313640D02*
X168346120Y-153400760D01*
X166390320Y-151340820D02*
X167177720Y-152313640D01*
X165719760Y-150362920D02*
X166390320Y-151340820D01*
X165064440Y-149164040D02*
X165719760Y-150362920D01*
X164627560Y-147998180D02*
X165064440Y-149164040D01*
X164264340Y-146786600D02*
X164627560Y-147998180D01*
X164177980Y-145343880D02*
X164264340Y-146786600D01*
X164221160Y-143918940D02*
X164177980Y-145343880D01*
X164409120Y-142425420D02*
X164221160Y-143918940D01*
X164721540Y-141236700D02*
X164409120Y-142425420D01*
X165054280Y-140141960D02*
X164721540Y-141236700D01*
X165544500Y-139070080D02*
X165054280Y-140141960D01*
X166146480Y-138000740D02*
X165544500Y-139070080D01*
X166829740Y-136946640D02*
X166146480Y-138000740D01*
X167429180Y-136177020D02*
X166829740Y-136946640D01*
X168023540Y-135478520D02*
X167429180Y-136177020D01*
X168689020Y-134780020D02*
X168023540Y-135478520D01*
X169372280Y-134119620D02*
X168689020Y-134780020D01*
X170055540Y-133535420D02*
X169372280Y-134119620D01*
X170822620Y-132951220D02*
X170055540Y-133535420D01*
X171930060Y-132217160D02*
X170822620Y-132951220D01*
X172948600Y-131599940D02*
X171930060Y-132217160D01*
X174091600Y-130975100D02*
X172948600Y-131599940D01*
X175216820Y-130441700D02*
X174091600Y-130975100D01*
X176255680Y-130037840D02*
X175216820Y-130441700D01*
X177566320Y-129573020D02*
X176255680Y-130037840D01*
X178521360Y-129283460D02*
X177566320Y-129573020D01*
X179710080Y-129009140D02*
X178521360Y-129283460D01*
X181160420Y-128742440D02*
X179710080Y-129009140D01*
X182758080Y-128628140D02*
X181160420Y-128742440D01*
X184134760Y-128582420D02*
X182758080Y-128628140D01*
X185587640Y-128602740D02*
X184134760Y-128582420D01*
X186682380Y-128658620D02*
X185587640Y-128602740D01*
X187459620Y-128714500D02*
X186682380Y-128658620D01*
X188678820Y-128899920D02*
X187459620Y-128714500D01*
X189435740Y-129105660D02*
X188678820Y-128899920D01*
X190220600Y-129298700D02*
X189435740Y-129105660D01*
X191005460Y-129565400D02*
X190220600Y-129298700D01*
X191813180Y-129898140D02*
X191005460Y-129565400D01*
X192430400Y-130157220D02*
X191813180Y-129898140D01*
X192999360Y-130431540D02*
X192430400Y-130157220D01*
X193581020Y-130756660D02*
X192999360Y-130431540D01*
X194355720Y-131229100D02*
X193581020Y-130756660D01*
X195051680Y-131686300D02*
X194355720Y-131229100D01*
X195691760Y-132087620D02*
X195051680Y-131686300D01*
X195691760Y-44800520D02*
X195691760Y-132087620D01*
X269841980Y-27607260D02*
X269841980Y-130144520D01*
X195691760Y-44800520D02*
X269841980Y-27607260D01*
M02*
