%TF.GenerationSoftware,KiCad,Pcbnew,(5.99.0-11763-gc80efb0f98)*%
%TF.CreationDate,2021-08-20T23:21:00+03:00*%
%TF.ProjectId,mesp240_3Dpad,6d657370-3234-4305-9f33-447061642e6b,rev?*%
%TF.SameCoordinates,Original*%
%TF.FileFunction,Profile,NP*%
%FSLAX46Y46*%
G04 Gerber Fmt 4.6, Leading zero omitted, Abs format (unit mm)*
G04 Created by KiCad (PCBNEW (5.99.0-11763-gc80efb0f98)) date 2021-08-20 23:21:00*
%MOMM*%
%LPD*%
G01*
G04 APERTURE LIST*
%TA.AperFunction,Profile*%
%ADD10C,0.050000*%
%TD*%
G04 APERTURE END LIST*
D10*
X185039000Y-150495000D02*
X187325000Y-153035000D01*
X221107000Y-106807000D02*
X223520000Y-114300000D01*
X185293000Y-70866000D02*
X187706000Y-71247000D01*
X230632000Y-175387000D02*
X229870000Y-178435000D01*
X231521000Y-167259000D02*
X231267000Y-171069000D01*
X209613500Y-83439000D02*
X213487000Y-88646000D01*
X207264000Y-80518000D02*
X208788000Y-82296000D01*
X198501000Y-74676000D02*
X201803000Y-76327000D01*
X179324000Y-70993000D02*
X176022000Y-71501000D01*
X184150000Y-70802500D02*
X185293000Y-70866000D01*
X160845500Y-150050500D02*
X159385000Y-149225000D01*
X176847500Y-150876000D02*
X177800000Y-150495000D01*
X106299000Y-151320500D02*
X105092500Y-150876000D01*
X108013500Y-151828500D02*
X106299000Y-151320500D01*
X105092500Y-150876000D02*
X104140000Y-150495000D01*
X96647000Y-70866000D02*
X94234000Y-71247000D01*
X96901000Y-150495000D02*
X94615000Y-153035000D01*
X99695000Y-147955000D02*
X98425000Y-148971000D01*
X51308000Y-175387000D02*
X52070000Y-178435000D01*
X50800000Y-154940000D02*
X50546000Y-162306000D01*
X50419000Y-165481000D02*
X50419000Y-167259000D01*
X50673000Y-171069000D02*
X51308000Y-175387000D01*
X68453000Y-88646000D02*
X65405000Y-93853000D01*
X63246000Y-99187000D02*
X60833000Y-106807000D01*
X109220000Y-72390000D02*
X105918000Y-71501000D01*
X98425000Y-148971000D02*
X96901000Y-150495000D01*
X65405000Y-93853000D02*
X63246000Y-99187000D01*
X60833000Y-106807000D02*
X58420000Y-114300000D01*
X80137000Y-76327000D02*
X76581000Y-78740000D01*
X85471000Y-73787000D02*
X83439000Y-74676000D01*
X100711000Y-70802500D02*
X102616000Y-70993000D01*
X109537500Y-152146000D02*
X108013500Y-151828500D01*
X72326500Y-83439000D02*
X68453000Y-88646000D01*
X102616000Y-70993000D02*
X105918000Y-71501000D01*
X99441000Y-70739000D02*
X97790000Y-70802500D01*
X113792000Y-152273000D02*
X116014500Y-151892000D01*
X97790000Y-70802500D02*
X96647000Y-70866000D01*
X73152000Y-82296000D02*
X72326500Y-83439000D01*
X94234000Y-71247000D02*
X88773000Y-72771000D01*
X50546000Y-162306000D02*
X50419000Y-165481000D01*
X118808500Y-151130000D02*
X119761000Y-150749000D01*
X111950500Y-152400000D02*
X110871000Y-152336500D01*
X110871000Y-152336500D02*
X109537500Y-152146000D01*
X88773000Y-72771000D02*
X85471000Y-73787000D01*
X83439000Y-74676000D02*
X80137000Y-76327000D01*
X116014500Y-151892000D02*
X117602000Y-151511000D01*
X117602000Y-151511000D02*
X118808500Y-151130000D01*
X76581000Y-78740000D02*
X74676000Y-80518000D01*
X100711000Y-70802500D02*
X99441000Y-70739000D01*
X50419000Y-167259000D02*
X50673000Y-171069000D01*
X74676000Y-80518000D02*
X73152000Y-82296000D01*
X111950500Y-152400000D02*
X113792000Y-152273000D01*
X119761000Y-150749000D02*
X121094500Y-150050500D01*
X121094500Y-150050500D02*
X122555000Y-149225000D01*
X67945000Y-187960000D02*
X70485000Y-187325000D01*
X63500000Y-187960000D02*
X65405000Y-187960000D01*
X60960000Y-187325000D02*
X63500000Y-187960000D01*
X53340000Y-180975000D02*
X55245000Y-183515000D01*
X70485000Y-187325000D02*
X73025000Y-186055000D01*
X65405000Y-187960000D02*
X67945000Y-187960000D01*
X52070000Y-178435000D02*
X53340000Y-180975000D01*
X55245000Y-183515000D02*
X56515000Y-184785000D01*
X56515000Y-184785000D02*
X58420000Y-186055000D01*
X137795000Y-145415000D02*
X140970000Y-145415000D01*
X75565000Y-184150000D02*
X78740000Y-180340000D01*
X127000000Y-145415000D02*
X137795000Y-145415000D01*
X58420000Y-186055000D02*
X60960000Y-187325000D01*
X99695000Y-147955000D02*
X101600000Y-149225000D01*
X92075000Y-156845000D02*
X94615000Y-153035000D01*
X122555000Y-149225000D02*
X125095000Y-147320000D01*
X125095000Y-147320000D02*
X127000000Y-145415000D01*
X101600000Y-149225000D02*
X104140000Y-150495000D01*
X85725000Y-168910000D02*
X92075000Y-156845000D01*
X81915000Y-175895000D02*
X85725000Y-168910000D01*
X78740000Y-180340000D02*
X81915000Y-175895000D01*
X73025000Y-186055000D02*
X75565000Y-184150000D01*
X52070000Y-144780000D02*
X50800000Y-154940000D01*
X140970000Y-72390000D02*
X109220000Y-72390000D01*
X54610000Y-129540000D02*
X52070000Y-144780000D01*
X58420000Y-114300000D02*
X54610000Y-129540000D01*
X156845000Y-147320000D02*
X154940000Y-145415000D01*
X211455000Y-187325000D02*
X208915000Y-186055000D01*
X164338000Y-151511000D02*
X163131500Y-151130000D01*
X189865000Y-156845000D02*
X187325000Y-153035000D01*
X231267000Y-171069000D02*
X230632000Y-175387000D01*
X229870000Y-178435000D02*
X228600000Y-180975000D01*
X181229000Y-70802500D02*
X179324000Y-70993000D01*
X181229000Y-70802500D02*
X182499000Y-70739000D01*
X173926500Y-151828500D02*
X175641000Y-151320500D01*
X182499000Y-70739000D02*
X184150000Y-70802500D01*
X172402500Y-152146000D02*
X173926500Y-151828500D01*
X162179000Y-150749000D02*
X160845500Y-150050500D01*
X196469000Y-73787000D02*
X198501000Y-74676000D01*
X216535000Y-187960000D02*
X213995000Y-187960000D01*
X169989500Y-152400000D02*
X171069000Y-152336500D01*
X159385000Y-149225000D02*
X156845000Y-147320000D01*
X182245000Y-147955000D02*
X183515000Y-148971000D01*
X163131500Y-151130000D02*
X162179000Y-150749000D01*
X213487000Y-88646000D02*
X216535000Y-93853000D01*
X182245000Y-147955000D02*
X180340000Y-149225000D01*
X206375000Y-184150000D02*
X203200000Y-180340000D01*
X203200000Y-180340000D02*
X200025000Y-175895000D01*
X229870000Y-144780000D02*
X231140000Y-154940000D01*
X213995000Y-187960000D02*
X211455000Y-187325000D01*
X196215000Y-168910000D02*
X189865000Y-156845000D01*
X223520000Y-114300000D02*
X227330000Y-129540000D01*
X216535000Y-93853000D02*
X218694000Y-99187000D01*
X183515000Y-148971000D02*
X185039000Y-150495000D01*
X193167000Y-72771000D02*
X196469000Y-73787000D01*
X205359000Y-78740000D02*
X207264000Y-80518000D01*
X154940000Y-145415000D02*
X144145000Y-145415000D01*
X200025000Y-175895000D02*
X196215000Y-168910000D01*
X208915000Y-186055000D02*
X206375000Y-184150000D01*
X169989500Y-152400000D02*
X168148000Y-152273000D01*
X175641000Y-151320500D02*
X176847500Y-150876000D01*
X228600000Y-180975000D02*
X226695000Y-183515000D01*
X208788000Y-82296000D02*
X209613500Y-83439000D01*
X220980000Y-187325000D02*
X218440000Y-187960000D01*
X144145000Y-145415000D02*
X140970000Y-145415000D01*
X231140000Y-154940000D02*
X231394000Y-162306000D01*
X171069000Y-152336500D02*
X172402500Y-152146000D01*
X231521000Y-165481000D02*
X231521000Y-167259000D01*
X227330000Y-129540000D02*
X229870000Y-144780000D01*
X201803000Y-76327000D02*
X205359000Y-78740000D01*
X231394000Y-162306000D02*
X231521000Y-165481000D01*
X165925500Y-151892000D02*
X164338000Y-151511000D01*
X140970000Y-72390000D02*
X172720000Y-72390000D01*
X168148000Y-152273000D02*
X165925500Y-151892000D01*
X187706000Y-71247000D02*
X193167000Y-72771000D01*
X225425000Y-184785000D02*
X223520000Y-186055000D01*
X223520000Y-186055000D02*
X220980000Y-187325000D01*
X180340000Y-149225000D02*
X177800000Y-150495000D01*
X172720000Y-72390000D02*
X176022000Y-71501000D01*
X218694000Y-99187000D02*
X221107000Y-106807000D01*
X218440000Y-187960000D02*
X216535000Y-187960000D01*
X226695000Y-183515000D02*
X225425000Y-184785000D01*
M02*
